M48
; DRILL file {KiCad 7.0.5} date Sat Aug 12 18:12:24 2023
; FORMAT={-:-/ absolute / inch / decimal}
; #@! TF.CreationDate,2023-08-12T18:12:24-04:00
; #@! TF.GenerationSoftware,Kicad,Pcbnew,7.0.5
; #@! TF.FileFunction,Plated,1,2,PTH
FMAT,2
INCH
; #@! TA.AperFunction,Plated,PTH,ViaDrill
T1C0.0157
; #@! TA.AperFunction,Plated,PTH,ComponentDrill
T2C0.0433
; #@! TA.AperFunction,Plated,PTH,ComponentDrill
T3C0.0500
%
G90
G05
T1
X4.622Y-1.3543
X4.68Y-1.8999
X4.68Y-2.15
X5.07Y-2.43
X5.07Y-2.54
T2
X2.185Y-1.437
X2.185Y-1.6929
X2.3622Y-1.437
X2.3622Y-1.6929
X2.5787Y-1.437
X2.5787Y-1.6929
X2.7559Y-1.437
X2.7559Y-1.6929
X2.9724Y-1.437
X2.9724Y-1.6929
X3.1496Y-1.437
X3.1496Y-1.6929
X3.4843Y-1.437
X3.4843Y-1.6929
X3.6614Y-1.437
X3.6614Y-1.6929
X3.878Y-1.437
X3.878Y-1.6929
X4.0551Y-1.437
X4.0551Y-1.6929
X4.2717Y-1.437
X4.2717Y-1.6929
X4.4488Y-1.437
X4.4488Y-1.6929
T3
X2.0955Y-2.7106
X2.2923Y-2.7933
X3.2409Y-2.7154
X3.4378Y-2.798
X4.2882Y-3.1622
X4.485Y-3.2449
X4.9772Y-5.2528
X5.174Y-5.3354
X5.4429Y-3.935
X5.6398Y-4.0177
X5.6638Y-2.713
X5.8606Y-2.7957
X6.2631Y-4.7296
X6.46Y-4.8123
X6.4906Y-3.4976
X6.6874Y-3.5803
X6.7094Y-2.2591
X6.9063Y-2.3417
X7.4495Y-4.7396
X7.6264Y-3.4976
X7.6464Y-4.8223
X7.8232Y-3.5803
X7.85Y-2.2543
X8.0469Y-2.337
X8.7764Y-3.4976
X8.9732Y-3.5803
X8.9906Y-2.2638
X9.1874Y-2.3465
T0
M30
