%TF.GenerationSoftware,KiCad,Pcbnew,7.0.5*%
%TF.CreationDate,2023-08-12T18:12:26-04:00*%
%TF.ProjectId,Flatbox-rev5B,466c6174-626f-4782-9d72-657635422e6b,rev?*%
%TF.SameCoordinates,Original*%
%TF.FileFunction,Drillmap*%
%TF.FilePolarity,Positive*%
%FSLAX45Y45*%
G04 Gerber Fmt 4.5, Leading zero omitted, Abs format (unit mm)*
G04 Created by KiCad (PCBNEW 7.0.5) date 2023-08-12 18:12:26*
%MOMM*%
%LPD*%
G01*
G04 APERTURE LIST*
%ADD10C,0.050000*%
%ADD11C,0.200000*%
%ADD12C,0.170180*%
%ADD13C,0.300000*%
%ADD14C,0.342900*%
%ADD15C,0.640000*%
G04 APERTURE END LIST*
D10*
X25000000Y-3500000D02*
X25000000Y-14500000D01*
X24500000Y-15000000D02*
X4500000Y-15000000D01*
X4000000Y-14500000D02*
X4000000Y-3500000D01*
X4500000Y-3000000D02*
X12200000Y-3000000D01*
X13600000Y-3000000D02*
X24500000Y-3000000D01*
X12200000Y-3000000D02*
X12200000Y-5150000D01*
X4500000Y-3000000D02*
G75*
G03*
X4000000Y-3500000I0J-500000D01*
G01*
X13600000Y-5150000D02*
X13600000Y-3000000D01*
X4000000Y-14500000D02*
G75*
G03*
X4500000Y-15000000I500000J0D01*
G01*
X24500000Y-15000000D02*
G75*
G03*
X25000000Y-14500000I0J500000D01*
G01*
X25000000Y-3500000D02*
G75*
G03*
X24500000Y-3000000I-500000J0D01*
G01*
X12200000Y-5150000D02*
X13600000Y-5150000D01*
D11*
D12*
X5187410Y-6419910D02*
X5357590Y-6590090D01*
X5357590Y-6419910D02*
X5187410Y-6590090D01*
X6287410Y-6419910D02*
X6457590Y-6590090D01*
X6457590Y-6419910D02*
X6287410Y-6590090D01*
X8096910Y-6431910D02*
X8267090Y-6602090D01*
X8267090Y-6431910D02*
X8096910Y-6602090D01*
X9196910Y-6431910D02*
X9367090Y-6602090D01*
X9367090Y-6431910D02*
X9196910Y-6602090D01*
X10756910Y-7566910D02*
X10927090Y-7737090D01*
X10927090Y-7566910D02*
X10756910Y-7737090D01*
X11856910Y-7566910D02*
X12027090Y-7737090D01*
X12027090Y-7566910D02*
X11856910Y-7737090D01*
X12506910Y-12876910D02*
X12677090Y-13047090D01*
X12677090Y-12876910D02*
X12506910Y-13047090D01*
X13606910Y-12876910D02*
X13777090Y-13047090D01*
X13777090Y-12876910D02*
X13606910Y-13047090D01*
X13689910Y-9529910D02*
X13860090Y-9700090D01*
X13860090Y-9529910D02*
X13689910Y-9700090D01*
X14250910Y-6425910D02*
X14421090Y-6596090D01*
X14421090Y-6425910D02*
X14250910Y-6596090D01*
X14789910Y-9529910D02*
X14960090Y-9700090D01*
X14960090Y-9529910D02*
X14789910Y-9700090D01*
X15350910Y-6425910D02*
X15521090Y-6596090D01*
X15521090Y-6425910D02*
X15350910Y-6596090D01*
X15773310Y-11548110D02*
X15943490Y-11718290D01*
X15943490Y-11548110D02*
X15773310Y-11718290D01*
X16350910Y-8418910D02*
X16521090Y-8589090D01*
X16521090Y-8418910D02*
X16350910Y-8589090D01*
X16873310Y-11548110D02*
X17043490Y-11718290D01*
X17043490Y-11548110D02*
X16873310Y-11718290D01*
X16906910Y-5272910D02*
X17077090Y-5443090D01*
X17077090Y-5272910D02*
X16906910Y-5443090D01*
X17450910Y-8418910D02*
X17621090Y-8589090D01*
X17621090Y-8418910D02*
X17450910Y-8589090D01*
X18006910Y-5272910D02*
X18177090Y-5443090D01*
X18177090Y-5272910D02*
X18006910Y-5443090D01*
X18786721Y-11573510D02*
X18956901Y-11743690D01*
X18956901Y-11573510D02*
X18786721Y-11743690D01*
X19235910Y-8418910D02*
X19406090Y-8589090D01*
X19406090Y-8418910D02*
X19235910Y-8589090D01*
X19803910Y-5260910D02*
X19974090Y-5431090D01*
X19974090Y-5260910D02*
X19803910Y-5431090D01*
X19886721Y-11573510D02*
X20056901Y-11743690D01*
X20056901Y-11573510D02*
X19886721Y-11743690D01*
X20335910Y-8418910D02*
X20506090Y-8589090D01*
X20506090Y-8418910D02*
X20335910Y-8589090D01*
X20903910Y-5260910D02*
X21074090Y-5431090D01*
X21074090Y-5260910D02*
X20903910Y-5431090D01*
X22156910Y-8418910D02*
X22327090Y-8589090D01*
X22327090Y-8418910D02*
X22156910Y-8589090D01*
X22700910Y-5284910D02*
X22871090Y-5455090D01*
X22871090Y-5284910D02*
X22700910Y-5455090D01*
X23256910Y-8418910D02*
X23427090Y-8589090D01*
X23427090Y-8418910D02*
X23256910Y-8589090D01*
X23800910Y-5284910D02*
X23971090Y-5455090D01*
X23971090Y-5284910D02*
X23800910Y-5455090D01*
D13*
X5972500Y-5910000D02*
G75*
G03*
X5972500Y-5910000I-150000J0D01*
G01*
X6472500Y-6130000D02*
G75*
G03*
X6472500Y-6130000I-150000J0D01*
G01*
X8882000Y-5922000D02*
G75*
G03*
X8882000Y-5922000I-150000J0D01*
G01*
X9382000Y-6142000D02*
G75*
G03*
X9382000Y-6142000I-150000J0D01*
G01*
X11542000Y-7057000D02*
G75*
G03*
X11542000Y-7057000I-150000J0D01*
G01*
X12042000Y-7277000D02*
G75*
G03*
X12042000Y-7277000I-150000J0D01*
G01*
X13292000Y-12367000D02*
G75*
G03*
X13292000Y-12367000I-150000J0D01*
G01*
X13792000Y-12587000D02*
G75*
G03*
X13792000Y-12587000I-150000J0D01*
G01*
X14475000Y-9020000D02*
G75*
G03*
X14475000Y-9020000I-150000J0D01*
G01*
X14975000Y-9240000D02*
G75*
G03*
X14975000Y-9240000I-150000J0D01*
G01*
X15036000Y-5916000D02*
G75*
G03*
X15036000Y-5916000I-150000J0D01*
G01*
X15536000Y-6136000D02*
G75*
G03*
X15536000Y-6136000I-150000J0D01*
G01*
X16558400Y-11038200D02*
G75*
G03*
X16558400Y-11038200I-150000J0D01*
G01*
X17058400Y-11258200D02*
G75*
G03*
X17058400Y-11258200I-150000J0D01*
G01*
X17136000Y-7909000D02*
G75*
G03*
X17136000Y-7909000I-150000J0D01*
G01*
X17636000Y-8129000D02*
G75*
G03*
X17636000Y-8129000I-150000J0D01*
G01*
X17692000Y-4763000D02*
G75*
G03*
X17692000Y-4763000I-150000J0D01*
G01*
X18192000Y-4983000D02*
G75*
G03*
X18192000Y-4983000I-150000J0D01*
G01*
X19571811Y-11063600D02*
G75*
G03*
X19571811Y-11063600I-150000J0D01*
G01*
X20021000Y-7909000D02*
G75*
G03*
X20021000Y-7909000I-150000J0D01*
G01*
X20071811Y-11283600D02*
G75*
G03*
X20071811Y-11283600I-150000J0D01*
G01*
X20521000Y-8129000D02*
G75*
G03*
X20521000Y-8129000I-150000J0D01*
G01*
X20589000Y-4751000D02*
G75*
G03*
X20589000Y-4751000I-150000J0D01*
G01*
X21089000Y-4971000D02*
G75*
G03*
X21089000Y-4971000I-150000J0D01*
G01*
X22942000Y-7909000D02*
G75*
G03*
X22942000Y-7909000I-150000J0D01*
G01*
X23442000Y-8129000D02*
G75*
G03*
X23442000Y-8129000I-150000J0D01*
G01*
X23486000Y-4775000D02*
G75*
G03*
X23486000Y-4775000I-150000J0D01*
G01*
X23986000Y-4995000D02*
G75*
G03*
X23986000Y-4995000I-150000J0D01*
G01*
D14*
X5822500Y-6333550D02*
X5822500Y-6676450D01*
X5651050Y-6505000D02*
X5993950Y-6505000D01*
X8732000Y-6345550D02*
X8732000Y-6688450D01*
X8560550Y-6517000D02*
X8903450Y-6517000D01*
X11392000Y-7480550D02*
X11392000Y-7823450D01*
X11220550Y-7652000D02*
X11563450Y-7652000D01*
X13142000Y-12790550D02*
X13142000Y-13133450D01*
X12970550Y-12962000D02*
X13313450Y-12962000D01*
X14325000Y-9443550D02*
X14325000Y-9786450D01*
X14153550Y-9615000D02*
X14496450Y-9615000D01*
X14886000Y-6339550D02*
X14886000Y-6682450D01*
X14714550Y-6511000D02*
X15057450Y-6511000D01*
X16408400Y-11461750D02*
X16408400Y-11804650D01*
X16236950Y-11633200D02*
X16579850Y-11633200D01*
X16986000Y-8332550D02*
X16986000Y-8675450D01*
X16814550Y-8504000D02*
X17157450Y-8504000D01*
X17542000Y-5186550D02*
X17542000Y-5529450D01*
X17370550Y-5358000D02*
X17713450Y-5358000D01*
X19421811Y-11487150D02*
X19421811Y-11830050D01*
X19250361Y-11658600D02*
X19593261Y-11658600D01*
X19871000Y-8332550D02*
X19871000Y-8675450D01*
X19699550Y-8504000D02*
X20042450Y-8504000D01*
X20439000Y-5174550D02*
X20439000Y-5517450D01*
X20267550Y-5346000D02*
X20610450Y-5346000D01*
X22792000Y-8332550D02*
X22792000Y-8675450D01*
X22620550Y-8504000D02*
X22963450Y-8504000D01*
X23336000Y-5198550D02*
X23336000Y-5541450D01*
X23164550Y-5370000D02*
X23507450Y-5370000D01*
D15*
X4926276Y-3926276D02*
X4926276Y-3473724D01*
X4473724Y-3473724D01*
X4473724Y-3926276D01*
X4926276Y-3926276D01*
X4926276Y-14526276D02*
X4926276Y-14073724D01*
X4473724Y-14073724D01*
X4473724Y-14526276D01*
X4926276Y-14526276D01*
X13576276Y-8026276D02*
X13576276Y-7573724D01*
X13123724Y-7573724D01*
X13123724Y-8026276D01*
X13576276Y-8026276D01*
X15226276Y-3926276D02*
X15226276Y-3473724D01*
X14773724Y-3473724D01*
X14773724Y-3926276D01*
X15226276Y-3926276D01*
X15226276Y-14526276D02*
X15226276Y-14073724D01*
X14773724Y-14073724D01*
X14773724Y-14526276D01*
X15226276Y-14526276D01*
X24526276Y-3926276D02*
X24526276Y-3473724D01*
X24073724Y-3473724D01*
X24073724Y-3926276D01*
X24526276Y-3926276D01*
X24526276Y-14526276D02*
X24526276Y-14073724D01*
X24073724Y-14073724D01*
X24073724Y-14526276D01*
X24526276Y-14526276D01*
D11*
X4258277Y-15313984D02*
X4258277Y-15113984D01*
X4258277Y-15113984D02*
X4305896Y-15113984D01*
X4305896Y-15113984D02*
X4334467Y-15123508D01*
X4334467Y-15123508D02*
X4353515Y-15142555D01*
X4353515Y-15142555D02*
X4363039Y-15161603D01*
X4363039Y-15161603D02*
X4372563Y-15199698D01*
X4372563Y-15199698D02*
X4372563Y-15228269D01*
X4372563Y-15228269D02*
X4363039Y-15266365D01*
X4363039Y-15266365D02*
X4353515Y-15285412D01*
X4353515Y-15285412D02*
X4334467Y-15304460D01*
X4334467Y-15304460D02*
X4305896Y-15313984D01*
X4305896Y-15313984D02*
X4258277Y-15313984D01*
X4458277Y-15313984D02*
X4458277Y-15180650D01*
X4458277Y-15218746D02*
X4467801Y-15199698D01*
X4467801Y-15199698D02*
X4477324Y-15190174D01*
X4477324Y-15190174D02*
X4496372Y-15180650D01*
X4496372Y-15180650D02*
X4515420Y-15180650D01*
X4582086Y-15313984D02*
X4582086Y-15180650D01*
X4582086Y-15113984D02*
X4572563Y-15123508D01*
X4572563Y-15123508D02*
X4582086Y-15133031D01*
X4582086Y-15133031D02*
X4591610Y-15123508D01*
X4591610Y-15123508D02*
X4582086Y-15113984D01*
X4582086Y-15113984D02*
X4582086Y-15133031D01*
X4705896Y-15313984D02*
X4686848Y-15304460D01*
X4686848Y-15304460D02*
X4677324Y-15285412D01*
X4677324Y-15285412D02*
X4677324Y-15113984D01*
X4810658Y-15313984D02*
X4791610Y-15304460D01*
X4791610Y-15304460D02*
X4782086Y-15285412D01*
X4782086Y-15285412D02*
X4782086Y-15113984D01*
X5039229Y-15313984D02*
X5039229Y-15113984D01*
X5039229Y-15113984D02*
X5105896Y-15256841D01*
X5105896Y-15256841D02*
X5172563Y-15113984D01*
X5172563Y-15113984D02*
X5172563Y-15313984D01*
X5353515Y-15313984D02*
X5353515Y-15209222D01*
X5353515Y-15209222D02*
X5343991Y-15190174D01*
X5343991Y-15190174D02*
X5324944Y-15180650D01*
X5324944Y-15180650D02*
X5286848Y-15180650D01*
X5286848Y-15180650D02*
X5267801Y-15190174D01*
X5353515Y-15304460D02*
X5334467Y-15313984D01*
X5334467Y-15313984D02*
X5286848Y-15313984D01*
X5286848Y-15313984D02*
X5267801Y-15304460D01*
X5267801Y-15304460D02*
X5258277Y-15285412D01*
X5258277Y-15285412D02*
X5258277Y-15266365D01*
X5258277Y-15266365D02*
X5267801Y-15247317D01*
X5267801Y-15247317D02*
X5286848Y-15237793D01*
X5286848Y-15237793D02*
X5334467Y-15237793D01*
X5334467Y-15237793D02*
X5353515Y-15228269D01*
X5448753Y-15180650D02*
X5448753Y-15380650D01*
X5448753Y-15190174D02*
X5467801Y-15180650D01*
X5467801Y-15180650D02*
X5505896Y-15180650D01*
X5505896Y-15180650D02*
X5524944Y-15190174D01*
X5524944Y-15190174D02*
X5534467Y-15199698D01*
X5534467Y-15199698D02*
X5543991Y-15218746D01*
X5543991Y-15218746D02*
X5543991Y-15275888D01*
X5543991Y-15275888D02*
X5534467Y-15294936D01*
X5534467Y-15294936D02*
X5524944Y-15304460D01*
X5524944Y-15304460D02*
X5505896Y-15313984D01*
X5505896Y-15313984D02*
X5467801Y-15313984D01*
X5467801Y-15313984D02*
X5448753Y-15304460D01*
X5629705Y-15294936D02*
X5639229Y-15304460D01*
X5639229Y-15304460D02*
X5629705Y-15313984D01*
X5629705Y-15313984D02*
X5620182Y-15304460D01*
X5620182Y-15304460D02*
X5629705Y-15294936D01*
X5629705Y-15294936D02*
X5629705Y-15313984D01*
X5629705Y-15190174D02*
X5639229Y-15199698D01*
X5639229Y-15199698D02*
X5629705Y-15209222D01*
X5629705Y-15209222D02*
X5620182Y-15199698D01*
X5620182Y-15199698D02*
X5629705Y-15190174D01*
X5629705Y-15190174D02*
X5629705Y-15209222D01*
D12*
X3827320Y-15557410D02*
X3997500Y-15727590D01*
X3997500Y-15557410D02*
X3827320Y-15727590D01*
D11*
X4363039Y-15733984D02*
X4248753Y-15733984D01*
X4305896Y-15733984D02*
X4305896Y-15533984D01*
X4305896Y-15533984D02*
X4286848Y-15562555D01*
X4286848Y-15562555D02*
X4267801Y-15581603D01*
X4267801Y-15581603D02*
X4248753Y-15591127D01*
X4448753Y-15714936D02*
X4458277Y-15724460D01*
X4458277Y-15724460D02*
X4448753Y-15733984D01*
X4448753Y-15733984D02*
X4439229Y-15724460D01*
X4439229Y-15724460D02*
X4448753Y-15714936D01*
X4448753Y-15714936D02*
X4448753Y-15733984D01*
X4524944Y-15533984D02*
X4658277Y-15533984D01*
X4658277Y-15533984D02*
X4572563Y-15733984D01*
X4772563Y-15533984D02*
X4791610Y-15533984D01*
X4791610Y-15533984D02*
X4810658Y-15543508D01*
X4810658Y-15543508D02*
X4820182Y-15553031D01*
X4820182Y-15553031D02*
X4829705Y-15572079D01*
X4829705Y-15572079D02*
X4839229Y-15610174D01*
X4839229Y-15610174D02*
X4839229Y-15657793D01*
X4839229Y-15657793D02*
X4829705Y-15695888D01*
X4829705Y-15695888D02*
X4820182Y-15714936D01*
X4820182Y-15714936D02*
X4810658Y-15724460D01*
X4810658Y-15724460D02*
X4791610Y-15733984D01*
X4791610Y-15733984D02*
X4772563Y-15733984D01*
X4772563Y-15733984D02*
X4753515Y-15724460D01*
X4753515Y-15724460D02*
X4743991Y-15714936D01*
X4743991Y-15714936D02*
X4734467Y-15695888D01*
X4734467Y-15695888D02*
X4724944Y-15657793D01*
X4724944Y-15657793D02*
X4724944Y-15610174D01*
X4724944Y-15610174D02*
X4734467Y-15572079D01*
X4734467Y-15572079D02*
X4743991Y-15553031D01*
X4743991Y-15553031D02*
X4753515Y-15543508D01*
X4753515Y-15543508D02*
X4772563Y-15533984D01*
X4915420Y-15553031D02*
X4924944Y-15543508D01*
X4924944Y-15543508D02*
X4943991Y-15533984D01*
X4943991Y-15533984D02*
X4991610Y-15533984D01*
X4991610Y-15533984D02*
X5010658Y-15543508D01*
X5010658Y-15543508D02*
X5020182Y-15553031D01*
X5020182Y-15553031D02*
X5029705Y-15572079D01*
X5029705Y-15572079D02*
X5029705Y-15591127D01*
X5029705Y-15591127D02*
X5020182Y-15619698D01*
X5020182Y-15619698D02*
X4905896Y-15733984D01*
X4905896Y-15733984D02*
X5029705Y-15733984D01*
X5115420Y-15733984D02*
X5115420Y-15600650D01*
X5115420Y-15619698D02*
X5124944Y-15610174D01*
X5124944Y-15610174D02*
X5143991Y-15600650D01*
X5143991Y-15600650D02*
X5172563Y-15600650D01*
X5172563Y-15600650D02*
X5191610Y-15610174D01*
X5191610Y-15610174D02*
X5201134Y-15629222D01*
X5201134Y-15629222D02*
X5201134Y-15733984D01*
X5201134Y-15629222D02*
X5210658Y-15610174D01*
X5210658Y-15610174D02*
X5229705Y-15600650D01*
X5229705Y-15600650D02*
X5258277Y-15600650D01*
X5258277Y-15600650D02*
X5277325Y-15610174D01*
X5277325Y-15610174D02*
X5286848Y-15629222D01*
X5286848Y-15629222D02*
X5286848Y-15733984D01*
X5382086Y-15733984D02*
X5382086Y-15600650D01*
X5382086Y-15619698D02*
X5391610Y-15610174D01*
X5391610Y-15610174D02*
X5410658Y-15600650D01*
X5410658Y-15600650D02*
X5439229Y-15600650D01*
X5439229Y-15600650D02*
X5458277Y-15610174D01*
X5458277Y-15610174D02*
X5467801Y-15629222D01*
X5467801Y-15629222D02*
X5467801Y-15733984D01*
X5467801Y-15629222D02*
X5477325Y-15610174D01*
X5477325Y-15610174D02*
X5496372Y-15600650D01*
X5496372Y-15600650D02*
X5524944Y-15600650D01*
X5524944Y-15600650D02*
X5543991Y-15610174D01*
X5543991Y-15610174D02*
X5553515Y-15629222D01*
X5553515Y-15629222D02*
X5553515Y-15733984D01*
X5943991Y-15524460D02*
X5772563Y-15781603D01*
X6201134Y-15533984D02*
X6220182Y-15533984D01*
X6220182Y-15533984D02*
X6239229Y-15543508D01*
X6239229Y-15543508D02*
X6248753Y-15553031D01*
X6248753Y-15553031D02*
X6258277Y-15572079D01*
X6258277Y-15572079D02*
X6267801Y-15610174D01*
X6267801Y-15610174D02*
X6267801Y-15657793D01*
X6267801Y-15657793D02*
X6258277Y-15695888D01*
X6258277Y-15695888D02*
X6248753Y-15714936D01*
X6248753Y-15714936D02*
X6239229Y-15724460D01*
X6239229Y-15724460D02*
X6220182Y-15733984D01*
X6220182Y-15733984D02*
X6201134Y-15733984D01*
X6201134Y-15733984D02*
X6182086Y-15724460D01*
X6182086Y-15724460D02*
X6172563Y-15714936D01*
X6172563Y-15714936D02*
X6163039Y-15695888D01*
X6163039Y-15695888D02*
X6153515Y-15657793D01*
X6153515Y-15657793D02*
X6153515Y-15610174D01*
X6153515Y-15610174D02*
X6163039Y-15572079D01*
X6163039Y-15572079D02*
X6172563Y-15553031D01*
X6172563Y-15553031D02*
X6182086Y-15543508D01*
X6182086Y-15543508D02*
X6201134Y-15533984D01*
X6353515Y-15714936D02*
X6363039Y-15724460D01*
X6363039Y-15724460D02*
X6353515Y-15733984D01*
X6353515Y-15733984D02*
X6343991Y-15724460D01*
X6343991Y-15724460D02*
X6353515Y-15714936D01*
X6353515Y-15714936D02*
X6353515Y-15733984D01*
X6486848Y-15533984D02*
X6505896Y-15533984D01*
X6505896Y-15533984D02*
X6524944Y-15543508D01*
X6524944Y-15543508D02*
X6534467Y-15553031D01*
X6534467Y-15553031D02*
X6543991Y-15572079D01*
X6543991Y-15572079D02*
X6553515Y-15610174D01*
X6553515Y-15610174D02*
X6553515Y-15657793D01*
X6553515Y-15657793D02*
X6543991Y-15695888D01*
X6543991Y-15695888D02*
X6534467Y-15714936D01*
X6534467Y-15714936D02*
X6524944Y-15724460D01*
X6524944Y-15724460D02*
X6505896Y-15733984D01*
X6505896Y-15733984D02*
X6486848Y-15733984D01*
X6486848Y-15733984D02*
X6467801Y-15724460D01*
X6467801Y-15724460D02*
X6458277Y-15714936D01*
X6458277Y-15714936D02*
X6448753Y-15695888D01*
X6448753Y-15695888D02*
X6439229Y-15657793D01*
X6439229Y-15657793D02*
X6439229Y-15610174D01*
X6439229Y-15610174D02*
X6448753Y-15572079D01*
X6448753Y-15572079D02*
X6458277Y-15553031D01*
X6458277Y-15553031D02*
X6467801Y-15543508D01*
X6467801Y-15543508D02*
X6486848Y-15533984D01*
X6724944Y-15533984D02*
X6686848Y-15533984D01*
X6686848Y-15533984D02*
X6667801Y-15543508D01*
X6667801Y-15543508D02*
X6658277Y-15553031D01*
X6658277Y-15553031D02*
X6639229Y-15581603D01*
X6639229Y-15581603D02*
X6629706Y-15619698D01*
X6629706Y-15619698D02*
X6629706Y-15695888D01*
X6629706Y-15695888D02*
X6639229Y-15714936D01*
X6639229Y-15714936D02*
X6648753Y-15724460D01*
X6648753Y-15724460D02*
X6667801Y-15733984D01*
X6667801Y-15733984D02*
X6705896Y-15733984D01*
X6705896Y-15733984D02*
X6724944Y-15724460D01*
X6724944Y-15724460D02*
X6734467Y-15714936D01*
X6734467Y-15714936D02*
X6743991Y-15695888D01*
X6743991Y-15695888D02*
X6743991Y-15648269D01*
X6743991Y-15648269D02*
X6734467Y-15629222D01*
X6734467Y-15629222D02*
X6724944Y-15619698D01*
X6724944Y-15619698D02*
X6705896Y-15610174D01*
X6705896Y-15610174D02*
X6667801Y-15610174D01*
X6667801Y-15610174D02*
X6648753Y-15619698D01*
X6648753Y-15619698D02*
X6639229Y-15629222D01*
X6639229Y-15629222D02*
X6629706Y-15648269D01*
X6810658Y-15533984D02*
X6943991Y-15533984D01*
X6943991Y-15533984D02*
X6858277Y-15733984D01*
X7058277Y-15533984D02*
X7077325Y-15533984D01*
X7077325Y-15533984D02*
X7096372Y-15543508D01*
X7096372Y-15543508D02*
X7105896Y-15553031D01*
X7105896Y-15553031D02*
X7115420Y-15572079D01*
X7115420Y-15572079D02*
X7124944Y-15610174D01*
X7124944Y-15610174D02*
X7124944Y-15657793D01*
X7124944Y-15657793D02*
X7115420Y-15695888D01*
X7115420Y-15695888D02*
X7105896Y-15714936D01*
X7105896Y-15714936D02*
X7096372Y-15724460D01*
X7096372Y-15724460D02*
X7077325Y-15733984D01*
X7077325Y-15733984D02*
X7058277Y-15733984D01*
X7058277Y-15733984D02*
X7039229Y-15724460D01*
X7039229Y-15724460D02*
X7029706Y-15714936D01*
X7029706Y-15714936D02*
X7020182Y-15695888D01*
X7020182Y-15695888D02*
X7010658Y-15657793D01*
X7010658Y-15657793D02*
X7010658Y-15610174D01*
X7010658Y-15610174D02*
X7020182Y-15572079D01*
X7020182Y-15572079D02*
X7029706Y-15553031D01*
X7029706Y-15553031D02*
X7039229Y-15543508D01*
X7039229Y-15543508D02*
X7058277Y-15533984D01*
X7201134Y-15533984D02*
X7201134Y-15572079D01*
X7277325Y-15533984D02*
X7277325Y-15572079D01*
X7572563Y-15810174D02*
X7563039Y-15800650D01*
X7563039Y-15800650D02*
X7543991Y-15772079D01*
X7543991Y-15772079D02*
X7534468Y-15753031D01*
X7534468Y-15753031D02*
X7524944Y-15724460D01*
X7524944Y-15724460D02*
X7515420Y-15676841D01*
X7515420Y-15676841D02*
X7515420Y-15638746D01*
X7515420Y-15638746D02*
X7524944Y-15591127D01*
X7524944Y-15591127D02*
X7534468Y-15562555D01*
X7534468Y-15562555D02*
X7543991Y-15543508D01*
X7543991Y-15543508D02*
X7563039Y-15514936D01*
X7563039Y-15514936D02*
X7572563Y-15505412D01*
X7639229Y-15553031D02*
X7648753Y-15543508D01*
X7648753Y-15543508D02*
X7667801Y-15533984D01*
X7667801Y-15533984D02*
X7715420Y-15533984D01*
X7715420Y-15533984D02*
X7734468Y-15543508D01*
X7734468Y-15543508D02*
X7743991Y-15553031D01*
X7743991Y-15553031D02*
X7753515Y-15572079D01*
X7753515Y-15572079D02*
X7753515Y-15591127D01*
X7753515Y-15591127D02*
X7743991Y-15619698D01*
X7743991Y-15619698D02*
X7629706Y-15733984D01*
X7629706Y-15733984D02*
X7753515Y-15733984D01*
X7867801Y-15619698D02*
X7848753Y-15610174D01*
X7848753Y-15610174D02*
X7839229Y-15600650D01*
X7839229Y-15600650D02*
X7829706Y-15581603D01*
X7829706Y-15581603D02*
X7829706Y-15572079D01*
X7829706Y-15572079D02*
X7839229Y-15553031D01*
X7839229Y-15553031D02*
X7848753Y-15543508D01*
X7848753Y-15543508D02*
X7867801Y-15533984D01*
X7867801Y-15533984D02*
X7905896Y-15533984D01*
X7905896Y-15533984D02*
X7924944Y-15543508D01*
X7924944Y-15543508D02*
X7934468Y-15553031D01*
X7934468Y-15553031D02*
X7943991Y-15572079D01*
X7943991Y-15572079D02*
X7943991Y-15581603D01*
X7943991Y-15581603D02*
X7934468Y-15600650D01*
X7934468Y-15600650D02*
X7924944Y-15610174D01*
X7924944Y-15610174D02*
X7905896Y-15619698D01*
X7905896Y-15619698D02*
X7867801Y-15619698D01*
X7867801Y-15619698D02*
X7848753Y-15629222D01*
X7848753Y-15629222D02*
X7839229Y-15638746D01*
X7839229Y-15638746D02*
X7829706Y-15657793D01*
X7829706Y-15657793D02*
X7829706Y-15695888D01*
X7829706Y-15695888D02*
X7839229Y-15714936D01*
X7839229Y-15714936D02*
X7848753Y-15724460D01*
X7848753Y-15724460D02*
X7867801Y-15733984D01*
X7867801Y-15733984D02*
X7905896Y-15733984D01*
X7905896Y-15733984D02*
X7924944Y-15724460D01*
X7924944Y-15724460D02*
X7934468Y-15714936D01*
X7934468Y-15714936D02*
X7943991Y-15695888D01*
X7943991Y-15695888D02*
X7943991Y-15657793D01*
X7943991Y-15657793D02*
X7934468Y-15638746D01*
X7934468Y-15638746D02*
X7924944Y-15629222D01*
X7924944Y-15629222D02*
X7905896Y-15619698D01*
X8182087Y-15733984D02*
X8182087Y-15533984D01*
X8267801Y-15733984D02*
X8267801Y-15629222D01*
X8267801Y-15629222D02*
X8258277Y-15610174D01*
X8258277Y-15610174D02*
X8239230Y-15600650D01*
X8239230Y-15600650D02*
X8210658Y-15600650D01*
X8210658Y-15600650D02*
X8191610Y-15610174D01*
X8191610Y-15610174D02*
X8182087Y-15619698D01*
X8391611Y-15733984D02*
X8372563Y-15724460D01*
X8372563Y-15724460D02*
X8363039Y-15714936D01*
X8363039Y-15714936D02*
X8353515Y-15695888D01*
X8353515Y-15695888D02*
X8353515Y-15638746D01*
X8353515Y-15638746D02*
X8363039Y-15619698D01*
X8363039Y-15619698D02*
X8372563Y-15610174D01*
X8372563Y-15610174D02*
X8391611Y-15600650D01*
X8391611Y-15600650D02*
X8420182Y-15600650D01*
X8420182Y-15600650D02*
X8439230Y-15610174D01*
X8439230Y-15610174D02*
X8448753Y-15619698D01*
X8448753Y-15619698D02*
X8458277Y-15638746D01*
X8458277Y-15638746D02*
X8458277Y-15695888D01*
X8458277Y-15695888D02*
X8448753Y-15714936D01*
X8448753Y-15714936D02*
X8439230Y-15724460D01*
X8439230Y-15724460D02*
X8420182Y-15733984D01*
X8420182Y-15733984D02*
X8391611Y-15733984D01*
X8572563Y-15733984D02*
X8553515Y-15724460D01*
X8553515Y-15724460D02*
X8543992Y-15705412D01*
X8543992Y-15705412D02*
X8543992Y-15533984D01*
X8724944Y-15724460D02*
X8705896Y-15733984D01*
X8705896Y-15733984D02*
X8667801Y-15733984D01*
X8667801Y-15733984D02*
X8648753Y-15724460D01*
X8648753Y-15724460D02*
X8639230Y-15705412D01*
X8639230Y-15705412D02*
X8639230Y-15629222D01*
X8639230Y-15629222D02*
X8648753Y-15610174D01*
X8648753Y-15610174D02*
X8667801Y-15600650D01*
X8667801Y-15600650D02*
X8705896Y-15600650D01*
X8705896Y-15600650D02*
X8724944Y-15610174D01*
X8724944Y-15610174D02*
X8734468Y-15629222D01*
X8734468Y-15629222D02*
X8734468Y-15648269D01*
X8734468Y-15648269D02*
X8639230Y-15667317D01*
X8810658Y-15724460D02*
X8829706Y-15733984D01*
X8829706Y-15733984D02*
X8867801Y-15733984D01*
X8867801Y-15733984D02*
X8886849Y-15724460D01*
X8886849Y-15724460D02*
X8896373Y-15705412D01*
X8896373Y-15705412D02*
X8896373Y-15695888D01*
X8896373Y-15695888D02*
X8886849Y-15676841D01*
X8886849Y-15676841D02*
X8867801Y-15667317D01*
X8867801Y-15667317D02*
X8839230Y-15667317D01*
X8839230Y-15667317D02*
X8820182Y-15657793D01*
X8820182Y-15657793D02*
X8810658Y-15638746D01*
X8810658Y-15638746D02*
X8810658Y-15629222D01*
X8810658Y-15629222D02*
X8820182Y-15610174D01*
X8820182Y-15610174D02*
X8839230Y-15600650D01*
X8839230Y-15600650D02*
X8867801Y-15600650D01*
X8867801Y-15600650D02*
X8886849Y-15610174D01*
X8963039Y-15810174D02*
X8972563Y-15800650D01*
X8972563Y-15800650D02*
X8991611Y-15772079D01*
X8991611Y-15772079D02*
X9001134Y-15753031D01*
X9001134Y-15753031D02*
X9010658Y-15724460D01*
X9010658Y-15724460D02*
X9020182Y-15676841D01*
X9020182Y-15676841D02*
X9020182Y-15638746D01*
X9020182Y-15638746D02*
X9010658Y-15591127D01*
X9010658Y-15591127D02*
X9001134Y-15562555D01*
X9001134Y-15562555D02*
X8991611Y-15543508D01*
X8991611Y-15543508D02*
X8972563Y-15514936D01*
X8972563Y-15514936D02*
X8963039Y-15505412D01*
X9324944Y-15810174D02*
X9315420Y-15800650D01*
X9315420Y-15800650D02*
X9296373Y-15772079D01*
X9296373Y-15772079D02*
X9286849Y-15753031D01*
X9286849Y-15753031D02*
X9277325Y-15724460D01*
X9277325Y-15724460D02*
X9267801Y-15676841D01*
X9267801Y-15676841D02*
X9267801Y-15638746D01*
X9267801Y-15638746D02*
X9277325Y-15591127D01*
X9277325Y-15591127D02*
X9286849Y-15562555D01*
X9286849Y-15562555D02*
X9296373Y-15543508D01*
X9296373Y-15543508D02*
X9315420Y-15514936D01*
X9315420Y-15514936D02*
X9324944Y-15505412D01*
X9401134Y-15600650D02*
X9401134Y-15733984D01*
X9401134Y-15619698D02*
X9410658Y-15610174D01*
X9410658Y-15610174D02*
X9429706Y-15600650D01*
X9429706Y-15600650D02*
X9458277Y-15600650D01*
X9458277Y-15600650D02*
X9477325Y-15610174D01*
X9477325Y-15610174D02*
X9486849Y-15629222D01*
X9486849Y-15629222D02*
X9486849Y-15733984D01*
X9610658Y-15733984D02*
X9591611Y-15724460D01*
X9591611Y-15724460D02*
X9582087Y-15714936D01*
X9582087Y-15714936D02*
X9572563Y-15695888D01*
X9572563Y-15695888D02*
X9572563Y-15638746D01*
X9572563Y-15638746D02*
X9582087Y-15619698D01*
X9582087Y-15619698D02*
X9591611Y-15610174D01*
X9591611Y-15610174D02*
X9610658Y-15600650D01*
X9610658Y-15600650D02*
X9639230Y-15600650D01*
X9639230Y-15600650D02*
X9658277Y-15610174D01*
X9658277Y-15610174D02*
X9667801Y-15619698D01*
X9667801Y-15619698D02*
X9677325Y-15638746D01*
X9677325Y-15638746D02*
X9677325Y-15695888D01*
X9677325Y-15695888D02*
X9667801Y-15714936D01*
X9667801Y-15714936D02*
X9658277Y-15724460D01*
X9658277Y-15724460D02*
X9639230Y-15733984D01*
X9639230Y-15733984D02*
X9610658Y-15733984D01*
X9734468Y-15600650D02*
X9810658Y-15600650D01*
X9763039Y-15533984D02*
X9763039Y-15705412D01*
X9763039Y-15705412D02*
X9772563Y-15724460D01*
X9772563Y-15724460D02*
X9791611Y-15733984D01*
X9791611Y-15733984D02*
X9810658Y-15733984D01*
X10029706Y-15600650D02*
X10029706Y-15800650D01*
X10029706Y-15610174D02*
X10048754Y-15600650D01*
X10048754Y-15600650D02*
X10086849Y-15600650D01*
X10086849Y-15600650D02*
X10105896Y-15610174D01*
X10105896Y-15610174D02*
X10115420Y-15619698D01*
X10115420Y-15619698D02*
X10124944Y-15638746D01*
X10124944Y-15638746D02*
X10124944Y-15695888D01*
X10124944Y-15695888D02*
X10115420Y-15714936D01*
X10115420Y-15714936D02*
X10105896Y-15724460D01*
X10105896Y-15724460D02*
X10086849Y-15733984D01*
X10086849Y-15733984D02*
X10048754Y-15733984D01*
X10048754Y-15733984D02*
X10029706Y-15724460D01*
X10239230Y-15733984D02*
X10220182Y-15724460D01*
X10220182Y-15724460D02*
X10210658Y-15705412D01*
X10210658Y-15705412D02*
X10210658Y-15533984D01*
X10401135Y-15733984D02*
X10401135Y-15629222D01*
X10401135Y-15629222D02*
X10391611Y-15610174D01*
X10391611Y-15610174D02*
X10372563Y-15600650D01*
X10372563Y-15600650D02*
X10334468Y-15600650D01*
X10334468Y-15600650D02*
X10315420Y-15610174D01*
X10401135Y-15724460D02*
X10382087Y-15733984D01*
X10382087Y-15733984D02*
X10334468Y-15733984D01*
X10334468Y-15733984D02*
X10315420Y-15724460D01*
X10315420Y-15724460D02*
X10305896Y-15705412D01*
X10305896Y-15705412D02*
X10305896Y-15686365D01*
X10305896Y-15686365D02*
X10315420Y-15667317D01*
X10315420Y-15667317D02*
X10334468Y-15657793D01*
X10334468Y-15657793D02*
X10382087Y-15657793D01*
X10382087Y-15657793D02*
X10401135Y-15648269D01*
X10467801Y-15600650D02*
X10543992Y-15600650D01*
X10496373Y-15533984D02*
X10496373Y-15705412D01*
X10496373Y-15705412D02*
X10505896Y-15724460D01*
X10505896Y-15724460D02*
X10524944Y-15733984D01*
X10524944Y-15733984D02*
X10543992Y-15733984D01*
X10686849Y-15724460D02*
X10667801Y-15733984D01*
X10667801Y-15733984D02*
X10629706Y-15733984D01*
X10629706Y-15733984D02*
X10610658Y-15724460D01*
X10610658Y-15724460D02*
X10601135Y-15705412D01*
X10601135Y-15705412D02*
X10601135Y-15629222D01*
X10601135Y-15629222D02*
X10610658Y-15610174D01*
X10610658Y-15610174D02*
X10629706Y-15600650D01*
X10629706Y-15600650D02*
X10667801Y-15600650D01*
X10667801Y-15600650D02*
X10686849Y-15610174D01*
X10686849Y-15610174D02*
X10696373Y-15629222D01*
X10696373Y-15629222D02*
X10696373Y-15648269D01*
X10696373Y-15648269D02*
X10601135Y-15667317D01*
X10867801Y-15733984D02*
X10867801Y-15533984D01*
X10867801Y-15724460D02*
X10848754Y-15733984D01*
X10848754Y-15733984D02*
X10810658Y-15733984D01*
X10810658Y-15733984D02*
X10791611Y-15724460D01*
X10791611Y-15724460D02*
X10782087Y-15714936D01*
X10782087Y-15714936D02*
X10772563Y-15695888D01*
X10772563Y-15695888D02*
X10772563Y-15638746D01*
X10772563Y-15638746D02*
X10782087Y-15619698D01*
X10782087Y-15619698D02*
X10791611Y-15610174D01*
X10791611Y-15610174D02*
X10810658Y-15600650D01*
X10810658Y-15600650D02*
X10848754Y-15600650D01*
X10848754Y-15600650D02*
X10867801Y-15610174D01*
X10943992Y-15810174D02*
X10953516Y-15800650D01*
X10953516Y-15800650D02*
X10972563Y-15772079D01*
X10972563Y-15772079D02*
X10982087Y-15753031D01*
X10982087Y-15753031D02*
X10991611Y-15724460D01*
X10991611Y-15724460D02*
X11001135Y-15676841D01*
X11001135Y-15676841D02*
X11001135Y-15638746D01*
X11001135Y-15638746D02*
X10991611Y-15591127D01*
X10991611Y-15591127D02*
X10982087Y-15562555D01*
X10982087Y-15562555D02*
X10972563Y-15543508D01*
X10972563Y-15543508D02*
X10953516Y-15514936D01*
X10953516Y-15514936D02*
X10943992Y-15505412D01*
X3997500Y-15932680D02*
G75*
G03*
X3997500Y-15932680I-100000J0D01*
G01*
X4239229Y-15824164D02*
X4363039Y-15824164D01*
X4363039Y-15824164D02*
X4296372Y-15900354D01*
X4296372Y-15900354D02*
X4324944Y-15900354D01*
X4324944Y-15900354D02*
X4343991Y-15909878D01*
X4343991Y-15909878D02*
X4353515Y-15919402D01*
X4353515Y-15919402D02*
X4363039Y-15938449D01*
X4363039Y-15938449D02*
X4363039Y-15986068D01*
X4363039Y-15986068D02*
X4353515Y-16005116D01*
X4353515Y-16005116D02*
X4343991Y-16014640D01*
X4343991Y-16014640D02*
X4324944Y-16024164D01*
X4324944Y-16024164D02*
X4267801Y-16024164D01*
X4267801Y-16024164D02*
X4248753Y-16014640D01*
X4248753Y-16014640D02*
X4239229Y-16005116D01*
X4448753Y-16005116D02*
X4458277Y-16014640D01*
X4458277Y-16014640D02*
X4448753Y-16024164D01*
X4448753Y-16024164D02*
X4439229Y-16014640D01*
X4439229Y-16014640D02*
X4448753Y-16005116D01*
X4448753Y-16005116D02*
X4448753Y-16024164D01*
X4582086Y-15824164D02*
X4601134Y-15824164D01*
X4601134Y-15824164D02*
X4620182Y-15833688D01*
X4620182Y-15833688D02*
X4629705Y-15843211D01*
X4629705Y-15843211D02*
X4639229Y-15862259D01*
X4639229Y-15862259D02*
X4648753Y-15900354D01*
X4648753Y-15900354D02*
X4648753Y-15947973D01*
X4648753Y-15947973D02*
X4639229Y-15986068D01*
X4639229Y-15986068D02*
X4629705Y-16005116D01*
X4629705Y-16005116D02*
X4620182Y-16014640D01*
X4620182Y-16014640D02*
X4601134Y-16024164D01*
X4601134Y-16024164D02*
X4582086Y-16024164D01*
X4582086Y-16024164D02*
X4563039Y-16014640D01*
X4563039Y-16014640D02*
X4553515Y-16005116D01*
X4553515Y-16005116D02*
X4543991Y-15986068D01*
X4543991Y-15986068D02*
X4534467Y-15947973D01*
X4534467Y-15947973D02*
X4534467Y-15900354D01*
X4534467Y-15900354D02*
X4543991Y-15862259D01*
X4543991Y-15862259D02*
X4553515Y-15843211D01*
X4553515Y-15843211D02*
X4563039Y-15833688D01*
X4563039Y-15833688D02*
X4582086Y-15824164D01*
X4772563Y-15824164D02*
X4791610Y-15824164D01*
X4791610Y-15824164D02*
X4810658Y-15833688D01*
X4810658Y-15833688D02*
X4820182Y-15843211D01*
X4820182Y-15843211D02*
X4829705Y-15862259D01*
X4829705Y-15862259D02*
X4839229Y-15900354D01*
X4839229Y-15900354D02*
X4839229Y-15947973D01*
X4839229Y-15947973D02*
X4829705Y-15986068D01*
X4829705Y-15986068D02*
X4820182Y-16005116D01*
X4820182Y-16005116D02*
X4810658Y-16014640D01*
X4810658Y-16014640D02*
X4791610Y-16024164D01*
X4791610Y-16024164D02*
X4772563Y-16024164D01*
X4772563Y-16024164D02*
X4753515Y-16014640D01*
X4753515Y-16014640D02*
X4743991Y-16005116D01*
X4743991Y-16005116D02*
X4734467Y-15986068D01*
X4734467Y-15986068D02*
X4724944Y-15947973D01*
X4724944Y-15947973D02*
X4724944Y-15900354D01*
X4724944Y-15900354D02*
X4734467Y-15862259D01*
X4734467Y-15862259D02*
X4743991Y-15843211D01*
X4743991Y-15843211D02*
X4753515Y-15833688D01*
X4753515Y-15833688D02*
X4772563Y-15824164D01*
X4963039Y-15824164D02*
X4982086Y-15824164D01*
X4982086Y-15824164D02*
X5001134Y-15833688D01*
X5001134Y-15833688D02*
X5010658Y-15843211D01*
X5010658Y-15843211D02*
X5020182Y-15862259D01*
X5020182Y-15862259D02*
X5029705Y-15900354D01*
X5029705Y-15900354D02*
X5029705Y-15947973D01*
X5029705Y-15947973D02*
X5020182Y-15986068D01*
X5020182Y-15986068D02*
X5010658Y-16005116D01*
X5010658Y-16005116D02*
X5001134Y-16014640D01*
X5001134Y-16014640D02*
X4982086Y-16024164D01*
X4982086Y-16024164D02*
X4963039Y-16024164D01*
X4963039Y-16024164D02*
X4943991Y-16014640D01*
X4943991Y-16014640D02*
X4934467Y-16005116D01*
X4934467Y-16005116D02*
X4924944Y-15986068D01*
X4924944Y-15986068D02*
X4915420Y-15947973D01*
X4915420Y-15947973D02*
X4915420Y-15900354D01*
X4915420Y-15900354D02*
X4924944Y-15862259D01*
X4924944Y-15862259D02*
X4934467Y-15843211D01*
X4934467Y-15843211D02*
X4943991Y-15833688D01*
X4943991Y-15833688D02*
X4963039Y-15824164D01*
X5115420Y-16024164D02*
X5115420Y-15890830D01*
X5115420Y-15909878D02*
X5124944Y-15900354D01*
X5124944Y-15900354D02*
X5143991Y-15890830D01*
X5143991Y-15890830D02*
X5172563Y-15890830D01*
X5172563Y-15890830D02*
X5191610Y-15900354D01*
X5191610Y-15900354D02*
X5201134Y-15919402D01*
X5201134Y-15919402D02*
X5201134Y-16024164D01*
X5201134Y-15919402D02*
X5210658Y-15900354D01*
X5210658Y-15900354D02*
X5229705Y-15890830D01*
X5229705Y-15890830D02*
X5258277Y-15890830D01*
X5258277Y-15890830D02*
X5277325Y-15900354D01*
X5277325Y-15900354D02*
X5286848Y-15919402D01*
X5286848Y-15919402D02*
X5286848Y-16024164D01*
X5382086Y-16024164D02*
X5382086Y-15890830D01*
X5382086Y-15909878D02*
X5391610Y-15900354D01*
X5391610Y-15900354D02*
X5410658Y-15890830D01*
X5410658Y-15890830D02*
X5439229Y-15890830D01*
X5439229Y-15890830D02*
X5458277Y-15900354D01*
X5458277Y-15900354D02*
X5467801Y-15919402D01*
X5467801Y-15919402D02*
X5467801Y-16024164D01*
X5467801Y-15919402D02*
X5477325Y-15900354D01*
X5477325Y-15900354D02*
X5496372Y-15890830D01*
X5496372Y-15890830D02*
X5524944Y-15890830D01*
X5524944Y-15890830D02*
X5543991Y-15900354D01*
X5543991Y-15900354D02*
X5553515Y-15919402D01*
X5553515Y-15919402D02*
X5553515Y-16024164D01*
X5943991Y-15814640D02*
X5772563Y-16071783D01*
X6201134Y-15824164D02*
X6220182Y-15824164D01*
X6220182Y-15824164D02*
X6239229Y-15833688D01*
X6239229Y-15833688D02*
X6248753Y-15843211D01*
X6248753Y-15843211D02*
X6258277Y-15862259D01*
X6258277Y-15862259D02*
X6267801Y-15900354D01*
X6267801Y-15900354D02*
X6267801Y-15947973D01*
X6267801Y-15947973D02*
X6258277Y-15986068D01*
X6258277Y-15986068D02*
X6248753Y-16005116D01*
X6248753Y-16005116D02*
X6239229Y-16014640D01*
X6239229Y-16014640D02*
X6220182Y-16024164D01*
X6220182Y-16024164D02*
X6201134Y-16024164D01*
X6201134Y-16024164D02*
X6182086Y-16014640D01*
X6182086Y-16014640D02*
X6172563Y-16005116D01*
X6172563Y-16005116D02*
X6163039Y-15986068D01*
X6163039Y-15986068D02*
X6153515Y-15947973D01*
X6153515Y-15947973D02*
X6153515Y-15900354D01*
X6153515Y-15900354D02*
X6163039Y-15862259D01*
X6163039Y-15862259D02*
X6172563Y-15843211D01*
X6172563Y-15843211D02*
X6182086Y-15833688D01*
X6182086Y-15833688D02*
X6201134Y-15824164D01*
X6353515Y-16005116D02*
X6363039Y-16014640D01*
X6363039Y-16014640D02*
X6353515Y-16024164D01*
X6353515Y-16024164D02*
X6343991Y-16014640D01*
X6343991Y-16014640D02*
X6353515Y-16005116D01*
X6353515Y-16005116D02*
X6353515Y-16024164D01*
X6553515Y-16024164D02*
X6439229Y-16024164D01*
X6496372Y-16024164D02*
X6496372Y-15824164D01*
X6496372Y-15824164D02*
X6477325Y-15852735D01*
X6477325Y-15852735D02*
X6458277Y-15871783D01*
X6458277Y-15871783D02*
X6439229Y-15881307D01*
X6743991Y-16024164D02*
X6629706Y-16024164D01*
X6686848Y-16024164D02*
X6686848Y-15824164D01*
X6686848Y-15824164D02*
X6667801Y-15852735D01*
X6667801Y-15852735D02*
X6648753Y-15871783D01*
X6648753Y-15871783D02*
X6629706Y-15881307D01*
X6858277Y-15909878D02*
X6839229Y-15900354D01*
X6839229Y-15900354D02*
X6829706Y-15890830D01*
X6829706Y-15890830D02*
X6820182Y-15871783D01*
X6820182Y-15871783D02*
X6820182Y-15862259D01*
X6820182Y-15862259D02*
X6829706Y-15843211D01*
X6829706Y-15843211D02*
X6839229Y-15833688D01*
X6839229Y-15833688D02*
X6858277Y-15824164D01*
X6858277Y-15824164D02*
X6896372Y-15824164D01*
X6896372Y-15824164D02*
X6915420Y-15833688D01*
X6915420Y-15833688D02*
X6924944Y-15843211D01*
X6924944Y-15843211D02*
X6934467Y-15862259D01*
X6934467Y-15862259D02*
X6934467Y-15871783D01*
X6934467Y-15871783D02*
X6924944Y-15890830D01*
X6924944Y-15890830D02*
X6915420Y-15900354D01*
X6915420Y-15900354D02*
X6896372Y-15909878D01*
X6896372Y-15909878D02*
X6858277Y-15909878D01*
X6858277Y-15909878D02*
X6839229Y-15919402D01*
X6839229Y-15919402D02*
X6829706Y-15928926D01*
X6829706Y-15928926D02*
X6820182Y-15947973D01*
X6820182Y-15947973D02*
X6820182Y-15986068D01*
X6820182Y-15986068D02*
X6829706Y-16005116D01*
X6829706Y-16005116D02*
X6839229Y-16014640D01*
X6839229Y-16014640D02*
X6858277Y-16024164D01*
X6858277Y-16024164D02*
X6896372Y-16024164D01*
X6896372Y-16024164D02*
X6915420Y-16014640D01*
X6915420Y-16014640D02*
X6924944Y-16005116D01*
X6924944Y-16005116D02*
X6934467Y-15986068D01*
X6934467Y-15986068D02*
X6934467Y-15947973D01*
X6934467Y-15947973D02*
X6924944Y-15928926D01*
X6924944Y-15928926D02*
X6915420Y-15919402D01*
X6915420Y-15919402D02*
X6896372Y-15909878D01*
X7124944Y-16024164D02*
X7010658Y-16024164D01*
X7067801Y-16024164D02*
X7067801Y-15824164D01*
X7067801Y-15824164D02*
X7048753Y-15852735D01*
X7048753Y-15852735D02*
X7029706Y-15871783D01*
X7029706Y-15871783D02*
X7010658Y-15881307D01*
X7201134Y-15824164D02*
X7201134Y-15862259D01*
X7277325Y-15824164D02*
X7277325Y-15862259D01*
X7572563Y-16100354D02*
X7563039Y-16090830D01*
X7563039Y-16090830D02*
X7543991Y-16062259D01*
X7543991Y-16062259D02*
X7534468Y-16043211D01*
X7534468Y-16043211D02*
X7524944Y-16014640D01*
X7524944Y-16014640D02*
X7515420Y-15967021D01*
X7515420Y-15967021D02*
X7515420Y-15928926D01*
X7515420Y-15928926D02*
X7524944Y-15881307D01*
X7524944Y-15881307D02*
X7534468Y-15852735D01*
X7534468Y-15852735D02*
X7543991Y-15833688D01*
X7543991Y-15833688D02*
X7563039Y-15805116D01*
X7563039Y-15805116D02*
X7572563Y-15795592D01*
X7639229Y-15843211D02*
X7648753Y-15833688D01*
X7648753Y-15833688D02*
X7667801Y-15824164D01*
X7667801Y-15824164D02*
X7715420Y-15824164D01*
X7715420Y-15824164D02*
X7734468Y-15833688D01*
X7734468Y-15833688D02*
X7743991Y-15843211D01*
X7743991Y-15843211D02*
X7753515Y-15862259D01*
X7753515Y-15862259D02*
X7753515Y-15881307D01*
X7753515Y-15881307D02*
X7743991Y-15909878D01*
X7743991Y-15909878D02*
X7629706Y-16024164D01*
X7629706Y-16024164D02*
X7753515Y-16024164D01*
X7867801Y-15909878D02*
X7848753Y-15900354D01*
X7848753Y-15900354D02*
X7839229Y-15890830D01*
X7839229Y-15890830D02*
X7829706Y-15871783D01*
X7829706Y-15871783D02*
X7829706Y-15862259D01*
X7829706Y-15862259D02*
X7839229Y-15843211D01*
X7839229Y-15843211D02*
X7848753Y-15833688D01*
X7848753Y-15833688D02*
X7867801Y-15824164D01*
X7867801Y-15824164D02*
X7905896Y-15824164D01*
X7905896Y-15824164D02*
X7924944Y-15833688D01*
X7924944Y-15833688D02*
X7934468Y-15843211D01*
X7934468Y-15843211D02*
X7943991Y-15862259D01*
X7943991Y-15862259D02*
X7943991Y-15871783D01*
X7943991Y-15871783D02*
X7934468Y-15890830D01*
X7934468Y-15890830D02*
X7924944Y-15900354D01*
X7924944Y-15900354D02*
X7905896Y-15909878D01*
X7905896Y-15909878D02*
X7867801Y-15909878D01*
X7867801Y-15909878D02*
X7848753Y-15919402D01*
X7848753Y-15919402D02*
X7839229Y-15928926D01*
X7839229Y-15928926D02*
X7829706Y-15947973D01*
X7829706Y-15947973D02*
X7829706Y-15986068D01*
X7829706Y-15986068D02*
X7839229Y-16005116D01*
X7839229Y-16005116D02*
X7848753Y-16014640D01*
X7848753Y-16014640D02*
X7867801Y-16024164D01*
X7867801Y-16024164D02*
X7905896Y-16024164D01*
X7905896Y-16024164D02*
X7924944Y-16014640D01*
X7924944Y-16014640D02*
X7934468Y-16005116D01*
X7934468Y-16005116D02*
X7943991Y-15986068D01*
X7943991Y-15986068D02*
X7943991Y-15947973D01*
X7943991Y-15947973D02*
X7934468Y-15928926D01*
X7934468Y-15928926D02*
X7924944Y-15919402D01*
X7924944Y-15919402D02*
X7905896Y-15909878D01*
X8182087Y-16024164D02*
X8182087Y-15824164D01*
X8267801Y-16024164D02*
X8267801Y-15919402D01*
X8267801Y-15919402D02*
X8258277Y-15900354D01*
X8258277Y-15900354D02*
X8239230Y-15890830D01*
X8239230Y-15890830D02*
X8210658Y-15890830D01*
X8210658Y-15890830D02*
X8191610Y-15900354D01*
X8191610Y-15900354D02*
X8182087Y-15909878D01*
X8391611Y-16024164D02*
X8372563Y-16014640D01*
X8372563Y-16014640D02*
X8363039Y-16005116D01*
X8363039Y-16005116D02*
X8353515Y-15986068D01*
X8353515Y-15986068D02*
X8353515Y-15928926D01*
X8353515Y-15928926D02*
X8363039Y-15909878D01*
X8363039Y-15909878D02*
X8372563Y-15900354D01*
X8372563Y-15900354D02*
X8391611Y-15890830D01*
X8391611Y-15890830D02*
X8420182Y-15890830D01*
X8420182Y-15890830D02*
X8439230Y-15900354D01*
X8439230Y-15900354D02*
X8448753Y-15909878D01*
X8448753Y-15909878D02*
X8458277Y-15928926D01*
X8458277Y-15928926D02*
X8458277Y-15986068D01*
X8458277Y-15986068D02*
X8448753Y-16005116D01*
X8448753Y-16005116D02*
X8439230Y-16014640D01*
X8439230Y-16014640D02*
X8420182Y-16024164D01*
X8420182Y-16024164D02*
X8391611Y-16024164D01*
X8572563Y-16024164D02*
X8553515Y-16014640D01*
X8553515Y-16014640D02*
X8543992Y-15995592D01*
X8543992Y-15995592D02*
X8543992Y-15824164D01*
X8724944Y-16014640D02*
X8705896Y-16024164D01*
X8705896Y-16024164D02*
X8667801Y-16024164D01*
X8667801Y-16024164D02*
X8648753Y-16014640D01*
X8648753Y-16014640D02*
X8639230Y-15995592D01*
X8639230Y-15995592D02*
X8639230Y-15919402D01*
X8639230Y-15919402D02*
X8648753Y-15900354D01*
X8648753Y-15900354D02*
X8667801Y-15890830D01*
X8667801Y-15890830D02*
X8705896Y-15890830D01*
X8705896Y-15890830D02*
X8724944Y-15900354D01*
X8724944Y-15900354D02*
X8734468Y-15919402D01*
X8734468Y-15919402D02*
X8734468Y-15938449D01*
X8734468Y-15938449D02*
X8639230Y-15957497D01*
X8810658Y-16014640D02*
X8829706Y-16024164D01*
X8829706Y-16024164D02*
X8867801Y-16024164D01*
X8867801Y-16024164D02*
X8886849Y-16014640D01*
X8886849Y-16014640D02*
X8896373Y-15995592D01*
X8896373Y-15995592D02*
X8896373Y-15986068D01*
X8896373Y-15986068D02*
X8886849Y-15967021D01*
X8886849Y-15967021D02*
X8867801Y-15957497D01*
X8867801Y-15957497D02*
X8839230Y-15957497D01*
X8839230Y-15957497D02*
X8820182Y-15947973D01*
X8820182Y-15947973D02*
X8810658Y-15928926D01*
X8810658Y-15928926D02*
X8810658Y-15919402D01*
X8810658Y-15919402D02*
X8820182Y-15900354D01*
X8820182Y-15900354D02*
X8839230Y-15890830D01*
X8839230Y-15890830D02*
X8867801Y-15890830D01*
X8867801Y-15890830D02*
X8886849Y-15900354D01*
X8963039Y-16100354D02*
X8972563Y-16090830D01*
X8972563Y-16090830D02*
X8991611Y-16062259D01*
X8991611Y-16062259D02*
X9001134Y-16043211D01*
X9001134Y-16043211D02*
X9010658Y-16014640D01*
X9010658Y-16014640D02*
X9020182Y-15967021D01*
X9020182Y-15967021D02*
X9020182Y-15928926D01*
X9020182Y-15928926D02*
X9010658Y-15881307D01*
X9010658Y-15881307D02*
X9001134Y-15852735D01*
X9001134Y-15852735D02*
X8991611Y-15833688D01*
X8991611Y-15833688D02*
X8972563Y-15805116D01*
X8972563Y-15805116D02*
X8963039Y-15795592D01*
X9324944Y-16100354D02*
X9315420Y-16090830D01*
X9315420Y-16090830D02*
X9296373Y-16062259D01*
X9296373Y-16062259D02*
X9286849Y-16043211D01*
X9286849Y-16043211D02*
X9277325Y-16014640D01*
X9277325Y-16014640D02*
X9267801Y-15967021D01*
X9267801Y-15967021D02*
X9267801Y-15928926D01*
X9267801Y-15928926D02*
X9277325Y-15881307D01*
X9277325Y-15881307D02*
X9286849Y-15852735D01*
X9286849Y-15852735D02*
X9296373Y-15833688D01*
X9296373Y-15833688D02*
X9315420Y-15805116D01*
X9315420Y-15805116D02*
X9324944Y-15795592D01*
X9401134Y-15890830D02*
X9401134Y-16024164D01*
X9401134Y-15909878D02*
X9410658Y-15900354D01*
X9410658Y-15900354D02*
X9429706Y-15890830D01*
X9429706Y-15890830D02*
X9458277Y-15890830D01*
X9458277Y-15890830D02*
X9477325Y-15900354D01*
X9477325Y-15900354D02*
X9486849Y-15919402D01*
X9486849Y-15919402D02*
X9486849Y-16024164D01*
X9610658Y-16024164D02*
X9591611Y-16014640D01*
X9591611Y-16014640D02*
X9582087Y-16005116D01*
X9582087Y-16005116D02*
X9572563Y-15986068D01*
X9572563Y-15986068D02*
X9572563Y-15928926D01*
X9572563Y-15928926D02*
X9582087Y-15909878D01*
X9582087Y-15909878D02*
X9591611Y-15900354D01*
X9591611Y-15900354D02*
X9610658Y-15890830D01*
X9610658Y-15890830D02*
X9639230Y-15890830D01*
X9639230Y-15890830D02*
X9658277Y-15900354D01*
X9658277Y-15900354D02*
X9667801Y-15909878D01*
X9667801Y-15909878D02*
X9677325Y-15928926D01*
X9677325Y-15928926D02*
X9677325Y-15986068D01*
X9677325Y-15986068D02*
X9667801Y-16005116D01*
X9667801Y-16005116D02*
X9658277Y-16014640D01*
X9658277Y-16014640D02*
X9639230Y-16024164D01*
X9639230Y-16024164D02*
X9610658Y-16024164D01*
X9734468Y-15890830D02*
X9810658Y-15890830D01*
X9763039Y-15824164D02*
X9763039Y-15995592D01*
X9763039Y-15995592D02*
X9772563Y-16014640D01*
X9772563Y-16014640D02*
X9791611Y-16024164D01*
X9791611Y-16024164D02*
X9810658Y-16024164D01*
X10029706Y-15890830D02*
X10029706Y-16090830D01*
X10029706Y-15900354D02*
X10048754Y-15890830D01*
X10048754Y-15890830D02*
X10086849Y-15890830D01*
X10086849Y-15890830D02*
X10105896Y-15900354D01*
X10105896Y-15900354D02*
X10115420Y-15909878D01*
X10115420Y-15909878D02*
X10124944Y-15928926D01*
X10124944Y-15928926D02*
X10124944Y-15986068D01*
X10124944Y-15986068D02*
X10115420Y-16005116D01*
X10115420Y-16005116D02*
X10105896Y-16014640D01*
X10105896Y-16014640D02*
X10086849Y-16024164D01*
X10086849Y-16024164D02*
X10048754Y-16024164D01*
X10048754Y-16024164D02*
X10029706Y-16014640D01*
X10239230Y-16024164D02*
X10220182Y-16014640D01*
X10220182Y-16014640D02*
X10210658Y-15995592D01*
X10210658Y-15995592D02*
X10210658Y-15824164D01*
X10401135Y-16024164D02*
X10401135Y-15919402D01*
X10401135Y-15919402D02*
X10391611Y-15900354D01*
X10391611Y-15900354D02*
X10372563Y-15890830D01*
X10372563Y-15890830D02*
X10334468Y-15890830D01*
X10334468Y-15890830D02*
X10315420Y-15900354D01*
X10401135Y-16014640D02*
X10382087Y-16024164D01*
X10382087Y-16024164D02*
X10334468Y-16024164D01*
X10334468Y-16024164D02*
X10315420Y-16014640D01*
X10315420Y-16014640D02*
X10305896Y-15995592D01*
X10305896Y-15995592D02*
X10305896Y-15976545D01*
X10305896Y-15976545D02*
X10315420Y-15957497D01*
X10315420Y-15957497D02*
X10334468Y-15947973D01*
X10334468Y-15947973D02*
X10382087Y-15947973D01*
X10382087Y-15947973D02*
X10401135Y-15938449D01*
X10467801Y-15890830D02*
X10543992Y-15890830D01*
X10496373Y-15824164D02*
X10496373Y-15995592D01*
X10496373Y-15995592D02*
X10505896Y-16014640D01*
X10505896Y-16014640D02*
X10524944Y-16024164D01*
X10524944Y-16024164D02*
X10543992Y-16024164D01*
X10686849Y-16014640D02*
X10667801Y-16024164D01*
X10667801Y-16024164D02*
X10629706Y-16024164D01*
X10629706Y-16024164D02*
X10610658Y-16014640D01*
X10610658Y-16014640D02*
X10601135Y-15995592D01*
X10601135Y-15995592D02*
X10601135Y-15919402D01*
X10601135Y-15919402D02*
X10610658Y-15900354D01*
X10610658Y-15900354D02*
X10629706Y-15890830D01*
X10629706Y-15890830D02*
X10667801Y-15890830D01*
X10667801Y-15890830D02*
X10686849Y-15900354D01*
X10686849Y-15900354D02*
X10696373Y-15919402D01*
X10696373Y-15919402D02*
X10696373Y-15938449D01*
X10696373Y-15938449D02*
X10601135Y-15957497D01*
X10867801Y-16024164D02*
X10867801Y-15824164D01*
X10867801Y-16014640D02*
X10848754Y-16024164D01*
X10848754Y-16024164D02*
X10810658Y-16024164D01*
X10810658Y-16024164D02*
X10791611Y-16014640D01*
X10791611Y-16014640D02*
X10782087Y-16005116D01*
X10782087Y-16005116D02*
X10772563Y-15986068D01*
X10772563Y-15986068D02*
X10772563Y-15928926D01*
X10772563Y-15928926D02*
X10782087Y-15909878D01*
X10782087Y-15909878D02*
X10791611Y-15900354D01*
X10791611Y-15900354D02*
X10810658Y-15890830D01*
X10810658Y-15890830D02*
X10848754Y-15890830D01*
X10848754Y-15890830D02*
X10867801Y-15900354D01*
X10943992Y-16100354D02*
X10953516Y-16090830D01*
X10953516Y-16090830D02*
X10972563Y-16062259D01*
X10972563Y-16062259D02*
X10982087Y-16043211D01*
X10982087Y-16043211D02*
X10991611Y-16014640D01*
X10991611Y-16014640D02*
X11001135Y-15967021D01*
X11001135Y-15967021D02*
X11001135Y-15928926D01*
X11001135Y-15928926D02*
X10991611Y-15881307D01*
X10991611Y-15881307D02*
X10982087Y-15852735D01*
X10982087Y-15852735D02*
X10972563Y-15833688D01*
X10972563Y-15833688D02*
X10953516Y-15805116D01*
X10953516Y-15805116D02*
X10943992Y-15795592D01*
X3897500Y-16152680D02*
X3897500Y-16352680D01*
X3797500Y-16252680D02*
X3997500Y-16252680D01*
X4239229Y-16144164D02*
X4363039Y-16144164D01*
X4363039Y-16144164D02*
X4296372Y-16220354D01*
X4296372Y-16220354D02*
X4324944Y-16220354D01*
X4324944Y-16220354D02*
X4343991Y-16229878D01*
X4343991Y-16229878D02*
X4353515Y-16239402D01*
X4353515Y-16239402D02*
X4363039Y-16258449D01*
X4363039Y-16258449D02*
X4363039Y-16306068D01*
X4363039Y-16306068D02*
X4353515Y-16325116D01*
X4353515Y-16325116D02*
X4343991Y-16334640D01*
X4343991Y-16334640D02*
X4324944Y-16344164D01*
X4324944Y-16344164D02*
X4267801Y-16344164D01*
X4267801Y-16344164D02*
X4248753Y-16334640D01*
X4248753Y-16334640D02*
X4239229Y-16325116D01*
X4448753Y-16325116D02*
X4458277Y-16334640D01*
X4458277Y-16334640D02*
X4448753Y-16344164D01*
X4448753Y-16344164D02*
X4439229Y-16334640D01*
X4439229Y-16334640D02*
X4448753Y-16325116D01*
X4448753Y-16325116D02*
X4448753Y-16344164D01*
X4629705Y-16210830D02*
X4629705Y-16344164D01*
X4582086Y-16134640D02*
X4534467Y-16277497D01*
X4534467Y-16277497D02*
X4658277Y-16277497D01*
X4724944Y-16163211D02*
X4734467Y-16153688D01*
X4734467Y-16153688D02*
X4753515Y-16144164D01*
X4753515Y-16144164D02*
X4801134Y-16144164D01*
X4801134Y-16144164D02*
X4820182Y-16153688D01*
X4820182Y-16153688D02*
X4829705Y-16163211D01*
X4829705Y-16163211D02*
X4839229Y-16182259D01*
X4839229Y-16182259D02*
X4839229Y-16201307D01*
X4839229Y-16201307D02*
X4829705Y-16229878D01*
X4829705Y-16229878D02*
X4715420Y-16344164D01*
X4715420Y-16344164D02*
X4839229Y-16344164D01*
X4934467Y-16344164D02*
X4972563Y-16344164D01*
X4972563Y-16344164D02*
X4991610Y-16334640D01*
X4991610Y-16334640D02*
X5001134Y-16325116D01*
X5001134Y-16325116D02*
X5020182Y-16296545D01*
X5020182Y-16296545D02*
X5029705Y-16258449D01*
X5029705Y-16258449D02*
X5029705Y-16182259D01*
X5029705Y-16182259D02*
X5020182Y-16163211D01*
X5020182Y-16163211D02*
X5010658Y-16153688D01*
X5010658Y-16153688D02*
X4991610Y-16144164D01*
X4991610Y-16144164D02*
X4953515Y-16144164D01*
X4953515Y-16144164D02*
X4934467Y-16153688D01*
X4934467Y-16153688D02*
X4924944Y-16163211D01*
X4924944Y-16163211D02*
X4915420Y-16182259D01*
X4915420Y-16182259D02*
X4915420Y-16229878D01*
X4915420Y-16229878D02*
X4924944Y-16248926D01*
X4924944Y-16248926D02*
X4934467Y-16258449D01*
X4934467Y-16258449D02*
X4953515Y-16267973D01*
X4953515Y-16267973D02*
X4991610Y-16267973D01*
X4991610Y-16267973D02*
X5010658Y-16258449D01*
X5010658Y-16258449D02*
X5020182Y-16248926D01*
X5020182Y-16248926D02*
X5029705Y-16229878D01*
X5115420Y-16344164D02*
X5115420Y-16210830D01*
X5115420Y-16229878D02*
X5124944Y-16220354D01*
X5124944Y-16220354D02*
X5143991Y-16210830D01*
X5143991Y-16210830D02*
X5172563Y-16210830D01*
X5172563Y-16210830D02*
X5191610Y-16220354D01*
X5191610Y-16220354D02*
X5201134Y-16239402D01*
X5201134Y-16239402D02*
X5201134Y-16344164D01*
X5201134Y-16239402D02*
X5210658Y-16220354D01*
X5210658Y-16220354D02*
X5229705Y-16210830D01*
X5229705Y-16210830D02*
X5258277Y-16210830D01*
X5258277Y-16210830D02*
X5277325Y-16220354D01*
X5277325Y-16220354D02*
X5286848Y-16239402D01*
X5286848Y-16239402D02*
X5286848Y-16344164D01*
X5382086Y-16344164D02*
X5382086Y-16210830D01*
X5382086Y-16229878D02*
X5391610Y-16220354D01*
X5391610Y-16220354D02*
X5410658Y-16210830D01*
X5410658Y-16210830D02*
X5439229Y-16210830D01*
X5439229Y-16210830D02*
X5458277Y-16220354D01*
X5458277Y-16220354D02*
X5467801Y-16239402D01*
X5467801Y-16239402D02*
X5467801Y-16344164D01*
X5467801Y-16239402D02*
X5477325Y-16220354D01*
X5477325Y-16220354D02*
X5496372Y-16210830D01*
X5496372Y-16210830D02*
X5524944Y-16210830D01*
X5524944Y-16210830D02*
X5543991Y-16220354D01*
X5543991Y-16220354D02*
X5553515Y-16239402D01*
X5553515Y-16239402D02*
X5553515Y-16344164D01*
X5943991Y-16134640D02*
X5772563Y-16391783D01*
X6201134Y-16144164D02*
X6220182Y-16144164D01*
X6220182Y-16144164D02*
X6239229Y-16153688D01*
X6239229Y-16153688D02*
X6248753Y-16163211D01*
X6248753Y-16163211D02*
X6258277Y-16182259D01*
X6258277Y-16182259D02*
X6267801Y-16220354D01*
X6267801Y-16220354D02*
X6267801Y-16267973D01*
X6267801Y-16267973D02*
X6258277Y-16306068D01*
X6258277Y-16306068D02*
X6248753Y-16325116D01*
X6248753Y-16325116D02*
X6239229Y-16334640D01*
X6239229Y-16334640D02*
X6220182Y-16344164D01*
X6220182Y-16344164D02*
X6201134Y-16344164D01*
X6201134Y-16344164D02*
X6182086Y-16334640D01*
X6182086Y-16334640D02*
X6172563Y-16325116D01*
X6172563Y-16325116D02*
X6163039Y-16306068D01*
X6163039Y-16306068D02*
X6153515Y-16267973D01*
X6153515Y-16267973D02*
X6153515Y-16220354D01*
X6153515Y-16220354D02*
X6163039Y-16182259D01*
X6163039Y-16182259D02*
X6172563Y-16163211D01*
X6172563Y-16163211D02*
X6182086Y-16153688D01*
X6182086Y-16153688D02*
X6201134Y-16144164D01*
X6353515Y-16325116D02*
X6363039Y-16334640D01*
X6363039Y-16334640D02*
X6353515Y-16344164D01*
X6353515Y-16344164D02*
X6343991Y-16334640D01*
X6343991Y-16334640D02*
X6353515Y-16325116D01*
X6353515Y-16325116D02*
X6353515Y-16344164D01*
X6553515Y-16344164D02*
X6439229Y-16344164D01*
X6496372Y-16344164D02*
X6496372Y-16144164D01*
X6496372Y-16144164D02*
X6477325Y-16172735D01*
X6477325Y-16172735D02*
X6458277Y-16191783D01*
X6458277Y-16191783D02*
X6439229Y-16201307D01*
X6620182Y-16144164D02*
X6743991Y-16144164D01*
X6743991Y-16144164D02*
X6677325Y-16220354D01*
X6677325Y-16220354D02*
X6705896Y-16220354D01*
X6705896Y-16220354D02*
X6724944Y-16229878D01*
X6724944Y-16229878D02*
X6734467Y-16239402D01*
X6734467Y-16239402D02*
X6743991Y-16258449D01*
X6743991Y-16258449D02*
X6743991Y-16306068D01*
X6743991Y-16306068D02*
X6734467Y-16325116D01*
X6734467Y-16325116D02*
X6724944Y-16334640D01*
X6724944Y-16334640D02*
X6705896Y-16344164D01*
X6705896Y-16344164D02*
X6648753Y-16344164D01*
X6648753Y-16344164D02*
X6629706Y-16334640D01*
X6629706Y-16334640D02*
X6620182Y-16325116D01*
X6924944Y-16144164D02*
X6829706Y-16144164D01*
X6829706Y-16144164D02*
X6820182Y-16239402D01*
X6820182Y-16239402D02*
X6829706Y-16229878D01*
X6829706Y-16229878D02*
X6848753Y-16220354D01*
X6848753Y-16220354D02*
X6896372Y-16220354D01*
X6896372Y-16220354D02*
X6915420Y-16229878D01*
X6915420Y-16229878D02*
X6924944Y-16239402D01*
X6924944Y-16239402D02*
X6934467Y-16258449D01*
X6934467Y-16258449D02*
X6934467Y-16306068D01*
X6934467Y-16306068D02*
X6924944Y-16325116D01*
X6924944Y-16325116D02*
X6915420Y-16334640D01*
X6915420Y-16334640D02*
X6896372Y-16344164D01*
X6896372Y-16344164D02*
X6848753Y-16344164D01*
X6848753Y-16344164D02*
X6829706Y-16334640D01*
X6829706Y-16334640D02*
X6820182Y-16325116D01*
X7058277Y-16144164D02*
X7077325Y-16144164D01*
X7077325Y-16144164D02*
X7096372Y-16153688D01*
X7096372Y-16153688D02*
X7105896Y-16163211D01*
X7105896Y-16163211D02*
X7115420Y-16182259D01*
X7115420Y-16182259D02*
X7124944Y-16220354D01*
X7124944Y-16220354D02*
X7124944Y-16267973D01*
X7124944Y-16267973D02*
X7115420Y-16306068D01*
X7115420Y-16306068D02*
X7105896Y-16325116D01*
X7105896Y-16325116D02*
X7096372Y-16334640D01*
X7096372Y-16334640D02*
X7077325Y-16344164D01*
X7077325Y-16344164D02*
X7058277Y-16344164D01*
X7058277Y-16344164D02*
X7039229Y-16334640D01*
X7039229Y-16334640D02*
X7029706Y-16325116D01*
X7029706Y-16325116D02*
X7020182Y-16306068D01*
X7020182Y-16306068D02*
X7010658Y-16267973D01*
X7010658Y-16267973D02*
X7010658Y-16220354D01*
X7010658Y-16220354D02*
X7020182Y-16182259D01*
X7020182Y-16182259D02*
X7029706Y-16163211D01*
X7029706Y-16163211D02*
X7039229Y-16153688D01*
X7039229Y-16153688D02*
X7058277Y-16144164D01*
X7201134Y-16144164D02*
X7201134Y-16182259D01*
X7277325Y-16144164D02*
X7277325Y-16182259D01*
X7572563Y-16420354D02*
X7563039Y-16410830D01*
X7563039Y-16410830D02*
X7543991Y-16382259D01*
X7543991Y-16382259D02*
X7534468Y-16363211D01*
X7534468Y-16363211D02*
X7524944Y-16334640D01*
X7524944Y-16334640D02*
X7515420Y-16287021D01*
X7515420Y-16287021D02*
X7515420Y-16248926D01*
X7515420Y-16248926D02*
X7524944Y-16201307D01*
X7524944Y-16201307D02*
X7534468Y-16172735D01*
X7534468Y-16172735D02*
X7543991Y-16153688D01*
X7543991Y-16153688D02*
X7563039Y-16125116D01*
X7563039Y-16125116D02*
X7572563Y-16115592D01*
X7753515Y-16344164D02*
X7639229Y-16344164D01*
X7696372Y-16344164D02*
X7696372Y-16144164D01*
X7696372Y-16144164D02*
X7677325Y-16172735D01*
X7677325Y-16172735D02*
X7658277Y-16191783D01*
X7658277Y-16191783D02*
X7639229Y-16201307D01*
X7924944Y-16210830D02*
X7924944Y-16344164D01*
X7877325Y-16134640D02*
X7829706Y-16277497D01*
X7829706Y-16277497D02*
X7953515Y-16277497D01*
X8182087Y-16344164D02*
X8182087Y-16144164D01*
X8267801Y-16344164D02*
X8267801Y-16239402D01*
X8267801Y-16239402D02*
X8258277Y-16220354D01*
X8258277Y-16220354D02*
X8239230Y-16210830D01*
X8239230Y-16210830D02*
X8210658Y-16210830D01*
X8210658Y-16210830D02*
X8191610Y-16220354D01*
X8191610Y-16220354D02*
X8182087Y-16229878D01*
X8391611Y-16344164D02*
X8372563Y-16334640D01*
X8372563Y-16334640D02*
X8363039Y-16325116D01*
X8363039Y-16325116D02*
X8353515Y-16306068D01*
X8353515Y-16306068D02*
X8353515Y-16248926D01*
X8353515Y-16248926D02*
X8363039Y-16229878D01*
X8363039Y-16229878D02*
X8372563Y-16220354D01*
X8372563Y-16220354D02*
X8391611Y-16210830D01*
X8391611Y-16210830D02*
X8420182Y-16210830D01*
X8420182Y-16210830D02*
X8439230Y-16220354D01*
X8439230Y-16220354D02*
X8448753Y-16229878D01*
X8448753Y-16229878D02*
X8458277Y-16248926D01*
X8458277Y-16248926D02*
X8458277Y-16306068D01*
X8458277Y-16306068D02*
X8448753Y-16325116D01*
X8448753Y-16325116D02*
X8439230Y-16334640D01*
X8439230Y-16334640D02*
X8420182Y-16344164D01*
X8420182Y-16344164D02*
X8391611Y-16344164D01*
X8572563Y-16344164D02*
X8553515Y-16334640D01*
X8553515Y-16334640D02*
X8543992Y-16315592D01*
X8543992Y-16315592D02*
X8543992Y-16144164D01*
X8724944Y-16334640D02*
X8705896Y-16344164D01*
X8705896Y-16344164D02*
X8667801Y-16344164D01*
X8667801Y-16344164D02*
X8648753Y-16334640D01*
X8648753Y-16334640D02*
X8639230Y-16315592D01*
X8639230Y-16315592D02*
X8639230Y-16239402D01*
X8639230Y-16239402D02*
X8648753Y-16220354D01*
X8648753Y-16220354D02*
X8667801Y-16210830D01*
X8667801Y-16210830D02*
X8705896Y-16210830D01*
X8705896Y-16210830D02*
X8724944Y-16220354D01*
X8724944Y-16220354D02*
X8734468Y-16239402D01*
X8734468Y-16239402D02*
X8734468Y-16258449D01*
X8734468Y-16258449D02*
X8639230Y-16277497D01*
X8810658Y-16334640D02*
X8829706Y-16344164D01*
X8829706Y-16344164D02*
X8867801Y-16344164D01*
X8867801Y-16344164D02*
X8886849Y-16334640D01*
X8886849Y-16334640D02*
X8896373Y-16315592D01*
X8896373Y-16315592D02*
X8896373Y-16306068D01*
X8896373Y-16306068D02*
X8886849Y-16287021D01*
X8886849Y-16287021D02*
X8867801Y-16277497D01*
X8867801Y-16277497D02*
X8839230Y-16277497D01*
X8839230Y-16277497D02*
X8820182Y-16267973D01*
X8820182Y-16267973D02*
X8810658Y-16248926D01*
X8810658Y-16248926D02*
X8810658Y-16239402D01*
X8810658Y-16239402D02*
X8820182Y-16220354D01*
X8820182Y-16220354D02*
X8839230Y-16210830D01*
X8839230Y-16210830D02*
X8867801Y-16210830D01*
X8867801Y-16210830D02*
X8886849Y-16220354D01*
X8963039Y-16420354D02*
X8972563Y-16410830D01*
X8972563Y-16410830D02*
X8991611Y-16382259D01*
X8991611Y-16382259D02*
X9001134Y-16363211D01*
X9001134Y-16363211D02*
X9010658Y-16334640D01*
X9010658Y-16334640D02*
X9020182Y-16287021D01*
X9020182Y-16287021D02*
X9020182Y-16248926D01*
X9020182Y-16248926D02*
X9010658Y-16201307D01*
X9010658Y-16201307D02*
X9001134Y-16172735D01*
X9001134Y-16172735D02*
X8991611Y-16153688D01*
X8991611Y-16153688D02*
X8972563Y-16125116D01*
X8972563Y-16125116D02*
X8963039Y-16115592D01*
X9324944Y-16420354D02*
X9315420Y-16410830D01*
X9315420Y-16410830D02*
X9296373Y-16382259D01*
X9296373Y-16382259D02*
X9286849Y-16363211D01*
X9286849Y-16363211D02*
X9277325Y-16334640D01*
X9277325Y-16334640D02*
X9267801Y-16287021D01*
X9267801Y-16287021D02*
X9267801Y-16248926D01*
X9267801Y-16248926D02*
X9277325Y-16201307D01*
X9277325Y-16201307D02*
X9286849Y-16172735D01*
X9286849Y-16172735D02*
X9296373Y-16153688D01*
X9296373Y-16153688D02*
X9315420Y-16125116D01*
X9315420Y-16125116D02*
X9324944Y-16115592D01*
X9401134Y-16210830D02*
X9401134Y-16344164D01*
X9401134Y-16229878D02*
X9410658Y-16220354D01*
X9410658Y-16220354D02*
X9429706Y-16210830D01*
X9429706Y-16210830D02*
X9458277Y-16210830D01*
X9458277Y-16210830D02*
X9477325Y-16220354D01*
X9477325Y-16220354D02*
X9486849Y-16239402D01*
X9486849Y-16239402D02*
X9486849Y-16344164D01*
X9610658Y-16344164D02*
X9591611Y-16334640D01*
X9591611Y-16334640D02*
X9582087Y-16325116D01*
X9582087Y-16325116D02*
X9572563Y-16306068D01*
X9572563Y-16306068D02*
X9572563Y-16248926D01*
X9572563Y-16248926D02*
X9582087Y-16229878D01*
X9582087Y-16229878D02*
X9591611Y-16220354D01*
X9591611Y-16220354D02*
X9610658Y-16210830D01*
X9610658Y-16210830D02*
X9639230Y-16210830D01*
X9639230Y-16210830D02*
X9658277Y-16220354D01*
X9658277Y-16220354D02*
X9667801Y-16229878D01*
X9667801Y-16229878D02*
X9677325Y-16248926D01*
X9677325Y-16248926D02*
X9677325Y-16306068D01*
X9677325Y-16306068D02*
X9667801Y-16325116D01*
X9667801Y-16325116D02*
X9658277Y-16334640D01*
X9658277Y-16334640D02*
X9639230Y-16344164D01*
X9639230Y-16344164D02*
X9610658Y-16344164D01*
X9734468Y-16210830D02*
X9810658Y-16210830D01*
X9763039Y-16144164D02*
X9763039Y-16315592D01*
X9763039Y-16315592D02*
X9772563Y-16334640D01*
X9772563Y-16334640D02*
X9791611Y-16344164D01*
X9791611Y-16344164D02*
X9810658Y-16344164D01*
X10029706Y-16210830D02*
X10029706Y-16410830D01*
X10029706Y-16220354D02*
X10048754Y-16210830D01*
X10048754Y-16210830D02*
X10086849Y-16210830D01*
X10086849Y-16210830D02*
X10105896Y-16220354D01*
X10105896Y-16220354D02*
X10115420Y-16229878D01*
X10115420Y-16229878D02*
X10124944Y-16248926D01*
X10124944Y-16248926D02*
X10124944Y-16306068D01*
X10124944Y-16306068D02*
X10115420Y-16325116D01*
X10115420Y-16325116D02*
X10105896Y-16334640D01*
X10105896Y-16334640D02*
X10086849Y-16344164D01*
X10086849Y-16344164D02*
X10048754Y-16344164D01*
X10048754Y-16344164D02*
X10029706Y-16334640D01*
X10239230Y-16344164D02*
X10220182Y-16334640D01*
X10220182Y-16334640D02*
X10210658Y-16315592D01*
X10210658Y-16315592D02*
X10210658Y-16144164D01*
X10401135Y-16344164D02*
X10401135Y-16239402D01*
X10401135Y-16239402D02*
X10391611Y-16220354D01*
X10391611Y-16220354D02*
X10372563Y-16210830D01*
X10372563Y-16210830D02*
X10334468Y-16210830D01*
X10334468Y-16210830D02*
X10315420Y-16220354D01*
X10401135Y-16334640D02*
X10382087Y-16344164D01*
X10382087Y-16344164D02*
X10334468Y-16344164D01*
X10334468Y-16344164D02*
X10315420Y-16334640D01*
X10315420Y-16334640D02*
X10305896Y-16315592D01*
X10305896Y-16315592D02*
X10305896Y-16296545D01*
X10305896Y-16296545D02*
X10315420Y-16277497D01*
X10315420Y-16277497D02*
X10334468Y-16267973D01*
X10334468Y-16267973D02*
X10382087Y-16267973D01*
X10382087Y-16267973D02*
X10401135Y-16258449D01*
X10467801Y-16210830D02*
X10543992Y-16210830D01*
X10496373Y-16144164D02*
X10496373Y-16315592D01*
X10496373Y-16315592D02*
X10505896Y-16334640D01*
X10505896Y-16334640D02*
X10524944Y-16344164D01*
X10524944Y-16344164D02*
X10543992Y-16344164D01*
X10686849Y-16334640D02*
X10667801Y-16344164D01*
X10667801Y-16344164D02*
X10629706Y-16344164D01*
X10629706Y-16344164D02*
X10610658Y-16334640D01*
X10610658Y-16334640D02*
X10601135Y-16315592D01*
X10601135Y-16315592D02*
X10601135Y-16239402D01*
X10601135Y-16239402D02*
X10610658Y-16220354D01*
X10610658Y-16220354D02*
X10629706Y-16210830D01*
X10629706Y-16210830D02*
X10667801Y-16210830D01*
X10667801Y-16210830D02*
X10686849Y-16220354D01*
X10686849Y-16220354D02*
X10696373Y-16239402D01*
X10696373Y-16239402D02*
X10696373Y-16258449D01*
X10696373Y-16258449D02*
X10601135Y-16277497D01*
X10867801Y-16344164D02*
X10867801Y-16144164D01*
X10867801Y-16334640D02*
X10848754Y-16344164D01*
X10848754Y-16344164D02*
X10810658Y-16344164D01*
X10810658Y-16344164D02*
X10791611Y-16334640D01*
X10791611Y-16334640D02*
X10782087Y-16325116D01*
X10782087Y-16325116D02*
X10772563Y-16306068D01*
X10772563Y-16306068D02*
X10772563Y-16248926D01*
X10772563Y-16248926D02*
X10782087Y-16229878D01*
X10782087Y-16229878D02*
X10791611Y-16220354D01*
X10791611Y-16220354D02*
X10810658Y-16210830D01*
X10810658Y-16210830D02*
X10848754Y-16210830D01*
X10848754Y-16210830D02*
X10867801Y-16220354D01*
X10943992Y-16420354D02*
X10953516Y-16410830D01*
X10953516Y-16410830D02*
X10972563Y-16382259D01*
X10972563Y-16382259D02*
X10982087Y-16363211D01*
X10982087Y-16363211D02*
X10991611Y-16334640D01*
X10991611Y-16334640D02*
X11001135Y-16287021D01*
X11001135Y-16287021D02*
X11001135Y-16248926D01*
X11001135Y-16248926D02*
X10991611Y-16201307D01*
X10991611Y-16201307D02*
X10982087Y-16172735D01*
X10982087Y-16172735D02*
X10972563Y-16153688D01*
X10972563Y-16153688D02*
X10953516Y-16125116D01*
X10953516Y-16125116D02*
X10943992Y-16115592D01*
X3968211Y-16643391D02*
X3968211Y-16501969D01*
X3826789Y-16501969D01*
X3826789Y-16643391D01*
X3968211Y-16643391D01*
X4343991Y-16464164D02*
X4305896Y-16464164D01*
X4305896Y-16464164D02*
X4286848Y-16473688D01*
X4286848Y-16473688D02*
X4277324Y-16483211D01*
X4277324Y-16483211D02*
X4258277Y-16511783D01*
X4258277Y-16511783D02*
X4248753Y-16549878D01*
X4248753Y-16549878D02*
X4248753Y-16626068D01*
X4248753Y-16626068D02*
X4258277Y-16645116D01*
X4258277Y-16645116D02*
X4267801Y-16654640D01*
X4267801Y-16654640D02*
X4286848Y-16664164D01*
X4286848Y-16664164D02*
X4324944Y-16664164D01*
X4324944Y-16664164D02*
X4343991Y-16654640D01*
X4343991Y-16654640D02*
X4353515Y-16645116D01*
X4353515Y-16645116D02*
X4363039Y-16626068D01*
X4363039Y-16626068D02*
X4363039Y-16578449D01*
X4363039Y-16578449D02*
X4353515Y-16559402D01*
X4353515Y-16559402D02*
X4343991Y-16549878D01*
X4343991Y-16549878D02*
X4324944Y-16540354D01*
X4324944Y-16540354D02*
X4286848Y-16540354D01*
X4286848Y-16540354D02*
X4267801Y-16549878D01*
X4267801Y-16549878D02*
X4258277Y-16559402D01*
X4258277Y-16559402D02*
X4248753Y-16578449D01*
X4448753Y-16645116D02*
X4458277Y-16654640D01*
X4458277Y-16654640D02*
X4448753Y-16664164D01*
X4448753Y-16664164D02*
X4439229Y-16654640D01*
X4439229Y-16654640D02*
X4448753Y-16645116D01*
X4448753Y-16645116D02*
X4448753Y-16664164D01*
X4629705Y-16530830D02*
X4629705Y-16664164D01*
X4582086Y-16454640D02*
X4534467Y-16597497D01*
X4534467Y-16597497D02*
X4658277Y-16597497D01*
X4772563Y-16464164D02*
X4791610Y-16464164D01*
X4791610Y-16464164D02*
X4810658Y-16473688D01*
X4810658Y-16473688D02*
X4820182Y-16483211D01*
X4820182Y-16483211D02*
X4829705Y-16502259D01*
X4829705Y-16502259D02*
X4839229Y-16540354D01*
X4839229Y-16540354D02*
X4839229Y-16587973D01*
X4839229Y-16587973D02*
X4829705Y-16626068D01*
X4829705Y-16626068D02*
X4820182Y-16645116D01*
X4820182Y-16645116D02*
X4810658Y-16654640D01*
X4810658Y-16654640D02*
X4791610Y-16664164D01*
X4791610Y-16664164D02*
X4772563Y-16664164D01*
X4772563Y-16664164D02*
X4753515Y-16654640D01*
X4753515Y-16654640D02*
X4743991Y-16645116D01*
X4743991Y-16645116D02*
X4734467Y-16626068D01*
X4734467Y-16626068D02*
X4724944Y-16587973D01*
X4724944Y-16587973D02*
X4724944Y-16540354D01*
X4724944Y-16540354D02*
X4734467Y-16502259D01*
X4734467Y-16502259D02*
X4743991Y-16483211D01*
X4743991Y-16483211D02*
X4753515Y-16473688D01*
X4753515Y-16473688D02*
X4772563Y-16464164D01*
X4963039Y-16464164D02*
X4982086Y-16464164D01*
X4982086Y-16464164D02*
X5001134Y-16473688D01*
X5001134Y-16473688D02*
X5010658Y-16483211D01*
X5010658Y-16483211D02*
X5020182Y-16502259D01*
X5020182Y-16502259D02*
X5029705Y-16540354D01*
X5029705Y-16540354D02*
X5029705Y-16587973D01*
X5029705Y-16587973D02*
X5020182Y-16626068D01*
X5020182Y-16626068D02*
X5010658Y-16645116D01*
X5010658Y-16645116D02*
X5001134Y-16654640D01*
X5001134Y-16654640D02*
X4982086Y-16664164D01*
X4982086Y-16664164D02*
X4963039Y-16664164D01*
X4963039Y-16664164D02*
X4943991Y-16654640D01*
X4943991Y-16654640D02*
X4934467Y-16645116D01*
X4934467Y-16645116D02*
X4924944Y-16626068D01*
X4924944Y-16626068D02*
X4915420Y-16587973D01*
X4915420Y-16587973D02*
X4915420Y-16540354D01*
X4915420Y-16540354D02*
X4924944Y-16502259D01*
X4924944Y-16502259D02*
X4934467Y-16483211D01*
X4934467Y-16483211D02*
X4943991Y-16473688D01*
X4943991Y-16473688D02*
X4963039Y-16464164D01*
X5115420Y-16664164D02*
X5115420Y-16530830D01*
X5115420Y-16549878D02*
X5124944Y-16540354D01*
X5124944Y-16540354D02*
X5143991Y-16530830D01*
X5143991Y-16530830D02*
X5172563Y-16530830D01*
X5172563Y-16530830D02*
X5191610Y-16540354D01*
X5191610Y-16540354D02*
X5201134Y-16559402D01*
X5201134Y-16559402D02*
X5201134Y-16664164D01*
X5201134Y-16559402D02*
X5210658Y-16540354D01*
X5210658Y-16540354D02*
X5229705Y-16530830D01*
X5229705Y-16530830D02*
X5258277Y-16530830D01*
X5258277Y-16530830D02*
X5277325Y-16540354D01*
X5277325Y-16540354D02*
X5286848Y-16559402D01*
X5286848Y-16559402D02*
X5286848Y-16664164D01*
X5382086Y-16664164D02*
X5382086Y-16530830D01*
X5382086Y-16549878D02*
X5391610Y-16540354D01*
X5391610Y-16540354D02*
X5410658Y-16530830D01*
X5410658Y-16530830D02*
X5439229Y-16530830D01*
X5439229Y-16530830D02*
X5458277Y-16540354D01*
X5458277Y-16540354D02*
X5467801Y-16559402D01*
X5467801Y-16559402D02*
X5467801Y-16664164D01*
X5467801Y-16559402D02*
X5477325Y-16540354D01*
X5477325Y-16540354D02*
X5496372Y-16530830D01*
X5496372Y-16530830D02*
X5524944Y-16530830D01*
X5524944Y-16530830D02*
X5543991Y-16540354D01*
X5543991Y-16540354D02*
X5553515Y-16559402D01*
X5553515Y-16559402D02*
X5553515Y-16664164D01*
X5943991Y-16454640D02*
X5772563Y-16711783D01*
X6201134Y-16464164D02*
X6220182Y-16464164D01*
X6220182Y-16464164D02*
X6239229Y-16473688D01*
X6239229Y-16473688D02*
X6248753Y-16483211D01*
X6248753Y-16483211D02*
X6258277Y-16502259D01*
X6258277Y-16502259D02*
X6267801Y-16540354D01*
X6267801Y-16540354D02*
X6267801Y-16587973D01*
X6267801Y-16587973D02*
X6258277Y-16626068D01*
X6258277Y-16626068D02*
X6248753Y-16645116D01*
X6248753Y-16645116D02*
X6239229Y-16654640D01*
X6239229Y-16654640D02*
X6220182Y-16664164D01*
X6220182Y-16664164D02*
X6201134Y-16664164D01*
X6201134Y-16664164D02*
X6182086Y-16654640D01*
X6182086Y-16654640D02*
X6172563Y-16645116D01*
X6172563Y-16645116D02*
X6163039Y-16626068D01*
X6163039Y-16626068D02*
X6153515Y-16587973D01*
X6153515Y-16587973D02*
X6153515Y-16540354D01*
X6153515Y-16540354D02*
X6163039Y-16502259D01*
X6163039Y-16502259D02*
X6172563Y-16483211D01*
X6172563Y-16483211D02*
X6182086Y-16473688D01*
X6182086Y-16473688D02*
X6201134Y-16464164D01*
X6353515Y-16645116D02*
X6363039Y-16654640D01*
X6363039Y-16654640D02*
X6353515Y-16664164D01*
X6353515Y-16664164D02*
X6343991Y-16654640D01*
X6343991Y-16654640D02*
X6353515Y-16645116D01*
X6353515Y-16645116D02*
X6353515Y-16664164D01*
X6439229Y-16483211D02*
X6448753Y-16473688D01*
X6448753Y-16473688D02*
X6467801Y-16464164D01*
X6467801Y-16464164D02*
X6515420Y-16464164D01*
X6515420Y-16464164D02*
X6534467Y-16473688D01*
X6534467Y-16473688D02*
X6543991Y-16483211D01*
X6543991Y-16483211D02*
X6553515Y-16502259D01*
X6553515Y-16502259D02*
X6553515Y-16521307D01*
X6553515Y-16521307D02*
X6543991Y-16549878D01*
X6543991Y-16549878D02*
X6429706Y-16664164D01*
X6429706Y-16664164D02*
X6553515Y-16664164D01*
X6734467Y-16464164D02*
X6639229Y-16464164D01*
X6639229Y-16464164D02*
X6629706Y-16559402D01*
X6629706Y-16559402D02*
X6639229Y-16549878D01*
X6639229Y-16549878D02*
X6658277Y-16540354D01*
X6658277Y-16540354D02*
X6705896Y-16540354D01*
X6705896Y-16540354D02*
X6724944Y-16549878D01*
X6724944Y-16549878D02*
X6734467Y-16559402D01*
X6734467Y-16559402D02*
X6743991Y-16578449D01*
X6743991Y-16578449D02*
X6743991Y-16626068D01*
X6743991Y-16626068D02*
X6734467Y-16645116D01*
X6734467Y-16645116D02*
X6724944Y-16654640D01*
X6724944Y-16654640D02*
X6705896Y-16664164D01*
X6705896Y-16664164D02*
X6658277Y-16664164D01*
X6658277Y-16664164D02*
X6639229Y-16654640D01*
X6639229Y-16654640D02*
X6629706Y-16645116D01*
X6820182Y-16483211D02*
X6829706Y-16473688D01*
X6829706Y-16473688D02*
X6848753Y-16464164D01*
X6848753Y-16464164D02*
X6896372Y-16464164D01*
X6896372Y-16464164D02*
X6915420Y-16473688D01*
X6915420Y-16473688D02*
X6924944Y-16483211D01*
X6924944Y-16483211D02*
X6934467Y-16502259D01*
X6934467Y-16502259D02*
X6934467Y-16521307D01*
X6934467Y-16521307D02*
X6924944Y-16549878D01*
X6924944Y-16549878D02*
X6810658Y-16664164D01*
X6810658Y-16664164D02*
X6934467Y-16664164D01*
X7058277Y-16464164D02*
X7077325Y-16464164D01*
X7077325Y-16464164D02*
X7096372Y-16473688D01*
X7096372Y-16473688D02*
X7105896Y-16483211D01*
X7105896Y-16483211D02*
X7115420Y-16502259D01*
X7115420Y-16502259D02*
X7124944Y-16540354D01*
X7124944Y-16540354D02*
X7124944Y-16587973D01*
X7124944Y-16587973D02*
X7115420Y-16626068D01*
X7115420Y-16626068D02*
X7105896Y-16645116D01*
X7105896Y-16645116D02*
X7096372Y-16654640D01*
X7096372Y-16654640D02*
X7077325Y-16664164D01*
X7077325Y-16664164D02*
X7058277Y-16664164D01*
X7058277Y-16664164D02*
X7039229Y-16654640D01*
X7039229Y-16654640D02*
X7029706Y-16645116D01*
X7029706Y-16645116D02*
X7020182Y-16626068D01*
X7020182Y-16626068D02*
X7010658Y-16587973D01*
X7010658Y-16587973D02*
X7010658Y-16540354D01*
X7010658Y-16540354D02*
X7020182Y-16502259D01*
X7020182Y-16502259D02*
X7029706Y-16483211D01*
X7029706Y-16483211D02*
X7039229Y-16473688D01*
X7039229Y-16473688D02*
X7058277Y-16464164D01*
X7201134Y-16464164D02*
X7201134Y-16502259D01*
X7277325Y-16464164D02*
X7277325Y-16502259D01*
X7572563Y-16740354D02*
X7563039Y-16730830D01*
X7563039Y-16730830D02*
X7543991Y-16702259D01*
X7543991Y-16702259D02*
X7534468Y-16683211D01*
X7534468Y-16683211D02*
X7524944Y-16654640D01*
X7524944Y-16654640D02*
X7515420Y-16607021D01*
X7515420Y-16607021D02*
X7515420Y-16568926D01*
X7515420Y-16568926D02*
X7524944Y-16521307D01*
X7524944Y-16521307D02*
X7534468Y-16492735D01*
X7534468Y-16492735D02*
X7543991Y-16473688D01*
X7543991Y-16473688D02*
X7563039Y-16445116D01*
X7563039Y-16445116D02*
X7572563Y-16435592D01*
X7629706Y-16464164D02*
X7763039Y-16464164D01*
X7763039Y-16464164D02*
X7677325Y-16664164D01*
X7991610Y-16664164D02*
X7991610Y-16464164D01*
X8077325Y-16664164D02*
X8077325Y-16559402D01*
X8077325Y-16559402D02*
X8067801Y-16540354D01*
X8067801Y-16540354D02*
X8048753Y-16530830D01*
X8048753Y-16530830D02*
X8020182Y-16530830D01*
X8020182Y-16530830D02*
X8001134Y-16540354D01*
X8001134Y-16540354D02*
X7991610Y-16549878D01*
X8201134Y-16664164D02*
X8182087Y-16654640D01*
X8182087Y-16654640D02*
X8172563Y-16645116D01*
X8172563Y-16645116D02*
X8163039Y-16626068D01*
X8163039Y-16626068D02*
X8163039Y-16568926D01*
X8163039Y-16568926D02*
X8172563Y-16549878D01*
X8172563Y-16549878D02*
X8182087Y-16540354D01*
X8182087Y-16540354D02*
X8201134Y-16530830D01*
X8201134Y-16530830D02*
X8229706Y-16530830D01*
X8229706Y-16530830D02*
X8248753Y-16540354D01*
X8248753Y-16540354D02*
X8258277Y-16549878D01*
X8258277Y-16549878D02*
X8267801Y-16568926D01*
X8267801Y-16568926D02*
X8267801Y-16626068D01*
X8267801Y-16626068D02*
X8258277Y-16645116D01*
X8258277Y-16645116D02*
X8248753Y-16654640D01*
X8248753Y-16654640D02*
X8229706Y-16664164D01*
X8229706Y-16664164D02*
X8201134Y-16664164D01*
X8382087Y-16664164D02*
X8363039Y-16654640D01*
X8363039Y-16654640D02*
X8353515Y-16635592D01*
X8353515Y-16635592D02*
X8353515Y-16464164D01*
X8534468Y-16654640D02*
X8515420Y-16664164D01*
X8515420Y-16664164D02*
X8477325Y-16664164D01*
X8477325Y-16664164D02*
X8458277Y-16654640D01*
X8458277Y-16654640D02*
X8448753Y-16635592D01*
X8448753Y-16635592D02*
X8448753Y-16559402D01*
X8448753Y-16559402D02*
X8458277Y-16540354D01*
X8458277Y-16540354D02*
X8477325Y-16530830D01*
X8477325Y-16530830D02*
X8515420Y-16530830D01*
X8515420Y-16530830D02*
X8534468Y-16540354D01*
X8534468Y-16540354D02*
X8543992Y-16559402D01*
X8543992Y-16559402D02*
X8543992Y-16578449D01*
X8543992Y-16578449D02*
X8448753Y-16597497D01*
X8620182Y-16654640D02*
X8639230Y-16664164D01*
X8639230Y-16664164D02*
X8677325Y-16664164D01*
X8677325Y-16664164D02*
X8696373Y-16654640D01*
X8696373Y-16654640D02*
X8705896Y-16635592D01*
X8705896Y-16635592D02*
X8705896Y-16626068D01*
X8705896Y-16626068D02*
X8696373Y-16607021D01*
X8696373Y-16607021D02*
X8677325Y-16597497D01*
X8677325Y-16597497D02*
X8648753Y-16597497D01*
X8648753Y-16597497D02*
X8629706Y-16587973D01*
X8629706Y-16587973D02*
X8620182Y-16568926D01*
X8620182Y-16568926D02*
X8620182Y-16559402D01*
X8620182Y-16559402D02*
X8629706Y-16540354D01*
X8629706Y-16540354D02*
X8648753Y-16530830D01*
X8648753Y-16530830D02*
X8677325Y-16530830D01*
X8677325Y-16530830D02*
X8696373Y-16540354D01*
X8772563Y-16740354D02*
X8782087Y-16730830D01*
X8782087Y-16730830D02*
X8801134Y-16702259D01*
X8801134Y-16702259D02*
X8810658Y-16683211D01*
X8810658Y-16683211D02*
X8820182Y-16654640D01*
X8820182Y-16654640D02*
X8829706Y-16607021D01*
X8829706Y-16607021D02*
X8829706Y-16568926D01*
X8829706Y-16568926D02*
X8820182Y-16521307D01*
X8820182Y-16521307D02*
X8810658Y-16492735D01*
X8810658Y-16492735D02*
X8801134Y-16473688D01*
X8801134Y-16473688D02*
X8782087Y-16445116D01*
X8782087Y-16445116D02*
X8772563Y-16435592D01*
X9134468Y-16740354D02*
X9124944Y-16730830D01*
X9124944Y-16730830D02*
X9105896Y-16702259D01*
X9105896Y-16702259D02*
X9096373Y-16683211D01*
X9096373Y-16683211D02*
X9086849Y-16654640D01*
X9086849Y-16654640D02*
X9077325Y-16607021D01*
X9077325Y-16607021D02*
X9077325Y-16568926D01*
X9077325Y-16568926D02*
X9086849Y-16521307D01*
X9086849Y-16521307D02*
X9096373Y-16492735D01*
X9096373Y-16492735D02*
X9105896Y-16473688D01*
X9105896Y-16473688D02*
X9124944Y-16445116D01*
X9124944Y-16445116D02*
X9134468Y-16435592D01*
X9210658Y-16530830D02*
X9210658Y-16664164D01*
X9210658Y-16549878D02*
X9220182Y-16540354D01*
X9220182Y-16540354D02*
X9239230Y-16530830D01*
X9239230Y-16530830D02*
X9267801Y-16530830D01*
X9267801Y-16530830D02*
X9286849Y-16540354D01*
X9286849Y-16540354D02*
X9296373Y-16559402D01*
X9296373Y-16559402D02*
X9296373Y-16664164D01*
X9420182Y-16664164D02*
X9401134Y-16654640D01*
X9401134Y-16654640D02*
X9391611Y-16645116D01*
X9391611Y-16645116D02*
X9382087Y-16626068D01*
X9382087Y-16626068D02*
X9382087Y-16568926D01*
X9382087Y-16568926D02*
X9391611Y-16549878D01*
X9391611Y-16549878D02*
X9401134Y-16540354D01*
X9401134Y-16540354D02*
X9420182Y-16530830D01*
X9420182Y-16530830D02*
X9448754Y-16530830D01*
X9448754Y-16530830D02*
X9467801Y-16540354D01*
X9467801Y-16540354D02*
X9477325Y-16549878D01*
X9477325Y-16549878D02*
X9486849Y-16568926D01*
X9486849Y-16568926D02*
X9486849Y-16626068D01*
X9486849Y-16626068D02*
X9477325Y-16645116D01*
X9477325Y-16645116D02*
X9467801Y-16654640D01*
X9467801Y-16654640D02*
X9448754Y-16664164D01*
X9448754Y-16664164D02*
X9420182Y-16664164D01*
X9543992Y-16530830D02*
X9620182Y-16530830D01*
X9572563Y-16464164D02*
X9572563Y-16635592D01*
X9572563Y-16635592D02*
X9582087Y-16654640D01*
X9582087Y-16654640D02*
X9601134Y-16664164D01*
X9601134Y-16664164D02*
X9620182Y-16664164D01*
X9839230Y-16530830D02*
X9839230Y-16730830D01*
X9839230Y-16540354D02*
X9858277Y-16530830D01*
X9858277Y-16530830D02*
X9896373Y-16530830D01*
X9896373Y-16530830D02*
X9915420Y-16540354D01*
X9915420Y-16540354D02*
X9924944Y-16549878D01*
X9924944Y-16549878D02*
X9934468Y-16568926D01*
X9934468Y-16568926D02*
X9934468Y-16626068D01*
X9934468Y-16626068D02*
X9924944Y-16645116D01*
X9924944Y-16645116D02*
X9915420Y-16654640D01*
X9915420Y-16654640D02*
X9896373Y-16664164D01*
X9896373Y-16664164D02*
X9858277Y-16664164D01*
X9858277Y-16664164D02*
X9839230Y-16654640D01*
X10048754Y-16664164D02*
X10029706Y-16654640D01*
X10029706Y-16654640D02*
X10020182Y-16635592D01*
X10020182Y-16635592D02*
X10020182Y-16464164D01*
X10210658Y-16664164D02*
X10210658Y-16559402D01*
X10210658Y-16559402D02*
X10201135Y-16540354D01*
X10201135Y-16540354D02*
X10182087Y-16530830D01*
X10182087Y-16530830D02*
X10143992Y-16530830D01*
X10143992Y-16530830D02*
X10124944Y-16540354D01*
X10210658Y-16654640D02*
X10191611Y-16664164D01*
X10191611Y-16664164D02*
X10143992Y-16664164D01*
X10143992Y-16664164D02*
X10124944Y-16654640D01*
X10124944Y-16654640D02*
X10115420Y-16635592D01*
X10115420Y-16635592D02*
X10115420Y-16616545D01*
X10115420Y-16616545D02*
X10124944Y-16597497D01*
X10124944Y-16597497D02*
X10143992Y-16587973D01*
X10143992Y-16587973D02*
X10191611Y-16587973D01*
X10191611Y-16587973D02*
X10210658Y-16578449D01*
X10277325Y-16530830D02*
X10353515Y-16530830D01*
X10305896Y-16464164D02*
X10305896Y-16635592D01*
X10305896Y-16635592D02*
X10315420Y-16654640D01*
X10315420Y-16654640D02*
X10334468Y-16664164D01*
X10334468Y-16664164D02*
X10353515Y-16664164D01*
X10496373Y-16654640D02*
X10477325Y-16664164D01*
X10477325Y-16664164D02*
X10439230Y-16664164D01*
X10439230Y-16664164D02*
X10420182Y-16654640D01*
X10420182Y-16654640D02*
X10410658Y-16635592D01*
X10410658Y-16635592D02*
X10410658Y-16559402D01*
X10410658Y-16559402D02*
X10420182Y-16540354D01*
X10420182Y-16540354D02*
X10439230Y-16530830D01*
X10439230Y-16530830D02*
X10477325Y-16530830D01*
X10477325Y-16530830D02*
X10496373Y-16540354D01*
X10496373Y-16540354D02*
X10505896Y-16559402D01*
X10505896Y-16559402D02*
X10505896Y-16578449D01*
X10505896Y-16578449D02*
X10410658Y-16597497D01*
X10677325Y-16664164D02*
X10677325Y-16464164D01*
X10677325Y-16654640D02*
X10658277Y-16664164D01*
X10658277Y-16664164D02*
X10620182Y-16664164D01*
X10620182Y-16664164D02*
X10601135Y-16654640D01*
X10601135Y-16654640D02*
X10591611Y-16645116D01*
X10591611Y-16645116D02*
X10582087Y-16626068D01*
X10582087Y-16626068D02*
X10582087Y-16568926D01*
X10582087Y-16568926D02*
X10591611Y-16549878D01*
X10591611Y-16549878D02*
X10601135Y-16540354D01*
X10601135Y-16540354D02*
X10620182Y-16530830D01*
X10620182Y-16530830D02*
X10658277Y-16530830D01*
X10658277Y-16530830D02*
X10677325Y-16540354D01*
X10753516Y-16740354D02*
X10763039Y-16730830D01*
X10763039Y-16730830D02*
X10782087Y-16702259D01*
X10782087Y-16702259D02*
X10791611Y-16683211D01*
X10791611Y-16683211D02*
X10801135Y-16654640D01*
X10801135Y-16654640D02*
X10810658Y-16607021D01*
X10810658Y-16607021D02*
X10810658Y-16568926D01*
X10810658Y-16568926D02*
X10801135Y-16521307D01*
X10801135Y-16521307D02*
X10791611Y-16492735D01*
X10791611Y-16492735D02*
X10782087Y-16473688D01*
X10782087Y-16473688D02*
X10763039Y-16445116D01*
X10763039Y-16445116D02*
X10753516Y-16435592D01*
M02*
