%TF.GenerationSoftware,KiCad,Pcbnew,7.0.2*%
%TF.CreationDate,2023-08-30T11:11:25-04:00*%
%TF.ProjectId,Flatbox-rev5B,466c6174-626f-4782-9d72-657635422e6b,rev?*%
%TF.SameCoordinates,Original*%
%TF.FileFunction,Legend,Bot*%
%TF.FilePolarity,Positive*%
%FSLAX46Y46*%
G04 Gerber Fmt 4.6, Leading zero omitted, Abs format (unit mm)*
G04 Created by KiCad (PCBNEW 7.0.2) date 2023-08-30 11:11:25*
%MOMM*%
%LPD*%
G01*
G04 APERTURE LIST*
%ADD10C,0.150000*%
%ADD11C,0.120000*%
%ADD12C,1.701800*%
%ADD13C,3.000000*%
%ADD14C,3.429000*%
%ADD15R,2.600000X2.600000*%
%ADD16C,2.032000*%
%ADD17C,6.400000*%
%ADD18C,2.000000*%
%ADD19R,1.000000X1.500000*%
G04 APERTURE END LIST*
D10*
X93098332Y-57965000D02*
X92955475Y-58012619D01*
X92955475Y-58012619D02*
X92717380Y-58012619D01*
X92717380Y-58012619D02*
X92622142Y-57965000D01*
X92622142Y-57965000D02*
X92574523Y-57917380D01*
X92574523Y-57917380D02*
X92526904Y-57822142D01*
X92526904Y-57822142D02*
X92526904Y-57726904D01*
X92526904Y-57726904D02*
X92574523Y-57631666D01*
X92574523Y-57631666D02*
X92622142Y-57584047D01*
X92622142Y-57584047D02*
X92717380Y-57536428D01*
X92717380Y-57536428D02*
X92907856Y-57488809D01*
X92907856Y-57488809D02*
X93003094Y-57441190D01*
X93003094Y-57441190D02*
X93050713Y-57393571D01*
X93050713Y-57393571D02*
X93098332Y-57298333D01*
X93098332Y-57298333D02*
X93098332Y-57203095D01*
X93098332Y-57203095D02*
X93050713Y-57107857D01*
X93050713Y-57107857D02*
X93003094Y-57060238D01*
X93003094Y-57060238D02*
X92907856Y-57012619D01*
X92907856Y-57012619D02*
X92669761Y-57012619D01*
X92669761Y-57012619D02*
X92526904Y-57060238D01*
X92193570Y-57012619D02*
X91955475Y-58012619D01*
X91955475Y-58012619D02*
X91764999Y-57298333D01*
X91764999Y-57298333D02*
X91574523Y-58012619D01*
X91574523Y-58012619D02*
X91336428Y-57012619D01*
X90812618Y-57441190D02*
X90907856Y-57393571D01*
X90907856Y-57393571D02*
X90955475Y-57345952D01*
X90955475Y-57345952D02*
X91003094Y-57250714D01*
X91003094Y-57250714D02*
X91003094Y-57203095D01*
X91003094Y-57203095D02*
X90955475Y-57107857D01*
X90955475Y-57107857D02*
X90907856Y-57060238D01*
X90907856Y-57060238D02*
X90812618Y-57012619D01*
X90812618Y-57012619D02*
X90622142Y-57012619D01*
X90622142Y-57012619D02*
X90526904Y-57060238D01*
X90526904Y-57060238D02*
X90479285Y-57107857D01*
X90479285Y-57107857D02*
X90431666Y-57203095D01*
X90431666Y-57203095D02*
X90431666Y-57250714D01*
X90431666Y-57250714D02*
X90479285Y-57345952D01*
X90479285Y-57345952D02*
X90526904Y-57393571D01*
X90526904Y-57393571D02*
X90622142Y-57441190D01*
X90622142Y-57441190D02*
X90812618Y-57441190D01*
X90812618Y-57441190D02*
X90907856Y-57488809D01*
X90907856Y-57488809D02*
X90955475Y-57536428D01*
X90955475Y-57536428D02*
X91003094Y-57631666D01*
X91003094Y-57631666D02*
X91003094Y-57822142D01*
X91003094Y-57822142D02*
X90955475Y-57917380D01*
X90955475Y-57917380D02*
X90907856Y-57965000D01*
X90907856Y-57965000D02*
X90812618Y-58012619D01*
X90812618Y-58012619D02*
X90622142Y-58012619D01*
X90622142Y-58012619D02*
X90526904Y-57965000D01*
X90526904Y-57965000D02*
X90479285Y-57917380D01*
X90479285Y-57917380D02*
X90431666Y-57822142D01*
X90431666Y-57822142D02*
X90431666Y-57631666D01*
X90431666Y-57631666D02*
X90479285Y-57536428D01*
X90479285Y-57536428D02*
X90526904Y-57488809D01*
X90526904Y-57488809D02*
X90622142Y-57441190D01*
X119698332Y-69315000D02*
X119555475Y-69362619D01*
X119555475Y-69362619D02*
X119317380Y-69362619D01*
X119317380Y-69362619D02*
X119222142Y-69315000D01*
X119222142Y-69315000D02*
X119174523Y-69267380D01*
X119174523Y-69267380D02*
X119126904Y-69172142D01*
X119126904Y-69172142D02*
X119126904Y-69076904D01*
X119126904Y-69076904D02*
X119174523Y-68981666D01*
X119174523Y-68981666D02*
X119222142Y-68934047D01*
X119222142Y-68934047D02*
X119317380Y-68886428D01*
X119317380Y-68886428D02*
X119507856Y-68838809D01*
X119507856Y-68838809D02*
X119603094Y-68791190D01*
X119603094Y-68791190D02*
X119650713Y-68743571D01*
X119650713Y-68743571D02*
X119698332Y-68648333D01*
X119698332Y-68648333D02*
X119698332Y-68553095D01*
X119698332Y-68553095D02*
X119650713Y-68457857D01*
X119650713Y-68457857D02*
X119603094Y-68410238D01*
X119603094Y-68410238D02*
X119507856Y-68362619D01*
X119507856Y-68362619D02*
X119269761Y-68362619D01*
X119269761Y-68362619D02*
X119126904Y-68410238D01*
X118793570Y-68362619D02*
X118555475Y-69362619D01*
X118555475Y-69362619D02*
X118364999Y-68648333D01*
X118364999Y-68648333D02*
X118174523Y-69362619D01*
X118174523Y-69362619D02*
X117936428Y-68362619D01*
X117507856Y-69362619D02*
X117317380Y-69362619D01*
X117317380Y-69362619D02*
X117222142Y-69315000D01*
X117222142Y-69315000D02*
X117174523Y-69267380D01*
X117174523Y-69267380D02*
X117079285Y-69124523D01*
X117079285Y-69124523D02*
X117031666Y-68934047D01*
X117031666Y-68934047D02*
X117031666Y-68553095D01*
X117031666Y-68553095D02*
X117079285Y-68457857D01*
X117079285Y-68457857D02*
X117126904Y-68410238D01*
X117126904Y-68410238D02*
X117222142Y-68362619D01*
X117222142Y-68362619D02*
X117412618Y-68362619D01*
X117412618Y-68362619D02*
X117507856Y-68410238D01*
X117507856Y-68410238D02*
X117555475Y-68457857D01*
X117555475Y-68457857D02*
X117603094Y-68553095D01*
X117603094Y-68553095D02*
X117603094Y-68791190D01*
X117603094Y-68791190D02*
X117555475Y-68886428D01*
X117555475Y-68886428D02*
X117507856Y-68934047D01*
X117507856Y-68934047D02*
X117412618Y-68981666D01*
X117412618Y-68981666D02*
X117222142Y-68981666D01*
X117222142Y-68981666D02*
X117126904Y-68934047D01*
X117126904Y-68934047D02*
X117079285Y-68886428D01*
X117079285Y-68886428D02*
X117031666Y-68791190D01*
X137674523Y-122415000D02*
X137531666Y-122462619D01*
X137531666Y-122462619D02*
X137293571Y-122462619D01*
X137293571Y-122462619D02*
X137198333Y-122415000D01*
X137198333Y-122415000D02*
X137150714Y-122367380D01*
X137150714Y-122367380D02*
X137103095Y-122272142D01*
X137103095Y-122272142D02*
X137103095Y-122176904D01*
X137103095Y-122176904D02*
X137150714Y-122081666D01*
X137150714Y-122081666D02*
X137198333Y-122034047D01*
X137198333Y-122034047D02*
X137293571Y-121986428D01*
X137293571Y-121986428D02*
X137484047Y-121938809D01*
X137484047Y-121938809D02*
X137579285Y-121891190D01*
X137579285Y-121891190D02*
X137626904Y-121843571D01*
X137626904Y-121843571D02*
X137674523Y-121748333D01*
X137674523Y-121748333D02*
X137674523Y-121653095D01*
X137674523Y-121653095D02*
X137626904Y-121557857D01*
X137626904Y-121557857D02*
X137579285Y-121510238D01*
X137579285Y-121510238D02*
X137484047Y-121462619D01*
X137484047Y-121462619D02*
X137245952Y-121462619D01*
X137245952Y-121462619D02*
X137103095Y-121510238D01*
X136769761Y-121462619D02*
X136531666Y-122462619D01*
X136531666Y-122462619D02*
X136341190Y-121748333D01*
X136341190Y-121748333D02*
X136150714Y-122462619D01*
X136150714Y-122462619D02*
X135912619Y-121462619D01*
X135007857Y-122462619D02*
X135579285Y-122462619D01*
X135293571Y-122462619D02*
X135293571Y-121462619D01*
X135293571Y-121462619D02*
X135388809Y-121605476D01*
X135388809Y-121605476D02*
X135484047Y-121700714D01*
X135484047Y-121700714D02*
X135579285Y-121748333D01*
X134436428Y-121891190D02*
X134531666Y-121843571D01*
X134531666Y-121843571D02*
X134579285Y-121795952D01*
X134579285Y-121795952D02*
X134626904Y-121700714D01*
X134626904Y-121700714D02*
X134626904Y-121653095D01*
X134626904Y-121653095D02*
X134579285Y-121557857D01*
X134579285Y-121557857D02*
X134531666Y-121510238D01*
X134531666Y-121510238D02*
X134436428Y-121462619D01*
X134436428Y-121462619D02*
X134245952Y-121462619D01*
X134245952Y-121462619D02*
X134150714Y-121510238D01*
X134150714Y-121510238D02*
X134103095Y-121557857D01*
X134103095Y-121557857D02*
X134055476Y-121653095D01*
X134055476Y-121653095D02*
X134055476Y-121700714D01*
X134055476Y-121700714D02*
X134103095Y-121795952D01*
X134103095Y-121795952D02*
X134150714Y-121843571D01*
X134150714Y-121843571D02*
X134245952Y-121891190D01*
X134245952Y-121891190D02*
X134436428Y-121891190D01*
X134436428Y-121891190D02*
X134531666Y-121938809D01*
X134531666Y-121938809D02*
X134579285Y-121986428D01*
X134579285Y-121986428D02*
X134626904Y-122081666D01*
X134626904Y-122081666D02*
X134626904Y-122272142D01*
X134626904Y-122272142D02*
X134579285Y-122367380D01*
X134579285Y-122367380D02*
X134531666Y-122415000D01*
X134531666Y-122415000D02*
X134436428Y-122462619D01*
X134436428Y-122462619D02*
X134245952Y-122462619D01*
X134245952Y-122462619D02*
X134150714Y-122415000D01*
X134150714Y-122415000D02*
X134103095Y-122367380D01*
X134103095Y-122367380D02*
X134055476Y-122272142D01*
X134055476Y-122272142D02*
X134055476Y-122081666D01*
X134055476Y-122081666D02*
X134103095Y-121986428D01*
X134103095Y-121986428D02*
X134150714Y-121938809D01*
X134150714Y-121938809D02*
X134245952Y-121891190D01*
X155114523Y-57905000D02*
X154971666Y-57952619D01*
X154971666Y-57952619D02*
X154733571Y-57952619D01*
X154733571Y-57952619D02*
X154638333Y-57905000D01*
X154638333Y-57905000D02*
X154590714Y-57857380D01*
X154590714Y-57857380D02*
X154543095Y-57762142D01*
X154543095Y-57762142D02*
X154543095Y-57666904D01*
X154543095Y-57666904D02*
X154590714Y-57571666D01*
X154590714Y-57571666D02*
X154638333Y-57524047D01*
X154638333Y-57524047D02*
X154733571Y-57476428D01*
X154733571Y-57476428D02*
X154924047Y-57428809D01*
X154924047Y-57428809D02*
X155019285Y-57381190D01*
X155019285Y-57381190D02*
X155066904Y-57333571D01*
X155066904Y-57333571D02*
X155114523Y-57238333D01*
X155114523Y-57238333D02*
X155114523Y-57143095D01*
X155114523Y-57143095D02*
X155066904Y-57047857D01*
X155066904Y-57047857D02*
X155019285Y-57000238D01*
X155019285Y-57000238D02*
X154924047Y-56952619D01*
X154924047Y-56952619D02*
X154685952Y-56952619D01*
X154685952Y-56952619D02*
X154543095Y-57000238D01*
X154209761Y-56952619D02*
X153971666Y-57952619D01*
X153971666Y-57952619D02*
X153781190Y-57238333D01*
X153781190Y-57238333D02*
X153590714Y-57952619D01*
X153590714Y-57952619D02*
X153352619Y-56952619D01*
X152447857Y-57952619D02*
X153019285Y-57952619D01*
X152733571Y-57952619D02*
X152733571Y-56952619D01*
X152733571Y-56952619D02*
X152828809Y-57095476D01*
X152828809Y-57095476D02*
X152924047Y-57190714D01*
X152924047Y-57190714D02*
X153019285Y-57238333D01*
X151828809Y-56952619D02*
X151733571Y-56952619D01*
X151733571Y-56952619D02*
X151638333Y-57000238D01*
X151638333Y-57000238D02*
X151590714Y-57047857D01*
X151590714Y-57047857D02*
X151543095Y-57143095D01*
X151543095Y-57143095D02*
X151495476Y-57333571D01*
X151495476Y-57333571D02*
X151495476Y-57571666D01*
X151495476Y-57571666D02*
X151543095Y-57762142D01*
X151543095Y-57762142D02*
X151590714Y-57857380D01*
X151590714Y-57857380D02*
X151638333Y-57905000D01*
X151638333Y-57905000D02*
X151733571Y-57952619D01*
X151733571Y-57952619D02*
X151828809Y-57952619D01*
X151828809Y-57952619D02*
X151924047Y-57905000D01*
X151924047Y-57905000D02*
X151971666Y-57857380D01*
X151971666Y-57857380D02*
X152019285Y-57762142D01*
X152019285Y-57762142D02*
X152066904Y-57571666D01*
X152066904Y-57571666D02*
X152066904Y-57333571D01*
X152066904Y-57333571D02*
X152019285Y-57143095D01*
X152019285Y-57143095D02*
X151971666Y-57047857D01*
X151971666Y-57047857D02*
X151924047Y-57000238D01*
X151924047Y-57000238D02*
X151828809Y-56952619D01*
X181674523Y-46375000D02*
X181531666Y-46422619D01*
X181531666Y-46422619D02*
X181293571Y-46422619D01*
X181293571Y-46422619D02*
X181198333Y-46375000D01*
X181198333Y-46375000D02*
X181150714Y-46327380D01*
X181150714Y-46327380D02*
X181103095Y-46232142D01*
X181103095Y-46232142D02*
X181103095Y-46136904D01*
X181103095Y-46136904D02*
X181150714Y-46041666D01*
X181150714Y-46041666D02*
X181198333Y-45994047D01*
X181198333Y-45994047D02*
X181293571Y-45946428D01*
X181293571Y-45946428D02*
X181484047Y-45898809D01*
X181484047Y-45898809D02*
X181579285Y-45851190D01*
X181579285Y-45851190D02*
X181626904Y-45803571D01*
X181626904Y-45803571D02*
X181674523Y-45708333D01*
X181674523Y-45708333D02*
X181674523Y-45613095D01*
X181674523Y-45613095D02*
X181626904Y-45517857D01*
X181626904Y-45517857D02*
X181579285Y-45470238D01*
X181579285Y-45470238D02*
X181484047Y-45422619D01*
X181484047Y-45422619D02*
X181245952Y-45422619D01*
X181245952Y-45422619D02*
X181103095Y-45470238D01*
X180769761Y-45422619D02*
X180531666Y-46422619D01*
X180531666Y-46422619D02*
X180341190Y-45708333D01*
X180341190Y-45708333D02*
X180150714Y-46422619D01*
X180150714Y-46422619D02*
X179912619Y-45422619D01*
X179007857Y-46422619D02*
X179579285Y-46422619D01*
X179293571Y-46422619D02*
X179293571Y-45422619D01*
X179293571Y-45422619D02*
X179388809Y-45565476D01*
X179388809Y-45565476D02*
X179484047Y-45660714D01*
X179484047Y-45660714D02*
X179579285Y-45708333D01*
X178055476Y-46422619D02*
X178626904Y-46422619D01*
X178341190Y-46422619D02*
X178341190Y-45422619D01*
X178341190Y-45422619D02*
X178436428Y-45565476D01*
X178436428Y-45565476D02*
X178531666Y-45660714D01*
X178531666Y-45660714D02*
X178626904Y-45708333D01*
X210644523Y-46255000D02*
X210501666Y-46302619D01*
X210501666Y-46302619D02*
X210263571Y-46302619D01*
X210263571Y-46302619D02*
X210168333Y-46255000D01*
X210168333Y-46255000D02*
X210120714Y-46207380D01*
X210120714Y-46207380D02*
X210073095Y-46112142D01*
X210073095Y-46112142D02*
X210073095Y-46016904D01*
X210073095Y-46016904D02*
X210120714Y-45921666D01*
X210120714Y-45921666D02*
X210168333Y-45874047D01*
X210168333Y-45874047D02*
X210263571Y-45826428D01*
X210263571Y-45826428D02*
X210454047Y-45778809D01*
X210454047Y-45778809D02*
X210549285Y-45731190D01*
X210549285Y-45731190D02*
X210596904Y-45683571D01*
X210596904Y-45683571D02*
X210644523Y-45588333D01*
X210644523Y-45588333D02*
X210644523Y-45493095D01*
X210644523Y-45493095D02*
X210596904Y-45397857D01*
X210596904Y-45397857D02*
X210549285Y-45350238D01*
X210549285Y-45350238D02*
X210454047Y-45302619D01*
X210454047Y-45302619D02*
X210215952Y-45302619D01*
X210215952Y-45302619D02*
X210073095Y-45350238D01*
X209739761Y-45302619D02*
X209501666Y-46302619D01*
X209501666Y-46302619D02*
X209311190Y-45588333D01*
X209311190Y-45588333D02*
X209120714Y-46302619D01*
X209120714Y-46302619D02*
X208882619Y-45302619D01*
X207977857Y-46302619D02*
X208549285Y-46302619D01*
X208263571Y-46302619D02*
X208263571Y-45302619D01*
X208263571Y-45302619D02*
X208358809Y-45445476D01*
X208358809Y-45445476D02*
X208454047Y-45540714D01*
X208454047Y-45540714D02*
X208549285Y-45588333D01*
X207596904Y-45397857D02*
X207549285Y-45350238D01*
X207549285Y-45350238D02*
X207454047Y-45302619D01*
X207454047Y-45302619D02*
X207215952Y-45302619D01*
X207215952Y-45302619D02*
X207120714Y-45350238D01*
X207120714Y-45350238D02*
X207073095Y-45397857D01*
X207073095Y-45397857D02*
X207025476Y-45493095D01*
X207025476Y-45493095D02*
X207025476Y-45588333D01*
X207025476Y-45588333D02*
X207073095Y-45731190D01*
X207073095Y-45731190D02*
X207644523Y-46302619D01*
X207644523Y-46302619D02*
X207025476Y-46302619D01*
X239614523Y-46495000D02*
X239471666Y-46542619D01*
X239471666Y-46542619D02*
X239233571Y-46542619D01*
X239233571Y-46542619D02*
X239138333Y-46495000D01*
X239138333Y-46495000D02*
X239090714Y-46447380D01*
X239090714Y-46447380D02*
X239043095Y-46352142D01*
X239043095Y-46352142D02*
X239043095Y-46256904D01*
X239043095Y-46256904D02*
X239090714Y-46161666D01*
X239090714Y-46161666D02*
X239138333Y-46114047D01*
X239138333Y-46114047D02*
X239233571Y-46066428D01*
X239233571Y-46066428D02*
X239424047Y-46018809D01*
X239424047Y-46018809D02*
X239519285Y-45971190D01*
X239519285Y-45971190D02*
X239566904Y-45923571D01*
X239566904Y-45923571D02*
X239614523Y-45828333D01*
X239614523Y-45828333D02*
X239614523Y-45733095D01*
X239614523Y-45733095D02*
X239566904Y-45637857D01*
X239566904Y-45637857D02*
X239519285Y-45590238D01*
X239519285Y-45590238D02*
X239424047Y-45542619D01*
X239424047Y-45542619D02*
X239185952Y-45542619D01*
X239185952Y-45542619D02*
X239043095Y-45590238D01*
X238709761Y-45542619D02*
X238471666Y-46542619D01*
X238471666Y-46542619D02*
X238281190Y-45828333D01*
X238281190Y-45828333D02*
X238090714Y-46542619D01*
X238090714Y-46542619D02*
X237852619Y-45542619D01*
X236947857Y-46542619D02*
X237519285Y-46542619D01*
X237233571Y-46542619D02*
X237233571Y-45542619D01*
X237233571Y-45542619D02*
X237328809Y-45685476D01*
X237328809Y-45685476D02*
X237424047Y-45780714D01*
X237424047Y-45780714D02*
X237519285Y-45828333D01*
X236614523Y-45542619D02*
X235995476Y-45542619D01*
X235995476Y-45542619D02*
X236328809Y-45923571D01*
X236328809Y-45923571D02*
X236185952Y-45923571D01*
X236185952Y-45923571D02*
X236090714Y-45971190D01*
X236090714Y-45971190D02*
X236043095Y-46018809D01*
X236043095Y-46018809D02*
X235995476Y-46114047D01*
X235995476Y-46114047D02*
X235995476Y-46352142D01*
X235995476Y-46352142D02*
X236043095Y-46447380D01*
X236043095Y-46447380D02*
X236090714Y-46495000D01*
X236090714Y-46495000D02*
X236185952Y-46542619D01*
X236185952Y-46542619D02*
X236471666Y-46542619D01*
X236471666Y-46542619D02*
X236566904Y-46495000D01*
X236566904Y-46495000D02*
X236614523Y-46447380D01*
X149504523Y-88945000D02*
X149361666Y-88992619D01*
X149361666Y-88992619D02*
X149123571Y-88992619D01*
X149123571Y-88992619D02*
X149028333Y-88945000D01*
X149028333Y-88945000D02*
X148980714Y-88897380D01*
X148980714Y-88897380D02*
X148933095Y-88802142D01*
X148933095Y-88802142D02*
X148933095Y-88706904D01*
X148933095Y-88706904D02*
X148980714Y-88611666D01*
X148980714Y-88611666D02*
X149028333Y-88564047D01*
X149028333Y-88564047D02*
X149123571Y-88516428D01*
X149123571Y-88516428D02*
X149314047Y-88468809D01*
X149314047Y-88468809D02*
X149409285Y-88421190D01*
X149409285Y-88421190D02*
X149456904Y-88373571D01*
X149456904Y-88373571D02*
X149504523Y-88278333D01*
X149504523Y-88278333D02*
X149504523Y-88183095D01*
X149504523Y-88183095D02*
X149456904Y-88087857D01*
X149456904Y-88087857D02*
X149409285Y-88040238D01*
X149409285Y-88040238D02*
X149314047Y-87992619D01*
X149314047Y-87992619D02*
X149075952Y-87992619D01*
X149075952Y-87992619D02*
X148933095Y-88040238D01*
X148599761Y-87992619D02*
X148361666Y-88992619D01*
X148361666Y-88992619D02*
X148171190Y-88278333D01*
X148171190Y-88278333D02*
X147980714Y-88992619D01*
X147980714Y-88992619D02*
X147742619Y-87992619D01*
X146837857Y-88992619D02*
X147409285Y-88992619D01*
X147123571Y-88992619D02*
X147123571Y-87992619D01*
X147123571Y-87992619D02*
X147218809Y-88135476D01*
X147218809Y-88135476D02*
X147314047Y-88230714D01*
X147314047Y-88230714D02*
X147409285Y-88278333D01*
X145980714Y-88325952D02*
X145980714Y-88992619D01*
X146218809Y-87945000D02*
X146456904Y-88659285D01*
X146456904Y-88659285D02*
X145837857Y-88659285D01*
X176114523Y-77835000D02*
X175971666Y-77882619D01*
X175971666Y-77882619D02*
X175733571Y-77882619D01*
X175733571Y-77882619D02*
X175638333Y-77835000D01*
X175638333Y-77835000D02*
X175590714Y-77787380D01*
X175590714Y-77787380D02*
X175543095Y-77692142D01*
X175543095Y-77692142D02*
X175543095Y-77596904D01*
X175543095Y-77596904D02*
X175590714Y-77501666D01*
X175590714Y-77501666D02*
X175638333Y-77454047D01*
X175638333Y-77454047D02*
X175733571Y-77406428D01*
X175733571Y-77406428D02*
X175924047Y-77358809D01*
X175924047Y-77358809D02*
X176019285Y-77311190D01*
X176019285Y-77311190D02*
X176066904Y-77263571D01*
X176066904Y-77263571D02*
X176114523Y-77168333D01*
X176114523Y-77168333D02*
X176114523Y-77073095D01*
X176114523Y-77073095D02*
X176066904Y-76977857D01*
X176066904Y-76977857D02*
X176019285Y-76930238D01*
X176019285Y-76930238D02*
X175924047Y-76882619D01*
X175924047Y-76882619D02*
X175685952Y-76882619D01*
X175685952Y-76882619D02*
X175543095Y-76930238D01*
X175209761Y-76882619D02*
X174971666Y-77882619D01*
X174971666Y-77882619D02*
X174781190Y-77168333D01*
X174781190Y-77168333D02*
X174590714Y-77882619D01*
X174590714Y-77882619D02*
X174352619Y-76882619D01*
X173447857Y-77882619D02*
X174019285Y-77882619D01*
X173733571Y-77882619D02*
X173733571Y-76882619D01*
X173733571Y-76882619D02*
X173828809Y-77025476D01*
X173828809Y-77025476D02*
X173924047Y-77120714D01*
X173924047Y-77120714D02*
X174019285Y-77168333D01*
X172543095Y-76882619D02*
X173019285Y-76882619D01*
X173019285Y-76882619D02*
X173066904Y-77358809D01*
X173066904Y-77358809D02*
X173019285Y-77311190D01*
X173019285Y-77311190D02*
X172924047Y-77263571D01*
X172924047Y-77263571D02*
X172685952Y-77263571D01*
X172685952Y-77263571D02*
X172590714Y-77311190D01*
X172590714Y-77311190D02*
X172543095Y-77358809D01*
X172543095Y-77358809D02*
X172495476Y-77454047D01*
X172495476Y-77454047D02*
X172495476Y-77692142D01*
X172495476Y-77692142D02*
X172543095Y-77787380D01*
X172543095Y-77787380D02*
X172590714Y-77835000D01*
X172590714Y-77835000D02*
X172685952Y-77882619D01*
X172685952Y-77882619D02*
X172924047Y-77882619D01*
X172924047Y-77882619D02*
X173019285Y-77835000D01*
X173019285Y-77835000D02*
X173066904Y-77787380D01*
X204964523Y-77835000D02*
X204821666Y-77882619D01*
X204821666Y-77882619D02*
X204583571Y-77882619D01*
X204583571Y-77882619D02*
X204488333Y-77835000D01*
X204488333Y-77835000D02*
X204440714Y-77787380D01*
X204440714Y-77787380D02*
X204393095Y-77692142D01*
X204393095Y-77692142D02*
X204393095Y-77596904D01*
X204393095Y-77596904D02*
X204440714Y-77501666D01*
X204440714Y-77501666D02*
X204488333Y-77454047D01*
X204488333Y-77454047D02*
X204583571Y-77406428D01*
X204583571Y-77406428D02*
X204774047Y-77358809D01*
X204774047Y-77358809D02*
X204869285Y-77311190D01*
X204869285Y-77311190D02*
X204916904Y-77263571D01*
X204916904Y-77263571D02*
X204964523Y-77168333D01*
X204964523Y-77168333D02*
X204964523Y-77073095D01*
X204964523Y-77073095D02*
X204916904Y-76977857D01*
X204916904Y-76977857D02*
X204869285Y-76930238D01*
X204869285Y-76930238D02*
X204774047Y-76882619D01*
X204774047Y-76882619D02*
X204535952Y-76882619D01*
X204535952Y-76882619D02*
X204393095Y-76930238D01*
X204059761Y-76882619D02*
X203821666Y-77882619D01*
X203821666Y-77882619D02*
X203631190Y-77168333D01*
X203631190Y-77168333D02*
X203440714Y-77882619D01*
X203440714Y-77882619D02*
X203202619Y-76882619D01*
X202297857Y-77882619D02*
X202869285Y-77882619D01*
X202583571Y-77882619D02*
X202583571Y-76882619D01*
X202583571Y-76882619D02*
X202678809Y-77025476D01*
X202678809Y-77025476D02*
X202774047Y-77120714D01*
X202774047Y-77120714D02*
X202869285Y-77168333D01*
X201440714Y-76882619D02*
X201631190Y-76882619D01*
X201631190Y-76882619D02*
X201726428Y-76930238D01*
X201726428Y-76930238D02*
X201774047Y-76977857D01*
X201774047Y-76977857D02*
X201869285Y-77120714D01*
X201869285Y-77120714D02*
X201916904Y-77311190D01*
X201916904Y-77311190D02*
X201916904Y-77692142D01*
X201916904Y-77692142D02*
X201869285Y-77787380D01*
X201869285Y-77787380D02*
X201821666Y-77835000D01*
X201821666Y-77835000D02*
X201726428Y-77882619D01*
X201726428Y-77882619D02*
X201535952Y-77882619D01*
X201535952Y-77882619D02*
X201440714Y-77835000D01*
X201440714Y-77835000D02*
X201393095Y-77787380D01*
X201393095Y-77787380D02*
X201345476Y-77692142D01*
X201345476Y-77692142D02*
X201345476Y-77454047D01*
X201345476Y-77454047D02*
X201393095Y-77358809D01*
X201393095Y-77358809D02*
X201440714Y-77311190D01*
X201440714Y-77311190D02*
X201535952Y-77263571D01*
X201535952Y-77263571D02*
X201726428Y-77263571D01*
X201726428Y-77263571D02*
X201821666Y-77311190D01*
X201821666Y-77311190D02*
X201869285Y-77358809D01*
X201869285Y-77358809D02*
X201916904Y-77454047D01*
X234174523Y-77835000D02*
X234031666Y-77882619D01*
X234031666Y-77882619D02*
X233793571Y-77882619D01*
X233793571Y-77882619D02*
X233698333Y-77835000D01*
X233698333Y-77835000D02*
X233650714Y-77787380D01*
X233650714Y-77787380D02*
X233603095Y-77692142D01*
X233603095Y-77692142D02*
X233603095Y-77596904D01*
X233603095Y-77596904D02*
X233650714Y-77501666D01*
X233650714Y-77501666D02*
X233698333Y-77454047D01*
X233698333Y-77454047D02*
X233793571Y-77406428D01*
X233793571Y-77406428D02*
X233984047Y-77358809D01*
X233984047Y-77358809D02*
X234079285Y-77311190D01*
X234079285Y-77311190D02*
X234126904Y-77263571D01*
X234126904Y-77263571D02*
X234174523Y-77168333D01*
X234174523Y-77168333D02*
X234174523Y-77073095D01*
X234174523Y-77073095D02*
X234126904Y-76977857D01*
X234126904Y-76977857D02*
X234079285Y-76930238D01*
X234079285Y-76930238D02*
X233984047Y-76882619D01*
X233984047Y-76882619D02*
X233745952Y-76882619D01*
X233745952Y-76882619D02*
X233603095Y-76930238D01*
X233269761Y-76882619D02*
X233031666Y-77882619D01*
X233031666Y-77882619D02*
X232841190Y-77168333D01*
X232841190Y-77168333D02*
X232650714Y-77882619D01*
X232650714Y-77882619D02*
X232412619Y-76882619D01*
X231507857Y-77882619D02*
X232079285Y-77882619D01*
X231793571Y-77882619D02*
X231793571Y-76882619D01*
X231793571Y-76882619D02*
X231888809Y-77025476D01*
X231888809Y-77025476D02*
X231984047Y-77120714D01*
X231984047Y-77120714D02*
X232079285Y-77168333D01*
X231174523Y-76882619D02*
X230507857Y-76882619D01*
X230507857Y-76882619D02*
X230936428Y-77882619D01*
X64003332Y-57845000D02*
X63860475Y-57892619D01*
X63860475Y-57892619D02*
X63622380Y-57892619D01*
X63622380Y-57892619D02*
X63527142Y-57845000D01*
X63527142Y-57845000D02*
X63479523Y-57797380D01*
X63479523Y-57797380D02*
X63431904Y-57702142D01*
X63431904Y-57702142D02*
X63431904Y-57606904D01*
X63431904Y-57606904D02*
X63479523Y-57511666D01*
X63479523Y-57511666D02*
X63527142Y-57464047D01*
X63527142Y-57464047D02*
X63622380Y-57416428D01*
X63622380Y-57416428D02*
X63812856Y-57368809D01*
X63812856Y-57368809D02*
X63908094Y-57321190D01*
X63908094Y-57321190D02*
X63955713Y-57273571D01*
X63955713Y-57273571D02*
X64003332Y-57178333D01*
X64003332Y-57178333D02*
X64003332Y-57083095D01*
X64003332Y-57083095D02*
X63955713Y-56987857D01*
X63955713Y-56987857D02*
X63908094Y-56940238D01*
X63908094Y-56940238D02*
X63812856Y-56892619D01*
X63812856Y-56892619D02*
X63574761Y-56892619D01*
X63574761Y-56892619D02*
X63431904Y-56940238D01*
X63098570Y-56892619D02*
X62860475Y-57892619D01*
X62860475Y-57892619D02*
X62669999Y-57178333D01*
X62669999Y-57178333D02*
X62479523Y-57892619D01*
X62479523Y-57892619D02*
X62241428Y-56892619D01*
X61955713Y-56892619D02*
X61289047Y-56892619D01*
X61289047Y-56892619D02*
X61717618Y-57892619D01*
X171854475Y-109127000D02*
X171711618Y-109174619D01*
X171711618Y-109174619D02*
X171473523Y-109174619D01*
X171473523Y-109174619D02*
X171378285Y-109127000D01*
X171378285Y-109127000D02*
X171330666Y-109079380D01*
X171330666Y-109079380D02*
X171283047Y-108984142D01*
X171283047Y-108984142D02*
X171283047Y-108888904D01*
X171283047Y-108888904D02*
X171330666Y-108793666D01*
X171330666Y-108793666D02*
X171378285Y-108746047D01*
X171378285Y-108746047D02*
X171473523Y-108698428D01*
X171473523Y-108698428D02*
X171663999Y-108650809D01*
X171663999Y-108650809D02*
X171759237Y-108603190D01*
X171759237Y-108603190D02*
X171806856Y-108555571D01*
X171806856Y-108555571D02*
X171854475Y-108460333D01*
X171854475Y-108460333D02*
X171854475Y-108365095D01*
X171854475Y-108365095D02*
X171806856Y-108269857D01*
X171806856Y-108269857D02*
X171759237Y-108222238D01*
X171759237Y-108222238D02*
X171663999Y-108174619D01*
X171663999Y-108174619D02*
X171425904Y-108174619D01*
X171425904Y-108174619D02*
X171283047Y-108222238D01*
X170949713Y-108174619D02*
X170711618Y-109174619D01*
X170711618Y-109174619D02*
X170521142Y-108460333D01*
X170521142Y-108460333D02*
X170330666Y-109174619D01*
X170330666Y-109174619D02*
X170092571Y-108174619D01*
X169187809Y-109174619D02*
X169759237Y-109174619D01*
X169473523Y-109174619D02*
X169473523Y-108174619D01*
X169473523Y-108174619D02*
X169568761Y-108317476D01*
X169568761Y-108317476D02*
X169663999Y-108412714D01*
X169663999Y-108412714D02*
X169759237Y-108460333D01*
X168997333Y-109269857D02*
X168235428Y-109269857D01*
X167663999Y-108650809D02*
X167521142Y-108698428D01*
X167521142Y-108698428D02*
X167473523Y-108746047D01*
X167473523Y-108746047D02*
X167425904Y-108841285D01*
X167425904Y-108841285D02*
X167425904Y-108984142D01*
X167425904Y-108984142D02*
X167473523Y-109079380D01*
X167473523Y-109079380D02*
X167521142Y-109127000D01*
X167521142Y-109127000D02*
X167616380Y-109174619D01*
X167616380Y-109174619D02*
X167997332Y-109174619D01*
X167997332Y-109174619D02*
X167997332Y-108174619D01*
X167997332Y-108174619D02*
X167663999Y-108174619D01*
X167663999Y-108174619D02*
X167568761Y-108222238D01*
X167568761Y-108222238D02*
X167521142Y-108269857D01*
X167521142Y-108269857D02*
X167473523Y-108365095D01*
X167473523Y-108365095D02*
X167473523Y-108460333D01*
X167473523Y-108460333D02*
X167521142Y-108555571D01*
X167521142Y-108555571D02*
X167568761Y-108603190D01*
X167568761Y-108603190D02*
X167663999Y-108650809D01*
X167663999Y-108650809D02*
X167997332Y-108650809D01*
X166473523Y-109174619D02*
X167044951Y-109174619D01*
X166759237Y-109174619D02*
X166759237Y-108174619D01*
X166759237Y-108174619D02*
X166854475Y-108317476D01*
X166854475Y-108317476D02*
X166949713Y-108412714D01*
X166949713Y-108412714D02*
X167044951Y-108460333D01*
X202080475Y-109381000D02*
X201937618Y-109428619D01*
X201937618Y-109428619D02*
X201699523Y-109428619D01*
X201699523Y-109428619D02*
X201604285Y-109381000D01*
X201604285Y-109381000D02*
X201556666Y-109333380D01*
X201556666Y-109333380D02*
X201509047Y-109238142D01*
X201509047Y-109238142D02*
X201509047Y-109142904D01*
X201509047Y-109142904D02*
X201556666Y-109047666D01*
X201556666Y-109047666D02*
X201604285Y-109000047D01*
X201604285Y-109000047D02*
X201699523Y-108952428D01*
X201699523Y-108952428D02*
X201889999Y-108904809D01*
X201889999Y-108904809D02*
X201985237Y-108857190D01*
X201985237Y-108857190D02*
X202032856Y-108809571D01*
X202032856Y-108809571D02*
X202080475Y-108714333D01*
X202080475Y-108714333D02*
X202080475Y-108619095D01*
X202080475Y-108619095D02*
X202032856Y-108523857D01*
X202032856Y-108523857D02*
X201985237Y-108476238D01*
X201985237Y-108476238D02*
X201889999Y-108428619D01*
X201889999Y-108428619D02*
X201651904Y-108428619D01*
X201651904Y-108428619D02*
X201509047Y-108476238D01*
X201175713Y-108428619D02*
X200937618Y-109428619D01*
X200937618Y-109428619D02*
X200747142Y-108714333D01*
X200747142Y-108714333D02*
X200556666Y-109428619D01*
X200556666Y-109428619D02*
X200318571Y-108428619D01*
X200032856Y-108428619D02*
X199413809Y-108428619D01*
X199413809Y-108428619D02*
X199747142Y-108809571D01*
X199747142Y-108809571D02*
X199604285Y-108809571D01*
X199604285Y-108809571D02*
X199509047Y-108857190D01*
X199509047Y-108857190D02*
X199461428Y-108904809D01*
X199461428Y-108904809D02*
X199413809Y-109000047D01*
X199413809Y-109000047D02*
X199413809Y-109238142D01*
X199413809Y-109238142D02*
X199461428Y-109333380D01*
X199461428Y-109333380D02*
X199509047Y-109381000D01*
X199509047Y-109381000D02*
X199604285Y-109428619D01*
X199604285Y-109428619D02*
X199889999Y-109428619D01*
X199889999Y-109428619D02*
X199985237Y-109381000D01*
X199985237Y-109381000D02*
X200032856Y-109333380D01*
X199223333Y-109523857D02*
X198461428Y-109523857D01*
X197889999Y-108904809D02*
X197747142Y-108952428D01*
X197747142Y-108952428D02*
X197699523Y-109000047D01*
X197699523Y-109000047D02*
X197651904Y-109095285D01*
X197651904Y-109095285D02*
X197651904Y-109238142D01*
X197651904Y-109238142D02*
X197699523Y-109333380D01*
X197699523Y-109333380D02*
X197747142Y-109381000D01*
X197747142Y-109381000D02*
X197842380Y-109428619D01*
X197842380Y-109428619D02*
X198223332Y-109428619D01*
X198223332Y-109428619D02*
X198223332Y-108428619D01*
X198223332Y-108428619D02*
X197889999Y-108428619D01*
X197889999Y-108428619D02*
X197794761Y-108476238D01*
X197794761Y-108476238D02*
X197747142Y-108523857D01*
X197747142Y-108523857D02*
X197699523Y-108619095D01*
X197699523Y-108619095D02*
X197699523Y-108714333D01*
X197699523Y-108714333D02*
X197747142Y-108809571D01*
X197747142Y-108809571D02*
X197794761Y-108857190D01*
X197794761Y-108857190D02*
X197889999Y-108904809D01*
X197889999Y-108904809D02*
X198223332Y-108904809D01*
X196699523Y-109428619D02*
X197270951Y-109428619D01*
X196985237Y-109428619D02*
X196985237Y-108428619D01*
X196985237Y-108428619D02*
X197080475Y-108571476D01*
X197080475Y-108571476D02*
X197175713Y-108666714D01*
X197175713Y-108666714D02*
X197270951Y-108714333D01*
X154917333Y-121394619D02*
X154917333Y-122108904D01*
X154917333Y-122108904D02*
X154964952Y-122251761D01*
X154964952Y-122251761D02*
X155060190Y-122347000D01*
X155060190Y-122347000D02*
X155203047Y-122394619D01*
X155203047Y-122394619D02*
X155298285Y-122394619D01*
X154441142Y-122394619D02*
X154441142Y-121394619D01*
X154441142Y-121394619D02*
X154060190Y-121394619D01*
X154060190Y-121394619D02*
X153964952Y-121442238D01*
X153964952Y-121442238D02*
X153917333Y-121489857D01*
X153917333Y-121489857D02*
X153869714Y-121585095D01*
X153869714Y-121585095D02*
X153869714Y-121727952D01*
X153869714Y-121727952D02*
X153917333Y-121823190D01*
X153917333Y-121823190D02*
X153964952Y-121870809D01*
X153964952Y-121870809D02*
X154060190Y-121918428D01*
X154060190Y-121918428D02*
X154441142Y-121918428D01*
X153536380Y-121394619D02*
X152917333Y-121394619D01*
X152917333Y-121394619D02*
X153250666Y-121775571D01*
X153250666Y-121775571D02*
X153107809Y-121775571D01*
X153107809Y-121775571D02*
X153012571Y-121823190D01*
X153012571Y-121823190D02*
X152964952Y-121870809D01*
X152964952Y-121870809D02*
X152917333Y-121966047D01*
X152917333Y-121966047D02*
X152917333Y-122204142D01*
X152917333Y-122204142D02*
X152964952Y-122299380D01*
X152964952Y-122299380D02*
X153012571Y-122347000D01*
X153012571Y-122347000D02*
X153107809Y-122394619D01*
X153107809Y-122394619D02*
X153393523Y-122394619D01*
X153393523Y-122394619D02*
X153488761Y-122347000D01*
X153488761Y-122347000D02*
X153536380Y-122299380D01*
X58603333Y-37286619D02*
X58603333Y-38000904D01*
X58603333Y-38000904D02*
X58650952Y-38143761D01*
X58650952Y-38143761D02*
X58746190Y-38239000D01*
X58746190Y-38239000D02*
X58889047Y-38286619D01*
X58889047Y-38286619D02*
X58984285Y-38286619D01*
X58127142Y-38286619D02*
X58127142Y-37286619D01*
X58127142Y-37286619D02*
X57746190Y-37286619D01*
X57746190Y-37286619D02*
X57650952Y-37334238D01*
X57650952Y-37334238D02*
X57603333Y-37381857D01*
X57603333Y-37381857D02*
X57555714Y-37477095D01*
X57555714Y-37477095D02*
X57555714Y-37619952D01*
X57555714Y-37619952D02*
X57603333Y-37715190D01*
X57603333Y-37715190D02*
X57650952Y-37762809D01*
X57650952Y-37762809D02*
X57746190Y-37810428D01*
X57746190Y-37810428D02*
X58127142Y-37810428D01*
X56603333Y-38286619D02*
X57174761Y-38286619D01*
X56889047Y-38286619D02*
X56889047Y-37286619D01*
X56889047Y-37286619D02*
X56984285Y-37429476D01*
X56984285Y-37429476D02*
X57079523Y-37524714D01*
X57079523Y-37524714D02*
X57174761Y-37572333D01*
X185051444Y-121648619D02*
X185051444Y-122362904D01*
X185051444Y-122362904D02*
X185099063Y-122505761D01*
X185099063Y-122505761D02*
X185194301Y-122601000D01*
X185194301Y-122601000D02*
X185337158Y-122648619D01*
X185337158Y-122648619D02*
X185432396Y-122648619D01*
X184575253Y-122648619D02*
X184575253Y-121648619D01*
X184575253Y-121648619D02*
X184194301Y-121648619D01*
X184194301Y-121648619D02*
X184099063Y-121696238D01*
X184099063Y-121696238D02*
X184051444Y-121743857D01*
X184051444Y-121743857D02*
X184003825Y-121839095D01*
X184003825Y-121839095D02*
X184003825Y-121981952D01*
X184003825Y-121981952D02*
X184051444Y-122077190D01*
X184051444Y-122077190D02*
X184099063Y-122124809D01*
X184099063Y-122124809D02*
X184194301Y-122172428D01*
X184194301Y-122172428D02*
X184575253Y-122172428D01*
X183146682Y-121981952D02*
X183146682Y-122648619D01*
X183384777Y-121601000D02*
X183622872Y-122315285D01*
X183622872Y-122315285D02*
X183003825Y-122315285D01*
X78603333Y-37286619D02*
X78603333Y-38000904D01*
X78603333Y-38000904D02*
X78650952Y-38143761D01*
X78650952Y-38143761D02*
X78746190Y-38239000D01*
X78746190Y-38239000D02*
X78889047Y-38286619D01*
X78889047Y-38286619D02*
X78984285Y-38286619D01*
X78127142Y-38286619D02*
X78127142Y-37286619D01*
X78127142Y-37286619D02*
X77746190Y-37286619D01*
X77746190Y-37286619D02*
X77650952Y-37334238D01*
X77650952Y-37334238D02*
X77603333Y-37381857D01*
X77603333Y-37381857D02*
X77555714Y-37477095D01*
X77555714Y-37477095D02*
X77555714Y-37619952D01*
X77555714Y-37619952D02*
X77603333Y-37715190D01*
X77603333Y-37715190D02*
X77650952Y-37762809D01*
X77650952Y-37762809D02*
X77746190Y-37810428D01*
X77746190Y-37810428D02*
X78127142Y-37810428D01*
X77174761Y-37381857D02*
X77127142Y-37334238D01*
X77127142Y-37334238D02*
X77031904Y-37286619D01*
X77031904Y-37286619D02*
X76793809Y-37286619D01*
X76793809Y-37286619D02*
X76698571Y-37334238D01*
X76698571Y-37334238D02*
X76650952Y-37381857D01*
X76650952Y-37381857D02*
X76603333Y-37477095D01*
X76603333Y-37477095D02*
X76603333Y-37572333D01*
X76603333Y-37572333D02*
X76650952Y-37715190D01*
X76650952Y-37715190D02*
X77222380Y-38286619D01*
X77222380Y-38286619D02*
X76603333Y-38286619D01*
X85320000Y-57470000D02*
X85820000Y-56970000D01*
X85320000Y-60970000D02*
X85820000Y-61470000D01*
X85820000Y-56970000D02*
X88820000Y-56970000D01*
X85820000Y-61470000D02*
X88320000Y-61470000D01*
X88820000Y-56970000D02*
X89320000Y-57470000D01*
X89320000Y-58470000D02*
X89320000Y-57470000D01*
X89820000Y-62970000D02*
X89820000Y-63670000D01*
X89820000Y-63670000D02*
X94320000Y-63670000D01*
X94320000Y-58970000D02*
X89820000Y-58970000D01*
X94320000Y-59570000D02*
X94320000Y-58970000D01*
X94320000Y-63670000D02*
X94320000Y-63170000D01*
X89820000Y-62970000D02*
G75*
G03*
X88320000Y-61470000I-1500000J0D01*
G01*
X89320000Y-58470000D02*
G75*
G03*
X89820000Y-58970000I500000J0D01*
G01*
X111920000Y-68820000D02*
X112420000Y-68320000D01*
X111920000Y-72320000D02*
X112420000Y-72820000D01*
X112420000Y-68320000D02*
X115420000Y-68320000D01*
X112420000Y-72820000D02*
X114920000Y-72820000D01*
X115420000Y-68320000D02*
X115920000Y-68820000D01*
X115920000Y-69820000D02*
X115920000Y-68820000D01*
X116420000Y-74320000D02*
X116420000Y-75020000D01*
X116420000Y-75020000D02*
X120920000Y-75020000D01*
X120920000Y-70320000D02*
X116420000Y-70320000D01*
X120920000Y-70920000D02*
X120920000Y-70320000D01*
X120920000Y-75020000D02*
X120920000Y-74520000D01*
X116420000Y-74320000D02*
G75*
G03*
X114920000Y-72820000I-1500000J0D01*
G01*
X115920000Y-69820000D02*
G75*
G03*
X116420000Y-70320000I500000J0D01*
G01*
X129420000Y-121920000D02*
X129920000Y-121420000D01*
X129420000Y-125420000D02*
X129920000Y-125920000D01*
X129920000Y-121420000D02*
X132920000Y-121420000D01*
X129920000Y-125920000D02*
X132420000Y-125920000D01*
X132920000Y-121420000D02*
X133420000Y-121920000D01*
X133420000Y-122920000D02*
X133420000Y-121920000D01*
X133920000Y-127420000D02*
X133920000Y-128120000D01*
X133920000Y-128120000D02*
X138420000Y-128120000D01*
X138420000Y-123420000D02*
X133920000Y-123420000D01*
X138420000Y-124020000D02*
X138420000Y-123420000D01*
X138420000Y-128120000D02*
X138420000Y-127620000D01*
X133920000Y-127420000D02*
G75*
G03*
X132420000Y-125920000I-1500000J0D01*
G01*
X133420000Y-122920000D02*
G75*
G03*
X133920000Y-123420000I500000J0D01*
G01*
X146860000Y-57410000D02*
X147360000Y-56910000D01*
X146860000Y-60910000D02*
X147360000Y-61410000D01*
X147360000Y-56910000D02*
X150360000Y-56910000D01*
X147360000Y-61410000D02*
X149860000Y-61410000D01*
X150360000Y-56910000D02*
X150860000Y-57410000D01*
X150860000Y-58410000D02*
X150860000Y-57410000D01*
X151360000Y-62910000D02*
X151360000Y-63610000D01*
X151360000Y-63610000D02*
X155860000Y-63610000D01*
X155860000Y-58910000D02*
X151360000Y-58910000D01*
X155860000Y-59510000D02*
X155860000Y-58910000D01*
X155860000Y-63610000D02*
X155860000Y-63110000D01*
X151360000Y-62910000D02*
G75*
G03*
X149860000Y-61410000I-1500000J0D01*
G01*
X150860000Y-58410000D02*
G75*
G03*
X151360000Y-58910000I500000J0D01*
G01*
X173420000Y-45880000D02*
X173920000Y-45380000D01*
X173420000Y-49380000D02*
X173920000Y-49880000D01*
X173920000Y-45380000D02*
X176920000Y-45380000D01*
X173920000Y-49880000D02*
X176420000Y-49880000D01*
X176920000Y-45380000D02*
X177420000Y-45880000D01*
X177420000Y-46880000D02*
X177420000Y-45880000D01*
X177920000Y-51380000D02*
X177920000Y-52080000D01*
X177920000Y-52080000D02*
X182420000Y-52080000D01*
X182420000Y-47380000D02*
X177920000Y-47380000D01*
X182420000Y-47980000D02*
X182420000Y-47380000D01*
X182420000Y-52080000D02*
X182420000Y-51580000D01*
X177920000Y-51380000D02*
G75*
G03*
X176420000Y-49880000I-1500000J0D01*
G01*
X177420000Y-46880000D02*
G75*
G03*
X177920000Y-47380000I500000J0D01*
G01*
X202390000Y-45760000D02*
X202890000Y-45260000D01*
X202390000Y-49260000D02*
X202890000Y-49760000D01*
X202890000Y-45260000D02*
X205890000Y-45260000D01*
X202890000Y-49760000D02*
X205390000Y-49760000D01*
X205890000Y-45260000D02*
X206390000Y-45760000D01*
X206390000Y-46760000D02*
X206390000Y-45760000D01*
X206890000Y-51260000D02*
X206890000Y-51960000D01*
X206890000Y-51960000D02*
X211390000Y-51960000D01*
X211390000Y-47260000D02*
X206890000Y-47260000D01*
X211390000Y-47860000D02*
X211390000Y-47260000D01*
X211390000Y-51960000D02*
X211390000Y-51460000D01*
X206890000Y-51260000D02*
G75*
G03*
X205390000Y-49760000I-1500000J0D01*
G01*
X206390000Y-46760000D02*
G75*
G03*
X206890000Y-47260000I500000J0D01*
G01*
X231360000Y-46000000D02*
X231860000Y-45500000D01*
X231360000Y-49500000D02*
X231860000Y-50000000D01*
X231860000Y-45500000D02*
X234860000Y-45500000D01*
X231860000Y-50000000D02*
X234360000Y-50000000D01*
X234860000Y-45500000D02*
X235360000Y-46000000D01*
X235360000Y-47000000D02*
X235360000Y-46000000D01*
X235860000Y-51500000D02*
X235860000Y-52200000D01*
X235860000Y-52200000D02*
X240360000Y-52200000D01*
X240360000Y-47500000D02*
X235860000Y-47500000D01*
X240360000Y-48100000D02*
X240360000Y-47500000D01*
X240360000Y-52200000D02*
X240360000Y-51700000D01*
X235860000Y-51500000D02*
G75*
G03*
X234360000Y-50000000I-1500000J0D01*
G01*
X235360000Y-47000000D02*
G75*
G03*
X235860000Y-47500000I500000J0D01*
G01*
X141250000Y-88450000D02*
X141750000Y-87950000D01*
X141250000Y-91950000D02*
X141750000Y-92450000D01*
X141750000Y-87950000D02*
X144750000Y-87950000D01*
X141750000Y-92450000D02*
X144250000Y-92450000D01*
X144750000Y-87950000D02*
X145250000Y-88450000D01*
X145250000Y-89450000D02*
X145250000Y-88450000D01*
X145750000Y-93950000D02*
X145750000Y-94650000D01*
X145750000Y-94650000D02*
X150250000Y-94650000D01*
X150250000Y-89950000D02*
X145750000Y-89950000D01*
X150250000Y-90550000D02*
X150250000Y-89950000D01*
X150250000Y-94650000D02*
X150250000Y-94150000D01*
X145750000Y-93950000D02*
G75*
G03*
X144250000Y-92450000I-1500000J0D01*
G01*
X145250000Y-89450000D02*
G75*
G03*
X145750000Y-89950000I500000J0D01*
G01*
X167860000Y-77340000D02*
X168360000Y-76840000D01*
X167860000Y-80840000D02*
X168360000Y-81340000D01*
X168360000Y-76840000D02*
X171360000Y-76840000D01*
X168360000Y-81340000D02*
X170860000Y-81340000D01*
X171360000Y-76840000D02*
X171860000Y-77340000D01*
X171860000Y-78340000D02*
X171860000Y-77340000D01*
X172360000Y-82840000D02*
X172360000Y-83540000D01*
X172360000Y-83540000D02*
X176860000Y-83540000D01*
X176860000Y-78840000D02*
X172360000Y-78840000D01*
X176860000Y-79440000D02*
X176860000Y-78840000D01*
X176860000Y-83540000D02*
X176860000Y-83040000D01*
X172360000Y-82840000D02*
G75*
G03*
X170860000Y-81340000I-1500000J0D01*
G01*
X171860000Y-78340000D02*
G75*
G03*
X172360000Y-78840000I500000J0D01*
G01*
X196710000Y-77340000D02*
X197210000Y-76840000D01*
X196710000Y-80840000D02*
X197210000Y-81340000D01*
X197210000Y-76840000D02*
X200210000Y-76840000D01*
X197210000Y-81340000D02*
X199710000Y-81340000D01*
X200210000Y-76840000D02*
X200710000Y-77340000D01*
X200710000Y-78340000D02*
X200710000Y-77340000D01*
X201210000Y-82840000D02*
X201210000Y-83540000D01*
X201210000Y-83540000D02*
X205710000Y-83540000D01*
X205710000Y-78840000D02*
X201210000Y-78840000D01*
X205710000Y-79440000D02*
X205710000Y-78840000D01*
X205710000Y-83540000D02*
X205710000Y-83040000D01*
X201210000Y-82840000D02*
G75*
G03*
X199710000Y-81340000I-1500000J0D01*
G01*
X200710000Y-78340000D02*
G75*
G03*
X201210000Y-78840000I500000J0D01*
G01*
X225920000Y-77340000D02*
X226420000Y-76840000D01*
X225920000Y-80840000D02*
X226420000Y-81340000D01*
X226420000Y-76840000D02*
X229420000Y-76840000D01*
X226420000Y-81340000D02*
X228920000Y-81340000D01*
X229420000Y-76840000D02*
X229920000Y-77340000D01*
X229920000Y-78340000D02*
X229920000Y-77340000D01*
X230420000Y-82840000D02*
X230420000Y-83540000D01*
X230420000Y-83540000D02*
X234920000Y-83540000D01*
X234920000Y-78840000D02*
X230420000Y-78840000D01*
X234920000Y-79440000D02*
X234920000Y-78840000D01*
X234920000Y-83540000D02*
X234920000Y-83040000D01*
X230420000Y-82840000D02*
G75*
G03*
X228920000Y-81340000I-1500000J0D01*
G01*
X229920000Y-78340000D02*
G75*
G03*
X230420000Y-78840000I500000J0D01*
G01*
X56225000Y-57350000D02*
X56725000Y-56850000D01*
X56225000Y-60850000D02*
X56725000Y-61350000D01*
X56725000Y-56850000D02*
X59725000Y-56850000D01*
X56725000Y-61350000D02*
X59225000Y-61350000D01*
X59725000Y-56850000D02*
X60225000Y-57350000D01*
X60225000Y-58350000D02*
X60225000Y-57350000D01*
X60725000Y-62850000D02*
X60725000Y-63550000D01*
X60725000Y-63550000D02*
X65225000Y-63550000D01*
X65225000Y-58850000D02*
X60725000Y-58850000D01*
X65225000Y-59450000D02*
X65225000Y-58850000D01*
X65225000Y-63550000D02*
X65225000Y-63050000D01*
X60725000Y-62850000D02*
G75*
G03*
X59225000Y-61350000I-1500000J0D01*
G01*
X60225000Y-58350000D02*
G75*
G03*
X60725000Y-58850000I500000J0D01*
G01*
X162084000Y-108632000D02*
X162584000Y-108132000D01*
X162084000Y-112132000D02*
X162584000Y-112632000D01*
X162584000Y-108132000D02*
X165584000Y-108132000D01*
X162584000Y-112632000D02*
X165084000Y-112632000D01*
X165584000Y-108132000D02*
X166084000Y-108632000D01*
X166084000Y-109632000D02*
X166084000Y-108632000D01*
X166584000Y-114132000D02*
X166584000Y-114832000D01*
X166584000Y-114832000D02*
X171084000Y-114832000D01*
X171084000Y-110132000D02*
X166584000Y-110132000D01*
X171084000Y-110732000D02*
X171084000Y-110132000D01*
X171084000Y-114832000D02*
X171084000Y-114332000D01*
X166584000Y-114132000D02*
G75*
G03*
X165084000Y-112632000I-1500000J0D01*
G01*
X166084000Y-109632000D02*
G75*
G03*
X166584000Y-110132000I500000J0D01*
G01*
X192218111Y-108886000D02*
X192718111Y-108386000D01*
X192218111Y-112386000D02*
X192718111Y-112886000D01*
X192718111Y-108386000D02*
X195718111Y-108386000D01*
X192718111Y-112886000D02*
X195218111Y-112886000D01*
X195718111Y-108386000D02*
X196218111Y-108886000D01*
X196218111Y-109886000D02*
X196218111Y-108886000D01*
X196718111Y-114386000D02*
X196718111Y-115086000D01*
X196718111Y-115086000D02*
X201218111Y-115086000D01*
X201218111Y-110386000D02*
X196718111Y-110386000D01*
X201218111Y-110986000D02*
X201218111Y-110386000D01*
X201218111Y-115086000D02*
X201218111Y-114586000D01*
X196718111Y-114386000D02*
G75*
G03*
X195218111Y-112886000I-1500000J0D01*
G01*
X196218111Y-109886000D02*
G75*
G03*
X196718111Y-110386000I500000J0D01*
G01*
D11*
X152684000Y-119132000D02*
X152684000Y-121132000D01*
X152684000Y-121132000D02*
X155484000Y-121132000D01*
X155484000Y-119132000D02*
X152684000Y-119132000D01*
X155484000Y-121132000D02*
X155484000Y-119132000D01*
X59170000Y-40624000D02*
X59170000Y-38624000D01*
X59170000Y-38624000D02*
X56370000Y-38624000D01*
X56370000Y-40624000D02*
X59170000Y-40624000D01*
X56370000Y-38624000D02*
X56370000Y-40624000D01*
X182818111Y-119386000D02*
X182818111Y-121386000D01*
X182818111Y-121386000D02*
X185618111Y-121386000D01*
X185618111Y-119386000D02*
X182818111Y-119386000D01*
X185618111Y-121386000D02*
X185618111Y-119386000D01*
X79170000Y-40624000D02*
X79170000Y-38624000D01*
X79170000Y-38624000D02*
X76370000Y-38624000D01*
X76370000Y-40624000D02*
X79170000Y-40624000D01*
X76370000Y-38624000D02*
X76370000Y-40624000D01*
%LPC*%
D12*
X81820000Y-65170000D03*
D13*
X87320000Y-59220000D03*
D14*
X87320000Y-65170000D03*
D13*
X92320000Y-61420000D03*
D12*
X92820000Y-65170000D03*
D15*
X84045000Y-59220000D03*
D16*
X87320000Y-71070000D03*
X82320000Y-68970000D03*
D15*
X95595000Y-61420000D03*
D12*
X108420000Y-76520000D03*
D13*
X113920000Y-70570000D03*
D14*
X113920000Y-76520000D03*
D13*
X118920000Y-72770000D03*
D12*
X119420000Y-76520000D03*
D15*
X110645000Y-70570000D03*
D16*
X113920000Y-82420000D03*
X108920000Y-80320000D03*
D15*
X122195000Y-72770000D03*
D12*
X125920000Y-129620000D03*
D13*
X131420000Y-123670000D03*
D14*
X131420000Y-129620000D03*
D13*
X136420000Y-125870000D03*
D12*
X136920000Y-129620000D03*
D15*
X128145000Y-123670000D03*
D16*
X131420000Y-135520000D03*
X126420000Y-133420000D03*
D15*
X139695000Y-125870000D03*
D12*
X143360000Y-65110000D03*
D13*
X148860000Y-59160000D03*
D14*
X148860000Y-65110000D03*
D13*
X153860000Y-61360000D03*
D12*
X154360000Y-65110000D03*
D15*
X145585000Y-59160000D03*
D16*
X148860000Y-71010000D03*
X143860000Y-68910000D03*
D15*
X157135000Y-61360000D03*
D12*
X169920000Y-53580000D03*
D13*
X175420000Y-47630000D03*
D14*
X175420000Y-53580000D03*
D13*
X180420000Y-49830000D03*
D12*
X180920000Y-53580000D03*
D15*
X172145000Y-47630000D03*
D16*
X175420000Y-59480000D03*
X170420000Y-57380000D03*
D15*
X183695000Y-49830000D03*
D12*
X198890000Y-53460000D03*
D13*
X204390000Y-47510000D03*
D14*
X204390000Y-53460000D03*
D13*
X209390000Y-49710000D03*
D12*
X209890000Y-53460000D03*
D15*
X201115000Y-47510000D03*
D16*
X204390000Y-59360000D03*
X199390000Y-57260000D03*
D15*
X212665000Y-49710000D03*
D12*
X227860000Y-53700000D03*
D13*
X233360000Y-47750000D03*
D14*
X233360000Y-53700000D03*
D13*
X238360000Y-49950000D03*
D12*
X238860000Y-53700000D03*
D15*
X230085000Y-47750000D03*
D16*
X233360000Y-59600000D03*
X228360000Y-57500000D03*
D15*
X241635000Y-49950000D03*
D12*
X137750000Y-96150000D03*
D13*
X143250000Y-90200000D03*
D14*
X143250000Y-96150000D03*
D13*
X148250000Y-92400000D03*
D12*
X148750000Y-96150000D03*
D15*
X139975000Y-90200000D03*
D16*
X143250000Y-102050000D03*
X138250000Y-99950000D03*
D15*
X151525000Y-92400000D03*
D12*
X164360000Y-85040000D03*
D13*
X169860000Y-79090000D03*
D14*
X169860000Y-85040000D03*
D13*
X174860000Y-81290000D03*
D12*
X175360000Y-85040000D03*
D15*
X166585000Y-79090000D03*
D16*
X169860000Y-90940000D03*
X164860000Y-88840000D03*
D15*
X178135000Y-81290000D03*
D12*
X193210000Y-85040000D03*
D13*
X198710000Y-79090000D03*
D14*
X198710000Y-85040000D03*
D13*
X203710000Y-81290000D03*
D12*
X204210000Y-85040000D03*
D15*
X195435000Y-79090000D03*
D16*
X198710000Y-90940000D03*
X193710000Y-88840000D03*
D15*
X206985000Y-81290000D03*
D12*
X222420000Y-85040000D03*
D13*
X227920000Y-79090000D03*
D14*
X227920000Y-85040000D03*
D13*
X232920000Y-81290000D03*
D12*
X233420000Y-85040000D03*
D15*
X224645000Y-79090000D03*
D16*
X227920000Y-90940000D03*
X222920000Y-88840000D03*
D15*
X236195000Y-81290000D03*
D17*
X47000000Y-37000000D03*
X47000000Y-143000000D03*
X243000000Y-143000000D03*
X243000000Y-37000000D03*
D12*
X52725000Y-65050000D03*
D13*
X58225000Y-59100000D03*
D14*
X58225000Y-65050000D03*
D13*
X63225000Y-61300000D03*
D12*
X63725000Y-65050000D03*
D15*
X54950000Y-59100000D03*
D16*
X58225000Y-70950000D03*
X53225000Y-68850000D03*
D15*
X66500000Y-61300000D03*
D17*
X150000000Y-37000000D03*
D18*
X88500000Y-43000000D03*
X88500000Y-36500000D03*
X93000000Y-43000000D03*
X93000000Y-36500000D03*
X65500000Y-43000000D03*
X65500000Y-36500000D03*
X70000000Y-43000000D03*
X70000000Y-36500000D03*
X98500000Y-43000000D03*
X98500000Y-36500000D03*
X103000000Y-43000000D03*
X103000000Y-36500000D03*
D12*
X158584000Y-116332000D03*
D13*
X164084000Y-110382000D03*
D14*
X164084000Y-116332000D03*
D13*
X169084000Y-112582000D03*
D12*
X169584000Y-116332000D03*
D15*
X160809000Y-110382000D03*
D16*
X164084000Y-122232000D03*
X159084000Y-120132000D03*
D15*
X172359000Y-112582000D03*
D12*
X188718111Y-116586000D03*
D13*
X194218111Y-110636000D03*
D14*
X194218111Y-116586000D03*
D13*
X199218111Y-112836000D03*
D12*
X199718111Y-116586000D03*
D15*
X190943111Y-110636000D03*
D16*
X194218111Y-122486000D03*
X189218111Y-120386000D03*
D15*
X202493111Y-112836000D03*
D18*
X108500000Y-43000000D03*
X108500000Y-36500000D03*
X113000000Y-43000000D03*
X113000000Y-36500000D03*
D17*
X133500000Y-78000000D03*
X150000000Y-143000000D03*
D18*
X75500000Y-43000000D03*
X75500000Y-36500000D03*
X80000000Y-43000000D03*
X80000000Y-36500000D03*
X55500000Y-43000000D03*
X55500000Y-36500000D03*
X60000000Y-43000000D03*
X60000000Y-36500000D03*
D19*
X153434000Y-120132000D03*
X154734000Y-120132000D03*
X58420000Y-39624000D03*
X57120000Y-39624000D03*
X183568111Y-120386000D03*
X184868111Y-120386000D03*
X78420000Y-39624000D03*
X77120000Y-39624000D03*
%LPD*%
M02*
