M48
; DRILL file {KiCad 7.0.5} date Sat Aug 12 18:12:24 2023
; FORMAT={-:-/ absolute / inch / decimal}
; #@! TF.CreationDate,2023-08-12T18:12:24-04:00
; #@! TF.GenerationSoftware,Kicad,Pcbnew,7.0.5
; #@! TF.FileFunction,NonPlated,1,2,NPTH
FMAT,2
INCH
; #@! TA.AperFunction,NonPlated,NPTH,ComponentDrill
T1C0.0670
; #@! TA.AperFunction,NonPlated,NPTH,ComponentDrill
T2C0.1181
; #@! TA.AperFunction,NonPlated,NPTH,ComponentDrill
T3C0.1350
; #@! TA.AperFunction,NonPlated,NPTH,ComponentDrill
T4C0.2520
%
G90
G05
T1
X2.0758Y-2.561
X2.5089Y-2.561
X3.2213Y-2.5657
X3.6543Y-2.5657
X4.2685Y-3.0126
X4.7016Y-3.0126
X4.9575Y-5.1031
X5.3906Y-5.1031
X5.4232Y-3.7854
X5.6441Y-2.5634
X5.8563Y-3.7854
X6.0772Y-2.5634
X6.2435Y-4.58
X6.4709Y-3.348
X6.6765Y-4.58
X6.6898Y-2.1094
X6.9039Y-3.348
X7.1228Y-2.1094
X7.4298Y-4.59
X7.6067Y-3.348
X7.8303Y-2.1047
X7.8629Y-4.59
X8.0398Y-3.348
X8.2634Y-2.1047
X8.7567Y-3.348
X8.9709Y-2.1142
X9.1898Y-3.348
X9.4039Y-2.1142
T2
X2.2923Y-2.3268
X2.4892Y-2.4134
X3.4378Y-2.3315
X3.6346Y-2.4181
X4.485Y-2.7783
X4.6819Y-2.865
X5.174Y-4.8689
X5.3709Y-4.9555
X5.6398Y-3.5512
X5.8366Y-3.6378
X5.8606Y-2.3291
X6.0575Y-2.4157
X6.46Y-4.3457
X6.6569Y-4.4324
X6.6874Y-3.1138
X6.8843Y-3.2004
X6.9063Y-1.8752
X7.1031Y-1.9618
X7.6464Y-4.3557
X7.8232Y-3.1138
X7.8432Y-4.4424
X8.0201Y-3.2004
X8.0469Y-1.8705
X8.2437Y-1.9571
X8.9732Y-3.1138
X9.1701Y-3.2004
X9.1874Y-1.8799
X9.3843Y-1.9665
T3
X2.2923Y-2.561
X3.4378Y-2.5657
X4.485Y-3.0126
X5.174Y-5.1031
X5.6398Y-3.7854
X5.8606Y-2.5634
X6.46Y-4.58
X6.6874Y-3.348
X6.9063Y-2.1094
X7.6464Y-4.59
X7.8232Y-3.348
X8.0469Y-2.1047
X8.9732Y-3.348
X9.1874Y-2.1142
T4
X1.8504Y-1.4567
X1.8504Y-5.6299
X5.2559Y-3.0709
X5.9055Y-1.4567
X5.9055Y-5.6299
X9.5669Y-1.4567
X9.5669Y-5.6299
T0
M30
