%TF.GenerationSoftware,KiCad,Pcbnew,7.0.5*%
%TF.CreationDate,2023-08-12T18:11:27-04:00*%
%TF.ProjectId,Flatbox-rev5B,466c6174-626f-4782-9d72-657635422e6b,rev?*%
%TF.SameCoordinates,Original*%
%TF.FileFunction,Legend,Top*%
%TF.FilePolarity,Positive*%
%FSLAX46Y46*%
G04 Gerber Fmt 4.6, Leading zero omitted, Abs format (unit mm)*
G04 Created by KiCad (PCBNEW 7.0.5) date 2023-08-12 18:11:27*
%MOMM*%
%LPD*%
G01*
G04 APERTURE LIST*
G04 Aperture macros list*
%AMRoundRect*
0 Rectangle with rounded corners*
0 $1 Rounding radius*
0 $2 $3 $4 $5 $6 $7 $8 $9 X,Y pos of 4 corners*
0 Add a 4 corners polygon primitive as box body*
4,1,4,$2,$3,$4,$5,$6,$7,$8,$9,$2,$3,0*
0 Add four circle primitives for the rounded corners*
1,1,$1+$1,$2,$3*
1,1,$1+$1,$4,$5*
1,1,$1+$1,$6,$7*
1,1,$1+$1,$8,$9*
0 Add four rect primitives between the rounded corners*
20,1,$1+$1,$2,$3,$4,$5,0*
20,1,$1+$1,$4,$5,$6,$7,0*
20,1,$1+$1,$6,$7,$8,$9,0*
20,1,$1+$1,$8,$9,$2,$3,0*%
G04 Aperture macros list end*
%ADD10C,0.200000*%
%ADD11C,0.150000*%
%ADD12C,0.300000*%
%ADD13C,1.000000*%
%ADD14C,0.120000*%
%ADD15C,1.701800*%
%ADD16C,3.000000*%
%ADD17C,3.429000*%
%ADD18C,2.032000*%
%ADD19C,6.400000*%
%ADD20C,2.000000*%
%ADD21RoundRect,0.381000X1.119000X0.381000X-1.119000X0.381000X-1.119000X-0.381000X1.119000X-0.381000X0*%
%ADD22RoundRect,0.381000X-0.381000X1.119000X-0.381000X-1.119000X0.381000X-1.119000X0.381000X1.119000X0*%
%ADD23RoundRect,0.381000X0.381000X-1.119000X0.381000X1.119000X-0.381000X1.119000X-0.381000X-1.119000X0*%
G04 APERTURE END LIST*
D10*
X216382567Y-53463258D02*
X216382567Y-53463258D01*
X176132278Y-116332000D02*
G75*
G03*
X176132278Y-116332000I-12048278J0D01*
G01*
X245355098Y-53699766D02*
X245355098Y-53699766D01*
X75320345Y-65170530D02*
X75327016Y-64768696D01*
X75346925Y-64369048D01*
X75379915Y-63971861D01*
X75425827Y-63577408D01*
X75484504Y-63185963D01*
X75555789Y-62797800D01*
X75639522Y-62413193D01*
X75735548Y-62032415D01*
X75843708Y-61655740D01*
X75963844Y-61283443D01*
X76095799Y-60915796D01*
X76239414Y-60553075D01*
X76394534Y-60195553D01*
X76560999Y-59843503D01*
X76738651Y-59497200D01*
X76927335Y-59156918D01*
X77126890Y-58822929D01*
X77337161Y-58495509D01*
X77557989Y-58174931D01*
X77789217Y-57861469D01*
X78030686Y-57555396D01*
X78282240Y-57256987D01*
X78543720Y-56966516D01*
X78814968Y-56684256D01*
X79095828Y-56410481D01*
X79386142Y-56145465D01*
X79685751Y-55889483D01*
X79994498Y-55642807D01*
X80312226Y-55405711D01*
X80638776Y-55178470D01*
X80973991Y-54961358D01*
X81317714Y-54754648D01*
X93312452Y-54754648D02*
X93656174Y-54961358D01*
X93991389Y-55178470D01*
X94317939Y-55405711D01*
X94635667Y-55642807D01*
X94944414Y-55889483D01*
X95244023Y-56145465D01*
X95534336Y-56410481D01*
X95815196Y-56684256D01*
X96086445Y-56966516D01*
X96347925Y-57256987D01*
X96599479Y-57555396D01*
X96840948Y-57861469D01*
X97072175Y-58174931D01*
X97293003Y-58495509D01*
X97503274Y-58822929D01*
X97702830Y-59156918D01*
X97891513Y-59497200D01*
X98069166Y-59843503D01*
X98235631Y-60195553D01*
X98390750Y-60553075D01*
X98534366Y-60915796D01*
X98666321Y-61283443D01*
X98786457Y-61655740D01*
X98894617Y-62032415D01*
X98990642Y-62413193D01*
X99074376Y-62797800D01*
X99145660Y-63185963D01*
X99204338Y-63577408D01*
X99250250Y-63971861D01*
X99283240Y-64369048D01*
X99303149Y-64768696D01*
X99309821Y-65170530D01*
X181412661Y-63997400D02*
X181062266Y-64192523D01*
X180707142Y-64375058D01*
X180347602Y-64545004D01*
X179983962Y-64702362D01*
X179616538Y-64847131D01*
X179245645Y-64979311D01*
X178871597Y-65098903D01*
X178494712Y-65205907D01*
X178115303Y-65300321D01*
X177733687Y-65382147D01*
X177350179Y-65451385D01*
X176965094Y-65508033D01*
X176578747Y-65552093D01*
X176191454Y-65583565D01*
X175803530Y-65602448D01*
X175415292Y-65608742D01*
X175027053Y-65602448D01*
X174639129Y-65583565D01*
X174251836Y-65552093D01*
X173865489Y-65508033D01*
X173480404Y-65451385D01*
X173096896Y-65382147D01*
X172715280Y-65300321D01*
X172335871Y-65205907D01*
X171958986Y-65098903D01*
X171584938Y-64979311D01*
X171214045Y-64847131D01*
X170846621Y-64702362D01*
X170482981Y-64545004D01*
X170123441Y-64375058D01*
X169768317Y-64192523D01*
X169417923Y-63997400D01*
X233918028Y-74621539D02*
X234261750Y-74828249D01*
X234596965Y-75045361D01*
X234923515Y-75272602D01*
X235241243Y-75509697D01*
X235549990Y-75756373D01*
X235849599Y-76012356D01*
X236139913Y-76277372D01*
X236420773Y-76551147D01*
X236692021Y-76833407D01*
X236953501Y-77123878D01*
X237205055Y-77422287D01*
X237446524Y-77728359D01*
X237677752Y-78041822D01*
X237898580Y-78362400D01*
X238108851Y-78689820D01*
X238308406Y-79023808D01*
X238497090Y-79364091D01*
X238674742Y-79710394D01*
X238841207Y-80062443D01*
X238996327Y-80419966D01*
X239139942Y-80782687D01*
X239271897Y-81150333D01*
X239392033Y-81522630D01*
X239500193Y-81899305D01*
X239596219Y-82280083D01*
X239679952Y-82664691D01*
X239751237Y-83052854D01*
X239809914Y-83444299D01*
X239855826Y-83838752D01*
X239888816Y-84235939D01*
X239908725Y-84635587D01*
X239915397Y-85037421D01*
X187410030Y-53581518D02*
X187410030Y-53581518D01*
X233918028Y-95453303D02*
X233567633Y-95648426D01*
X233212509Y-95830961D01*
X232852969Y-96000907D01*
X232489329Y-96158265D01*
X232121905Y-96303034D01*
X231751012Y-96435214D01*
X231376964Y-96554806D01*
X231000079Y-96661809D01*
X230620670Y-96756224D01*
X230239054Y-96838050D01*
X229855546Y-96907287D01*
X229470461Y-96963936D01*
X229084114Y-97007996D01*
X228696821Y-97039467D01*
X228308897Y-97058350D01*
X227920659Y-97064645D01*
X227532420Y-97058350D01*
X227144496Y-97039467D01*
X226757203Y-97007996D01*
X226370856Y-96963936D01*
X225985771Y-96907287D01*
X225602263Y-96838050D01*
X225220647Y-96756224D01*
X224841238Y-96661809D01*
X224464353Y-96554806D01*
X224090305Y-96435214D01*
X223719412Y-96303034D01*
X223351988Y-96158265D01*
X222988348Y-96000907D01*
X222628808Y-95830961D01*
X222273684Y-95648426D01*
X221923290Y-95453303D01*
X123913745Y-142649412D02*
X123483765Y-142390827D01*
X123064427Y-142119230D01*
X122655929Y-141834964D01*
X122258468Y-141538369D01*
X121872241Y-141229790D01*
X121497445Y-140909568D01*
X121134277Y-140578047D01*
X120782936Y-140235568D01*
X120443617Y-139882475D01*
X120116518Y-139519110D01*
X119801838Y-139145815D01*
X119499772Y-138762934D01*
X119210517Y-138370808D01*
X118934273Y-137969781D01*
X118671235Y-137560195D01*
X118421600Y-137142393D01*
X118185567Y-136716716D01*
X117963332Y-136283508D01*
X117755093Y-135843112D01*
X117561047Y-135395869D01*
X117381391Y-134942123D01*
X117216322Y-134482216D01*
X117066037Y-134016491D01*
X116930735Y-133545290D01*
X116810612Y-133068955D01*
X116705865Y-132587831D01*
X116616692Y-132102258D01*
X116543290Y-131612580D01*
X116485856Y-131119139D01*
X116444588Y-130622277D01*
X116419682Y-130122338D01*
X116411337Y-129619665D01*
X204708930Y-95453303D02*
X204358535Y-95648426D01*
X204003411Y-95830961D01*
X203643871Y-96000907D01*
X203280231Y-96158265D01*
X202912807Y-96303034D01*
X202541914Y-96435214D01*
X202167866Y-96554806D01*
X201790981Y-96661809D01*
X201411572Y-96756224D01*
X201029956Y-96838050D01*
X200646448Y-96907287D01*
X200261363Y-96963936D01*
X199875016Y-97007996D01*
X199487723Y-97039467D01*
X199099799Y-97058350D01*
X198711561Y-97064645D01*
X198323322Y-97058350D01*
X197935398Y-97039467D01*
X197548105Y-97007996D01*
X197161758Y-96963936D01*
X196776673Y-96907287D01*
X196393165Y-96838050D01*
X196011549Y-96756224D01*
X195632140Y-96661809D01*
X195255255Y-96554806D01*
X194881207Y-96435214D01*
X194510314Y-96303034D01*
X194142890Y-96158265D01*
X193779250Y-96000907D01*
X193419710Y-95830961D01*
X193064586Y-95648426D01*
X192714192Y-95453303D01*
X192714192Y-74621539D02*
X193064586Y-74426415D01*
X193419710Y-74243880D01*
X193779250Y-74073934D01*
X194142890Y-73916576D01*
X194510314Y-73771807D01*
X194881207Y-73639627D01*
X195255255Y-73520035D01*
X195632140Y-73413031D01*
X196011549Y-73318617D01*
X196393165Y-73236791D01*
X196776673Y-73167553D01*
X197161758Y-73110905D01*
X197548105Y-73066845D01*
X197935398Y-73035373D01*
X198323322Y-73016490D01*
X198711561Y-73010196D01*
X199099799Y-73016490D01*
X199487723Y-73035373D01*
X199875016Y-73066845D01*
X200261363Y-73110905D01*
X200646448Y-73167553D01*
X201029956Y-73236791D01*
X201411572Y-73318617D01*
X201790981Y-73413031D01*
X202167866Y-73520035D01*
X202541914Y-73639627D01*
X202912807Y-73771807D01*
X203280231Y-73916576D01*
X203643871Y-74073934D01*
X204003411Y-74243880D01*
X204358535Y-74426415D01*
X204708930Y-74621539D01*
X239915397Y-85037421D02*
X239908725Y-85439254D01*
X239888816Y-85838902D01*
X239855826Y-86236089D01*
X239809914Y-86630542D01*
X239751237Y-87021987D01*
X239679952Y-87410150D01*
X239596219Y-87794757D01*
X239500193Y-88175535D01*
X239392033Y-88552210D01*
X239271897Y-88924507D01*
X239139942Y-89292154D01*
X238996327Y-89654875D01*
X238841207Y-90012397D01*
X238674742Y-90364447D01*
X238497090Y-90710750D01*
X238308406Y-91051033D01*
X238108851Y-91385021D01*
X237898580Y-91712441D01*
X237677752Y-92033019D01*
X237446524Y-92346481D01*
X237205055Y-92652554D01*
X236953501Y-92950963D01*
X236692021Y-93241434D01*
X236420773Y-93523694D01*
X236139913Y-93797469D01*
X235849599Y-94062485D01*
X235549990Y-94318467D01*
X235241243Y-94565143D01*
X234923515Y-94802239D01*
X234596965Y-95029480D01*
X234261750Y-95246592D01*
X233918028Y-95453303D01*
X142865684Y-75530868D02*
X142521961Y-75324157D01*
X142186746Y-75107045D01*
X141860196Y-74879804D01*
X141542468Y-74642709D01*
X141233721Y-74396033D01*
X140934112Y-74140050D01*
X140643798Y-73875034D01*
X140362938Y-73601259D01*
X140091690Y-73318999D01*
X139830210Y-73028528D01*
X139578656Y-72730119D01*
X139337187Y-72424047D01*
X139105959Y-72110584D01*
X138885131Y-71790006D01*
X138674860Y-71462586D01*
X138475305Y-71128598D01*
X138286621Y-70788315D01*
X138108969Y-70442012D01*
X137942504Y-70089963D01*
X137787384Y-69732440D01*
X137643769Y-69369719D01*
X137511814Y-69002073D01*
X137391678Y-68629776D01*
X137283518Y-68253101D01*
X137187492Y-67872323D01*
X137103759Y-67487715D01*
X137032474Y-67099552D01*
X136973797Y-66708107D01*
X136927885Y-66313654D01*
X136894895Y-65916467D01*
X136874986Y-65516819D01*
X136868315Y-65114986D01*
X210706299Y-85037421D02*
X210699627Y-85439254D01*
X210679718Y-85838902D01*
X210646728Y-86236089D01*
X210600816Y-86630542D01*
X210542139Y-87021987D01*
X210470854Y-87410150D01*
X210387121Y-87794757D01*
X210291095Y-88175535D01*
X210182935Y-88552210D01*
X210062799Y-88924507D01*
X209930844Y-89292154D01*
X209787229Y-89654875D01*
X209632109Y-90012397D01*
X209465644Y-90364447D01*
X209287992Y-90710750D01*
X209099308Y-91051033D01*
X208899753Y-91385021D01*
X208689482Y-91712441D01*
X208468654Y-92033019D01*
X208237426Y-92346481D01*
X207995957Y-92652554D01*
X207744403Y-92950963D01*
X207482923Y-93241434D01*
X207211675Y-93523694D01*
X206930815Y-93797469D01*
X206640501Y-94062485D01*
X206340892Y-94318467D01*
X206032145Y-94565143D01*
X205714417Y-94802239D01*
X205387867Y-95029480D01*
X205052652Y-95246592D01*
X204708930Y-95453303D01*
X210385198Y-43047376D02*
X210728920Y-43254086D01*
X211064135Y-43471198D01*
X211390685Y-43698439D01*
X211708413Y-43935534D01*
X212017160Y-44182210D01*
X212316769Y-44438193D01*
X212607083Y-44703209D01*
X212887943Y-44976983D01*
X213159191Y-45259243D01*
X213420671Y-45549715D01*
X213672225Y-45848124D01*
X213913694Y-46154196D01*
X214144922Y-46467658D01*
X214365750Y-46788236D01*
X214576021Y-47115656D01*
X214775576Y-47449645D01*
X214964260Y-47789927D01*
X215141912Y-48136230D01*
X215308377Y-48488280D01*
X215463497Y-48845802D01*
X215607112Y-49208524D01*
X215739067Y-49576170D01*
X215859203Y-49948467D01*
X215967363Y-50325142D01*
X216063389Y-50705920D01*
X216147122Y-51090528D01*
X216218407Y-51478691D01*
X216277084Y-51870136D01*
X216322996Y-52264589D01*
X216355986Y-52661776D01*
X216375895Y-53061424D01*
X216382567Y-53463258D01*
X181852021Y-85037421D02*
X181852021Y-85037421D01*
X221923290Y-95453303D02*
X221579567Y-95246592D01*
X221244352Y-95029480D01*
X220917802Y-94802239D01*
X220600074Y-94565143D01*
X220291327Y-94318467D01*
X219991718Y-94062485D01*
X219701404Y-93797469D01*
X219420544Y-93523694D01*
X219149296Y-93241434D01*
X218887816Y-92950963D01*
X218636262Y-92652554D01*
X218394793Y-92346481D01*
X218163565Y-92033019D01*
X217942737Y-91712441D01*
X217732466Y-91385021D01*
X217532911Y-91051033D01*
X217344227Y-90710750D01*
X217166575Y-90364447D01*
X217000110Y-90012397D01*
X216844990Y-89654875D01*
X216701375Y-89292154D01*
X216569420Y-88924507D01*
X216449284Y-88552210D01*
X216341124Y-88175535D01*
X216245098Y-87794757D01*
X216161365Y-87410150D01*
X216090080Y-87021987D01*
X216031403Y-86630542D01*
X215985491Y-86236089D01*
X215952501Y-85838902D01*
X215932592Y-85439254D01*
X215925921Y-85037421D01*
X93312452Y-75586412D02*
X92962057Y-75781535D01*
X92606933Y-75964070D01*
X92247393Y-76134016D01*
X91883753Y-76291374D01*
X91516329Y-76436143D01*
X91145436Y-76568323D01*
X90771388Y-76687915D01*
X90394503Y-76794919D01*
X90015094Y-76889333D01*
X89633478Y-76971159D01*
X89249970Y-77040397D01*
X88864885Y-77097045D01*
X88478538Y-77141105D01*
X88091245Y-77172577D01*
X87703321Y-77191460D01*
X87315083Y-77197754D01*
X86926844Y-77191460D01*
X86538920Y-77172577D01*
X86151627Y-77141105D01*
X85765280Y-77097045D01*
X85380195Y-77040397D01*
X84996687Y-76971159D01*
X84615071Y-76889333D01*
X84235662Y-76794919D01*
X83858777Y-76687915D01*
X83484729Y-76568323D01*
X83113836Y-76436143D01*
X82746412Y-76291374D01*
X82382772Y-76134016D01*
X82023232Y-75964070D01*
X81668108Y-75781535D01*
X81317714Y-75586412D01*
X175854652Y-95453303D02*
X175504257Y-95648426D01*
X175149133Y-95830961D01*
X174789593Y-96000907D01*
X174425953Y-96158265D01*
X174058529Y-96303034D01*
X173687636Y-96435214D01*
X173313588Y-96554806D01*
X172936703Y-96661809D01*
X172557294Y-96756224D01*
X172175678Y-96838050D01*
X171792170Y-96907287D01*
X171407085Y-96963936D01*
X171020738Y-97007996D01*
X170633445Y-97039467D01*
X170245521Y-97058350D01*
X169857283Y-97064645D01*
X169469044Y-97058350D01*
X169081120Y-97039467D01*
X168693827Y-97007996D01*
X168307480Y-96963936D01*
X167922395Y-96907287D01*
X167538887Y-96838050D01*
X167157271Y-96756224D01*
X166777862Y-96661809D01*
X166400977Y-96554806D01*
X166026929Y-96435214D01*
X165656036Y-96303034D01*
X165288612Y-96158265D01*
X164924972Y-96000907D01*
X164565432Y-95830961D01*
X164210308Y-95648426D01*
X163859914Y-95453303D01*
X239915397Y-85037421D02*
X239915397Y-85037421D01*
X186716823Y-85037421D02*
X186723494Y-84635587D01*
X186743403Y-84235939D01*
X186776393Y-83838752D01*
X186822305Y-83444299D01*
X186880983Y-83052854D01*
X186952267Y-82664691D01*
X187036001Y-82280083D01*
X187132026Y-81899305D01*
X187240186Y-81522630D01*
X187360322Y-81150333D01*
X187492277Y-80782687D01*
X187635893Y-80419966D01*
X187791012Y-80062443D01*
X187957477Y-79710394D01*
X188135130Y-79364091D01*
X188323813Y-79023808D01*
X188523369Y-78689820D01*
X188733640Y-78362400D01*
X188954468Y-78041822D01*
X189185695Y-77728359D01*
X189427164Y-77422287D01*
X189678718Y-77123878D01*
X189940198Y-76833407D01*
X190211447Y-76551147D01*
X190492307Y-76277372D01*
X190782620Y-76012356D01*
X191082229Y-75756373D01*
X191390976Y-75509697D01*
X191708704Y-75272602D01*
X192035254Y-75045361D01*
X192370469Y-74828249D01*
X192714192Y-74621539D01*
X138918561Y-142649412D02*
X138480235Y-142893501D01*
X138035992Y-143121843D01*
X137586226Y-143334438D01*
X137131331Y-143531284D01*
X136671701Y-143712383D01*
X136207732Y-143877734D01*
X135739818Y-144027338D01*
X135268353Y-144161193D01*
X134793732Y-144279301D01*
X134316350Y-144381661D01*
X133836600Y-144468274D01*
X133354877Y-144539139D01*
X132871577Y-144594256D01*
X132387093Y-144633625D01*
X131901820Y-144657247D01*
X131416153Y-144665121D01*
X130930485Y-144657247D01*
X130445212Y-144633625D01*
X129960728Y-144594256D01*
X129477428Y-144539139D01*
X128995705Y-144468274D01*
X128515955Y-144381661D01*
X128038573Y-144279301D01*
X127563952Y-144161193D01*
X127092487Y-144027338D01*
X126624573Y-143877734D01*
X126160604Y-143712383D01*
X125700974Y-143531284D01*
X125246079Y-143334438D01*
X124796313Y-143121843D01*
X124352070Y-142893501D01*
X123913745Y-142649412D01*
X169417923Y-43165636D02*
X169768317Y-42970512D01*
X170123441Y-42787977D01*
X170482981Y-42618031D01*
X170846621Y-42460673D01*
X171214045Y-42315904D01*
X171584938Y-42183724D01*
X171958986Y-42064132D01*
X172335871Y-41957129D01*
X172715280Y-41862714D01*
X173096896Y-41780888D01*
X173480404Y-41711651D01*
X173865489Y-41655002D01*
X174251836Y-41610942D01*
X174639129Y-41579471D01*
X175027053Y-41560588D01*
X175415292Y-41554294D01*
X175803530Y-41560588D01*
X176191454Y-41579471D01*
X176578747Y-41610942D01*
X176965094Y-41655002D01*
X177350179Y-41711651D01*
X177733687Y-41780888D01*
X178115303Y-41862714D01*
X178494712Y-41957129D01*
X178871597Y-42064132D01*
X179245645Y-42183724D01*
X179616538Y-42315904D01*
X179983962Y-42460673D01*
X180347602Y-42618031D01*
X180707142Y-42787977D01*
X181062266Y-42970512D01*
X181412661Y-43165636D01*
X64221646Y-54636398D02*
X64565368Y-54843108D01*
X64900583Y-55060220D01*
X65227133Y-55287461D01*
X65544861Y-55524557D01*
X65853608Y-55771233D01*
X66153217Y-56027215D01*
X66443531Y-56292231D01*
X66724391Y-56566006D01*
X66995639Y-56848266D01*
X67257119Y-57138737D01*
X67508673Y-57437146D01*
X67750142Y-57743219D01*
X67981370Y-58056681D01*
X68202198Y-58377259D01*
X68412469Y-58704679D01*
X68612024Y-59038668D01*
X68800708Y-59378950D01*
X68978360Y-59725253D01*
X69144825Y-60077303D01*
X69299945Y-60434825D01*
X69443560Y-60797546D01*
X69575515Y-61165193D01*
X69695651Y-61537490D01*
X69803811Y-61914165D01*
X69899837Y-62294943D01*
X69983570Y-62679550D01*
X70054855Y-63067713D01*
X70113532Y-63459158D01*
X70159444Y-63853611D01*
X70192434Y-64250798D01*
X70212343Y-64650446D01*
X70219015Y-65052280D01*
X245355098Y-53699766D02*
X245339490Y-54318685D01*
X245293170Y-54929479D01*
X245216891Y-55531393D01*
X245111407Y-56123671D01*
X244977471Y-56705556D01*
X244815837Y-57276294D01*
X244627259Y-57835128D01*
X244412491Y-58381304D01*
X244172286Y-58914064D01*
X243907397Y-59432654D01*
X243618578Y-59936318D01*
X243306584Y-60424301D01*
X242972167Y-60895845D01*
X242616082Y-61350197D01*
X242239081Y-61786599D01*
X241841919Y-62204297D01*
X241425350Y-62602535D01*
X240990126Y-62980556D01*
X240537002Y-63337606D01*
X240066731Y-63672928D01*
X239580067Y-63985768D01*
X239077763Y-64275368D01*
X238560574Y-64540975D01*
X238029252Y-64781831D01*
X237484552Y-64997181D01*
X236927227Y-65186269D01*
X236358031Y-65348341D01*
X235777717Y-65482639D01*
X235187040Y-65588409D01*
X234586752Y-65664894D01*
X233977607Y-65711340D01*
X233360360Y-65726990D01*
X160857791Y-65114986D02*
X160851119Y-65516819D01*
X160831210Y-65916467D01*
X160798220Y-66313654D01*
X160752308Y-66708107D01*
X160693631Y-67099552D01*
X160622346Y-67487715D01*
X160538613Y-67872323D01*
X160442587Y-68253101D01*
X160334427Y-68629776D01*
X160214291Y-69002073D01*
X160082336Y-69369719D01*
X159938721Y-69732440D01*
X159783601Y-70089963D01*
X159617136Y-70442012D01*
X159439484Y-70788315D01*
X159250800Y-71128598D01*
X159051245Y-71462586D01*
X158840974Y-71790006D01*
X158620146Y-72110584D01*
X158388918Y-72424047D01*
X158147449Y-72730119D01*
X157895895Y-73028528D01*
X157634415Y-73318999D01*
X157363167Y-73601259D01*
X157082307Y-73875034D01*
X156791993Y-74140050D01*
X156492384Y-74396033D01*
X156183637Y-74642709D01*
X155865909Y-74879804D01*
X155539359Y-75107045D01*
X155204144Y-75324157D01*
X154860422Y-75530868D01*
X52226909Y-54636398D02*
X52577302Y-54441274D01*
X52932427Y-54258739D01*
X53291967Y-54088793D01*
X53655607Y-53931435D01*
X54023031Y-53786666D01*
X54393924Y-53654486D01*
X54767971Y-53534894D01*
X55144857Y-53427890D01*
X55524265Y-53333476D01*
X55905881Y-53251650D01*
X56289390Y-53182412D01*
X56674475Y-53125764D01*
X57060822Y-53081704D01*
X57448114Y-53050232D01*
X57836038Y-53031349D01*
X58224277Y-53025055D01*
X58612516Y-53031349D01*
X59000440Y-53050232D01*
X59387732Y-53081704D01*
X59774079Y-53125764D01*
X60159164Y-53182412D01*
X60542673Y-53251650D01*
X60924289Y-53333476D01*
X61303697Y-53427890D01*
X61680583Y-53534894D01*
X62054630Y-53654486D01*
X62425523Y-53786666D01*
X62792947Y-53931435D01*
X63156587Y-54088793D01*
X63516127Y-54258739D01*
X63871252Y-54441274D01*
X64221646Y-54636398D01*
X131255108Y-96153426D02*
X131261779Y-95751592D01*
X131281688Y-95351944D01*
X131314678Y-94954757D01*
X131360590Y-94560304D01*
X131419268Y-94168859D01*
X131490552Y-93780696D01*
X131574286Y-93396089D01*
X131670311Y-93015311D01*
X131778471Y-92638636D01*
X131898607Y-92266339D01*
X132030562Y-91898692D01*
X132174178Y-91535971D01*
X132329297Y-91178449D01*
X132495762Y-90826399D01*
X132673415Y-90480096D01*
X132862098Y-90139814D01*
X133061654Y-89805825D01*
X133271925Y-89478405D01*
X133492753Y-89157827D01*
X133723980Y-88844365D01*
X133965449Y-88538293D01*
X134217003Y-88239884D01*
X134478483Y-87949413D01*
X134749732Y-87667153D01*
X135030592Y-87393378D01*
X135320905Y-87128362D01*
X135620514Y-86872380D01*
X135929261Y-86625704D01*
X136246989Y-86388609D01*
X136573539Y-86161368D01*
X136908754Y-85944256D01*
X137252477Y-85737546D01*
X192393091Y-53463258D02*
X192399762Y-53061424D01*
X192419671Y-52661776D01*
X192452661Y-52264589D01*
X192498573Y-51870136D01*
X192557250Y-51478691D01*
X192628535Y-51090528D01*
X192712268Y-50705920D01*
X192808294Y-50325142D01*
X192916454Y-49948467D01*
X193036590Y-49576170D01*
X193168545Y-49208524D01*
X193312160Y-48845802D01*
X193467280Y-48488280D01*
X193633745Y-48136230D01*
X193811397Y-47789927D01*
X194000081Y-47449645D01*
X194199636Y-47115656D01*
X194409907Y-46788236D01*
X194630735Y-46467658D01*
X194861963Y-46154196D01*
X195103432Y-45848124D01*
X195354986Y-45549715D01*
X195616466Y-45259243D01*
X195887714Y-44976983D01*
X196168574Y-44703209D01*
X196458888Y-44438193D01*
X196758497Y-44182210D01*
X197067244Y-43935534D01*
X197384972Y-43698439D01*
X197711522Y-43471198D01*
X198046737Y-43254086D01*
X198390460Y-43047376D01*
X119919904Y-86938924D02*
X119569509Y-87134047D01*
X119214385Y-87316582D01*
X118854845Y-87486528D01*
X118491205Y-87643886D01*
X118123781Y-87788655D01*
X117752888Y-87920835D01*
X117378840Y-88040427D01*
X117001955Y-88147430D01*
X116622546Y-88241845D01*
X116240930Y-88323671D01*
X115857422Y-88392908D01*
X115472337Y-88449557D01*
X115085990Y-88493617D01*
X114698697Y-88525088D01*
X114310773Y-88543971D01*
X113922535Y-88550266D01*
X113534296Y-88543971D01*
X113146372Y-88525088D01*
X112759079Y-88493617D01*
X112372732Y-88449557D01*
X111987647Y-88392908D01*
X111604139Y-88323671D01*
X111222523Y-88241845D01*
X110843114Y-88147430D01*
X110466229Y-88040427D01*
X110092181Y-87920835D01*
X109721288Y-87788655D01*
X109353864Y-87643886D01*
X108990224Y-87486528D01*
X108630684Y-87316582D01*
X108275560Y-87134047D01*
X107925166Y-86938924D01*
X101927798Y-76523042D02*
X101934469Y-76121208D01*
X101954378Y-75721560D01*
X101987368Y-75324373D01*
X102033280Y-74929920D01*
X102091957Y-74538475D01*
X102163242Y-74150312D01*
X102246975Y-73765704D01*
X102343001Y-73384926D01*
X102451161Y-73008251D01*
X102571297Y-72635954D01*
X102703252Y-72268308D01*
X102846867Y-71905587D01*
X103001987Y-71548064D01*
X103168451Y-71196015D01*
X103346104Y-70849712D01*
X103534788Y-70509429D01*
X103734343Y-70175441D01*
X103944614Y-69848021D01*
X104165442Y-69527443D01*
X104396669Y-69213980D01*
X104638139Y-68907908D01*
X104889692Y-68609499D01*
X105151172Y-68319028D01*
X105422421Y-68036768D01*
X105703281Y-67762993D01*
X105993594Y-67497977D01*
X106293203Y-67241994D01*
X106601950Y-66995318D01*
X106919678Y-66758223D01*
X107246228Y-66530982D01*
X107581443Y-66313870D01*
X107925166Y-66107160D01*
X137252477Y-85737546D02*
X137602871Y-85542422D01*
X137957995Y-85359887D01*
X138317535Y-85189940D01*
X138681175Y-85032583D01*
X139048599Y-84887814D01*
X139419492Y-84755633D01*
X139793540Y-84636041D01*
X140170425Y-84529038D01*
X140549834Y-84434623D01*
X140931450Y-84352797D01*
X141314958Y-84283560D01*
X141700043Y-84226911D01*
X142086390Y-84182851D01*
X142473683Y-84151379D01*
X142861607Y-84132496D01*
X143249846Y-84126202D01*
X143638084Y-84132496D01*
X144026008Y-84151379D01*
X144413301Y-84182851D01*
X144799648Y-84226911D01*
X145184733Y-84283560D01*
X145568241Y-84352797D01*
X145949857Y-84434623D01*
X146329266Y-84529038D01*
X146706151Y-84636041D01*
X147080199Y-84755633D01*
X147451092Y-84887814D01*
X147818516Y-85032583D01*
X148182156Y-85189940D01*
X148541696Y-85359887D01*
X148896820Y-85542422D01*
X149247215Y-85737546D01*
X154860422Y-54699104D02*
X155204144Y-54905814D01*
X155539359Y-55122926D01*
X155865909Y-55350167D01*
X156183637Y-55587263D01*
X156492384Y-55833939D01*
X156791993Y-56089921D01*
X157082307Y-56354937D01*
X157363167Y-56628712D01*
X157634415Y-56910972D01*
X157895895Y-57201443D01*
X158147449Y-57499852D01*
X158388918Y-57805925D01*
X158620146Y-58119387D01*
X158840974Y-58439965D01*
X159051245Y-58767385D01*
X159250800Y-59101374D01*
X159439484Y-59441656D01*
X159617136Y-59787959D01*
X159783601Y-60140009D01*
X159938721Y-60497531D01*
X160082336Y-60860252D01*
X160214291Y-61227899D01*
X160334427Y-61600196D01*
X160442587Y-61976871D01*
X160538613Y-62357649D01*
X160622346Y-62742256D01*
X160693631Y-63130419D01*
X160752308Y-63521864D01*
X160798220Y-63916317D01*
X160831210Y-64313504D01*
X160851119Y-64713152D01*
X160857791Y-65114986D01*
X221923290Y-74621539D02*
X222273684Y-74426415D01*
X222628808Y-74243880D01*
X222988348Y-74073934D01*
X223351988Y-73916576D01*
X223719412Y-73771807D01*
X224090305Y-73639627D01*
X224464353Y-73520035D01*
X224841238Y-73413031D01*
X225220647Y-73318617D01*
X225602263Y-73236791D01*
X225985771Y-73167553D01*
X226370856Y-73110905D01*
X226757203Y-73066845D01*
X227144496Y-73035373D01*
X227532420Y-73016490D01*
X227920659Y-73010196D01*
X228308897Y-73016490D01*
X228696821Y-73035373D01*
X229084114Y-73066845D01*
X229470461Y-73110905D01*
X229855546Y-73167553D01*
X230239054Y-73236791D01*
X230620670Y-73318617D01*
X231000079Y-73413031D01*
X231376964Y-73520035D01*
X231751012Y-73639627D01*
X232121905Y-73771807D01*
X232489329Y-73916576D01*
X232852969Y-74073934D01*
X233212509Y-74243880D01*
X233567633Y-74426415D01*
X233918028Y-74621539D01*
X155244584Y-96153426D02*
X155244584Y-96153426D01*
X181852021Y-85037421D02*
X181845349Y-85439254D01*
X181825440Y-85838902D01*
X181792450Y-86236089D01*
X181746538Y-86630542D01*
X181687861Y-87021987D01*
X181616576Y-87410150D01*
X181532843Y-87794757D01*
X181436817Y-88175535D01*
X181328657Y-88552210D01*
X181208521Y-88924507D01*
X181076566Y-89292154D01*
X180932951Y-89654875D01*
X180777831Y-90012397D01*
X180611366Y-90364447D01*
X180433714Y-90710750D01*
X180245030Y-91051033D01*
X180045475Y-91385021D01*
X179835204Y-91712441D01*
X179614376Y-92033019D01*
X179383148Y-92346481D01*
X179141679Y-92652554D01*
X178890125Y-92950963D01*
X178628645Y-93241434D01*
X178357397Y-93523694D01*
X178076537Y-93797469D01*
X177786223Y-94062485D01*
X177486614Y-94318467D01*
X177177867Y-94565143D01*
X176860139Y-94802239D01*
X176533589Y-95029480D01*
X176198374Y-95246592D01*
X175854652Y-95453303D01*
X138918561Y-116589918D02*
X139348540Y-116848502D01*
X139767877Y-117120098D01*
X140176375Y-117404365D01*
X140573837Y-117700960D01*
X140960064Y-118009539D01*
X141334860Y-118329761D01*
X141698027Y-118661282D01*
X142049369Y-119003760D01*
X142388688Y-119356854D01*
X142715786Y-119720219D01*
X143030467Y-120093513D01*
X143332533Y-120476395D01*
X143621787Y-120868520D01*
X143898032Y-121269547D01*
X144161070Y-121679133D01*
X144410704Y-122096936D01*
X144646737Y-122522613D01*
X144868972Y-122955820D01*
X145077212Y-123396217D01*
X145271258Y-123843460D01*
X145450914Y-124297206D01*
X145615983Y-124757113D01*
X145766267Y-125222838D01*
X145901570Y-125694039D01*
X146021693Y-126170373D01*
X146126440Y-126651498D01*
X146215613Y-127137071D01*
X146289015Y-127626749D01*
X146346449Y-128120190D01*
X146387717Y-128617052D01*
X146412623Y-129116991D01*
X146420969Y-129619665D01*
X206349104Y-116332000D02*
G75*
G03*
X206349104Y-116332000I-12130993J0D01*
G01*
X64221646Y-75468162D02*
X63871252Y-75663285D01*
X63516127Y-75845820D01*
X63156587Y-76015766D01*
X62792947Y-76173124D01*
X62425523Y-76317893D01*
X62054630Y-76450073D01*
X61680583Y-76569665D01*
X61303697Y-76676669D01*
X60924289Y-76771083D01*
X60542673Y-76852909D01*
X60159164Y-76922147D01*
X59774079Y-76978795D01*
X59387732Y-77022855D01*
X59000440Y-77054327D01*
X58612516Y-77073210D01*
X58224277Y-77079504D01*
X57836038Y-77073210D01*
X57448114Y-77054327D01*
X57060822Y-77022855D01*
X56674475Y-76978795D01*
X56289390Y-76922147D01*
X55905881Y-76852909D01*
X55524265Y-76771083D01*
X55144857Y-76676669D01*
X54767971Y-76569665D01*
X54393924Y-76450073D01*
X54023031Y-76317893D01*
X53655607Y-76173124D01*
X53291967Y-76015766D01*
X52932427Y-75845820D01*
X52577302Y-75663285D01*
X52226909Y-75468162D01*
X227362991Y-43283884D02*
X227713385Y-43088760D01*
X228068509Y-42906225D01*
X228428049Y-42736279D01*
X228791689Y-42578921D01*
X229159113Y-42434152D01*
X229530006Y-42301972D01*
X229904054Y-42182380D01*
X230280939Y-42075376D01*
X230660348Y-41980962D01*
X231041964Y-41899136D01*
X231425472Y-41829898D01*
X231810557Y-41773250D01*
X232196904Y-41729190D01*
X232584197Y-41697718D01*
X232972121Y-41678835D01*
X233360360Y-41672541D01*
X233748598Y-41678835D01*
X234136522Y-41697718D01*
X234523815Y-41729190D01*
X234910162Y-41773250D01*
X235295247Y-41829898D01*
X235678755Y-41899136D01*
X236060371Y-41980962D01*
X236439780Y-42075376D01*
X236816665Y-42182380D01*
X237190713Y-42301972D01*
X237561606Y-42434152D01*
X237929030Y-42578921D01*
X238292670Y-42736279D01*
X238652210Y-42906225D01*
X239007334Y-43088760D01*
X239357729Y-43283884D01*
X169417923Y-63997400D02*
X169074200Y-63790689D01*
X168738985Y-63573577D01*
X168412435Y-63346336D01*
X168094707Y-63109241D01*
X167785960Y-62862565D01*
X167486351Y-62606582D01*
X167196038Y-62341566D01*
X166915178Y-62067791D01*
X166643929Y-61785531D01*
X166382449Y-61495060D01*
X166130896Y-61196651D01*
X165889426Y-60890579D01*
X165658199Y-60577116D01*
X165437371Y-60256538D01*
X165227100Y-59929118D01*
X165027545Y-59595130D01*
X164838861Y-59254847D01*
X164661208Y-58908544D01*
X164494744Y-58556495D01*
X164339624Y-58198972D01*
X164196009Y-57836251D01*
X164064054Y-57468605D01*
X163943918Y-57096308D01*
X163835758Y-56719633D01*
X163739732Y-56338855D01*
X163655999Y-55954247D01*
X163584714Y-55566084D01*
X163526037Y-55174639D01*
X163480125Y-54780186D01*
X163447135Y-54382999D01*
X163427226Y-53983351D01*
X163420555Y-53581518D01*
X116411337Y-129619665D02*
X116419682Y-129116991D01*
X116444588Y-128617052D01*
X116485856Y-128120190D01*
X116543290Y-127626749D01*
X116616692Y-127137071D01*
X116705865Y-126651498D01*
X116810612Y-126170373D01*
X116930735Y-125694039D01*
X117066037Y-125222838D01*
X117216322Y-124757113D01*
X117381391Y-124297206D01*
X117561047Y-123843460D01*
X117755093Y-123396217D01*
X117963332Y-122955820D01*
X118185567Y-122522613D01*
X118421600Y-122096936D01*
X118671235Y-121679133D01*
X118934273Y-121269547D01*
X119210517Y-120868520D01*
X119499772Y-120476395D01*
X119801838Y-120093513D01*
X120116518Y-119720219D01*
X120443617Y-119356854D01*
X120782936Y-119003760D01*
X121134277Y-118661282D01*
X121497445Y-118329761D01*
X121872241Y-118009539D01*
X122258468Y-117700960D01*
X122655929Y-117404365D01*
X123064427Y-117120098D01*
X123483765Y-116848502D01*
X123913745Y-116589918D01*
X160857791Y-65114986D02*
X160857791Y-65114986D01*
X149247215Y-85737546D02*
X149590937Y-85944256D01*
X149926152Y-86161368D01*
X150252702Y-86388609D01*
X150570430Y-86625704D01*
X150879177Y-86872380D01*
X151178786Y-87128362D01*
X151469100Y-87393378D01*
X151749960Y-87667153D01*
X152021208Y-87949413D01*
X152282688Y-88239884D01*
X152534242Y-88538293D01*
X152775711Y-88844365D01*
X153006939Y-89157827D01*
X153227767Y-89478405D01*
X153438038Y-89805825D01*
X153637593Y-90139814D01*
X153826277Y-90480096D01*
X154003929Y-90826399D01*
X154170394Y-91178449D01*
X154325514Y-91535971D01*
X154469129Y-91898692D01*
X154601084Y-92266339D01*
X154721220Y-92638636D01*
X154829380Y-93015311D01*
X154925406Y-93396089D01*
X155009139Y-93780696D01*
X155080424Y-94168859D01*
X155139101Y-94560304D01*
X155185013Y-94954757D01*
X155218003Y-95351944D01*
X155237912Y-95751592D01*
X155244584Y-96153426D01*
X215925921Y-85037421D02*
X215932592Y-84635587D01*
X215952501Y-84235939D01*
X215985491Y-83838752D01*
X216031403Y-83444299D01*
X216090080Y-83052854D01*
X216161365Y-82664691D01*
X216245098Y-82280083D01*
X216341124Y-81899305D01*
X216449284Y-81522630D01*
X216569420Y-81150333D01*
X216701375Y-80782687D01*
X216844990Y-80419966D01*
X217000110Y-80062443D01*
X217166575Y-79710394D01*
X217344227Y-79364091D01*
X217532911Y-79023808D01*
X217732466Y-78689820D01*
X217942737Y-78362400D01*
X218163565Y-78041822D01*
X218394793Y-77728359D01*
X218636262Y-77422287D01*
X218887816Y-77123878D01*
X219149296Y-76833407D01*
X219420544Y-76551147D01*
X219701404Y-76277372D01*
X219991718Y-76012356D01*
X220291327Y-75756373D01*
X220600074Y-75509697D01*
X220917802Y-75272602D01*
X221244352Y-75045361D01*
X221579567Y-74828249D01*
X221923290Y-74621539D01*
X163859914Y-95453303D02*
X163516191Y-95246592D01*
X163180976Y-95029480D01*
X162854426Y-94802239D01*
X162536698Y-94565143D01*
X162227951Y-94318467D01*
X161928342Y-94062485D01*
X161638028Y-93797469D01*
X161357168Y-93523694D01*
X161085920Y-93241434D01*
X160824440Y-92950963D01*
X160572886Y-92652554D01*
X160331417Y-92346481D01*
X160100189Y-92033019D01*
X159879361Y-91712441D01*
X159669090Y-91385021D01*
X159469535Y-91051033D01*
X159280851Y-90710750D01*
X159103199Y-90364447D01*
X158936734Y-90012397D01*
X158781614Y-89654875D01*
X158637999Y-89292154D01*
X158506044Y-88924507D01*
X158385908Y-88552210D01*
X158277748Y-88175535D01*
X158181722Y-87794757D01*
X158097989Y-87410150D01*
X158026704Y-87021987D01*
X157968027Y-86630542D01*
X157922115Y-86236089D01*
X157889125Y-85838902D01*
X157869216Y-85439254D01*
X157862545Y-85037421D01*
X181412661Y-43165636D02*
X181756383Y-43372346D01*
X182091598Y-43589458D01*
X182418148Y-43816699D01*
X182735876Y-44053795D01*
X183044623Y-44300471D01*
X183344232Y-44556453D01*
X183634546Y-44821469D01*
X183915406Y-45095244D01*
X184186654Y-45377504D01*
X184448134Y-45667975D01*
X184699688Y-45966384D01*
X184941157Y-46272457D01*
X185172385Y-46585919D01*
X185393213Y-46906497D01*
X185603484Y-47233917D01*
X185803039Y-47567906D01*
X185991723Y-47908188D01*
X186169375Y-48254491D01*
X186335840Y-48606541D01*
X186490960Y-48964063D01*
X186634575Y-49326784D01*
X186766530Y-49694431D01*
X186886666Y-50066728D01*
X186994826Y-50443403D01*
X187090852Y-50824181D01*
X187174585Y-51208788D01*
X187245870Y-51596951D01*
X187304547Y-51988396D01*
X187350459Y-52382849D01*
X187383449Y-52780036D01*
X187403358Y-53179684D01*
X187410030Y-53581518D01*
X163859914Y-74621539D02*
X164210308Y-74426415D01*
X164565432Y-74243880D01*
X164924972Y-74073934D01*
X165288612Y-73916576D01*
X165656036Y-73771807D01*
X166026929Y-73639627D01*
X166400977Y-73520035D01*
X166777862Y-73413031D01*
X167157271Y-73318617D01*
X167538887Y-73236791D01*
X167922395Y-73167553D01*
X168307480Y-73110905D01*
X168693827Y-73066845D01*
X169081120Y-73035373D01*
X169469044Y-73016490D01*
X169857283Y-73010196D01*
X170245521Y-73016490D01*
X170633445Y-73035373D01*
X171020738Y-73066845D01*
X171407085Y-73110905D01*
X171792170Y-73167553D01*
X172175678Y-73236791D01*
X172557294Y-73318617D01*
X172936703Y-73413031D01*
X173313588Y-73520035D01*
X173687636Y-73639627D01*
X174058529Y-73771807D01*
X174425953Y-73916576D01*
X174789593Y-74073934D01*
X175149133Y-74243880D01*
X175504257Y-74426415D01*
X175854652Y-74621539D01*
X239357729Y-43283884D02*
X239701451Y-43490594D01*
X240036666Y-43707706D01*
X240363216Y-43934947D01*
X240680944Y-44172043D01*
X240989691Y-44418719D01*
X241289300Y-44674701D01*
X241579614Y-44939717D01*
X241860474Y-45213492D01*
X242131722Y-45495752D01*
X242393202Y-45786223D01*
X242644756Y-46084632D01*
X242886225Y-46390705D01*
X243117453Y-46704167D01*
X243338281Y-47024745D01*
X243548552Y-47352165D01*
X243748107Y-47686154D01*
X243936791Y-48026436D01*
X244114443Y-48372739D01*
X244280908Y-48724789D01*
X244436028Y-49082311D01*
X244579643Y-49445032D01*
X244711598Y-49812679D01*
X244831734Y-50184976D01*
X244939894Y-50561651D01*
X245035920Y-50942429D01*
X245119653Y-51327036D01*
X245190938Y-51715199D01*
X245249615Y-52106644D01*
X245295527Y-52501097D01*
X245328517Y-52898284D01*
X245348426Y-53297932D01*
X245355098Y-53699766D01*
X70219015Y-65052280D02*
X70212343Y-65454113D01*
X70192434Y-65853761D01*
X70159444Y-66250948D01*
X70113532Y-66645401D01*
X70054855Y-67036846D01*
X69983570Y-67425009D01*
X69899837Y-67809616D01*
X69803811Y-68190394D01*
X69695651Y-68567069D01*
X69575515Y-68939366D01*
X69443560Y-69307013D01*
X69299945Y-69669734D01*
X69144825Y-70027256D01*
X68978360Y-70379306D01*
X68800708Y-70725609D01*
X68612024Y-71065892D01*
X68412469Y-71399880D01*
X68202198Y-71727300D01*
X67981370Y-72047878D01*
X67750142Y-72361340D01*
X67508673Y-72667413D01*
X67257119Y-72965822D01*
X66995639Y-73256293D01*
X66724391Y-73538553D01*
X66443531Y-73812328D01*
X66153217Y-74077344D01*
X65853608Y-74333326D01*
X65544861Y-74580002D01*
X65227133Y-74817098D01*
X64900583Y-75044339D01*
X64565368Y-75261451D01*
X64221646Y-75468162D01*
X163420555Y-53581518D02*
X163427226Y-53179684D01*
X163447135Y-52780036D01*
X163480125Y-52382849D01*
X163526037Y-51988396D01*
X163584714Y-51596951D01*
X163655999Y-51208788D01*
X163739732Y-50824181D01*
X163835758Y-50443403D01*
X163943918Y-50066728D01*
X164064054Y-49694431D01*
X164196009Y-49326784D01*
X164339624Y-48964063D01*
X164494744Y-48606541D01*
X164661208Y-48254491D01*
X164838861Y-47908188D01*
X165027545Y-47567906D01*
X165227100Y-47233917D01*
X165437371Y-46906497D01*
X165658199Y-46585919D01*
X165889426Y-46272457D01*
X166130896Y-45966384D01*
X166382449Y-45667975D01*
X166643929Y-45377504D01*
X166915178Y-45095244D01*
X167196038Y-44821469D01*
X167486351Y-44556453D01*
X167785960Y-44300471D01*
X168094707Y-44053795D01*
X168412435Y-43816699D01*
X168738985Y-43589458D01*
X169074200Y-43372346D01*
X169417923Y-43165636D01*
X70219015Y-65052280D02*
X70219015Y-65052280D01*
X107925166Y-66107160D02*
X108275560Y-65912036D01*
X108630684Y-65729501D01*
X108990224Y-65559555D01*
X109353864Y-65402197D01*
X109721288Y-65257428D01*
X110092181Y-65125248D01*
X110466229Y-65005656D01*
X110843114Y-64898652D01*
X111222523Y-64804238D01*
X111604139Y-64722412D01*
X111987647Y-64653174D01*
X112372732Y-64596526D01*
X112759079Y-64552466D01*
X113146372Y-64520994D01*
X113534296Y-64502111D01*
X113922535Y-64495817D01*
X114310773Y-64502111D01*
X114698697Y-64520994D01*
X115085990Y-64552466D01*
X115472337Y-64596526D01*
X115857422Y-64653174D01*
X116240930Y-64722412D01*
X116622546Y-64804238D01*
X117001955Y-64898652D01*
X117378840Y-65005656D01*
X117752888Y-65125248D01*
X118123781Y-65257428D01*
X118491205Y-65402197D01*
X118854845Y-65559555D01*
X119214385Y-65729501D01*
X119569509Y-65912036D01*
X119919904Y-66107160D01*
X146420969Y-129619665D02*
X146412623Y-130122338D01*
X146387717Y-130622277D01*
X146346449Y-131119139D01*
X146289015Y-131612580D01*
X146215613Y-132102258D01*
X146126440Y-132587831D01*
X146021693Y-133068955D01*
X145901570Y-133545290D01*
X145766267Y-134016491D01*
X145615983Y-134482216D01*
X145450914Y-134942123D01*
X145271258Y-135395869D01*
X145077212Y-135843112D01*
X144868972Y-136283508D01*
X144646737Y-136716716D01*
X144410704Y-137142393D01*
X144161070Y-137560195D01*
X143898032Y-137969781D01*
X143621787Y-138370808D01*
X143332533Y-138762934D01*
X143030467Y-139145815D01*
X142715786Y-139519110D01*
X142388688Y-139882475D01*
X142049369Y-140235568D01*
X141698027Y-140578047D01*
X141334860Y-140909568D01*
X140960064Y-141229790D01*
X140573837Y-141538369D01*
X140176375Y-141834964D01*
X139767877Y-142119230D01*
X139348540Y-142390827D01*
X138918561Y-142649412D01*
X157862545Y-85037421D02*
X157869216Y-84635587D01*
X157889125Y-84235939D01*
X157922115Y-83838752D01*
X157968027Y-83444299D01*
X158026704Y-83052854D01*
X158097989Y-82664691D01*
X158181722Y-82280083D01*
X158277748Y-81899305D01*
X158385908Y-81522630D01*
X158506044Y-81150333D01*
X158637999Y-80782687D01*
X158781614Y-80419966D01*
X158936734Y-80062443D01*
X159103199Y-79710394D01*
X159280851Y-79364091D01*
X159469535Y-79023808D01*
X159669090Y-78689820D01*
X159879361Y-78362400D01*
X160100189Y-78041822D01*
X160331417Y-77728359D01*
X160572886Y-77422287D01*
X160824440Y-77123878D01*
X161085920Y-76833407D01*
X161357168Y-76551147D01*
X161638028Y-76277372D01*
X161928342Y-76012356D01*
X162227951Y-75756373D01*
X162536698Y-75509697D01*
X162854426Y-75272602D01*
X163180976Y-75045361D01*
X163516191Y-74828249D01*
X163859914Y-74621539D01*
X119919904Y-66107160D02*
X120263626Y-66313870D01*
X120598841Y-66530982D01*
X120925391Y-66758223D01*
X121243119Y-66995318D01*
X121551866Y-67241994D01*
X121851475Y-67497977D01*
X122141789Y-67762993D01*
X122422649Y-68036768D01*
X122693897Y-68319028D01*
X122955377Y-68609499D01*
X123206931Y-68907908D01*
X123448400Y-69213980D01*
X123679628Y-69527443D01*
X123900456Y-69848021D01*
X124110727Y-70175441D01*
X124310282Y-70509429D01*
X124498966Y-70849712D01*
X124676618Y-71196015D01*
X124843083Y-71548064D01*
X124998203Y-71905587D01*
X125141818Y-72268308D01*
X125273773Y-72635954D01*
X125393909Y-73008251D01*
X125502069Y-73384926D01*
X125598095Y-73765704D01*
X125681828Y-74150312D01*
X125753113Y-74538475D01*
X125811790Y-74929920D01*
X125857702Y-75324373D01*
X125890692Y-75721560D01*
X125910601Y-76121208D01*
X125917273Y-76523042D01*
X123913745Y-116589918D02*
X124352070Y-116345828D01*
X124796313Y-116117486D01*
X125246079Y-115904891D01*
X125700974Y-115708045D01*
X126160604Y-115526946D01*
X126624573Y-115361595D01*
X127092487Y-115211991D01*
X127563952Y-115078136D01*
X128038573Y-114960028D01*
X128515955Y-114857668D01*
X128995705Y-114771055D01*
X129477428Y-114700190D01*
X129960728Y-114645073D01*
X130445212Y-114605704D01*
X130930485Y-114582082D01*
X131416153Y-114574209D01*
X131901820Y-114582082D01*
X132387093Y-114605704D01*
X132871577Y-114645073D01*
X133354877Y-114700190D01*
X133836600Y-114771055D01*
X134316350Y-114857668D01*
X134793732Y-114960028D01*
X135268353Y-115078136D01*
X135739818Y-115211991D01*
X136207732Y-115361595D01*
X136671701Y-115526946D01*
X137131331Y-115708045D01*
X137586226Y-115904891D01*
X138035992Y-116117486D01*
X138480235Y-116345828D01*
X138918561Y-116589918D01*
X107925166Y-86938924D02*
X107581443Y-86732213D01*
X107246228Y-86515101D01*
X106919678Y-86287860D01*
X106601950Y-86050764D01*
X106293203Y-85804088D01*
X105993594Y-85548106D01*
X105703281Y-85283090D01*
X105422421Y-85009315D01*
X105151172Y-84727055D01*
X104889692Y-84436584D01*
X104638139Y-84138175D01*
X104396669Y-83832102D01*
X104165442Y-83518640D01*
X103944614Y-83198062D01*
X103734343Y-82870642D01*
X103534788Y-82536654D01*
X103346104Y-82196371D01*
X103168451Y-81850068D01*
X103001987Y-81498018D01*
X102846867Y-81140496D01*
X102703252Y-80777775D01*
X102571297Y-80410128D01*
X102451161Y-80037831D01*
X102343001Y-79661156D01*
X102246975Y-79280378D01*
X102163242Y-78895771D01*
X102091957Y-78507608D01*
X102033280Y-78116163D01*
X101987368Y-77721710D01*
X101954378Y-77324523D01*
X101934469Y-76924875D01*
X101927798Y-76523042D01*
X210385198Y-63879139D02*
X210034803Y-64074262D01*
X209679679Y-64256797D01*
X209320139Y-64426743D01*
X208956499Y-64584101D01*
X208589075Y-64728870D01*
X208218182Y-64861050D01*
X207844134Y-64980642D01*
X207467249Y-65087646D01*
X207087840Y-65182060D01*
X206706224Y-65263886D01*
X206322716Y-65333124D01*
X205937631Y-65389772D01*
X205551284Y-65433832D01*
X205163991Y-65465304D01*
X204776067Y-65484187D01*
X204387829Y-65490481D01*
X203999590Y-65484187D01*
X203611666Y-65465304D01*
X203224373Y-65433832D01*
X202838026Y-65389772D01*
X202452941Y-65333124D01*
X202069433Y-65263886D01*
X201687817Y-65182060D01*
X201308408Y-65087646D01*
X200931523Y-64980642D01*
X200557475Y-64861050D01*
X200186582Y-64728870D01*
X199819158Y-64584101D01*
X199455518Y-64426743D01*
X199095978Y-64256797D01*
X198740854Y-64074262D01*
X198390460Y-63879139D01*
X221365622Y-53699766D02*
X221372293Y-53297932D01*
X221392202Y-52898284D01*
X221425192Y-52501097D01*
X221471104Y-52106644D01*
X221529781Y-51715199D01*
X221601066Y-51327036D01*
X221684799Y-50942429D01*
X221780825Y-50561651D01*
X221888985Y-50184976D01*
X222009121Y-49812679D01*
X222141076Y-49445032D01*
X222284691Y-49082311D01*
X222439811Y-48724789D01*
X222606276Y-48372739D01*
X222783928Y-48026436D01*
X222972612Y-47686154D01*
X223172167Y-47352165D01*
X223382438Y-47024745D01*
X223603266Y-46704167D01*
X223834494Y-46390705D01*
X224075963Y-46084632D01*
X224327517Y-45786223D01*
X224588997Y-45495752D01*
X224860245Y-45213492D01*
X225141105Y-44939717D01*
X225431419Y-44674701D01*
X225731028Y-44418719D01*
X226039775Y-44172043D01*
X226357503Y-43934947D01*
X226684053Y-43707706D01*
X227019268Y-43490594D01*
X227362991Y-43283884D01*
X81317714Y-75586412D02*
X80973991Y-75379701D01*
X80638776Y-75162589D01*
X80312226Y-74935348D01*
X79994498Y-74698253D01*
X79685751Y-74451577D01*
X79386142Y-74195594D01*
X79095828Y-73930578D01*
X78814968Y-73656803D01*
X78543720Y-73374543D01*
X78282240Y-73084072D01*
X78030686Y-72785663D01*
X77789217Y-72479591D01*
X77557989Y-72166128D01*
X77337161Y-71845550D01*
X77126890Y-71518130D01*
X76927335Y-71184142D01*
X76738651Y-70843859D01*
X76560999Y-70497556D01*
X76394534Y-70145507D01*
X76239414Y-69787984D01*
X76095799Y-69425263D01*
X75963844Y-69057617D01*
X75843708Y-68685320D01*
X75735548Y-68308645D01*
X75639522Y-67927867D01*
X75555789Y-67543259D01*
X75484504Y-67155096D01*
X75425827Y-66763651D01*
X75379915Y-66369198D01*
X75346925Y-65972011D01*
X75327016Y-65572363D01*
X75320345Y-65170530D01*
X187410030Y-53581518D02*
X187403358Y-53983351D01*
X187383449Y-54382999D01*
X187350459Y-54780186D01*
X187304547Y-55174639D01*
X187245870Y-55566084D01*
X187174585Y-55954247D01*
X187090852Y-56338855D01*
X186994826Y-56719633D01*
X186886666Y-57096308D01*
X186766530Y-57468605D01*
X186634575Y-57836251D01*
X186490960Y-58198972D01*
X186335840Y-58556495D01*
X186169375Y-58908544D01*
X185991723Y-59254847D01*
X185803039Y-59595130D01*
X185603484Y-59929118D01*
X185393213Y-60256538D01*
X185172385Y-60577116D01*
X184941157Y-60890579D01*
X184699688Y-61196651D01*
X184448134Y-61495060D01*
X184186654Y-61785531D01*
X183915406Y-62067791D01*
X183634546Y-62341566D01*
X183344232Y-62606582D01*
X183044623Y-62862565D01*
X182735876Y-63109241D01*
X182418148Y-63346336D01*
X182091598Y-63573577D01*
X181756383Y-63790689D01*
X181412661Y-63997400D01*
X198390460Y-63879139D02*
X198046737Y-63672428D01*
X197711522Y-63455316D01*
X197384972Y-63228075D01*
X197067244Y-62990980D01*
X196758497Y-62744304D01*
X196458888Y-62488321D01*
X196168574Y-62223305D01*
X195887714Y-61949531D01*
X195616466Y-61667271D01*
X195354986Y-61376799D01*
X195103432Y-61078390D01*
X194861963Y-60772318D01*
X194630735Y-60458856D01*
X194409907Y-60138278D01*
X194199636Y-59810858D01*
X194000081Y-59476869D01*
X193811397Y-59136587D01*
X193633745Y-58790284D01*
X193467280Y-58438234D01*
X193312160Y-58080712D01*
X193168545Y-57717991D01*
X193036590Y-57350344D01*
X192916454Y-56978047D01*
X192808294Y-56601372D01*
X192712268Y-56220594D01*
X192628535Y-55835987D01*
X192557250Y-55447824D01*
X192498573Y-55056379D01*
X192452661Y-54661926D01*
X192419671Y-54264739D01*
X192399762Y-53865091D01*
X192393091Y-53463258D01*
X137252477Y-106569308D02*
X136908754Y-106362597D01*
X136573539Y-106145485D01*
X136246989Y-105918244D01*
X135929261Y-105681149D01*
X135620514Y-105434473D01*
X135320905Y-105178490D01*
X135030592Y-104913474D01*
X134749732Y-104639700D01*
X134478483Y-104357440D01*
X134217003Y-104066968D01*
X133965449Y-103768559D01*
X133723980Y-103462487D01*
X133492753Y-103149025D01*
X133271925Y-102828447D01*
X133061654Y-102501027D01*
X132862098Y-102167038D01*
X132673415Y-101826756D01*
X132495762Y-101480453D01*
X132329297Y-101128403D01*
X132174178Y-100770881D01*
X132030562Y-100408159D01*
X131898607Y-100040513D01*
X131778471Y-99668216D01*
X131670311Y-99291541D01*
X131574286Y-98910763D01*
X131490552Y-98526155D01*
X131419268Y-98137992D01*
X131360590Y-97746547D01*
X131314678Y-97352094D01*
X131281688Y-96954907D01*
X131261779Y-96555259D01*
X131255108Y-96153426D01*
X81317714Y-54754648D02*
X81668108Y-54559524D01*
X82023232Y-54376989D01*
X82382772Y-54207043D01*
X82746412Y-54049685D01*
X83113836Y-53904916D01*
X83484729Y-53772736D01*
X83858777Y-53653144D01*
X84235662Y-53546141D01*
X84615071Y-53451726D01*
X84996687Y-53369900D01*
X85380195Y-53300663D01*
X85765280Y-53244014D01*
X86151627Y-53199954D01*
X86538920Y-53168483D01*
X86926844Y-53149600D01*
X87315083Y-53143306D01*
X87703321Y-53149600D01*
X88091245Y-53168483D01*
X88478538Y-53199954D01*
X88864885Y-53244014D01*
X89249970Y-53300663D01*
X89633478Y-53369900D01*
X90015094Y-53451726D01*
X90394503Y-53546141D01*
X90771388Y-53653144D01*
X91145436Y-53772736D01*
X91516329Y-53904916D01*
X91883753Y-54049685D01*
X92247393Y-54207043D01*
X92606933Y-54376989D01*
X92962057Y-54559524D01*
X93312452Y-54754648D01*
X136868315Y-65114986D02*
X136874986Y-64713152D01*
X136894895Y-64313504D01*
X136927885Y-63916317D01*
X136973797Y-63521864D01*
X137032474Y-63130419D01*
X137103759Y-62742256D01*
X137187492Y-62357649D01*
X137283518Y-61976871D01*
X137391678Y-61600196D01*
X137511814Y-61227899D01*
X137643769Y-60860252D01*
X137787384Y-60497531D01*
X137942504Y-60140009D01*
X138108969Y-59787959D01*
X138286621Y-59441656D01*
X138475305Y-59101374D01*
X138674860Y-58767385D01*
X138885131Y-58439965D01*
X139105959Y-58119387D01*
X139337187Y-57805925D01*
X139578656Y-57499852D01*
X139830210Y-57201443D01*
X140091690Y-56910972D01*
X140362938Y-56628712D01*
X140643798Y-56354937D01*
X140934112Y-56089921D01*
X141233721Y-55833939D01*
X141542468Y-55587263D01*
X141860196Y-55350167D01*
X142186746Y-55122926D01*
X142521961Y-54905814D01*
X142865684Y-54699104D01*
X125917273Y-76523042D02*
X125917273Y-76523042D01*
X99309821Y-65170530D02*
X99309821Y-65170530D01*
X149247215Y-106569308D02*
X148896820Y-106764431D01*
X148541696Y-106946966D01*
X148182156Y-107116912D01*
X147818516Y-107274270D01*
X147451092Y-107419039D01*
X147080199Y-107551219D01*
X146706151Y-107670811D01*
X146329266Y-107777815D01*
X145949857Y-107872229D01*
X145568241Y-107954055D01*
X145184733Y-108023293D01*
X144799648Y-108079941D01*
X144413301Y-108124001D01*
X144026008Y-108155473D01*
X143638084Y-108174356D01*
X143249846Y-108180650D01*
X142861607Y-108174356D01*
X142473683Y-108155473D01*
X142086390Y-108124001D01*
X141700043Y-108079941D01*
X141314958Y-108023293D01*
X140931450Y-107954055D01*
X140549834Y-107872229D01*
X140170425Y-107777815D01*
X139793540Y-107670811D01*
X139419492Y-107551219D01*
X139048599Y-107419039D01*
X138681175Y-107274270D01*
X138317535Y-107116912D01*
X137957995Y-106946966D01*
X137602871Y-106764431D01*
X137252477Y-106569308D01*
X155244584Y-96153426D02*
X155237912Y-96555259D01*
X155218003Y-96954907D01*
X155185013Y-97352094D01*
X155139101Y-97746547D01*
X155080424Y-98137992D01*
X155009139Y-98526155D01*
X154925406Y-98910763D01*
X154829380Y-99291541D01*
X154721220Y-99668216D01*
X154601084Y-100040513D01*
X154469129Y-100408159D01*
X154325514Y-100770881D01*
X154170394Y-101128403D01*
X154003929Y-101480453D01*
X153826277Y-101826756D01*
X153637593Y-102167038D01*
X153438038Y-102501027D01*
X153227767Y-102828447D01*
X153006939Y-103149025D01*
X152775711Y-103462487D01*
X152534242Y-103768559D01*
X152282688Y-104066968D01*
X152021208Y-104357440D01*
X151749960Y-104639700D01*
X151469100Y-104913474D01*
X151178786Y-105178490D01*
X150879177Y-105434473D01*
X150570430Y-105681149D01*
X150252702Y-105918244D01*
X149926152Y-106145485D01*
X149590937Y-106362597D01*
X149247215Y-106569308D01*
X99309821Y-65170530D02*
X99303149Y-65572363D01*
X99283240Y-65972011D01*
X99250250Y-66369198D01*
X99204338Y-66763651D01*
X99145660Y-67155096D01*
X99074376Y-67543259D01*
X98990642Y-67927867D01*
X98894617Y-68308645D01*
X98786457Y-68685320D01*
X98666321Y-69057617D01*
X98534366Y-69425263D01*
X98390750Y-69787984D01*
X98235631Y-70145507D01*
X98069166Y-70497556D01*
X97891513Y-70843859D01*
X97702830Y-71184142D01*
X97503274Y-71518130D01*
X97293003Y-71845550D01*
X97072175Y-72166128D01*
X96840948Y-72479591D01*
X96599479Y-72785663D01*
X96347925Y-73084072D01*
X96086445Y-73374543D01*
X95815196Y-73656803D01*
X95534336Y-73930578D01*
X95244023Y-74195594D01*
X94944414Y-74451577D01*
X94635667Y-74698253D01*
X94317939Y-74935348D01*
X93991389Y-75162589D01*
X93656174Y-75379701D01*
X93312452Y-75586412D01*
X192714192Y-95453303D02*
X192370469Y-95246592D01*
X192035254Y-95029480D01*
X191708704Y-94802239D01*
X191390976Y-94565143D01*
X191082229Y-94318467D01*
X190782620Y-94062485D01*
X190492307Y-93797469D01*
X190211447Y-93523694D01*
X189940198Y-93241434D01*
X189678718Y-92950963D01*
X189427164Y-92652554D01*
X189185695Y-92346481D01*
X188954468Y-92033019D01*
X188733640Y-91712441D01*
X188523369Y-91385021D01*
X188323813Y-91051033D01*
X188135130Y-90710750D01*
X187957477Y-90364447D01*
X187791012Y-90012397D01*
X187635893Y-89654875D01*
X187492277Y-89292154D01*
X187360322Y-88924507D01*
X187240186Y-88552210D01*
X187132026Y-88175535D01*
X187036001Y-87794757D01*
X186952267Y-87410150D01*
X186880983Y-87021987D01*
X186822305Y-86630542D01*
X186776393Y-86236089D01*
X186743403Y-85838902D01*
X186723494Y-85439254D01*
X186716823Y-85037421D01*
X175854652Y-74621539D02*
X176198374Y-74828249D01*
X176533589Y-75045361D01*
X176860139Y-75272602D01*
X177177867Y-75509697D01*
X177486614Y-75756373D01*
X177786223Y-76012356D01*
X178076537Y-76277372D01*
X178357397Y-76551147D01*
X178628645Y-76833407D01*
X178890125Y-77123878D01*
X179141679Y-77422287D01*
X179383148Y-77728359D01*
X179614376Y-78041822D01*
X179835204Y-78362400D01*
X180045475Y-78689820D01*
X180245030Y-79023808D01*
X180433714Y-79364091D01*
X180611366Y-79710394D01*
X180777831Y-80062443D01*
X180932951Y-80419966D01*
X181076566Y-80782687D01*
X181208521Y-81150333D01*
X181328657Y-81522630D01*
X181436817Y-81899305D01*
X181532843Y-82280083D01*
X181616576Y-82664691D01*
X181687861Y-83052854D01*
X181746538Y-83444299D01*
X181792450Y-83838752D01*
X181825440Y-84235939D01*
X181845349Y-84635587D01*
X181852021Y-85037421D01*
X52226909Y-75468162D02*
X51883186Y-75261451D01*
X51547971Y-75044339D01*
X51221421Y-74817098D01*
X50903693Y-74580002D01*
X50594946Y-74333326D01*
X50295337Y-74077344D01*
X50005023Y-73812328D01*
X49724163Y-73538553D01*
X49452915Y-73256293D01*
X49191435Y-72965822D01*
X48939881Y-72667413D01*
X48698412Y-72361340D01*
X48467184Y-72047878D01*
X48246356Y-71727300D01*
X48036085Y-71399880D01*
X47836530Y-71065892D01*
X47647846Y-70725609D01*
X47470194Y-70379306D01*
X47303729Y-70027256D01*
X47148609Y-69669734D01*
X47004994Y-69307013D01*
X46873039Y-68939366D01*
X46752903Y-68567069D01*
X46644743Y-68190394D01*
X46548717Y-67809616D01*
X46464984Y-67425009D01*
X46393699Y-67036846D01*
X46335022Y-66645401D01*
X46289110Y-66250948D01*
X46256120Y-65853761D01*
X46236211Y-65454113D01*
X46229540Y-65052280D01*
X46229540Y-65052280D02*
X46236211Y-64650446D01*
X46256120Y-64250798D01*
X46289110Y-63853611D01*
X46335022Y-63459158D01*
X46393699Y-63067713D01*
X46464984Y-62679550D01*
X46548717Y-62294943D01*
X46644743Y-61914165D01*
X46752903Y-61537490D01*
X46873039Y-61165193D01*
X47004994Y-60797546D01*
X47148609Y-60434825D01*
X47303729Y-60077303D01*
X47470194Y-59725253D01*
X47647846Y-59378950D01*
X47836530Y-59038668D01*
X48036085Y-58704679D01*
X48246356Y-58377259D01*
X48467184Y-58056681D01*
X48698412Y-57743219D01*
X48939881Y-57437146D01*
X49191435Y-57138737D01*
X49452915Y-56848266D01*
X49724163Y-56566006D01*
X50005023Y-56292231D01*
X50295337Y-56027215D01*
X50594946Y-55771233D01*
X50903693Y-55524557D01*
X51221421Y-55287461D01*
X51547971Y-55060220D01*
X51883186Y-54843108D01*
X52226909Y-54636398D01*
X146420969Y-129619665D02*
X146420969Y-129619665D01*
X125917273Y-76523042D02*
X125910601Y-76924875D01*
X125890692Y-77324523D01*
X125857702Y-77721710D01*
X125811790Y-78116163D01*
X125753113Y-78507608D01*
X125681828Y-78895771D01*
X125598095Y-79280378D01*
X125502069Y-79661156D01*
X125393909Y-80037831D01*
X125273773Y-80410128D01*
X125141818Y-80777775D01*
X124998203Y-81140496D01*
X124843083Y-81498018D01*
X124676618Y-81850068D01*
X124498966Y-82196371D01*
X124310282Y-82536654D01*
X124110727Y-82870642D01*
X123900456Y-83198062D01*
X123679628Y-83518640D01*
X123448400Y-83832102D01*
X123206931Y-84138175D01*
X122955377Y-84436584D01*
X122693897Y-84727055D01*
X122422649Y-85009315D01*
X122141789Y-85283090D01*
X121851475Y-85548106D01*
X121551866Y-85804088D01*
X121243119Y-86050764D01*
X120925391Y-86287860D01*
X120598841Y-86515101D01*
X120263626Y-86732213D01*
X119919904Y-86938924D01*
X233360360Y-65726990D02*
X232743112Y-65711340D01*
X232133967Y-65664894D01*
X231533679Y-65588409D01*
X230943002Y-65482639D01*
X230362688Y-65348341D01*
X229793492Y-65186269D01*
X229236167Y-64997181D01*
X228691467Y-64781831D01*
X228160145Y-64540975D01*
X227642956Y-64275368D01*
X227140652Y-63985768D01*
X226653988Y-63672928D01*
X226183717Y-63337606D01*
X225730593Y-62980556D01*
X225295369Y-62602535D01*
X224878800Y-62204297D01*
X224481638Y-61786599D01*
X224104637Y-61350197D01*
X223748552Y-60895845D01*
X223414135Y-60424301D01*
X223102141Y-59936318D01*
X222813322Y-59432654D01*
X222548433Y-58914064D01*
X222308228Y-58381304D01*
X222093460Y-57835128D01*
X221904882Y-57276294D01*
X221743248Y-56705556D01*
X221609312Y-56123671D01*
X221503828Y-55531393D01*
X221427549Y-54929479D01*
X221381229Y-54318685D01*
X221365622Y-53699766D01*
X154860422Y-75530868D02*
X154510027Y-75725991D01*
X154154903Y-75908526D01*
X153795363Y-76078472D01*
X153431723Y-76235830D01*
X153064299Y-76380599D01*
X152693406Y-76512779D01*
X152319358Y-76632371D01*
X151942473Y-76739375D01*
X151563064Y-76833789D01*
X151181448Y-76915615D01*
X150797940Y-76984853D01*
X150412855Y-77041501D01*
X150026508Y-77085561D01*
X149639215Y-77117033D01*
X149251291Y-77135916D01*
X148863053Y-77142210D01*
X148474814Y-77135916D01*
X148086890Y-77117033D01*
X147699597Y-77085561D01*
X147313250Y-77041501D01*
X146928165Y-76984853D01*
X146544657Y-76915615D01*
X146163041Y-76833789D01*
X145783632Y-76739375D01*
X145406747Y-76632371D01*
X145032699Y-76512779D01*
X144661806Y-76380599D01*
X144294382Y-76235830D01*
X143930742Y-76078472D01*
X143571202Y-75908526D01*
X143216078Y-75725991D01*
X142865684Y-75530868D01*
X204708930Y-74621539D02*
X205052652Y-74828249D01*
X205387867Y-75045361D01*
X205714417Y-75272602D01*
X206032145Y-75509697D01*
X206340892Y-75756373D01*
X206640501Y-76012356D01*
X206930815Y-76277372D01*
X207211675Y-76551147D01*
X207482923Y-76833407D01*
X207744403Y-77123878D01*
X207995957Y-77422287D01*
X208237426Y-77728359D01*
X208468654Y-78041822D01*
X208689482Y-78362400D01*
X208899753Y-78689820D01*
X209099308Y-79023808D01*
X209287992Y-79364091D01*
X209465644Y-79710394D01*
X209632109Y-80062443D01*
X209787229Y-80419966D01*
X209930844Y-80782687D01*
X210062799Y-81150333D01*
X210182935Y-81522630D01*
X210291095Y-81899305D01*
X210387121Y-82280083D01*
X210470854Y-82664691D01*
X210542139Y-83052854D01*
X210600816Y-83444299D01*
X210646728Y-83838752D01*
X210679718Y-84235939D01*
X210699627Y-84635587D01*
X210706299Y-85037421D01*
X198390460Y-43047376D02*
X198740854Y-42852252D01*
X199095978Y-42669717D01*
X199455518Y-42499771D01*
X199819158Y-42342413D01*
X200186582Y-42197644D01*
X200557475Y-42065464D01*
X200931523Y-41945872D01*
X201308408Y-41838868D01*
X201687817Y-41744454D01*
X202069433Y-41662628D01*
X202452941Y-41593390D01*
X202838026Y-41536742D01*
X203224373Y-41492682D01*
X203611666Y-41461210D01*
X203999590Y-41442327D01*
X204387829Y-41436033D01*
X204776067Y-41442327D01*
X205163991Y-41461210D01*
X205551284Y-41492682D01*
X205937631Y-41536742D01*
X206322716Y-41593390D01*
X206706224Y-41662628D01*
X207087840Y-41744454D01*
X207467249Y-41838868D01*
X207844134Y-41945872D01*
X208218182Y-42065464D01*
X208589075Y-42197644D01*
X208956499Y-42342413D01*
X209320139Y-42499771D01*
X209679679Y-42669717D01*
X210034803Y-42852252D01*
X210385198Y-43047376D01*
X216382567Y-53463258D02*
X216375895Y-53865091D01*
X216355986Y-54264739D01*
X216322996Y-54661926D01*
X216277084Y-55056379D01*
X216218407Y-55447824D01*
X216147122Y-55835987D01*
X216063389Y-56220594D01*
X215967363Y-56601372D01*
X215859203Y-56978047D01*
X215739067Y-57350344D01*
X215607112Y-57717991D01*
X215463497Y-58080712D01*
X215308377Y-58438234D01*
X215141912Y-58790284D01*
X214964260Y-59136587D01*
X214775576Y-59476869D01*
X214576021Y-59810858D01*
X214365750Y-60138278D01*
X214144922Y-60458856D01*
X213913694Y-60772318D01*
X213672225Y-61078390D01*
X213420671Y-61376799D01*
X213159191Y-61667271D01*
X212887943Y-61949531D01*
X212607083Y-62223305D01*
X212316769Y-62488321D01*
X212017160Y-62744304D01*
X211708413Y-62990980D01*
X211390685Y-63228075D01*
X211064135Y-63455316D01*
X210728920Y-63672428D01*
X210385198Y-63879139D01*
X142865684Y-54699104D02*
X143216078Y-54503980D01*
X143571202Y-54321445D01*
X143930742Y-54151499D01*
X144294382Y-53994141D01*
X144661806Y-53849372D01*
X145032699Y-53717192D01*
X145406747Y-53597600D01*
X145783632Y-53490597D01*
X146163041Y-53396182D01*
X146544657Y-53314356D01*
X146928165Y-53245119D01*
X147313250Y-53188470D01*
X147699597Y-53144410D01*
X148086890Y-53112939D01*
X148474814Y-53094056D01*
X148863053Y-53087762D01*
X149251291Y-53094056D01*
X149639215Y-53112939D01*
X150026508Y-53144410D01*
X150412855Y-53188470D01*
X150797940Y-53245119D01*
X151181448Y-53314356D01*
X151563064Y-53396182D01*
X151942473Y-53490597D01*
X152319358Y-53597600D01*
X152693406Y-53717192D01*
X153064299Y-53849372D01*
X153431723Y-53994141D01*
X153795363Y-54151499D01*
X154154903Y-54321445D01*
X154510027Y-54503980D01*
X154860422Y-54699104D01*
X210706299Y-85037421D02*
X210706299Y-85037421D01*
D11*
X141554819Y-46380952D02*
X141078628Y-46714285D01*
X141554819Y-46952380D02*
X140554819Y-46952380D01*
X140554819Y-46952380D02*
X140554819Y-46571428D01*
X140554819Y-46571428D02*
X140602438Y-46476190D01*
X140602438Y-46476190D02*
X140650057Y-46428571D01*
X140650057Y-46428571D02*
X140745295Y-46380952D01*
X140745295Y-46380952D02*
X140888152Y-46380952D01*
X140888152Y-46380952D02*
X140983390Y-46428571D01*
X140983390Y-46428571D02*
X141031009Y-46476190D01*
X141031009Y-46476190D02*
X141078628Y-46571428D01*
X141078628Y-46571428D02*
X141078628Y-46952380D01*
X141554819Y-45952380D02*
X140554819Y-45952380D01*
X140554819Y-45952380D02*
X140554819Y-45571428D01*
X140554819Y-45571428D02*
X140602438Y-45476190D01*
X140602438Y-45476190D02*
X140650057Y-45428571D01*
X140650057Y-45428571D02*
X140745295Y-45380952D01*
X140745295Y-45380952D02*
X140888152Y-45380952D01*
X140888152Y-45380952D02*
X140983390Y-45428571D01*
X140983390Y-45428571D02*
X141031009Y-45476190D01*
X141031009Y-45476190D02*
X141078628Y-45571428D01*
X141078628Y-45571428D02*
X141078628Y-45952380D01*
X140650057Y-44999999D02*
X140602438Y-44952380D01*
X140602438Y-44952380D02*
X140554819Y-44857142D01*
X140554819Y-44857142D02*
X140554819Y-44619047D01*
X140554819Y-44619047D02*
X140602438Y-44523809D01*
X140602438Y-44523809D02*
X140650057Y-44476190D01*
X140650057Y-44476190D02*
X140745295Y-44428571D01*
X140745295Y-44428571D02*
X140840533Y-44428571D01*
X140840533Y-44428571D02*
X140983390Y-44476190D01*
X140983390Y-44476190D02*
X141554819Y-45047618D01*
X141554819Y-45047618D02*
X141554819Y-44428571D01*
X140554819Y-43809523D02*
X140554819Y-43714285D01*
X140554819Y-43714285D02*
X140602438Y-43619047D01*
X140602438Y-43619047D02*
X140650057Y-43571428D01*
X140650057Y-43571428D02*
X140745295Y-43523809D01*
X140745295Y-43523809D02*
X140935771Y-43476190D01*
X140935771Y-43476190D02*
X141173866Y-43476190D01*
X141173866Y-43476190D02*
X141364342Y-43523809D01*
X141364342Y-43523809D02*
X141459580Y-43571428D01*
X141459580Y-43571428D02*
X141507200Y-43619047D01*
X141507200Y-43619047D02*
X141554819Y-43714285D01*
X141554819Y-43714285D02*
X141554819Y-43809523D01*
X141554819Y-43809523D02*
X141507200Y-43904761D01*
X141507200Y-43904761D02*
X141459580Y-43952380D01*
X141459580Y-43952380D02*
X141364342Y-43999999D01*
X141364342Y-43999999D02*
X141173866Y-44047618D01*
X141173866Y-44047618D02*
X140935771Y-44047618D01*
X140935771Y-44047618D02*
X140745295Y-43999999D01*
X140745295Y-43999999D02*
X140650057Y-43952380D01*
X140650057Y-43952380D02*
X140602438Y-43904761D01*
X140602438Y-43904761D02*
X140554819Y-43809523D01*
X140888152Y-42619047D02*
X141554819Y-42619047D01*
X140507200Y-42857142D02*
X141221485Y-43095237D01*
X141221485Y-43095237D02*
X141221485Y-42476190D01*
X140554819Y-41904761D02*
X140554819Y-41809523D01*
X140554819Y-41809523D02*
X140602438Y-41714285D01*
X140602438Y-41714285D02*
X140650057Y-41666666D01*
X140650057Y-41666666D02*
X140745295Y-41619047D01*
X140745295Y-41619047D02*
X140935771Y-41571428D01*
X140935771Y-41571428D02*
X141173866Y-41571428D01*
X141173866Y-41571428D02*
X141364342Y-41619047D01*
X141364342Y-41619047D02*
X141459580Y-41666666D01*
X141459580Y-41666666D02*
X141507200Y-41714285D01*
X141507200Y-41714285D02*
X141554819Y-41809523D01*
X141554819Y-41809523D02*
X141554819Y-41904761D01*
X141554819Y-41904761D02*
X141507200Y-41999999D01*
X141507200Y-41999999D02*
X141459580Y-42047618D01*
X141459580Y-42047618D02*
X141364342Y-42095237D01*
X141364342Y-42095237D02*
X141173866Y-42142856D01*
X141173866Y-42142856D02*
X140935771Y-42142856D01*
X140935771Y-42142856D02*
X140745295Y-42095237D01*
X140745295Y-42095237D02*
X140650057Y-42047618D01*
X140650057Y-42047618D02*
X140602438Y-41999999D01*
X140602438Y-41999999D02*
X140554819Y-41904761D01*
X141173866Y-41142856D02*
X141173866Y-40380952D01*
X140554819Y-39999999D02*
X140554819Y-39333333D01*
X140554819Y-39333333D02*
X141554819Y-39999999D01*
X141554819Y-39999999D02*
X141554819Y-39333333D01*
X141507200Y-38571428D02*
X141554819Y-38666666D01*
X141554819Y-38666666D02*
X141554819Y-38857142D01*
X141554819Y-38857142D02*
X141507200Y-38952380D01*
X141507200Y-38952380D02*
X141411961Y-38999999D01*
X141411961Y-38999999D02*
X141031009Y-38999999D01*
X141031009Y-38999999D02*
X140935771Y-38952380D01*
X140935771Y-38952380D02*
X140888152Y-38857142D01*
X140888152Y-38857142D02*
X140888152Y-38666666D01*
X140888152Y-38666666D02*
X140935771Y-38571428D01*
X140935771Y-38571428D02*
X141031009Y-38523809D01*
X141031009Y-38523809D02*
X141126247Y-38523809D01*
X141126247Y-38523809D02*
X141221485Y-38999999D01*
X141554819Y-38095237D02*
X140888152Y-38095237D01*
X141078628Y-38095237D02*
X140983390Y-38047618D01*
X140983390Y-38047618D02*
X140935771Y-37999999D01*
X140935771Y-37999999D02*
X140888152Y-37904761D01*
X140888152Y-37904761D02*
X140888152Y-37809523D01*
X141554819Y-37333332D02*
X141507200Y-37428570D01*
X141507200Y-37428570D02*
X141459580Y-37476189D01*
X141459580Y-37476189D02*
X141364342Y-37523808D01*
X141364342Y-37523808D02*
X141078628Y-37523808D01*
X141078628Y-37523808D02*
X140983390Y-37476189D01*
X140983390Y-37476189D02*
X140935771Y-37428570D01*
X140935771Y-37428570D02*
X140888152Y-37333332D01*
X140888152Y-37333332D02*
X140888152Y-37190475D01*
X140888152Y-37190475D02*
X140935771Y-37095237D01*
X140935771Y-37095237D02*
X140983390Y-37047618D01*
X140983390Y-37047618D02*
X141078628Y-36999999D01*
X141078628Y-36999999D02*
X141364342Y-36999999D01*
X141364342Y-36999999D02*
X141459580Y-37047618D01*
X141459580Y-37047618D02*
X141507200Y-37095237D01*
X141507200Y-37095237D02*
X141554819Y-37190475D01*
X141554819Y-37190475D02*
X141554819Y-37333332D01*
D12*
X77809523Y-143909638D02*
X77809523Y-142576304D01*
X77809523Y-142957257D02*
X77904761Y-142766780D01*
X77904761Y-142766780D02*
X77999999Y-142671542D01*
X77999999Y-142671542D02*
X78190475Y-142576304D01*
X78190475Y-142576304D02*
X78380952Y-142576304D01*
X79809523Y-143814400D02*
X79619047Y-143909638D01*
X79619047Y-143909638D02*
X79238094Y-143909638D01*
X79238094Y-143909638D02*
X79047618Y-143814400D01*
X79047618Y-143814400D02*
X78952380Y-143623923D01*
X78952380Y-143623923D02*
X78952380Y-142862019D01*
X78952380Y-142862019D02*
X79047618Y-142671542D01*
X79047618Y-142671542D02*
X79238094Y-142576304D01*
X79238094Y-142576304D02*
X79619047Y-142576304D01*
X79619047Y-142576304D02*
X79809523Y-142671542D01*
X79809523Y-142671542D02*
X79904761Y-142862019D01*
X79904761Y-142862019D02*
X79904761Y-143052495D01*
X79904761Y-143052495D02*
X78952380Y-143242971D01*
X80571428Y-142576304D02*
X81047618Y-143909638D01*
X81047618Y-143909638D02*
X81523809Y-142576304D01*
X83238095Y-141909638D02*
X82285714Y-141909638D01*
X82285714Y-141909638D02*
X82190476Y-142862019D01*
X82190476Y-142862019D02*
X82285714Y-142766780D01*
X82285714Y-142766780D02*
X82476190Y-142671542D01*
X82476190Y-142671542D02*
X82952381Y-142671542D01*
X82952381Y-142671542D02*
X83142857Y-142766780D01*
X83142857Y-142766780D02*
X83238095Y-142862019D01*
X83238095Y-142862019D02*
X83333333Y-143052495D01*
X83333333Y-143052495D02*
X83333333Y-143528685D01*
X83333333Y-143528685D02*
X83238095Y-143719161D01*
X83238095Y-143719161D02*
X83142857Y-143814400D01*
X83142857Y-143814400D02*
X82952381Y-143909638D01*
X82952381Y-143909638D02*
X82476190Y-143909638D01*
X82476190Y-143909638D02*
X82285714Y-143814400D01*
X82285714Y-143814400D02*
X82190476Y-143719161D01*
X84190476Y-143719161D02*
X84285714Y-143814400D01*
X84285714Y-143814400D02*
X84190476Y-143909638D01*
X84190476Y-143909638D02*
X84095238Y-143814400D01*
X84095238Y-143814400D02*
X84190476Y-143719161D01*
X84190476Y-143719161D02*
X84190476Y-143909638D01*
X85809524Y-142862019D02*
X86095238Y-142957257D01*
X86095238Y-142957257D02*
X86190476Y-143052495D01*
X86190476Y-143052495D02*
X86285714Y-143242971D01*
X86285714Y-143242971D02*
X86285714Y-143528685D01*
X86285714Y-143528685D02*
X86190476Y-143719161D01*
X86190476Y-143719161D02*
X86095238Y-143814400D01*
X86095238Y-143814400D02*
X85904762Y-143909638D01*
X85904762Y-143909638D02*
X85142857Y-143909638D01*
X85142857Y-143909638D02*
X85142857Y-141909638D01*
X85142857Y-141909638D02*
X85809524Y-141909638D01*
X85809524Y-141909638D02*
X86000000Y-142004876D01*
X86000000Y-142004876D02*
X86095238Y-142100114D01*
X86095238Y-142100114D02*
X86190476Y-142290590D01*
X86190476Y-142290590D02*
X86190476Y-142481066D01*
X86190476Y-142481066D02*
X86095238Y-142671542D01*
X86095238Y-142671542D02*
X86000000Y-142766780D01*
X86000000Y-142766780D02*
X85809524Y-142862019D01*
X85809524Y-142862019D02*
X85142857Y-142862019D01*
X176619046Y-142576304D02*
X176619046Y-144195352D01*
X176619046Y-144195352D02*
X176523808Y-144385828D01*
X176523808Y-144385828D02*
X176428570Y-144481066D01*
X176428570Y-144481066D02*
X176238093Y-144576304D01*
X176238093Y-144576304D02*
X175952379Y-144576304D01*
X175952379Y-144576304D02*
X175761903Y-144481066D01*
X176619046Y-143814400D02*
X176428570Y-143909638D01*
X176428570Y-143909638D02*
X176047617Y-143909638D01*
X176047617Y-143909638D02*
X175857141Y-143814400D01*
X175857141Y-143814400D02*
X175761903Y-143719161D01*
X175761903Y-143719161D02*
X175666665Y-143528685D01*
X175666665Y-143528685D02*
X175666665Y-142957257D01*
X175666665Y-142957257D02*
X175761903Y-142766780D01*
X175761903Y-142766780D02*
X175857141Y-142671542D01*
X175857141Y-142671542D02*
X176047617Y-142576304D01*
X176047617Y-142576304D02*
X176428570Y-142576304D01*
X176428570Y-142576304D02*
X176619046Y-142671542D01*
X177571427Y-143909638D02*
X177571427Y-142576304D01*
X177571427Y-141909638D02*
X177476189Y-142004876D01*
X177476189Y-142004876D02*
X177571427Y-142100114D01*
X177571427Y-142100114D02*
X177666665Y-142004876D01*
X177666665Y-142004876D02*
X177571427Y-141909638D01*
X177571427Y-141909638D02*
X177571427Y-142100114D01*
X178238094Y-142576304D02*
X178999998Y-142576304D01*
X178523808Y-141909638D02*
X178523808Y-143623923D01*
X178523808Y-143623923D02*
X178619046Y-143814400D01*
X178619046Y-143814400D02*
X178809522Y-143909638D01*
X178809522Y-143909638D02*
X178999998Y-143909638D01*
X179666665Y-143909638D02*
X179666665Y-141909638D01*
X180523808Y-143909638D02*
X180523808Y-142862019D01*
X180523808Y-142862019D02*
X180428570Y-142671542D01*
X180428570Y-142671542D02*
X180238094Y-142576304D01*
X180238094Y-142576304D02*
X179952379Y-142576304D01*
X179952379Y-142576304D02*
X179761903Y-142671542D01*
X179761903Y-142671542D02*
X179666665Y-142766780D01*
X182333332Y-142576304D02*
X182333332Y-143909638D01*
X181476189Y-142576304D02*
X181476189Y-143623923D01*
X181476189Y-143623923D02*
X181571427Y-143814400D01*
X181571427Y-143814400D02*
X181761903Y-143909638D01*
X181761903Y-143909638D02*
X182047618Y-143909638D01*
X182047618Y-143909638D02*
X182238094Y-143814400D01*
X182238094Y-143814400D02*
X182333332Y-143719161D01*
X183285713Y-143909638D02*
X183285713Y-141909638D01*
X183285713Y-142671542D02*
X183476189Y-142576304D01*
X183476189Y-142576304D02*
X183857142Y-142576304D01*
X183857142Y-142576304D02*
X184047618Y-142671542D01*
X184047618Y-142671542D02*
X184142856Y-142766780D01*
X184142856Y-142766780D02*
X184238094Y-142957257D01*
X184238094Y-142957257D02*
X184238094Y-143528685D01*
X184238094Y-143528685D02*
X184142856Y-143719161D01*
X184142856Y-143719161D02*
X184047618Y-143814400D01*
X184047618Y-143814400D02*
X183857142Y-143909638D01*
X183857142Y-143909638D02*
X183476189Y-143909638D01*
X183476189Y-143909638D02*
X183285713Y-143814400D01*
X185095237Y-143719161D02*
X185190475Y-143814400D01*
X185190475Y-143814400D02*
X185095237Y-143909638D01*
X185095237Y-143909638D02*
X184999999Y-143814400D01*
X184999999Y-143814400D02*
X185095237Y-143719161D01*
X185095237Y-143719161D02*
X185095237Y-143909638D01*
X186904761Y-143814400D02*
X186714285Y-143909638D01*
X186714285Y-143909638D02*
X186333332Y-143909638D01*
X186333332Y-143909638D02*
X186142856Y-143814400D01*
X186142856Y-143814400D02*
X186047618Y-143719161D01*
X186047618Y-143719161D02*
X185952380Y-143528685D01*
X185952380Y-143528685D02*
X185952380Y-142957257D01*
X185952380Y-142957257D02*
X186047618Y-142766780D01*
X186047618Y-142766780D02*
X186142856Y-142671542D01*
X186142856Y-142671542D02*
X186333332Y-142576304D01*
X186333332Y-142576304D02*
X186714285Y-142576304D01*
X186714285Y-142576304D02*
X186904761Y-142671542D01*
X188047618Y-143909638D02*
X187857142Y-143814400D01*
X187857142Y-143814400D02*
X187761904Y-143719161D01*
X187761904Y-143719161D02*
X187666666Y-143528685D01*
X187666666Y-143528685D02*
X187666666Y-142957257D01*
X187666666Y-142957257D02*
X187761904Y-142766780D01*
X187761904Y-142766780D02*
X187857142Y-142671542D01*
X187857142Y-142671542D02*
X188047618Y-142576304D01*
X188047618Y-142576304D02*
X188333333Y-142576304D01*
X188333333Y-142576304D02*
X188523809Y-142671542D01*
X188523809Y-142671542D02*
X188619047Y-142766780D01*
X188619047Y-142766780D02*
X188714285Y-142957257D01*
X188714285Y-142957257D02*
X188714285Y-143528685D01*
X188714285Y-143528685D02*
X188619047Y-143719161D01*
X188619047Y-143719161D02*
X188523809Y-143814400D01*
X188523809Y-143814400D02*
X188333333Y-143909638D01*
X188333333Y-143909638D02*
X188047618Y-143909638D01*
X189571428Y-143909638D02*
X189571428Y-142576304D01*
X189571428Y-142766780D02*
X189666666Y-142671542D01*
X189666666Y-142671542D02*
X189857142Y-142576304D01*
X189857142Y-142576304D02*
X190142857Y-142576304D01*
X190142857Y-142576304D02*
X190333333Y-142671542D01*
X190333333Y-142671542D02*
X190428571Y-142862019D01*
X190428571Y-142862019D02*
X190428571Y-143909638D01*
X190428571Y-142862019D02*
X190523809Y-142671542D01*
X190523809Y-142671542D02*
X190714285Y-142576304D01*
X190714285Y-142576304D02*
X190999999Y-142576304D01*
X190999999Y-142576304D02*
X191190476Y-142671542D01*
X191190476Y-142671542D02*
X191285714Y-142862019D01*
X191285714Y-142862019D02*
X191285714Y-143909638D01*
X193666666Y-141814400D02*
X191952381Y-144385828D01*
X194333333Y-142576304D02*
X194333333Y-143909638D01*
X194333333Y-142766780D02*
X194428571Y-142671542D01*
X194428571Y-142671542D02*
X194619047Y-142576304D01*
X194619047Y-142576304D02*
X194904762Y-142576304D01*
X194904762Y-142576304D02*
X195095238Y-142671542D01*
X195095238Y-142671542D02*
X195190476Y-142862019D01*
X195190476Y-142862019D02*
X195190476Y-143909638D01*
X196142857Y-143909638D02*
X196142857Y-141909638D01*
X196142857Y-142671542D02*
X196333333Y-142576304D01*
X196333333Y-142576304D02*
X196714286Y-142576304D01*
X196714286Y-142576304D02*
X196904762Y-142671542D01*
X196904762Y-142671542D02*
X197000000Y-142766780D01*
X197000000Y-142766780D02*
X197095238Y-142957257D01*
X197095238Y-142957257D02*
X197095238Y-143528685D01*
X197095238Y-143528685D02*
X197000000Y-143719161D01*
X197000000Y-143719161D02*
X196904762Y-143814400D01*
X196904762Y-143814400D02*
X196714286Y-143909638D01*
X196714286Y-143909638D02*
X196333333Y-143909638D01*
X196333333Y-143909638D02*
X196142857Y-143814400D01*
X198238095Y-143909638D02*
X198047619Y-143814400D01*
X198047619Y-143814400D02*
X197952381Y-143719161D01*
X197952381Y-143719161D02*
X197857143Y-143528685D01*
X197857143Y-143528685D02*
X197857143Y-142957257D01*
X197857143Y-142957257D02*
X197952381Y-142766780D01*
X197952381Y-142766780D02*
X198047619Y-142671542D01*
X198047619Y-142671542D02*
X198238095Y-142576304D01*
X198238095Y-142576304D02*
X198523810Y-142576304D01*
X198523810Y-142576304D02*
X198714286Y-142671542D01*
X198714286Y-142671542D02*
X198809524Y-142766780D01*
X198809524Y-142766780D02*
X198904762Y-142957257D01*
X198904762Y-142957257D02*
X198904762Y-143528685D01*
X198904762Y-143528685D02*
X198809524Y-143719161D01*
X198809524Y-143719161D02*
X198714286Y-143814400D01*
X198714286Y-143814400D02*
X198523810Y-143909638D01*
X198523810Y-143909638D02*
X198238095Y-143909638D01*
X199571429Y-142576304D02*
X200047619Y-143909638D01*
X200047619Y-143909638D02*
X200523810Y-142576304D01*
X202047620Y-143814400D02*
X201857144Y-143909638D01*
X201857144Y-143909638D02*
X201476191Y-143909638D01*
X201476191Y-143909638D02*
X201285715Y-143814400D01*
X201285715Y-143814400D02*
X201190477Y-143623923D01*
X201190477Y-143623923D02*
X201190477Y-142862019D01*
X201190477Y-142862019D02*
X201285715Y-142671542D01*
X201285715Y-142671542D02*
X201476191Y-142576304D01*
X201476191Y-142576304D02*
X201857144Y-142576304D01*
X201857144Y-142576304D02*
X202047620Y-142671542D01*
X202047620Y-142671542D02*
X202142858Y-142862019D01*
X202142858Y-142862019D02*
X202142858Y-143052495D01*
X202142858Y-143052495D02*
X201190477Y-143242971D01*
X203761906Y-143814400D02*
X203571430Y-143909638D01*
X203571430Y-143909638D02*
X203190477Y-143909638D01*
X203190477Y-143909638D02*
X203000001Y-143814400D01*
X203000001Y-143814400D02*
X202904763Y-143623923D01*
X202904763Y-143623923D02*
X202904763Y-142862019D01*
X202904763Y-142862019D02*
X203000001Y-142671542D01*
X203000001Y-142671542D02*
X203190477Y-142576304D01*
X203190477Y-142576304D02*
X203571430Y-142576304D01*
X203571430Y-142576304D02*
X203761906Y-142671542D01*
X203761906Y-142671542D02*
X203857144Y-142862019D01*
X203857144Y-142862019D02*
X203857144Y-143052495D01*
X203857144Y-143052495D02*
X202904763Y-143242971D01*
X206142858Y-141814400D02*
X204428573Y-144385828D01*
X206523811Y-142576304D02*
X207285715Y-142576304D01*
X206809525Y-143909638D02*
X206809525Y-142195352D01*
X206809525Y-142195352D02*
X206904763Y-142004876D01*
X206904763Y-142004876D02*
X207095239Y-141909638D01*
X207095239Y-141909638D02*
X207285715Y-141909638D01*
X208238096Y-143909638D02*
X208047620Y-143814400D01*
X208047620Y-143814400D02*
X207952382Y-143623923D01*
X207952382Y-143623923D02*
X207952382Y-141909638D01*
X209857144Y-143909638D02*
X209857144Y-142862019D01*
X209857144Y-142862019D02*
X209761906Y-142671542D01*
X209761906Y-142671542D02*
X209571430Y-142576304D01*
X209571430Y-142576304D02*
X209190477Y-142576304D01*
X209190477Y-142576304D02*
X209000001Y-142671542D01*
X209857144Y-143814400D02*
X209666668Y-143909638D01*
X209666668Y-143909638D02*
X209190477Y-143909638D01*
X209190477Y-143909638D02*
X209000001Y-143814400D01*
X209000001Y-143814400D02*
X208904763Y-143623923D01*
X208904763Y-143623923D02*
X208904763Y-143433447D01*
X208904763Y-143433447D02*
X209000001Y-143242971D01*
X209000001Y-143242971D02*
X209190477Y-143147733D01*
X209190477Y-143147733D02*
X209666668Y-143147733D01*
X209666668Y-143147733D02*
X209857144Y-143052495D01*
X210523811Y-142576304D02*
X211285715Y-142576304D01*
X210809525Y-141909638D02*
X210809525Y-143623923D01*
X210809525Y-143623923D02*
X210904763Y-143814400D01*
X210904763Y-143814400D02*
X211095239Y-143909638D01*
X211095239Y-143909638D02*
X211285715Y-143909638D01*
X211952382Y-143909638D02*
X211952382Y-141909638D01*
X211952382Y-142671542D02*
X212142858Y-142576304D01*
X212142858Y-142576304D02*
X212523811Y-142576304D01*
X212523811Y-142576304D02*
X212714287Y-142671542D01*
X212714287Y-142671542D02*
X212809525Y-142766780D01*
X212809525Y-142766780D02*
X212904763Y-142957257D01*
X212904763Y-142957257D02*
X212904763Y-143528685D01*
X212904763Y-143528685D02*
X212809525Y-143719161D01*
X212809525Y-143719161D02*
X212714287Y-143814400D01*
X212714287Y-143814400D02*
X212523811Y-143909638D01*
X212523811Y-143909638D02*
X212142858Y-143909638D01*
X212142858Y-143909638D02*
X211952382Y-143814400D01*
X214047620Y-143909638D02*
X213857144Y-143814400D01*
X213857144Y-143814400D02*
X213761906Y-143719161D01*
X213761906Y-143719161D02*
X213666668Y-143528685D01*
X213666668Y-143528685D02*
X213666668Y-142957257D01*
X213666668Y-142957257D02*
X213761906Y-142766780D01*
X213761906Y-142766780D02*
X213857144Y-142671542D01*
X213857144Y-142671542D02*
X214047620Y-142576304D01*
X214047620Y-142576304D02*
X214333335Y-142576304D01*
X214333335Y-142576304D02*
X214523811Y-142671542D01*
X214523811Y-142671542D02*
X214619049Y-142766780D01*
X214619049Y-142766780D02*
X214714287Y-142957257D01*
X214714287Y-142957257D02*
X214714287Y-143528685D01*
X214714287Y-143528685D02*
X214619049Y-143719161D01*
X214619049Y-143719161D02*
X214523811Y-143814400D01*
X214523811Y-143814400D02*
X214333335Y-143909638D01*
X214333335Y-143909638D02*
X214047620Y-143909638D01*
X215380954Y-143909638D02*
X216428573Y-142576304D01*
X215380954Y-142576304D02*
X216428573Y-143909638D01*
D13*
X62666667Y-109458476D02*
X60000000Y-109458476D01*
X60000000Y-113648952D02*
X60000000Y-105648952D01*
X60000000Y-105648952D02*
X63809524Y-105648952D01*
X68000001Y-113648952D02*
X67238096Y-113268000D01*
X67238096Y-113268000D02*
X66857143Y-112506095D01*
X66857143Y-112506095D02*
X66857143Y-105648952D01*
X74476191Y-113648952D02*
X74476191Y-109458476D01*
X74476191Y-109458476D02*
X74095238Y-108696571D01*
X74095238Y-108696571D02*
X73333334Y-108315619D01*
X73333334Y-108315619D02*
X71809524Y-108315619D01*
X71809524Y-108315619D02*
X71047619Y-108696571D01*
X74476191Y-113268000D02*
X73714286Y-113648952D01*
X73714286Y-113648952D02*
X71809524Y-113648952D01*
X71809524Y-113648952D02*
X71047619Y-113268000D01*
X71047619Y-113268000D02*
X70666667Y-112506095D01*
X70666667Y-112506095D02*
X70666667Y-111744190D01*
X70666667Y-111744190D02*
X71047619Y-110982285D01*
X71047619Y-110982285D02*
X71809524Y-110601333D01*
X71809524Y-110601333D02*
X73714286Y-110601333D01*
X73714286Y-110601333D02*
X74476191Y-110220380D01*
X77142857Y-108315619D02*
X80190476Y-108315619D01*
X78285714Y-105648952D02*
X78285714Y-112506095D01*
X78285714Y-112506095D02*
X78666667Y-113268000D01*
X78666667Y-113268000D02*
X79428572Y-113648952D01*
X79428572Y-113648952D02*
X80190476Y-113648952D01*
X82857143Y-113648952D02*
X82857143Y-105648952D01*
X82857143Y-108696571D02*
X83619048Y-108315619D01*
X83619048Y-108315619D02*
X85142858Y-108315619D01*
X85142858Y-108315619D02*
X85904762Y-108696571D01*
X85904762Y-108696571D02*
X86285715Y-109077523D01*
X86285715Y-109077523D02*
X86666667Y-109839428D01*
X86666667Y-109839428D02*
X86666667Y-112125142D01*
X86666667Y-112125142D02*
X86285715Y-112887047D01*
X86285715Y-112887047D02*
X85904762Y-113268000D01*
X85904762Y-113268000D02*
X85142858Y-113648952D01*
X85142858Y-113648952D02*
X83619048Y-113648952D01*
X83619048Y-113648952D02*
X82857143Y-113268000D01*
X91238096Y-113648952D02*
X90476191Y-113268000D01*
X90476191Y-113268000D02*
X90095238Y-112887047D01*
X90095238Y-112887047D02*
X89714286Y-112125142D01*
X89714286Y-112125142D02*
X89714286Y-109839428D01*
X89714286Y-109839428D02*
X90095238Y-109077523D01*
X90095238Y-109077523D02*
X90476191Y-108696571D01*
X90476191Y-108696571D02*
X91238096Y-108315619D01*
X91238096Y-108315619D02*
X92380953Y-108315619D01*
X92380953Y-108315619D02*
X93142857Y-108696571D01*
X93142857Y-108696571D02*
X93523810Y-109077523D01*
X93523810Y-109077523D02*
X93904762Y-109839428D01*
X93904762Y-109839428D02*
X93904762Y-112125142D01*
X93904762Y-112125142D02*
X93523810Y-112887047D01*
X93523810Y-112887047D02*
X93142857Y-113268000D01*
X93142857Y-113268000D02*
X92380953Y-113648952D01*
X92380953Y-113648952D02*
X91238096Y-113648952D01*
X96571429Y-113648952D02*
X100761905Y-108315619D01*
X96571429Y-108315619D02*
X100761905Y-113648952D01*
D11*
X86042667Y-56541200D02*
X86185524Y-56588819D01*
X86185524Y-56588819D02*
X86423619Y-56588819D01*
X86423619Y-56588819D02*
X86518857Y-56541200D01*
X86518857Y-56541200D02*
X86566476Y-56493580D01*
X86566476Y-56493580D02*
X86614095Y-56398342D01*
X86614095Y-56398342D02*
X86614095Y-56303104D01*
X86614095Y-56303104D02*
X86566476Y-56207866D01*
X86566476Y-56207866D02*
X86518857Y-56160247D01*
X86518857Y-56160247D02*
X86423619Y-56112628D01*
X86423619Y-56112628D02*
X86233143Y-56065009D01*
X86233143Y-56065009D02*
X86137905Y-56017390D01*
X86137905Y-56017390D02*
X86090286Y-55969771D01*
X86090286Y-55969771D02*
X86042667Y-55874533D01*
X86042667Y-55874533D02*
X86042667Y-55779295D01*
X86042667Y-55779295D02*
X86090286Y-55684057D01*
X86090286Y-55684057D02*
X86137905Y-55636438D01*
X86137905Y-55636438D02*
X86233143Y-55588819D01*
X86233143Y-55588819D02*
X86471238Y-55588819D01*
X86471238Y-55588819D02*
X86614095Y-55636438D01*
X86947429Y-55588819D02*
X87185524Y-56588819D01*
X87185524Y-56588819D02*
X87376000Y-55874533D01*
X87376000Y-55874533D02*
X87566476Y-56588819D01*
X87566476Y-56588819D02*
X87804572Y-55588819D01*
X88328381Y-56017390D02*
X88233143Y-55969771D01*
X88233143Y-55969771D02*
X88185524Y-55922152D01*
X88185524Y-55922152D02*
X88137905Y-55826914D01*
X88137905Y-55826914D02*
X88137905Y-55779295D01*
X88137905Y-55779295D02*
X88185524Y-55684057D01*
X88185524Y-55684057D02*
X88233143Y-55636438D01*
X88233143Y-55636438D02*
X88328381Y-55588819D01*
X88328381Y-55588819D02*
X88518857Y-55588819D01*
X88518857Y-55588819D02*
X88614095Y-55636438D01*
X88614095Y-55636438D02*
X88661714Y-55684057D01*
X88661714Y-55684057D02*
X88709333Y-55779295D01*
X88709333Y-55779295D02*
X88709333Y-55826914D01*
X88709333Y-55826914D02*
X88661714Y-55922152D01*
X88661714Y-55922152D02*
X88614095Y-55969771D01*
X88614095Y-55969771D02*
X88518857Y-56017390D01*
X88518857Y-56017390D02*
X88328381Y-56017390D01*
X88328381Y-56017390D02*
X88233143Y-56065009D01*
X88233143Y-56065009D02*
X88185524Y-56112628D01*
X88185524Y-56112628D02*
X88137905Y-56207866D01*
X88137905Y-56207866D02*
X88137905Y-56398342D01*
X88137905Y-56398342D02*
X88185524Y-56493580D01*
X88185524Y-56493580D02*
X88233143Y-56541200D01*
X88233143Y-56541200D02*
X88328381Y-56588819D01*
X88328381Y-56588819D02*
X88518857Y-56588819D01*
X88518857Y-56588819D02*
X88614095Y-56541200D01*
X88614095Y-56541200D02*
X88661714Y-56493580D01*
X88661714Y-56493580D02*
X88709333Y-56398342D01*
X88709333Y-56398342D02*
X88709333Y-56207866D01*
X88709333Y-56207866D02*
X88661714Y-56112628D01*
X88661714Y-56112628D02*
X88614095Y-56065009D01*
X88614095Y-56065009D02*
X88518857Y-56017390D01*
X112586667Y-67971200D02*
X112729524Y-68018819D01*
X112729524Y-68018819D02*
X112967619Y-68018819D01*
X112967619Y-68018819D02*
X113062857Y-67971200D01*
X113062857Y-67971200D02*
X113110476Y-67923580D01*
X113110476Y-67923580D02*
X113158095Y-67828342D01*
X113158095Y-67828342D02*
X113158095Y-67733104D01*
X113158095Y-67733104D02*
X113110476Y-67637866D01*
X113110476Y-67637866D02*
X113062857Y-67590247D01*
X113062857Y-67590247D02*
X112967619Y-67542628D01*
X112967619Y-67542628D02*
X112777143Y-67495009D01*
X112777143Y-67495009D02*
X112681905Y-67447390D01*
X112681905Y-67447390D02*
X112634286Y-67399771D01*
X112634286Y-67399771D02*
X112586667Y-67304533D01*
X112586667Y-67304533D02*
X112586667Y-67209295D01*
X112586667Y-67209295D02*
X112634286Y-67114057D01*
X112634286Y-67114057D02*
X112681905Y-67066438D01*
X112681905Y-67066438D02*
X112777143Y-67018819D01*
X112777143Y-67018819D02*
X113015238Y-67018819D01*
X113015238Y-67018819D02*
X113158095Y-67066438D01*
X113491429Y-67018819D02*
X113729524Y-68018819D01*
X113729524Y-68018819D02*
X113920000Y-67304533D01*
X113920000Y-67304533D02*
X114110476Y-68018819D01*
X114110476Y-68018819D02*
X114348572Y-67018819D01*
X114777143Y-68018819D02*
X114967619Y-68018819D01*
X114967619Y-68018819D02*
X115062857Y-67971200D01*
X115062857Y-67971200D02*
X115110476Y-67923580D01*
X115110476Y-67923580D02*
X115205714Y-67780723D01*
X115205714Y-67780723D02*
X115253333Y-67590247D01*
X115253333Y-67590247D02*
X115253333Y-67209295D01*
X115253333Y-67209295D02*
X115205714Y-67114057D01*
X115205714Y-67114057D02*
X115158095Y-67066438D01*
X115158095Y-67066438D02*
X115062857Y-67018819D01*
X115062857Y-67018819D02*
X114872381Y-67018819D01*
X114872381Y-67018819D02*
X114777143Y-67066438D01*
X114777143Y-67066438D02*
X114729524Y-67114057D01*
X114729524Y-67114057D02*
X114681905Y-67209295D01*
X114681905Y-67209295D02*
X114681905Y-67447390D01*
X114681905Y-67447390D02*
X114729524Y-67542628D01*
X114729524Y-67542628D02*
X114777143Y-67590247D01*
X114777143Y-67590247D02*
X114872381Y-67637866D01*
X114872381Y-67637866D02*
X115062857Y-67637866D01*
X115062857Y-67637866D02*
X115158095Y-67590247D01*
X115158095Y-67590247D02*
X115205714Y-67542628D01*
X115205714Y-67542628D02*
X115253333Y-67447390D01*
X129610476Y-121057200D02*
X129753333Y-121104819D01*
X129753333Y-121104819D02*
X129991428Y-121104819D01*
X129991428Y-121104819D02*
X130086666Y-121057200D01*
X130086666Y-121057200D02*
X130134285Y-121009580D01*
X130134285Y-121009580D02*
X130181904Y-120914342D01*
X130181904Y-120914342D02*
X130181904Y-120819104D01*
X130181904Y-120819104D02*
X130134285Y-120723866D01*
X130134285Y-120723866D02*
X130086666Y-120676247D01*
X130086666Y-120676247D02*
X129991428Y-120628628D01*
X129991428Y-120628628D02*
X129800952Y-120581009D01*
X129800952Y-120581009D02*
X129705714Y-120533390D01*
X129705714Y-120533390D02*
X129658095Y-120485771D01*
X129658095Y-120485771D02*
X129610476Y-120390533D01*
X129610476Y-120390533D02*
X129610476Y-120295295D01*
X129610476Y-120295295D02*
X129658095Y-120200057D01*
X129658095Y-120200057D02*
X129705714Y-120152438D01*
X129705714Y-120152438D02*
X129800952Y-120104819D01*
X129800952Y-120104819D02*
X130039047Y-120104819D01*
X130039047Y-120104819D02*
X130181904Y-120152438D01*
X130515238Y-120104819D02*
X130753333Y-121104819D01*
X130753333Y-121104819D02*
X130943809Y-120390533D01*
X130943809Y-120390533D02*
X131134285Y-121104819D01*
X131134285Y-121104819D02*
X131372381Y-120104819D01*
X132277142Y-121104819D02*
X131705714Y-121104819D01*
X131991428Y-121104819D02*
X131991428Y-120104819D01*
X131991428Y-120104819D02*
X131896190Y-120247676D01*
X131896190Y-120247676D02*
X131800952Y-120342914D01*
X131800952Y-120342914D02*
X131705714Y-120390533D01*
X132848571Y-120533390D02*
X132753333Y-120485771D01*
X132753333Y-120485771D02*
X132705714Y-120438152D01*
X132705714Y-120438152D02*
X132658095Y-120342914D01*
X132658095Y-120342914D02*
X132658095Y-120295295D01*
X132658095Y-120295295D02*
X132705714Y-120200057D01*
X132705714Y-120200057D02*
X132753333Y-120152438D01*
X132753333Y-120152438D02*
X132848571Y-120104819D01*
X132848571Y-120104819D02*
X133039047Y-120104819D01*
X133039047Y-120104819D02*
X133134285Y-120152438D01*
X133134285Y-120152438D02*
X133181904Y-120200057D01*
X133181904Y-120200057D02*
X133229523Y-120295295D01*
X133229523Y-120295295D02*
X133229523Y-120342914D01*
X133229523Y-120342914D02*
X133181904Y-120438152D01*
X133181904Y-120438152D02*
X133134285Y-120485771D01*
X133134285Y-120485771D02*
X133039047Y-120533390D01*
X133039047Y-120533390D02*
X132848571Y-120533390D01*
X132848571Y-120533390D02*
X132753333Y-120581009D01*
X132753333Y-120581009D02*
X132705714Y-120628628D01*
X132705714Y-120628628D02*
X132658095Y-120723866D01*
X132658095Y-120723866D02*
X132658095Y-120914342D01*
X132658095Y-120914342D02*
X132705714Y-121009580D01*
X132705714Y-121009580D02*
X132753333Y-121057200D01*
X132753333Y-121057200D02*
X132848571Y-121104819D01*
X132848571Y-121104819D02*
X133039047Y-121104819D01*
X133039047Y-121104819D02*
X133134285Y-121057200D01*
X133134285Y-121057200D02*
X133181904Y-121009580D01*
X133181904Y-121009580D02*
X133229523Y-120914342D01*
X133229523Y-120914342D02*
X133229523Y-120723866D01*
X133229523Y-120723866D02*
X133181904Y-120628628D01*
X133181904Y-120628628D02*
X133134285Y-120581009D01*
X133134285Y-120581009D02*
X133039047Y-120533390D01*
X147050476Y-56541200D02*
X147193333Y-56588819D01*
X147193333Y-56588819D02*
X147431428Y-56588819D01*
X147431428Y-56588819D02*
X147526666Y-56541200D01*
X147526666Y-56541200D02*
X147574285Y-56493580D01*
X147574285Y-56493580D02*
X147621904Y-56398342D01*
X147621904Y-56398342D02*
X147621904Y-56303104D01*
X147621904Y-56303104D02*
X147574285Y-56207866D01*
X147574285Y-56207866D02*
X147526666Y-56160247D01*
X147526666Y-56160247D02*
X147431428Y-56112628D01*
X147431428Y-56112628D02*
X147240952Y-56065009D01*
X147240952Y-56065009D02*
X147145714Y-56017390D01*
X147145714Y-56017390D02*
X147098095Y-55969771D01*
X147098095Y-55969771D02*
X147050476Y-55874533D01*
X147050476Y-55874533D02*
X147050476Y-55779295D01*
X147050476Y-55779295D02*
X147098095Y-55684057D01*
X147098095Y-55684057D02*
X147145714Y-55636438D01*
X147145714Y-55636438D02*
X147240952Y-55588819D01*
X147240952Y-55588819D02*
X147479047Y-55588819D01*
X147479047Y-55588819D02*
X147621904Y-55636438D01*
X147955238Y-55588819D02*
X148193333Y-56588819D01*
X148193333Y-56588819D02*
X148383809Y-55874533D01*
X148383809Y-55874533D02*
X148574285Y-56588819D01*
X148574285Y-56588819D02*
X148812381Y-55588819D01*
X149717142Y-56588819D02*
X149145714Y-56588819D01*
X149431428Y-56588819D02*
X149431428Y-55588819D01*
X149431428Y-55588819D02*
X149336190Y-55731676D01*
X149336190Y-55731676D02*
X149240952Y-55826914D01*
X149240952Y-55826914D02*
X149145714Y-55874533D01*
X150336190Y-55588819D02*
X150431428Y-55588819D01*
X150431428Y-55588819D02*
X150526666Y-55636438D01*
X150526666Y-55636438D02*
X150574285Y-55684057D01*
X150574285Y-55684057D02*
X150621904Y-55779295D01*
X150621904Y-55779295D02*
X150669523Y-55969771D01*
X150669523Y-55969771D02*
X150669523Y-56207866D01*
X150669523Y-56207866D02*
X150621904Y-56398342D01*
X150621904Y-56398342D02*
X150574285Y-56493580D01*
X150574285Y-56493580D02*
X150526666Y-56541200D01*
X150526666Y-56541200D02*
X150431428Y-56588819D01*
X150431428Y-56588819D02*
X150336190Y-56588819D01*
X150336190Y-56588819D02*
X150240952Y-56541200D01*
X150240952Y-56541200D02*
X150193333Y-56493580D01*
X150193333Y-56493580D02*
X150145714Y-56398342D01*
X150145714Y-56398342D02*
X150098095Y-56207866D01*
X150098095Y-56207866D02*
X150098095Y-55969771D01*
X150098095Y-55969771D02*
X150145714Y-55779295D01*
X150145714Y-55779295D02*
X150193333Y-55684057D01*
X150193333Y-55684057D02*
X150240952Y-55636438D01*
X150240952Y-55636438D02*
X150336190Y-55588819D01*
X173610476Y-44857200D02*
X173753333Y-44904819D01*
X173753333Y-44904819D02*
X173991428Y-44904819D01*
X173991428Y-44904819D02*
X174086666Y-44857200D01*
X174086666Y-44857200D02*
X174134285Y-44809580D01*
X174134285Y-44809580D02*
X174181904Y-44714342D01*
X174181904Y-44714342D02*
X174181904Y-44619104D01*
X174181904Y-44619104D02*
X174134285Y-44523866D01*
X174134285Y-44523866D02*
X174086666Y-44476247D01*
X174086666Y-44476247D02*
X173991428Y-44428628D01*
X173991428Y-44428628D02*
X173800952Y-44381009D01*
X173800952Y-44381009D02*
X173705714Y-44333390D01*
X173705714Y-44333390D02*
X173658095Y-44285771D01*
X173658095Y-44285771D02*
X173610476Y-44190533D01*
X173610476Y-44190533D02*
X173610476Y-44095295D01*
X173610476Y-44095295D02*
X173658095Y-44000057D01*
X173658095Y-44000057D02*
X173705714Y-43952438D01*
X173705714Y-43952438D02*
X173800952Y-43904819D01*
X173800952Y-43904819D02*
X174039047Y-43904819D01*
X174039047Y-43904819D02*
X174181904Y-43952438D01*
X174515238Y-43904819D02*
X174753333Y-44904819D01*
X174753333Y-44904819D02*
X174943809Y-44190533D01*
X174943809Y-44190533D02*
X175134285Y-44904819D01*
X175134285Y-44904819D02*
X175372381Y-43904819D01*
X176277142Y-44904819D02*
X175705714Y-44904819D01*
X175991428Y-44904819D02*
X175991428Y-43904819D01*
X175991428Y-43904819D02*
X175896190Y-44047676D01*
X175896190Y-44047676D02*
X175800952Y-44142914D01*
X175800952Y-44142914D02*
X175705714Y-44190533D01*
X177229523Y-44904819D02*
X176658095Y-44904819D01*
X176943809Y-44904819D02*
X176943809Y-43904819D01*
X176943809Y-43904819D02*
X176848571Y-44047676D01*
X176848571Y-44047676D02*
X176753333Y-44142914D01*
X176753333Y-44142914D02*
X176658095Y-44190533D01*
X202580476Y-44857200D02*
X202723333Y-44904819D01*
X202723333Y-44904819D02*
X202961428Y-44904819D01*
X202961428Y-44904819D02*
X203056666Y-44857200D01*
X203056666Y-44857200D02*
X203104285Y-44809580D01*
X203104285Y-44809580D02*
X203151904Y-44714342D01*
X203151904Y-44714342D02*
X203151904Y-44619104D01*
X203151904Y-44619104D02*
X203104285Y-44523866D01*
X203104285Y-44523866D02*
X203056666Y-44476247D01*
X203056666Y-44476247D02*
X202961428Y-44428628D01*
X202961428Y-44428628D02*
X202770952Y-44381009D01*
X202770952Y-44381009D02*
X202675714Y-44333390D01*
X202675714Y-44333390D02*
X202628095Y-44285771D01*
X202628095Y-44285771D02*
X202580476Y-44190533D01*
X202580476Y-44190533D02*
X202580476Y-44095295D01*
X202580476Y-44095295D02*
X202628095Y-44000057D01*
X202628095Y-44000057D02*
X202675714Y-43952438D01*
X202675714Y-43952438D02*
X202770952Y-43904819D01*
X202770952Y-43904819D02*
X203009047Y-43904819D01*
X203009047Y-43904819D02*
X203151904Y-43952438D01*
X203485238Y-43904819D02*
X203723333Y-44904819D01*
X203723333Y-44904819D02*
X203913809Y-44190533D01*
X203913809Y-44190533D02*
X204104285Y-44904819D01*
X204104285Y-44904819D02*
X204342381Y-43904819D01*
X205247142Y-44904819D02*
X204675714Y-44904819D01*
X204961428Y-44904819D02*
X204961428Y-43904819D01*
X204961428Y-43904819D02*
X204866190Y-44047676D01*
X204866190Y-44047676D02*
X204770952Y-44142914D01*
X204770952Y-44142914D02*
X204675714Y-44190533D01*
X205628095Y-44000057D02*
X205675714Y-43952438D01*
X205675714Y-43952438D02*
X205770952Y-43904819D01*
X205770952Y-43904819D02*
X206009047Y-43904819D01*
X206009047Y-43904819D02*
X206104285Y-43952438D01*
X206104285Y-43952438D02*
X206151904Y-44000057D01*
X206151904Y-44000057D02*
X206199523Y-44095295D01*
X206199523Y-44095295D02*
X206199523Y-44190533D01*
X206199523Y-44190533D02*
X206151904Y-44333390D01*
X206151904Y-44333390D02*
X205580476Y-44904819D01*
X205580476Y-44904819D02*
X206199523Y-44904819D01*
X231550476Y-44857200D02*
X231693333Y-44904819D01*
X231693333Y-44904819D02*
X231931428Y-44904819D01*
X231931428Y-44904819D02*
X232026666Y-44857200D01*
X232026666Y-44857200D02*
X232074285Y-44809580D01*
X232074285Y-44809580D02*
X232121904Y-44714342D01*
X232121904Y-44714342D02*
X232121904Y-44619104D01*
X232121904Y-44619104D02*
X232074285Y-44523866D01*
X232074285Y-44523866D02*
X232026666Y-44476247D01*
X232026666Y-44476247D02*
X231931428Y-44428628D01*
X231931428Y-44428628D02*
X231740952Y-44381009D01*
X231740952Y-44381009D02*
X231645714Y-44333390D01*
X231645714Y-44333390D02*
X231598095Y-44285771D01*
X231598095Y-44285771D02*
X231550476Y-44190533D01*
X231550476Y-44190533D02*
X231550476Y-44095295D01*
X231550476Y-44095295D02*
X231598095Y-44000057D01*
X231598095Y-44000057D02*
X231645714Y-43952438D01*
X231645714Y-43952438D02*
X231740952Y-43904819D01*
X231740952Y-43904819D02*
X231979047Y-43904819D01*
X231979047Y-43904819D02*
X232121904Y-43952438D01*
X232455238Y-43904819D02*
X232693333Y-44904819D01*
X232693333Y-44904819D02*
X232883809Y-44190533D01*
X232883809Y-44190533D02*
X233074285Y-44904819D01*
X233074285Y-44904819D02*
X233312381Y-43904819D01*
X234217142Y-44904819D02*
X233645714Y-44904819D01*
X233931428Y-44904819D02*
X233931428Y-43904819D01*
X233931428Y-43904819D02*
X233836190Y-44047676D01*
X233836190Y-44047676D02*
X233740952Y-44142914D01*
X233740952Y-44142914D02*
X233645714Y-44190533D01*
X234550476Y-43904819D02*
X235169523Y-43904819D01*
X235169523Y-43904819D02*
X234836190Y-44285771D01*
X234836190Y-44285771D02*
X234979047Y-44285771D01*
X234979047Y-44285771D02*
X235074285Y-44333390D01*
X235074285Y-44333390D02*
X235121904Y-44381009D01*
X235121904Y-44381009D02*
X235169523Y-44476247D01*
X235169523Y-44476247D02*
X235169523Y-44714342D01*
X235169523Y-44714342D02*
X235121904Y-44809580D01*
X235121904Y-44809580D02*
X235074285Y-44857200D01*
X235074285Y-44857200D02*
X234979047Y-44904819D01*
X234979047Y-44904819D02*
X234693333Y-44904819D01*
X234693333Y-44904819D02*
X234598095Y-44857200D01*
X234598095Y-44857200D02*
X234550476Y-44809580D01*
X141440476Y-88302200D02*
X141583333Y-88349819D01*
X141583333Y-88349819D02*
X141821428Y-88349819D01*
X141821428Y-88349819D02*
X141916666Y-88302200D01*
X141916666Y-88302200D02*
X141964285Y-88254580D01*
X141964285Y-88254580D02*
X142011904Y-88159342D01*
X142011904Y-88159342D02*
X142011904Y-88064104D01*
X142011904Y-88064104D02*
X141964285Y-87968866D01*
X141964285Y-87968866D02*
X141916666Y-87921247D01*
X141916666Y-87921247D02*
X141821428Y-87873628D01*
X141821428Y-87873628D02*
X141630952Y-87826009D01*
X141630952Y-87826009D02*
X141535714Y-87778390D01*
X141535714Y-87778390D02*
X141488095Y-87730771D01*
X141488095Y-87730771D02*
X141440476Y-87635533D01*
X141440476Y-87635533D02*
X141440476Y-87540295D01*
X141440476Y-87540295D02*
X141488095Y-87445057D01*
X141488095Y-87445057D02*
X141535714Y-87397438D01*
X141535714Y-87397438D02*
X141630952Y-87349819D01*
X141630952Y-87349819D02*
X141869047Y-87349819D01*
X141869047Y-87349819D02*
X142011904Y-87397438D01*
X142345238Y-87349819D02*
X142583333Y-88349819D01*
X142583333Y-88349819D02*
X142773809Y-87635533D01*
X142773809Y-87635533D02*
X142964285Y-88349819D01*
X142964285Y-88349819D02*
X143202381Y-87349819D01*
X144107142Y-88349819D02*
X143535714Y-88349819D01*
X143821428Y-88349819D02*
X143821428Y-87349819D01*
X143821428Y-87349819D02*
X143726190Y-87492676D01*
X143726190Y-87492676D02*
X143630952Y-87587914D01*
X143630952Y-87587914D02*
X143535714Y-87635533D01*
X144964285Y-87683152D02*
X144964285Y-88349819D01*
X144726190Y-87302200D02*
X144488095Y-88016485D01*
X144488095Y-88016485D02*
X145107142Y-88016485D01*
X168050476Y-76353200D02*
X168193333Y-76400819D01*
X168193333Y-76400819D02*
X168431428Y-76400819D01*
X168431428Y-76400819D02*
X168526666Y-76353200D01*
X168526666Y-76353200D02*
X168574285Y-76305580D01*
X168574285Y-76305580D02*
X168621904Y-76210342D01*
X168621904Y-76210342D02*
X168621904Y-76115104D01*
X168621904Y-76115104D02*
X168574285Y-76019866D01*
X168574285Y-76019866D02*
X168526666Y-75972247D01*
X168526666Y-75972247D02*
X168431428Y-75924628D01*
X168431428Y-75924628D02*
X168240952Y-75877009D01*
X168240952Y-75877009D02*
X168145714Y-75829390D01*
X168145714Y-75829390D02*
X168098095Y-75781771D01*
X168098095Y-75781771D02*
X168050476Y-75686533D01*
X168050476Y-75686533D02*
X168050476Y-75591295D01*
X168050476Y-75591295D02*
X168098095Y-75496057D01*
X168098095Y-75496057D02*
X168145714Y-75448438D01*
X168145714Y-75448438D02*
X168240952Y-75400819D01*
X168240952Y-75400819D02*
X168479047Y-75400819D01*
X168479047Y-75400819D02*
X168621904Y-75448438D01*
X168955238Y-75400819D02*
X169193333Y-76400819D01*
X169193333Y-76400819D02*
X169383809Y-75686533D01*
X169383809Y-75686533D02*
X169574285Y-76400819D01*
X169574285Y-76400819D02*
X169812381Y-75400819D01*
X170717142Y-76400819D02*
X170145714Y-76400819D01*
X170431428Y-76400819D02*
X170431428Y-75400819D01*
X170431428Y-75400819D02*
X170336190Y-75543676D01*
X170336190Y-75543676D02*
X170240952Y-75638914D01*
X170240952Y-75638914D02*
X170145714Y-75686533D01*
X171621904Y-75400819D02*
X171145714Y-75400819D01*
X171145714Y-75400819D02*
X171098095Y-75877009D01*
X171098095Y-75877009D02*
X171145714Y-75829390D01*
X171145714Y-75829390D02*
X171240952Y-75781771D01*
X171240952Y-75781771D02*
X171479047Y-75781771D01*
X171479047Y-75781771D02*
X171574285Y-75829390D01*
X171574285Y-75829390D02*
X171621904Y-75877009D01*
X171621904Y-75877009D02*
X171669523Y-75972247D01*
X171669523Y-75972247D02*
X171669523Y-76210342D01*
X171669523Y-76210342D02*
X171621904Y-76305580D01*
X171621904Y-76305580D02*
X171574285Y-76353200D01*
X171574285Y-76353200D02*
X171479047Y-76400819D01*
X171479047Y-76400819D02*
X171240952Y-76400819D01*
X171240952Y-76400819D02*
X171145714Y-76353200D01*
X171145714Y-76353200D02*
X171098095Y-76305580D01*
X196818476Y-76353200D02*
X196961333Y-76400819D01*
X196961333Y-76400819D02*
X197199428Y-76400819D01*
X197199428Y-76400819D02*
X197294666Y-76353200D01*
X197294666Y-76353200D02*
X197342285Y-76305580D01*
X197342285Y-76305580D02*
X197389904Y-76210342D01*
X197389904Y-76210342D02*
X197389904Y-76115104D01*
X197389904Y-76115104D02*
X197342285Y-76019866D01*
X197342285Y-76019866D02*
X197294666Y-75972247D01*
X197294666Y-75972247D02*
X197199428Y-75924628D01*
X197199428Y-75924628D02*
X197008952Y-75877009D01*
X197008952Y-75877009D02*
X196913714Y-75829390D01*
X196913714Y-75829390D02*
X196866095Y-75781771D01*
X196866095Y-75781771D02*
X196818476Y-75686533D01*
X196818476Y-75686533D02*
X196818476Y-75591295D01*
X196818476Y-75591295D02*
X196866095Y-75496057D01*
X196866095Y-75496057D02*
X196913714Y-75448438D01*
X196913714Y-75448438D02*
X197008952Y-75400819D01*
X197008952Y-75400819D02*
X197247047Y-75400819D01*
X197247047Y-75400819D02*
X197389904Y-75448438D01*
X197723238Y-75400819D02*
X197961333Y-76400819D01*
X197961333Y-76400819D02*
X198151809Y-75686533D01*
X198151809Y-75686533D02*
X198342285Y-76400819D01*
X198342285Y-76400819D02*
X198580381Y-75400819D01*
X199485142Y-76400819D02*
X198913714Y-76400819D01*
X199199428Y-76400819D02*
X199199428Y-75400819D01*
X199199428Y-75400819D02*
X199104190Y-75543676D01*
X199104190Y-75543676D02*
X199008952Y-75638914D01*
X199008952Y-75638914D02*
X198913714Y-75686533D01*
X200342285Y-75400819D02*
X200151809Y-75400819D01*
X200151809Y-75400819D02*
X200056571Y-75448438D01*
X200056571Y-75448438D02*
X200008952Y-75496057D01*
X200008952Y-75496057D02*
X199913714Y-75638914D01*
X199913714Y-75638914D02*
X199866095Y-75829390D01*
X199866095Y-75829390D02*
X199866095Y-76210342D01*
X199866095Y-76210342D02*
X199913714Y-76305580D01*
X199913714Y-76305580D02*
X199961333Y-76353200D01*
X199961333Y-76353200D02*
X200056571Y-76400819D01*
X200056571Y-76400819D02*
X200247047Y-76400819D01*
X200247047Y-76400819D02*
X200342285Y-76353200D01*
X200342285Y-76353200D02*
X200389904Y-76305580D01*
X200389904Y-76305580D02*
X200437523Y-76210342D01*
X200437523Y-76210342D02*
X200437523Y-75972247D01*
X200437523Y-75972247D02*
X200389904Y-75877009D01*
X200389904Y-75877009D02*
X200342285Y-75829390D01*
X200342285Y-75829390D02*
X200247047Y-75781771D01*
X200247047Y-75781771D02*
X200056571Y-75781771D01*
X200056571Y-75781771D02*
X199961333Y-75829390D01*
X199961333Y-75829390D02*
X199913714Y-75877009D01*
X199913714Y-75877009D02*
X199866095Y-75972247D01*
X226110476Y-76353200D02*
X226253333Y-76400819D01*
X226253333Y-76400819D02*
X226491428Y-76400819D01*
X226491428Y-76400819D02*
X226586666Y-76353200D01*
X226586666Y-76353200D02*
X226634285Y-76305580D01*
X226634285Y-76305580D02*
X226681904Y-76210342D01*
X226681904Y-76210342D02*
X226681904Y-76115104D01*
X226681904Y-76115104D02*
X226634285Y-76019866D01*
X226634285Y-76019866D02*
X226586666Y-75972247D01*
X226586666Y-75972247D02*
X226491428Y-75924628D01*
X226491428Y-75924628D02*
X226300952Y-75877009D01*
X226300952Y-75877009D02*
X226205714Y-75829390D01*
X226205714Y-75829390D02*
X226158095Y-75781771D01*
X226158095Y-75781771D02*
X226110476Y-75686533D01*
X226110476Y-75686533D02*
X226110476Y-75591295D01*
X226110476Y-75591295D02*
X226158095Y-75496057D01*
X226158095Y-75496057D02*
X226205714Y-75448438D01*
X226205714Y-75448438D02*
X226300952Y-75400819D01*
X226300952Y-75400819D02*
X226539047Y-75400819D01*
X226539047Y-75400819D02*
X226681904Y-75448438D01*
X227015238Y-75400819D02*
X227253333Y-76400819D01*
X227253333Y-76400819D02*
X227443809Y-75686533D01*
X227443809Y-75686533D02*
X227634285Y-76400819D01*
X227634285Y-76400819D02*
X227872381Y-75400819D01*
X228777142Y-76400819D02*
X228205714Y-76400819D01*
X228491428Y-76400819D02*
X228491428Y-75400819D01*
X228491428Y-75400819D02*
X228396190Y-75543676D01*
X228396190Y-75543676D02*
X228300952Y-75638914D01*
X228300952Y-75638914D02*
X228205714Y-75686533D01*
X229110476Y-75400819D02*
X229777142Y-75400819D01*
X229777142Y-75400819D02*
X229348571Y-76400819D01*
X46238095Y-30054819D02*
X46238095Y-29054819D01*
X46238095Y-29531009D02*
X46809523Y-29531009D01*
X46809523Y-30054819D02*
X46809523Y-29054819D01*
X47809523Y-30054819D02*
X47238095Y-30054819D01*
X47523809Y-30054819D02*
X47523809Y-29054819D01*
X47523809Y-29054819D02*
X47428571Y-29197676D01*
X47428571Y-29197676D02*
X47333333Y-29292914D01*
X47333333Y-29292914D02*
X47238095Y-29340533D01*
X46238095Y-136054819D02*
X46238095Y-135054819D01*
X46238095Y-135531009D02*
X46809523Y-135531009D01*
X46809523Y-136054819D02*
X46809523Y-135054819D01*
X47714285Y-135388152D02*
X47714285Y-136054819D01*
X47476190Y-135007200D02*
X47238095Y-135721485D01*
X47238095Y-135721485D02*
X47857142Y-135721485D01*
X242238095Y-136054819D02*
X242238095Y-135054819D01*
X242238095Y-135531009D02*
X242809523Y-135531009D01*
X242809523Y-136054819D02*
X242809523Y-135054819D01*
X243714285Y-135054819D02*
X243523809Y-135054819D01*
X243523809Y-135054819D02*
X243428571Y-135102438D01*
X243428571Y-135102438D02*
X243380952Y-135150057D01*
X243380952Y-135150057D02*
X243285714Y-135292914D01*
X243285714Y-135292914D02*
X243238095Y-135483390D01*
X243238095Y-135483390D02*
X243238095Y-135864342D01*
X243238095Y-135864342D02*
X243285714Y-135959580D01*
X243285714Y-135959580D02*
X243333333Y-136007200D01*
X243333333Y-136007200D02*
X243428571Y-136054819D01*
X243428571Y-136054819D02*
X243619047Y-136054819D01*
X243619047Y-136054819D02*
X243714285Y-136007200D01*
X243714285Y-136007200D02*
X243761904Y-135959580D01*
X243761904Y-135959580D02*
X243809523Y-135864342D01*
X243809523Y-135864342D02*
X243809523Y-135626247D01*
X243809523Y-135626247D02*
X243761904Y-135531009D01*
X243761904Y-135531009D02*
X243714285Y-135483390D01*
X243714285Y-135483390D02*
X243619047Y-135435771D01*
X243619047Y-135435771D02*
X243428571Y-135435771D01*
X243428571Y-135435771D02*
X243333333Y-135483390D01*
X243333333Y-135483390D02*
X243285714Y-135531009D01*
X243285714Y-135531009D02*
X243238095Y-135626247D01*
X242238095Y-30054819D02*
X242238095Y-29054819D01*
X242238095Y-29531009D02*
X242809523Y-29531009D01*
X242809523Y-30054819D02*
X242809523Y-29054819D01*
X243190476Y-29054819D02*
X243809523Y-29054819D01*
X243809523Y-29054819D02*
X243476190Y-29435771D01*
X243476190Y-29435771D02*
X243619047Y-29435771D01*
X243619047Y-29435771D02*
X243714285Y-29483390D01*
X243714285Y-29483390D02*
X243761904Y-29531009D01*
X243761904Y-29531009D02*
X243809523Y-29626247D01*
X243809523Y-29626247D02*
X243809523Y-29864342D01*
X243809523Y-29864342D02*
X243761904Y-29959580D01*
X243761904Y-29959580D02*
X243714285Y-30007200D01*
X243714285Y-30007200D02*
X243619047Y-30054819D01*
X243619047Y-30054819D02*
X243333333Y-30054819D01*
X243333333Y-30054819D02*
X243238095Y-30007200D01*
X243238095Y-30007200D02*
X243190476Y-29959580D01*
X56891667Y-57202200D02*
X57034524Y-57249819D01*
X57034524Y-57249819D02*
X57272619Y-57249819D01*
X57272619Y-57249819D02*
X57367857Y-57202200D01*
X57367857Y-57202200D02*
X57415476Y-57154580D01*
X57415476Y-57154580D02*
X57463095Y-57059342D01*
X57463095Y-57059342D02*
X57463095Y-56964104D01*
X57463095Y-56964104D02*
X57415476Y-56868866D01*
X57415476Y-56868866D02*
X57367857Y-56821247D01*
X57367857Y-56821247D02*
X57272619Y-56773628D01*
X57272619Y-56773628D02*
X57082143Y-56726009D01*
X57082143Y-56726009D02*
X56986905Y-56678390D01*
X56986905Y-56678390D02*
X56939286Y-56630771D01*
X56939286Y-56630771D02*
X56891667Y-56535533D01*
X56891667Y-56535533D02*
X56891667Y-56440295D01*
X56891667Y-56440295D02*
X56939286Y-56345057D01*
X56939286Y-56345057D02*
X56986905Y-56297438D01*
X56986905Y-56297438D02*
X57082143Y-56249819D01*
X57082143Y-56249819D02*
X57320238Y-56249819D01*
X57320238Y-56249819D02*
X57463095Y-56297438D01*
X57796429Y-56249819D02*
X58034524Y-57249819D01*
X58034524Y-57249819D02*
X58225000Y-56535533D01*
X58225000Y-56535533D02*
X58415476Y-57249819D01*
X58415476Y-57249819D02*
X58653572Y-56249819D01*
X58939286Y-56249819D02*
X59605952Y-56249819D01*
X59605952Y-56249819D02*
X59177381Y-57249819D01*
X149238095Y-30054819D02*
X149238095Y-29054819D01*
X149238095Y-29531009D02*
X149809523Y-29531009D01*
X149809523Y-30054819D02*
X149809523Y-29054819D01*
X150238095Y-29150057D02*
X150285714Y-29102438D01*
X150285714Y-29102438D02*
X150380952Y-29054819D01*
X150380952Y-29054819D02*
X150619047Y-29054819D01*
X150619047Y-29054819D02*
X150714285Y-29102438D01*
X150714285Y-29102438D02*
X150761904Y-29150057D01*
X150761904Y-29150057D02*
X150809523Y-29245295D01*
X150809523Y-29245295D02*
X150809523Y-29340533D01*
X150809523Y-29340533D02*
X150761904Y-29483390D01*
X150761904Y-29483390D02*
X150190476Y-30054819D01*
X150190476Y-30054819D02*
X150809523Y-30054819D01*
X86907200Y-41083332D02*
X86954819Y-40940475D01*
X86954819Y-40940475D02*
X86954819Y-40702380D01*
X86954819Y-40702380D02*
X86907200Y-40607142D01*
X86907200Y-40607142D02*
X86859580Y-40559523D01*
X86859580Y-40559523D02*
X86764342Y-40511904D01*
X86764342Y-40511904D02*
X86669104Y-40511904D01*
X86669104Y-40511904D02*
X86573866Y-40559523D01*
X86573866Y-40559523D02*
X86526247Y-40607142D01*
X86526247Y-40607142D02*
X86478628Y-40702380D01*
X86478628Y-40702380D02*
X86431009Y-40892856D01*
X86431009Y-40892856D02*
X86383390Y-40988094D01*
X86383390Y-40988094D02*
X86335771Y-41035713D01*
X86335771Y-41035713D02*
X86240533Y-41083332D01*
X86240533Y-41083332D02*
X86145295Y-41083332D01*
X86145295Y-41083332D02*
X86050057Y-41035713D01*
X86050057Y-41035713D02*
X86002438Y-40988094D01*
X86002438Y-40988094D02*
X85954819Y-40892856D01*
X85954819Y-40892856D02*
X85954819Y-40654761D01*
X85954819Y-40654761D02*
X86002438Y-40511904D01*
X85954819Y-40178570D02*
X86954819Y-39940475D01*
X86954819Y-39940475D02*
X86240533Y-39749999D01*
X86240533Y-39749999D02*
X86954819Y-39559523D01*
X86954819Y-39559523D02*
X85954819Y-39321428D01*
X86288152Y-38511904D02*
X86954819Y-38511904D01*
X85907200Y-38749999D02*
X86621485Y-38988094D01*
X86621485Y-38988094D02*
X86621485Y-38369047D01*
X63907200Y-41083332D02*
X63954819Y-40940475D01*
X63954819Y-40940475D02*
X63954819Y-40702380D01*
X63954819Y-40702380D02*
X63907200Y-40607142D01*
X63907200Y-40607142D02*
X63859580Y-40559523D01*
X63859580Y-40559523D02*
X63764342Y-40511904D01*
X63764342Y-40511904D02*
X63669104Y-40511904D01*
X63669104Y-40511904D02*
X63573866Y-40559523D01*
X63573866Y-40559523D02*
X63526247Y-40607142D01*
X63526247Y-40607142D02*
X63478628Y-40702380D01*
X63478628Y-40702380D02*
X63431009Y-40892856D01*
X63431009Y-40892856D02*
X63383390Y-40988094D01*
X63383390Y-40988094D02*
X63335771Y-41035713D01*
X63335771Y-41035713D02*
X63240533Y-41083332D01*
X63240533Y-41083332D02*
X63145295Y-41083332D01*
X63145295Y-41083332D02*
X63050057Y-41035713D01*
X63050057Y-41035713D02*
X63002438Y-40988094D01*
X63002438Y-40988094D02*
X62954819Y-40892856D01*
X62954819Y-40892856D02*
X62954819Y-40654761D01*
X62954819Y-40654761D02*
X63002438Y-40511904D01*
X62954819Y-40178570D02*
X63954819Y-39940475D01*
X63954819Y-39940475D02*
X63240533Y-39749999D01*
X63240533Y-39749999D02*
X63954819Y-39559523D01*
X63954819Y-39559523D02*
X62954819Y-39321428D01*
X63050057Y-38988094D02*
X63002438Y-38940475D01*
X63002438Y-38940475D02*
X62954819Y-38845237D01*
X62954819Y-38845237D02*
X62954819Y-38607142D01*
X62954819Y-38607142D02*
X63002438Y-38511904D01*
X63002438Y-38511904D02*
X63050057Y-38464285D01*
X63050057Y-38464285D02*
X63145295Y-38416666D01*
X63145295Y-38416666D02*
X63240533Y-38416666D01*
X63240533Y-38416666D02*
X63383390Y-38464285D01*
X63383390Y-38464285D02*
X63954819Y-39035713D01*
X63954819Y-39035713D02*
X63954819Y-38416666D01*
X96907200Y-41083332D02*
X96954819Y-40940475D01*
X96954819Y-40940475D02*
X96954819Y-40702380D01*
X96954819Y-40702380D02*
X96907200Y-40607142D01*
X96907200Y-40607142D02*
X96859580Y-40559523D01*
X96859580Y-40559523D02*
X96764342Y-40511904D01*
X96764342Y-40511904D02*
X96669104Y-40511904D01*
X96669104Y-40511904D02*
X96573866Y-40559523D01*
X96573866Y-40559523D02*
X96526247Y-40607142D01*
X96526247Y-40607142D02*
X96478628Y-40702380D01*
X96478628Y-40702380D02*
X96431009Y-40892856D01*
X96431009Y-40892856D02*
X96383390Y-40988094D01*
X96383390Y-40988094D02*
X96335771Y-41035713D01*
X96335771Y-41035713D02*
X96240533Y-41083332D01*
X96240533Y-41083332D02*
X96145295Y-41083332D01*
X96145295Y-41083332D02*
X96050057Y-41035713D01*
X96050057Y-41035713D02*
X96002438Y-40988094D01*
X96002438Y-40988094D02*
X95954819Y-40892856D01*
X95954819Y-40892856D02*
X95954819Y-40654761D01*
X95954819Y-40654761D02*
X96002438Y-40511904D01*
X95954819Y-40178570D02*
X96954819Y-39940475D01*
X96954819Y-39940475D02*
X96240533Y-39749999D01*
X96240533Y-39749999D02*
X96954819Y-39559523D01*
X96954819Y-39559523D02*
X95954819Y-39321428D01*
X95954819Y-38464285D02*
X95954819Y-38940475D01*
X95954819Y-38940475D02*
X96431009Y-38988094D01*
X96431009Y-38988094D02*
X96383390Y-38940475D01*
X96383390Y-38940475D02*
X96335771Y-38845237D01*
X96335771Y-38845237D02*
X96335771Y-38607142D01*
X96335771Y-38607142D02*
X96383390Y-38511904D01*
X96383390Y-38511904D02*
X96431009Y-38464285D01*
X96431009Y-38464285D02*
X96526247Y-38416666D01*
X96526247Y-38416666D02*
X96764342Y-38416666D01*
X96764342Y-38416666D02*
X96859580Y-38464285D01*
X96859580Y-38464285D02*
X96907200Y-38511904D01*
X96907200Y-38511904D02*
X96954819Y-38607142D01*
X96954819Y-38607142D02*
X96954819Y-38845237D01*
X96954819Y-38845237D02*
X96907200Y-38940475D01*
X96907200Y-38940475D02*
X96859580Y-38988094D01*
X161393524Y-107595200D02*
X161536381Y-107642819D01*
X161536381Y-107642819D02*
X161774476Y-107642819D01*
X161774476Y-107642819D02*
X161869714Y-107595200D01*
X161869714Y-107595200D02*
X161917333Y-107547580D01*
X161917333Y-107547580D02*
X161964952Y-107452342D01*
X161964952Y-107452342D02*
X161964952Y-107357104D01*
X161964952Y-107357104D02*
X161917333Y-107261866D01*
X161917333Y-107261866D02*
X161869714Y-107214247D01*
X161869714Y-107214247D02*
X161774476Y-107166628D01*
X161774476Y-107166628D02*
X161584000Y-107119009D01*
X161584000Y-107119009D02*
X161488762Y-107071390D01*
X161488762Y-107071390D02*
X161441143Y-107023771D01*
X161441143Y-107023771D02*
X161393524Y-106928533D01*
X161393524Y-106928533D02*
X161393524Y-106833295D01*
X161393524Y-106833295D02*
X161441143Y-106738057D01*
X161441143Y-106738057D02*
X161488762Y-106690438D01*
X161488762Y-106690438D02*
X161584000Y-106642819D01*
X161584000Y-106642819D02*
X161822095Y-106642819D01*
X161822095Y-106642819D02*
X161964952Y-106690438D01*
X162298286Y-106642819D02*
X162536381Y-107642819D01*
X162536381Y-107642819D02*
X162726857Y-106928533D01*
X162726857Y-106928533D02*
X162917333Y-107642819D01*
X162917333Y-107642819D02*
X163155429Y-106642819D01*
X164060190Y-107642819D02*
X163488762Y-107642819D01*
X163774476Y-107642819D02*
X163774476Y-106642819D01*
X163774476Y-106642819D02*
X163679238Y-106785676D01*
X163679238Y-106785676D02*
X163584000Y-106880914D01*
X163584000Y-106880914D02*
X163488762Y-106928533D01*
X164250667Y-107738057D02*
X165012571Y-107738057D01*
X165584000Y-107119009D02*
X165726857Y-107166628D01*
X165726857Y-107166628D02*
X165774476Y-107214247D01*
X165774476Y-107214247D02*
X165822095Y-107309485D01*
X165822095Y-107309485D02*
X165822095Y-107452342D01*
X165822095Y-107452342D02*
X165774476Y-107547580D01*
X165774476Y-107547580D02*
X165726857Y-107595200D01*
X165726857Y-107595200D02*
X165631619Y-107642819D01*
X165631619Y-107642819D02*
X165250667Y-107642819D01*
X165250667Y-107642819D02*
X165250667Y-106642819D01*
X165250667Y-106642819D02*
X165584000Y-106642819D01*
X165584000Y-106642819D02*
X165679238Y-106690438D01*
X165679238Y-106690438D02*
X165726857Y-106738057D01*
X165726857Y-106738057D02*
X165774476Y-106833295D01*
X165774476Y-106833295D02*
X165774476Y-106928533D01*
X165774476Y-106928533D02*
X165726857Y-107023771D01*
X165726857Y-107023771D02*
X165679238Y-107071390D01*
X165679238Y-107071390D02*
X165584000Y-107119009D01*
X165584000Y-107119009D02*
X165250667Y-107119009D01*
X166774476Y-107642819D02*
X166203048Y-107642819D01*
X166488762Y-107642819D02*
X166488762Y-106642819D01*
X166488762Y-106642819D02*
X166393524Y-106785676D01*
X166393524Y-106785676D02*
X166298286Y-106880914D01*
X166298286Y-106880914D02*
X166203048Y-106928533D01*
X191527635Y-107849200D02*
X191670492Y-107896819D01*
X191670492Y-107896819D02*
X191908587Y-107896819D01*
X191908587Y-107896819D02*
X192003825Y-107849200D01*
X192003825Y-107849200D02*
X192051444Y-107801580D01*
X192051444Y-107801580D02*
X192099063Y-107706342D01*
X192099063Y-107706342D02*
X192099063Y-107611104D01*
X192099063Y-107611104D02*
X192051444Y-107515866D01*
X192051444Y-107515866D02*
X192003825Y-107468247D01*
X192003825Y-107468247D02*
X191908587Y-107420628D01*
X191908587Y-107420628D02*
X191718111Y-107373009D01*
X191718111Y-107373009D02*
X191622873Y-107325390D01*
X191622873Y-107325390D02*
X191575254Y-107277771D01*
X191575254Y-107277771D02*
X191527635Y-107182533D01*
X191527635Y-107182533D02*
X191527635Y-107087295D01*
X191527635Y-107087295D02*
X191575254Y-106992057D01*
X191575254Y-106992057D02*
X191622873Y-106944438D01*
X191622873Y-106944438D02*
X191718111Y-106896819D01*
X191718111Y-106896819D02*
X191956206Y-106896819D01*
X191956206Y-106896819D02*
X192099063Y-106944438D01*
X192432397Y-106896819D02*
X192670492Y-107896819D01*
X192670492Y-107896819D02*
X192860968Y-107182533D01*
X192860968Y-107182533D02*
X193051444Y-107896819D01*
X193051444Y-107896819D02*
X193289540Y-106896819D01*
X193575254Y-106896819D02*
X194194301Y-106896819D01*
X194194301Y-106896819D02*
X193860968Y-107277771D01*
X193860968Y-107277771D02*
X194003825Y-107277771D01*
X194003825Y-107277771D02*
X194099063Y-107325390D01*
X194099063Y-107325390D02*
X194146682Y-107373009D01*
X194146682Y-107373009D02*
X194194301Y-107468247D01*
X194194301Y-107468247D02*
X194194301Y-107706342D01*
X194194301Y-107706342D02*
X194146682Y-107801580D01*
X194146682Y-107801580D02*
X194099063Y-107849200D01*
X194099063Y-107849200D02*
X194003825Y-107896819D01*
X194003825Y-107896819D02*
X193718111Y-107896819D01*
X193718111Y-107896819D02*
X193622873Y-107849200D01*
X193622873Y-107849200D02*
X193575254Y-107801580D01*
X194384778Y-107992057D02*
X195146682Y-107992057D01*
X195718111Y-107373009D02*
X195860968Y-107420628D01*
X195860968Y-107420628D02*
X195908587Y-107468247D01*
X195908587Y-107468247D02*
X195956206Y-107563485D01*
X195956206Y-107563485D02*
X195956206Y-107706342D01*
X195956206Y-107706342D02*
X195908587Y-107801580D01*
X195908587Y-107801580D02*
X195860968Y-107849200D01*
X195860968Y-107849200D02*
X195765730Y-107896819D01*
X195765730Y-107896819D02*
X195384778Y-107896819D01*
X195384778Y-107896819D02*
X195384778Y-106896819D01*
X195384778Y-106896819D02*
X195718111Y-106896819D01*
X195718111Y-106896819D02*
X195813349Y-106944438D01*
X195813349Y-106944438D02*
X195860968Y-106992057D01*
X195860968Y-106992057D02*
X195908587Y-107087295D01*
X195908587Y-107087295D02*
X195908587Y-107182533D01*
X195908587Y-107182533D02*
X195860968Y-107277771D01*
X195860968Y-107277771D02*
X195813349Y-107325390D01*
X195813349Y-107325390D02*
X195718111Y-107373009D01*
X195718111Y-107373009D02*
X195384778Y-107373009D01*
X196908587Y-107896819D02*
X196337159Y-107896819D01*
X196622873Y-107896819D02*
X196622873Y-106896819D01*
X196622873Y-106896819D02*
X196527635Y-107039676D01*
X196527635Y-107039676D02*
X196432397Y-107134914D01*
X196432397Y-107134914D02*
X196337159Y-107182533D01*
X106907200Y-41083332D02*
X106954819Y-40940475D01*
X106954819Y-40940475D02*
X106954819Y-40702380D01*
X106954819Y-40702380D02*
X106907200Y-40607142D01*
X106907200Y-40607142D02*
X106859580Y-40559523D01*
X106859580Y-40559523D02*
X106764342Y-40511904D01*
X106764342Y-40511904D02*
X106669104Y-40511904D01*
X106669104Y-40511904D02*
X106573866Y-40559523D01*
X106573866Y-40559523D02*
X106526247Y-40607142D01*
X106526247Y-40607142D02*
X106478628Y-40702380D01*
X106478628Y-40702380D02*
X106431009Y-40892856D01*
X106431009Y-40892856D02*
X106383390Y-40988094D01*
X106383390Y-40988094D02*
X106335771Y-41035713D01*
X106335771Y-41035713D02*
X106240533Y-41083332D01*
X106240533Y-41083332D02*
X106145295Y-41083332D01*
X106145295Y-41083332D02*
X106050057Y-41035713D01*
X106050057Y-41035713D02*
X106002438Y-40988094D01*
X106002438Y-40988094D02*
X105954819Y-40892856D01*
X105954819Y-40892856D02*
X105954819Y-40654761D01*
X105954819Y-40654761D02*
X106002438Y-40511904D01*
X105954819Y-40178570D02*
X106954819Y-39940475D01*
X106954819Y-39940475D02*
X106240533Y-39749999D01*
X106240533Y-39749999D02*
X106954819Y-39559523D01*
X106954819Y-39559523D02*
X105954819Y-39321428D01*
X105954819Y-38511904D02*
X105954819Y-38702380D01*
X105954819Y-38702380D02*
X106002438Y-38797618D01*
X106002438Y-38797618D02*
X106050057Y-38845237D01*
X106050057Y-38845237D02*
X106192914Y-38940475D01*
X106192914Y-38940475D02*
X106383390Y-38988094D01*
X106383390Y-38988094D02*
X106764342Y-38988094D01*
X106764342Y-38988094D02*
X106859580Y-38940475D01*
X106859580Y-38940475D02*
X106907200Y-38892856D01*
X106907200Y-38892856D02*
X106954819Y-38797618D01*
X106954819Y-38797618D02*
X106954819Y-38607142D01*
X106954819Y-38607142D02*
X106907200Y-38511904D01*
X106907200Y-38511904D02*
X106859580Y-38464285D01*
X106859580Y-38464285D02*
X106764342Y-38416666D01*
X106764342Y-38416666D02*
X106526247Y-38416666D01*
X106526247Y-38416666D02*
X106431009Y-38464285D01*
X106431009Y-38464285D02*
X106383390Y-38511904D01*
X106383390Y-38511904D02*
X106335771Y-38607142D01*
X106335771Y-38607142D02*
X106335771Y-38797618D01*
X106335771Y-38797618D02*
X106383390Y-38892856D01*
X106383390Y-38892856D02*
X106431009Y-38940475D01*
X106431009Y-38940475D02*
X106526247Y-38988094D01*
X132738095Y-71054819D02*
X132738095Y-70054819D01*
X132738095Y-70531009D02*
X133309523Y-70531009D01*
X133309523Y-71054819D02*
X133309523Y-70054819D01*
X133690476Y-70054819D02*
X134357142Y-70054819D01*
X134357142Y-70054819D02*
X133928571Y-71054819D01*
X149238095Y-136054819D02*
X149238095Y-135054819D01*
X149238095Y-135531009D02*
X149809523Y-135531009D01*
X149809523Y-136054819D02*
X149809523Y-135054819D01*
X150761904Y-135054819D02*
X150285714Y-135054819D01*
X150285714Y-135054819D02*
X150238095Y-135531009D01*
X150238095Y-135531009D02*
X150285714Y-135483390D01*
X150285714Y-135483390D02*
X150380952Y-135435771D01*
X150380952Y-135435771D02*
X150619047Y-135435771D01*
X150619047Y-135435771D02*
X150714285Y-135483390D01*
X150714285Y-135483390D02*
X150761904Y-135531009D01*
X150761904Y-135531009D02*
X150809523Y-135626247D01*
X150809523Y-135626247D02*
X150809523Y-135864342D01*
X150809523Y-135864342D02*
X150761904Y-135959580D01*
X150761904Y-135959580D02*
X150714285Y-136007200D01*
X150714285Y-136007200D02*
X150619047Y-136054819D01*
X150619047Y-136054819D02*
X150380952Y-136054819D01*
X150380952Y-136054819D02*
X150285714Y-136007200D01*
X150285714Y-136007200D02*
X150238095Y-135959580D01*
X128285714Y-56519104D02*
X128761904Y-56519104D01*
X128190476Y-56804819D02*
X128523809Y-55804819D01*
X128523809Y-55804819D02*
X128857142Y-56804819D01*
X129714285Y-56804819D02*
X129142857Y-56804819D01*
X129428571Y-56804819D02*
X129428571Y-55804819D01*
X129428571Y-55804819D02*
X129333333Y-55947676D01*
X129333333Y-55947676D02*
X129238095Y-56042914D01*
X129238095Y-56042914D02*
X129142857Y-56090533D01*
X73907200Y-41083332D02*
X73954819Y-40940475D01*
X73954819Y-40940475D02*
X73954819Y-40702380D01*
X73954819Y-40702380D02*
X73907200Y-40607142D01*
X73907200Y-40607142D02*
X73859580Y-40559523D01*
X73859580Y-40559523D02*
X73764342Y-40511904D01*
X73764342Y-40511904D02*
X73669104Y-40511904D01*
X73669104Y-40511904D02*
X73573866Y-40559523D01*
X73573866Y-40559523D02*
X73526247Y-40607142D01*
X73526247Y-40607142D02*
X73478628Y-40702380D01*
X73478628Y-40702380D02*
X73431009Y-40892856D01*
X73431009Y-40892856D02*
X73383390Y-40988094D01*
X73383390Y-40988094D02*
X73335771Y-41035713D01*
X73335771Y-41035713D02*
X73240533Y-41083332D01*
X73240533Y-41083332D02*
X73145295Y-41083332D01*
X73145295Y-41083332D02*
X73050057Y-41035713D01*
X73050057Y-41035713D02*
X73002438Y-40988094D01*
X73002438Y-40988094D02*
X72954819Y-40892856D01*
X72954819Y-40892856D02*
X72954819Y-40654761D01*
X72954819Y-40654761D02*
X73002438Y-40511904D01*
X72954819Y-40178570D02*
X73954819Y-39940475D01*
X73954819Y-39940475D02*
X73240533Y-39749999D01*
X73240533Y-39749999D02*
X73954819Y-39559523D01*
X73954819Y-39559523D02*
X72954819Y-39321428D01*
X72954819Y-39035713D02*
X72954819Y-38416666D01*
X72954819Y-38416666D02*
X73335771Y-38749999D01*
X73335771Y-38749999D02*
X73335771Y-38607142D01*
X73335771Y-38607142D02*
X73383390Y-38511904D01*
X73383390Y-38511904D02*
X73431009Y-38464285D01*
X73431009Y-38464285D02*
X73526247Y-38416666D01*
X73526247Y-38416666D02*
X73764342Y-38416666D01*
X73764342Y-38416666D02*
X73859580Y-38464285D01*
X73859580Y-38464285D02*
X73907200Y-38511904D01*
X73907200Y-38511904D02*
X73954819Y-38607142D01*
X73954819Y-38607142D02*
X73954819Y-38892856D01*
X73954819Y-38892856D02*
X73907200Y-38988094D01*
X73907200Y-38988094D02*
X73859580Y-39035713D01*
X53907200Y-41083332D02*
X53954819Y-40940475D01*
X53954819Y-40940475D02*
X53954819Y-40702380D01*
X53954819Y-40702380D02*
X53907200Y-40607142D01*
X53907200Y-40607142D02*
X53859580Y-40559523D01*
X53859580Y-40559523D02*
X53764342Y-40511904D01*
X53764342Y-40511904D02*
X53669104Y-40511904D01*
X53669104Y-40511904D02*
X53573866Y-40559523D01*
X53573866Y-40559523D02*
X53526247Y-40607142D01*
X53526247Y-40607142D02*
X53478628Y-40702380D01*
X53478628Y-40702380D02*
X53431009Y-40892856D01*
X53431009Y-40892856D02*
X53383390Y-40988094D01*
X53383390Y-40988094D02*
X53335771Y-41035713D01*
X53335771Y-41035713D02*
X53240533Y-41083332D01*
X53240533Y-41083332D02*
X53145295Y-41083332D01*
X53145295Y-41083332D02*
X53050057Y-41035713D01*
X53050057Y-41035713D02*
X53002438Y-40988094D01*
X53002438Y-40988094D02*
X52954819Y-40892856D01*
X52954819Y-40892856D02*
X52954819Y-40654761D01*
X52954819Y-40654761D02*
X53002438Y-40511904D01*
X52954819Y-40178570D02*
X53954819Y-39940475D01*
X53954819Y-39940475D02*
X53240533Y-39749999D01*
X53240533Y-39749999D02*
X53954819Y-39559523D01*
X53954819Y-39559523D02*
X52954819Y-39321428D01*
X53954819Y-38416666D02*
X53954819Y-38988094D01*
X53954819Y-38702380D02*
X52954819Y-38702380D01*
X52954819Y-38702380D02*
X53097676Y-38797618D01*
X53097676Y-38797618D02*
X53192914Y-38892856D01*
X53192914Y-38892856D02*
X53240533Y-38988094D01*
X80320000Y-59170000D02*
X80320000Y-58170000D01*
X80320000Y-72170000D02*
X80320000Y-71170000D01*
X80320000Y-72170000D02*
X81320000Y-72170000D01*
X81320000Y-58170000D02*
X80320000Y-58170000D01*
X93320000Y-72170000D02*
X94320000Y-72170000D01*
X94320000Y-58170000D02*
X93320000Y-58170000D01*
X94320000Y-58170000D02*
X94320000Y-59170000D01*
X94320000Y-71170000D02*
X94320000Y-72170000D01*
X106920000Y-70520000D02*
X106920000Y-69520000D01*
X106920000Y-83520000D02*
X106920000Y-82520000D01*
X106920000Y-83520000D02*
X107920000Y-83520000D01*
X107920000Y-69520000D02*
X106920000Y-69520000D01*
X119920000Y-83520000D02*
X120920000Y-83520000D01*
X120920000Y-69520000D02*
X119920000Y-69520000D01*
X120920000Y-69520000D02*
X120920000Y-70520000D01*
X120920000Y-82520000D02*
X120920000Y-83520000D01*
X124420000Y-123620000D02*
X124420000Y-122620000D01*
X124420000Y-136620000D02*
X124420000Y-135620000D01*
X124420000Y-136620000D02*
X125420000Y-136620000D01*
X125420000Y-122620000D02*
X124420000Y-122620000D01*
X137420000Y-136620000D02*
X138420000Y-136620000D01*
X138420000Y-122620000D02*
X137420000Y-122620000D01*
X138420000Y-122620000D02*
X138420000Y-123620000D01*
X138420000Y-135620000D02*
X138420000Y-136620000D01*
X141860000Y-59110000D02*
X141860000Y-58110000D01*
X141860000Y-72110000D02*
X141860000Y-71110000D01*
X141860000Y-72110000D02*
X142860000Y-72110000D01*
X142860000Y-58110000D02*
X141860000Y-58110000D01*
X154860000Y-72110000D02*
X155860000Y-72110000D01*
X155860000Y-58110000D02*
X154860000Y-58110000D01*
X155860000Y-58110000D02*
X155860000Y-59110000D01*
X155860000Y-71110000D02*
X155860000Y-72110000D01*
X168420000Y-47580000D02*
X168420000Y-46580000D01*
X168420000Y-60580000D02*
X168420000Y-59580000D01*
X168420000Y-60580000D02*
X169420000Y-60580000D01*
X169420000Y-46580000D02*
X168420000Y-46580000D01*
X181420000Y-60580000D02*
X182420000Y-60580000D01*
X182420000Y-46580000D02*
X181420000Y-46580000D01*
X182420000Y-46580000D02*
X182420000Y-47580000D01*
X182420000Y-59580000D02*
X182420000Y-60580000D01*
X197390000Y-47460000D02*
X197390000Y-46460000D01*
X197390000Y-60460000D02*
X197390000Y-59460000D01*
X197390000Y-60460000D02*
X198390000Y-60460000D01*
X198390000Y-46460000D02*
X197390000Y-46460000D01*
X210390000Y-60460000D02*
X211390000Y-60460000D01*
X211390000Y-46460000D02*
X210390000Y-46460000D01*
X211390000Y-46460000D02*
X211390000Y-47460000D01*
X211390000Y-59460000D02*
X211390000Y-60460000D01*
X226360000Y-47700000D02*
X226360000Y-46700000D01*
X226360000Y-60700000D02*
X226360000Y-59700000D01*
X226360000Y-60700000D02*
X227360000Y-60700000D01*
X227360000Y-46700000D02*
X226360000Y-46700000D01*
X239360000Y-60700000D02*
X240360000Y-60700000D01*
X240360000Y-46700000D02*
X239360000Y-46700000D01*
X240360000Y-46700000D02*
X240360000Y-47700000D01*
X240360000Y-59700000D02*
X240360000Y-60700000D01*
X136250000Y-90150000D02*
X136250000Y-89150000D01*
X136250000Y-103150000D02*
X136250000Y-102150000D01*
X136250000Y-103150000D02*
X137250000Y-103150000D01*
X137250000Y-89150000D02*
X136250000Y-89150000D01*
X149250000Y-103150000D02*
X150250000Y-103150000D01*
X150250000Y-89150000D02*
X149250000Y-89150000D01*
X150250000Y-89150000D02*
X150250000Y-90150000D01*
X150250000Y-102150000D02*
X150250000Y-103150000D01*
X162860000Y-79040000D02*
X162860000Y-78040000D01*
X162860000Y-92040000D02*
X162860000Y-91040000D01*
X162860000Y-92040000D02*
X163860000Y-92040000D01*
X163860000Y-78040000D02*
X162860000Y-78040000D01*
X175860000Y-92040000D02*
X176860000Y-92040000D01*
X176860000Y-78040000D02*
X175860000Y-78040000D01*
X176860000Y-78040000D02*
X176860000Y-79040000D01*
X176860000Y-91040000D02*
X176860000Y-92040000D01*
X191710000Y-79040000D02*
X191710000Y-78040000D01*
X191710000Y-92040000D02*
X191710000Y-91040000D01*
X191710000Y-92040000D02*
X192710000Y-92040000D01*
X192710000Y-78040000D02*
X191710000Y-78040000D01*
X204710000Y-92040000D02*
X205710000Y-92040000D01*
X205710000Y-78040000D02*
X204710000Y-78040000D01*
X205710000Y-78040000D02*
X205710000Y-79040000D01*
X205710000Y-91040000D02*
X205710000Y-92040000D01*
X220920000Y-79040000D02*
X220920000Y-78040000D01*
X220920000Y-92040000D02*
X220920000Y-91040000D01*
X220920000Y-92040000D02*
X221920000Y-92040000D01*
X221920000Y-78040000D02*
X220920000Y-78040000D01*
X233920000Y-92040000D02*
X234920000Y-92040000D01*
X234920000Y-78040000D02*
X233920000Y-78040000D01*
X234920000Y-78040000D02*
X234920000Y-79040000D01*
X234920000Y-91040000D02*
X234920000Y-92040000D01*
X51225000Y-59050000D02*
X51225000Y-58050000D01*
X51225000Y-72050000D02*
X51225000Y-71050000D01*
X51225000Y-72050000D02*
X52225000Y-72050000D01*
X52225000Y-58050000D02*
X51225000Y-58050000D01*
X64225000Y-72050000D02*
X65225000Y-72050000D01*
X65225000Y-58050000D02*
X64225000Y-58050000D01*
X65225000Y-58050000D02*
X65225000Y-59050000D01*
X65225000Y-71050000D02*
X65225000Y-72050000D01*
D14*
X90000000Y-43250000D02*
X91500000Y-43250000D01*
X94000000Y-42000000D02*
X94000000Y-37500000D01*
X87500000Y-37500000D02*
X87500000Y-42000000D01*
X91500000Y-36250000D02*
X90000000Y-36250000D01*
X67000000Y-43250000D02*
X68500000Y-43250000D01*
X71000000Y-42000000D02*
X71000000Y-37500000D01*
X64500000Y-37500000D02*
X64500000Y-42000000D01*
X68500000Y-36250000D02*
X67000000Y-36250000D01*
X100000000Y-43250000D02*
X101500000Y-43250000D01*
X104000000Y-42000000D02*
X104000000Y-37500000D01*
X97500000Y-37500000D02*
X97500000Y-42000000D01*
X101500000Y-36250000D02*
X100000000Y-36250000D01*
D11*
X157084000Y-110332000D02*
X157084000Y-109332000D01*
X157084000Y-123332000D02*
X157084000Y-122332000D01*
X157084000Y-123332000D02*
X158084000Y-123332000D01*
X158084000Y-109332000D02*
X157084000Y-109332000D01*
X170084000Y-123332000D02*
X171084000Y-123332000D01*
X171084000Y-109332000D02*
X170084000Y-109332000D01*
X171084000Y-109332000D02*
X171084000Y-110332000D01*
X171084000Y-122332000D02*
X171084000Y-123332000D01*
X187218111Y-110586000D02*
X187218111Y-109586000D01*
X187218111Y-123586000D02*
X187218111Y-122586000D01*
X187218111Y-123586000D02*
X188218111Y-123586000D01*
X188218111Y-109586000D02*
X187218111Y-109586000D01*
X200218111Y-123586000D02*
X201218111Y-123586000D01*
X201218111Y-109586000D02*
X200218111Y-109586000D01*
X201218111Y-109586000D02*
X201218111Y-110586000D01*
X201218111Y-122586000D02*
X201218111Y-123586000D01*
D14*
X110000000Y-43250000D02*
X111500000Y-43250000D01*
X114000000Y-42000000D02*
X114000000Y-37500000D01*
X107500000Y-37500000D02*
X107500000Y-42000000D01*
X111500000Y-36250000D02*
X110000000Y-36250000D01*
X120000000Y-53750000D02*
X119000000Y-53750000D01*
X120000000Y-53750000D02*
X120000000Y-54750000D01*
X138000000Y-53750000D02*
X138000000Y-54750000D01*
X138000000Y-53750000D02*
X139000000Y-53750000D01*
X77000000Y-43250000D02*
X78500000Y-43250000D01*
X81000000Y-42000000D02*
X81000000Y-37500000D01*
X74500000Y-37500000D02*
X74500000Y-42000000D01*
X78500000Y-36250000D02*
X77000000Y-36250000D01*
X57000000Y-43250000D02*
X58500000Y-43250000D01*
X61000000Y-42000000D02*
X61000000Y-37500000D01*
X54500000Y-37500000D02*
X54500000Y-42000000D01*
X58500000Y-36250000D02*
X57000000Y-36250000D01*
%LPC*%
D15*
X81820000Y-65170000D03*
D16*
X87320000Y-59220000D03*
D17*
X87320000Y-65170000D03*
D16*
X92320000Y-61420000D03*
D15*
X92820000Y-65170000D03*
D18*
X87320000Y-71070000D03*
X82320000Y-68970000D03*
D15*
X108420000Y-76520000D03*
D16*
X113920000Y-70570000D03*
D17*
X113920000Y-76520000D03*
D16*
X118920000Y-72770000D03*
D15*
X119420000Y-76520000D03*
D18*
X113920000Y-82420000D03*
X108920000Y-80320000D03*
D15*
X125920000Y-129620000D03*
D16*
X131420000Y-123670000D03*
D17*
X131420000Y-129620000D03*
D16*
X136420000Y-125870000D03*
D15*
X136920000Y-129620000D03*
D18*
X131420000Y-135520000D03*
X126420000Y-133420000D03*
D15*
X143360000Y-65110000D03*
D16*
X148860000Y-59160000D03*
D17*
X148860000Y-65110000D03*
D16*
X153860000Y-61360000D03*
D15*
X154360000Y-65110000D03*
D18*
X148860000Y-71010000D03*
X143860000Y-68910000D03*
D15*
X169920000Y-53580000D03*
D16*
X175420000Y-47630000D03*
D17*
X175420000Y-53580000D03*
D16*
X180420000Y-49830000D03*
D15*
X180920000Y-53580000D03*
D18*
X175420000Y-59480000D03*
X170420000Y-57380000D03*
D15*
X198890000Y-53460000D03*
D16*
X204390000Y-47510000D03*
D17*
X204390000Y-53460000D03*
D16*
X209390000Y-49710000D03*
D15*
X209890000Y-53460000D03*
D18*
X204390000Y-59360000D03*
X199390000Y-57260000D03*
D15*
X227860000Y-53700000D03*
D16*
X233360000Y-47750000D03*
D17*
X233360000Y-53700000D03*
D16*
X238360000Y-49950000D03*
D15*
X238860000Y-53700000D03*
D18*
X233360000Y-59600000D03*
X228360000Y-57500000D03*
D15*
X137750000Y-96150000D03*
D16*
X143250000Y-90200000D03*
D17*
X143250000Y-96150000D03*
D16*
X148250000Y-92400000D03*
D15*
X148750000Y-96150000D03*
D18*
X143250000Y-102050000D03*
X138250000Y-99950000D03*
D15*
X164360000Y-85040000D03*
D16*
X169860000Y-79090000D03*
D17*
X169860000Y-85040000D03*
D16*
X174860000Y-81290000D03*
D15*
X175360000Y-85040000D03*
D18*
X169860000Y-90940000D03*
X164860000Y-88840000D03*
D15*
X193210000Y-85040000D03*
D16*
X198710000Y-79090000D03*
D17*
X198710000Y-85040000D03*
D16*
X203710000Y-81290000D03*
D15*
X204210000Y-85040000D03*
D18*
X198710000Y-90940000D03*
X193710000Y-88840000D03*
D15*
X222420000Y-85040000D03*
D16*
X227920000Y-79090000D03*
D17*
X227920000Y-85040000D03*
D16*
X232920000Y-81290000D03*
D15*
X233420000Y-85040000D03*
D18*
X227920000Y-90940000D03*
X222920000Y-88840000D03*
D19*
X47000000Y-37000000D03*
X47000000Y-143000000D03*
X243000000Y-143000000D03*
X243000000Y-37000000D03*
D15*
X52725000Y-65050000D03*
D16*
X58225000Y-59100000D03*
D17*
X58225000Y-65050000D03*
D16*
X63225000Y-61300000D03*
D15*
X63725000Y-65050000D03*
D18*
X58225000Y-70950000D03*
X53225000Y-68850000D03*
D19*
X150000000Y-37000000D03*
D20*
X88500000Y-43000000D03*
X88500000Y-36500000D03*
X93000000Y-43000000D03*
X93000000Y-36500000D03*
X65500000Y-43000000D03*
X65500000Y-36500000D03*
X70000000Y-43000000D03*
X70000000Y-36500000D03*
X98500000Y-43000000D03*
X98500000Y-36500000D03*
X103000000Y-43000000D03*
X103000000Y-36500000D03*
D15*
X158584000Y-116332000D03*
D16*
X164084000Y-110382000D03*
D17*
X164084000Y-116332000D03*
D16*
X169084000Y-112582000D03*
D15*
X169584000Y-116332000D03*
D18*
X164084000Y-122232000D03*
X159084000Y-120132000D03*
D15*
X188718111Y-116586000D03*
D16*
X194218111Y-110636000D03*
D17*
X194218111Y-116586000D03*
D16*
X199218111Y-112836000D03*
D15*
X199718111Y-116586000D03*
D18*
X194218111Y-122486000D03*
X189218111Y-120386000D03*
D20*
X108500000Y-43000000D03*
X108500000Y-36500000D03*
X113000000Y-43000000D03*
X113000000Y-36500000D03*
D19*
X133500000Y-78000000D03*
X150000000Y-143000000D03*
D21*
X138160000Y-31840000D03*
X138160000Y-34380000D03*
X138160000Y-36920000D03*
X138160000Y-39460000D03*
X138160000Y-42000000D03*
X138160000Y-44540000D03*
X138160000Y-47080000D03*
X138160000Y-49620000D03*
X138160000Y-52160000D03*
D22*
X134080000Y-53700000D03*
X131540000Y-53700000D03*
X129000000Y-53700000D03*
X126460000Y-53700000D03*
D23*
X123920000Y-53700000D03*
D21*
X119840000Y-52160000D03*
X119840000Y-49620000D03*
X119840000Y-47080000D03*
X119840000Y-44540000D03*
X119840000Y-42000000D03*
X119840000Y-39460000D03*
X119840000Y-36920000D03*
X119840000Y-31840000D03*
X119840000Y-34380000D03*
D20*
X75500000Y-43000000D03*
X75500000Y-36500000D03*
X80000000Y-43000000D03*
X80000000Y-36500000D03*
X55500000Y-43000000D03*
X55500000Y-36500000D03*
X60000000Y-43000000D03*
X60000000Y-36500000D03*
%LPD*%
M02*
