%TF.GenerationSoftware,KiCad,Pcbnew,7.0.5*%
%TF.CreationDate,2023-08-12T18:12:26-04:00*%
%TF.ProjectId,Flatbox-rev5B,466c6174-626f-4782-9d72-657635422e6b,rev?*%
%TF.SameCoordinates,Original*%
%TF.FileFunction,Drillmap*%
%TF.FilePolarity,Positive*%
%FSLAX45Y45*%
G04 Gerber Fmt 4.5, Leading zero omitted, Abs format (unit mm)*
G04 Created by KiCad (PCBNEW 7.0.5) date 2023-08-12 18:12:26*
%MOMM*%
%LPD*%
G01*
G04 APERTURE LIST*
%ADD10C,0.050000*%
%ADD11C,0.200000*%
%ADD12C,0.040000*%
%ADD13C,0.110000*%
%ADD14C,0.127000*%
G04 APERTURE END LIST*
D10*
X25000000Y-3500000D02*
X25000000Y-14500000D01*
X24500000Y-15000000D02*
X4500000Y-15000000D01*
X4000000Y-14500000D02*
X4000000Y-3500000D01*
X4500000Y-3000000D02*
X12200000Y-3000000D01*
X13600000Y-3000000D02*
X24500000Y-3000000D01*
X12200000Y-3000000D02*
X12200000Y-5150000D01*
X4500000Y-3000000D02*
G75*
G03*
X4000000Y-3500000I0J-500000D01*
G01*
X13600000Y-5150000D02*
X13600000Y-3000000D01*
X4000000Y-14500000D02*
G75*
G03*
X4500000Y-15000000I500000J0D01*
G01*
X24500000Y-15000000D02*
G75*
G03*
X25000000Y-14500000I0J500000D01*
G01*
X25000000Y-3500000D02*
G75*
G03*
X24500000Y-3000000I-500000J0D01*
G01*
X12200000Y-5150000D02*
X13600000Y-5150000D01*
D11*
D12*
X11720000Y-3420000D02*
X11760000Y-3460000D01*
X11760000Y-3420000D02*
X11720000Y-3460000D01*
X11867200Y-4805850D02*
X11907200Y-4845850D01*
X11907200Y-4805850D02*
X11867200Y-4845850D01*
X11867200Y-5441000D02*
X11907200Y-5481000D01*
X11907200Y-5441000D02*
X11867200Y-5481000D01*
X12857800Y-6152200D02*
X12897800Y-6192200D01*
X12897800Y-6152200D02*
X12857800Y-6192200D01*
X12857800Y-6431600D02*
X12897800Y-6471600D01*
X12897800Y-6431600D02*
X12857800Y-6471600D01*
D13*
X5605000Y-3650000D02*
G75*
G03*
X5605000Y-3650000I-55000J0D01*
G01*
X5605000Y-4300000D02*
G75*
G03*
X5605000Y-4300000I-55000J0D01*
G01*
X6055000Y-3650000D02*
G75*
G03*
X6055000Y-3650000I-55000J0D01*
G01*
X6055000Y-4300000D02*
G75*
G03*
X6055000Y-4300000I-55000J0D01*
G01*
X6605000Y-3650000D02*
G75*
G03*
X6605000Y-3650000I-55000J0D01*
G01*
X6605000Y-4300000D02*
G75*
G03*
X6605000Y-4300000I-55000J0D01*
G01*
X7055000Y-3650000D02*
G75*
G03*
X7055000Y-3650000I-55000J0D01*
G01*
X7055000Y-4300000D02*
G75*
G03*
X7055000Y-4300000I-55000J0D01*
G01*
X7605000Y-3650000D02*
G75*
G03*
X7605000Y-3650000I-55000J0D01*
G01*
X7605000Y-4300000D02*
G75*
G03*
X7605000Y-4300000I-55000J0D01*
G01*
X8055000Y-3650000D02*
G75*
G03*
X8055000Y-3650000I-55000J0D01*
G01*
X8055000Y-4300000D02*
G75*
G03*
X8055000Y-4300000I-55000J0D01*
G01*
X8905000Y-3650000D02*
G75*
G03*
X8905000Y-3650000I-55000J0D01*
G01*
X8905000Y-4300000D02*
G75*
G03*
X8905000Y-4300000I-55000J0D01*
G01*
X9355000Y-3650000D02*
G75*
G03*
X9355000Y-3650000I-55000J0D01*
G01*
X9355000Y-4300000D02*
G75*
G03*
X9355000Y-4300000I-55000J0D01*
G01*
X9905000Y-3650000D02*
G75*
G03*
X9905000Y-3650000I-55000J0D01*
G01*
X9905000Y-4300000D02*
G75*
G03*
X9905000Y-4300000I-55000J0D01*
G01*
X10355000Y-3650000D02*
G75*
G03*
X10355000Y-3650000I-55000J0D01*
G01*
X10355000Y-4300000D02*
G75*
G03*
X10355000Y-4300000I-55000J0D01*
G01*
X10905000Y-3650000D02*
G75*
G03*
X10905000Y-3650000I-55000J0D01*
G01*
X10905000Y-4300000D02*
G75*
G03*
X10905000Y-4300000I-55000J0D01*
G01*
X11355000Y-3650000D02*
G75*
G03*
X11355000Y-3650000I-55000J0D01*
G01*
X11355000Y-4300000D02*
G75*
G03*
X11355000Y-4300000I-55000J0D01*
G01*
D14*
X5322500Y-6821500D02*
X5322500Y-6948500D01*
X5259000Y-6885000D02*
X5386000Y-6885000D01*
X5822500Y-7031500D02*
X5822500Y-7158500D01*
X5759000Y-7095000D02*
X5886000Y-7095000D01*
X8232000Y-6833500D02*
X8232000Y-6960500D01*
X8168500Y-6897000D02*
X8295500Y-6897000D01*
X8732000Y-7043500D02*
X8732000Y-7170500D01*
X8668500Y-7107000D02*
X8795500Y-7107000D01*
X10892000Y-7968500D02*
X10892000Y-8095500D01*
X10828500Y-8032000D02*
X10955500Y-8032000D01*
X11392000Y-8178500D02*
X11392000Y-8305500D01*
X11328500Y-8242000D02*
X11455500Y-8242000D01*
X12642000Y-13278500D02*
X12642000Y-13405500D01*
X12578500Y-13342000D02*
X12705500Y-13342000D01*
X13142000Y-13488500D02*
X13142000Y-13615500D01*
X13078500Y-13552000D02*
X13205500Y-13552000D01*
X13825000Y-9931500D02*
X13825000Y-10058500D01*
X13761500Y-9995000D02*
X13888500Y-9995000D01*
X14325000Y-10141500D02*
X14325000Y-10268500D01*
X14261500Y-10205000D02*
X14388500Y-10205000D01*
X14386000Y-6827500D02*
X14386000Y-6954500D01*
X14322500Y-6891000D02*
X14449500Y-6891000D01*
X14886000Y-7037500D02*
X14886000Y-7164500D01*
X14822500Y-7101000D02*
X14949500Y-7101000D01*
X15908400Y-11949700D02*
X15908400Y-12076700D01*
X15844900Y-12013200D02*
X15971900Y-12013200D01*
X16408400Y-12159700D02*
X16408400Y-12286700D01*
X16344900Y-12223200D02*
X16471900Y-12223200D01*
X16486000Y-8820500D02*
X16486000Y-8947500D01*
X16422500Y-8884000D02*
X16549500Y-8884000D01*
X16986000Y-9030500D02*
X16986000Y-9157500D01*
X16922500Y-9094000D02*
X17049500Y-9094000D01*
X17042000Y-5674500D02*
X17042000Y-5801500D01*
X16978500Y-5738000D02*
X17105500Y-5738000D01*
X17542000Y-5884500D02*
X17542000Y-6011500D01*
X17478500Y-5948000D02*
X17605500Y-5948000D01*
X18921811Y-11975100D02*
X18921811Y-12102100D01*
X18858311Y-12038600D02*
X18985311Y-12038600D01*
X19371000Y-8820500D02*
X19371000Y-8947500D01*
X19307500Y-8884000D02*
X19434500Y-8884000D01*
X19421811Y-12185100D02*
X19421811Y-12312100D01*
X19358311Y-12248600D02*
X19485311Y-12248600D01*
X19871000Y-9030500D02*
X19871000Y-9157500D01*
X19807500Y-9094000D02*
X19934500Y-9094000D01*
X19939000Y-5662500D02*
X19939000Y-5789500D01*
X19875500Y-5726000D02*
X20002500Y-5726000D01*
X20439000Y-5872500D02*
X20439000Y-5999500D01*
X20375500Y-5936000D02*
X20502500Y-5936000D01*
X22292000Y-8820500D02*
X22292000Y-8947500D01*
X22228500Y-8884000D02*
X22355500Y-8884000D01*
X22792000Y-9030500D02*
X22792000Y-9157500D01*
X22728500Y-9094000D02*
X22855500Y-9094000D01*
X22836000Y-5686500D02*
X22836000Y-5813500D01*
X22772500Y-5750000D02*
X22899500Y-5750000D01*
X23336000Y-5896500D02*
X23336000Y-6023500D01*
X23272500Y-5960000D02*
X23399500Y-5960000D01*
D11*
X4258277Y-15313984D02*
X4258277Y-15113984D01*
X4258277Y-15113984D02*
X4305896Y-15113984D01*
X4305896Y-15113984D02*
X4334467Y-15123508D01*
X4334467Y-15123508D02*
X4353515Y-15142555D01*
X4353515Y-15142555D02*
X4363039Y-15161603D01*
X4363039Y-15161603D02*
X4372563Y-15199698D01*
X4372563Y-15199698D02*
X4372563Y-15228269D01*
X4372563Y-15228269D02*
X4363039Y-15266365D01*
X4363039Y-15266365D02*
X4353515Y-15285412D01*
X4353515Y-15285412D02*
X4334467Y-15304460D01*
X4334467Y-15304460D02*
X4305896Y-15313984D01*
X4305896Y-15313984D02*
X4258277Y-15313984D01*
X4458277Y-15313984D02*
X4458277Y-15180650D01*
X4458277Y-15218746D02*
X4467801Y-15199698D01*
X4467801Y-15199698D02*
X4477324Y-15190174D01*
X4477324Y-15190174D02*
X4496372Y-15180650D01*
X4496372Y-15180650D02*
X4515420Y-15180650D01*
X4582086Y-15313984D02*
X4582086Y-15180650D01*
X4582086Y-15113984D02*
X4572563Y-15123508D01*
X4572563Y-15123508D02*
X4582086Y-15133031D01*
X4582086Y-15133031D02*
X4591610Y-15123508D01*
X4591610Y-15123508D02*
X4582086Y-15113984D01*
X4582086Y-15113984D02*
X4582086Y-15133031D01*
X4705896Y-15313984D02*
X4686848Y-15304460D01*
X4686848Y-15304460D02*
X4677324Y-15285412D01*
X4677324Y-15285412D02*
X4677324Y-15113984D01*
X4810658Y-15313984D02*
X4791610Y-15304460D01*
X4791610Y-15304460D02*
X4782086Y-15285412D01*
X4782086Y-15285412D02*
X4782086Y-15113984D01*
X5039229Y-15313984D02*
X5039229Y-15113984D01*
X5039229Y-15113984D02*
X5105896Y-15256841D01*
X5105896Y-15256841D02*
X5172563Y-15113984D01*
X5172563Y-15113984D02*
X5172563Y-15313984D01*
X5353515Y-15313984D02*
X5353515Y-15209222D01*
X5353515Y-15209222D02*
X5343991Y-15190174D01*
X5343991Y-15190174D02*
X5324944Y-15180650D01*
X5324944Y-15180650D02*
X5286848Y-15180650D01*
X5286848Y-15180650D02*
X5267801Y-15190174D01*
X5353515Y-15304460D02*
X5334467Y-15313984D01*
X5334467Y-15313984D02*
X5286848Y-15313984D01*
X5286848Y-15313984D02*
X5267801Y-15304460D01*
X5267801Y-15304460D02*
X5258277Y-15285412D01*
X5258277Y-15285412D02*
X5258277Y-15266365D01*
X5258277Y-15266365D02*
X5267801Y-15247317D01*
X5267801Y-15247317D02*
X5286848Y-15237793D01*
X5286848Y-15237793D02*
X5334467Y-15237793D01*
X5334467Y-15237793D02*
X5353515Y-15228269D01*
X5448753Y-15180650D02*
X5448753Y-15380650D01*
X5448753Y-15190174D02*
X5467801Y-15180650D01*
X5467801Y-15180650D02*
X5505896Y-15180650D01*
X5505896Y-15180650D02*
X5524944Y-15190174D01*
X5524944Y-15190174D02*
X5534467Y-15199698D01*
X5534467Y-15199698D02*
X5543991Y-15218746D01*
X5543991Y-15218746D02*
X5543991Y-15275888D01*
X5543991Y-15275888D02*
X5534467Y-15294936D01*
X5534467Y-15294936D02*
X5524944Y-15304460D01*
X5524944Y-15304460D02*
X5505896Y-15313984D01*
X5505896Y-15313984D02*
X5467801Y-15313984D01*
X5467801Y-15313984D02*
X5448753Y-15304460D01*
X5629705Y-15294936D02*
X5639229Y-15304460D01*
X5639229Y-15304460D02*
X5629705Y-15313984D01*
X5629705Y-15313984D02*
X5620182Y-15304460D01*
X5620182Y-15304460D02*
X5629705Y-15294936D01*
X5629705Y-15294936D02*
X5629705Y-15313984D01*
X5629705Y-15190174D02*
X5639229Y-15199698D01*
X5639229Y-15199698D02*
X5629705Y-15209222D01*
X5629705Y-15209222D02*
X5620182Y-15199698D01*
X5620182Y-15199698D02*
X5629705Y-15190174D01*
X5629705Y-15190174D02*
X5629705Y-15209222D01*
D12*
X3957500Y-15622500D02*
X3997500Y-15662500D01*
X3997500Y-15622500D02*
X3957500Y-15662500D01*
D11*
X4296372Y-15533984D02*
X4315420Y-15533984D01*
X4315420Y-15533984D02*
X4334467Y-15543508D01*
X4334467Y-15543508D02*
X4343991Y-15553031D01*
X4343991Y-15553031D02*
X4353515Y-15572079D01*
X4353515Y-15572079D02*
X4363039Y-15610174D01*
X4363039Y-15610174D02*
X4363039Y-15657793D01*
X4363039Y-15657793D02*
X4353515Y-15695888D01*
X4353515Y-15695888D02*
X4343991Y-15714936D01*
X4343991Y-15714936D02*
X4334467Y-15724460D01*
X4334467Y-15724460D02*
X4315420Y-15733984D01*
X4315420Y-15733984D02*
X4296372Y-15733984D01*
X4296372Y-15733984D02*
X4277324Y-15724460D01*
X4277324Y-15724460D02*
X4267801Y-15714936D01*
X4267801Y-15714936D02*
X4258277Y-15695888D01*
X4258277Y-15695888D02*
X4248753Y-15657793D01*
X4248753Y-15657793D02*
X4248753Y-15610174D01*
X4248753Y-15610174D02*
X4258277Y-15572079D01*
X4258277Y-15572079D02*
X4267801Y-15553031D01*
X4267801Y-15553031D02*
X4277324Y-15543508D01*
X4277324Y-15543508D02*
X4296372Y-15533984D01*
X4448753Y-15714936D02*
X4458277Y-15724460D01*
X4458277Y-15724460D02*
X4448753Y-15733984D01*
X4448753Y-15733984D02*
X4439229Y-15724460D01*
X4439229Y-15724460D02*
X4448753Y-15714936D01*
X4448753Y-15714936D02*
X4448753Y-15733984D01*
X4629705Y-15600650D02*
X4629705Y-15733984D01*
X4582086Y-15524460D02*
X4534467Y-15667317D01*
X4534467Y-15667317D02*
X4658277Y-15667317D01*
X4772563Y-15533984D02*
X4791610Y-15533984D01*
X4791610Y-15533984D02*
X4810658Y-15543508D01*
X4810658Y-15543508D02*
X4820182Y-15553031D01*
X4820182Y-15553031D02*
X4829705Y-15572079D01*
X4829705Y-15572079D02*
X4839229Y-15610174D01*
X4839229Y-15610174D02*
X4839229Y-15657793D01*
X4839229Y-15657793D02*
X4829705Y-15695888D01*
X4829705Y-15695888D02*
X4820182Y-15714936D01*
X4820182Y-15714936D02*
X4810658Y-15724460D01*
X4810658Y-15724460D02*
X4791610Y-15733984D01*
X4791610Y-15733984D02*
X4772563Y-15733984D01*
X4772563Y-15733984D02*
X4753515Y-15724460D01*
X4753515Y-15724460D02*
X4743991Y-15714936D01*
X4743991Y-15714936D02*
X4734467Y-15695888D01*
X4734467Y-15695888D02*
X4724944Y-15657793D01*
X4724944Y-15657793D02*
X4724944Y-15610174D01*
X4724944Y-15610174D02*
X4734467Y-15572079D01*
X4734467Y-15572079D02*
X4743991Y-15553031D01*
X4743991Y-15553031D02*
X4753515Y-15543508D01*
X4753515Y-15543508D02*
X4772563Y-15533984D01*
X4963039Y-15533984D02*
X4982086Y-15533984D01*
X4982086Y-15533984D02*
X5001134Y-15543508D01*
X5001134Y-15543508D02*
X5010658Y-15553031D01*
X5010658Y-15553031D02*
X5020182Y-15572079D01*
X5020182Y-15572079D02*
X5029705Y-15610174D01*
X5029705Y-15610174D02*
X5029705Y-15657793D01*
X5029705Y-15657793D02*
X5020182Y-15695888D01*
X5020182Y-15695888D02*
X5010658Y-15714936D01*
X5010658Y-15714936D02*
X5001134Y-15724460D01*
X5001134Y-15724460D02*
X4982086Y-15733984D01*
X4982086Y-15733984D02*
X4963039Y-15733984D01*
X4963039Y-15733984D02*
X4943991Y-15724460D01*
X4943991Y-15724460D02*
X4934467Y-15714936D01*
X4934467Y-15714936D02*
X4924944Y-15695888D01*
X4924944Y-15695888D02*
X4915420Y-15657793D01*
X4915420Y-15657793D02*
X4915420Y-15610174D01*
X4915420Y-15610174D02*
X4924944Y-15572079D01*
X4924944Y-15572079D02*
X4934467Y-15553031D01*
X4934467Y-15553031D02*
X4943991Y-15543508D01*
X4943991Y-15543508D02*
X4963039Y-15533984D01*
X5115420Y-15733984D02*
X5115420Y-15600650D01*
X5115420Y-15619698D02*
X5124944Y-15610174D01*
X5124944Y-15610174D02*
X5143991Y-15600650D01*
X5143991Y-15600650D02*
X5172563Y-15600650D01*
X5172563Y-15600650D02*
X5191610Y-15610174D01*
X5191610Y-15610174D02*
X5201134Y-15629222D01*
X5201134Y-15629222D02*
X5201134Y-15733984D01*
X5201134Y-15629222D02*
X5210658Y-15610174D01*
X5210658Y-15610174D02*
X5229705Y-15600650D01*
X5229705Y-15600650D02*
X5258277Y-15600650D01*
X5258277Y-15600650D02*
X5277325Y-15610174D01*
X5277325Y-15610174D02*
X5286848Y-15629222D01*
X5286848Y-15629222D02*
X5286848Y-15733984D01*
X5382086Y-15733984D02*
X5382086Y-15600650D01*
X5382086Y-15619698D02*
X5391610Y-15610174D01*
X5391610Y-15610174D02*
X5410658Y-15600650D01*
X5410658Y-15600650D02*
X5439229Y-15600650D01*
X5439229Y-15600650D02*
X5458277Y-15610174D01*
X5458277Y-15610174D02*
X5467801Y-15629222D01*
X5467801Y-15629222D02*
X5467801Y-15733984D01*
X5467801Y-15629222D02*
X5477325Y-15610174D01*
X5477325Y-15610174D02*
X5496372Y-15600650D01*
X5496372Y-15600650D02*
X5524944Y-15600650D01*
X5524944Y-15600650D02*
X5543991Y-15610174D01*
X5543991Y-15610174D02*
X5553515Y-15629222D01*
X5553515Y-15629222D02*
X5553515Y-15733984D01*
X5943991Y-15524460D02*
X5772563Y-15781603D01*
X6201134Y-15533984D02*
X6220182Y-15533984D01*
X6220182Y-15533984D02*
X6239229Y-15543508D01*
X6239229Y-15543508D02*
X6248753Y-15553031D01*
X6248753Y-15553031D02*
X6258277Y-15572079D01*
X6258277Y-15572079D02*
X6267801Y-15610174D01*
X6267801Y-15610174D02*
X6267801Y-15657793D01*
X6267801Y-15657793D02*
X6258277Y-15695888D01*
X6258277Y-15695888D02*
X6248753Y-15714936D01*
X6248753Y-15714936D02*
X6239229Y-15724460D01*
X6239229Y-15724460D02*
X6220182Y-15733984D01*
X6220182Y-15733984D02*
X6201134Y-15733984D01*
X6201134Y-15733984D02*
X6182086Y-15724460D01*
X6182086Y-15724460D02*
X6172563Y-15714936D01*
X6172563Y-15714936D02*
X6163039Y-15695888D01*
X6163039Y-15695888D02*
X6153515Y-15657793D01*
X6153515Y-15657793D02*
X6153515Y-15610174D01*
X6153515Y-15610174D02*
X6163039Y-15572079D01*
X6163039Y-15572079D02*
X6172563Y-15553031D01*
X6172563Y-15553031D02*
X6182086Y-15543508D01*
X6182086Y-15543508D02*
X6201134Y-15533984D01*
X6353515Y-15714936D02*
X6363039Y-15724460D01*
X6363039Y-15724460D02*
X6353515Y-15733984D01*
X6353515Y-15733984D02*
X6343991Y-15724460D01*
X6343991Y-15724460D02*
X6353515Y-15714936D01*
X6353515Y-15714936D02*
X6353515Y-15733984D01*
X6486848Y-15533984D02*
X6505896Y-15533984D01*
X6505896Y-15533984D02*
X6524944Y-15543508D01*
X6524944Y-15543508D02*
X6534467Y-15553031D01*
X6534467Y-15553031D02*
X6543991Y-15572079D01*
X6543991Y-15572079D02*
X6553515Y-15610174D01*
X6553515Y-15610174D02*
X6553515Y-15657793D01*
X6553515Y-15657793D02*
X6543991Y-15695888D01*
X6543991Y-15695888D02*
X6534467Y-15714936D01*
X6534467Y-15714936D02*
X6524944Y-15724460D01*
X6524944Y-15724460D02*
X6505896Y-15733984D01*
X6505896Y-15733984D02*
X6486848Y-15733984D01*
X6486848Y-15733984D02*
X6467801Y-15724460D01*
X6467801Y-15724460D02*
X6458277Y-15714936D01*
X6458277Y-15714936D02*
X6448753Y-15695888D01*
X6448753Y-15695888D02*
X6439229Y-15657793D01*
X6439229Y-15657793D02*
X6439229Y-15610174D01*
X6439229Y-15610174D02*
X6448753Y-15572079D01*
X6448753Y-15572079D02*
X6458277Y-15553031D01*
X6458277Y-15553031D02*
X6467801Y-15543508D01*
X6467801Y-15543508D02*
X6486848Y-15533984D01*
X6743991Y-15733984D02*
X6629706Y-15733984D01*
X6686848Y-15733984D02*
X6686848Y-15533984D01*
X6686848Y-15533984D02*
X6667801Y-15562555D01*
X6667801Y-15562555D02*
X6648753Y-15581603D01*
X6648753Y-15581603D02*
X6629706Y-15591127D01*
X6924944Y-15533984D02*
X6829706Y-15533984D01*
X6829706Y-15533984D02*
X6820182Y-15629222D01*
X6820182Y-15629222D02*
X6829706Y-15619698D01*
X6829706Y-15619698D02*
X6848753Y-15610174D01*
X6848753Y-15610174D02*
X6896372Y-15610174D01*
X6896372Y-15610174D02*
X6915420Y-15619698D01*
X6915420Y-15619698D02*
X6924944Y-15629222D01*
X6924944Y-15629222D02*
X6934467Y-15648269D01*
X6934467Y-15648269D02*
X6934467Y-15695888D01*
X6934467Y-15695888D02*
X6924944Y-15714936D01*
X6924944Y-15714936D02*
X6915420Y-15724460D01*
X6915420Y-15724460D02*
X6896372Y-15733984D01*
X6896372Y-15733984D02*
X6848753Y-15733984D01*
X6848753Y-15733984D02*
X6829706Y-15724460D01*
X6829706Y-15724460D02*
X6820182Y-15714936D01*
X7001134Y-15533984D02*
X7134467Y-15533984D01*
X7134467Y-15533984D02*
X7048753Y-15733984D01*
X7201134Y-15533984D02*
X7201134Y-15572079D01*
X7277325Y-15533984D02*
X7277325Y-15572079D01*
X7572563Y-15810174D02*
X7563039Y-15800650D01*
X7563039Y-15800650D02*
X7543991Y-15772079D01*
X7543991Y-15772079D02*
X7534468Y-15753031D01*
X7534468Y-15753031D02*
X7524944Y-15724460D01*
X7524944Y-15724460D02*
X7515420Y-15676841D01*
X7515420Y-15676841D02*
X7515420Y-15638746D01*
X7515420Y-15638746D02*
X7524944Y-15591127D01*
X7524944Y-15591127D02*
X7534468Y-15562555D01*
X7534468Y-15562555D02*
X7543991Y-15543508D01*
X7543991Y-15543508D02*
X7563039Y-15514936D01*
X7563039Y-15514936D02*
X7572563Y-15505412D01*
X7743991Y-15533984D02*
X7648753Y-15533984D01*
X7648753Y-15533984D02*
X7639229Y-15629222D01*
X7639229Y-15629222D02*
X7648753Y-15619698D01*
X7648753Y-15619698D02*
X7667801Y-15610174D01*
X7667801Y-15610174D02*
X7715420Y-15610174D01*
X7715420Y-15610174D02*
X7734468Y-15619698D01*
X7734468Y-15619698D02*
X7743991Y-15629222D01*
X7743991Y-15629222D02*
X7753515Y-15648269D01*
X7753515Y-15648269D02*
X7753515Y-15695888D01*
X7753515Y-15695888D02*
X7743991Y-15714936D01*
X7743991Y-15714936D02*
X7734468Y-15724460D01*
X7734468Y-15724460D02*
X7715420Y-15733984D01*
X7715420Y-15733984D02*
X7667801Y-15733984D01*
X7667801Y-15733984D02*
X7648753Y-15724460D01*
X7648753Y-15724460D02*
X7639229Y-15714936D01*
X7991610Y-15733984D02*
X7991610Y-15533984D01*
X8077325Y-15733984D02*
X8077325Y-15629222D01*
X8077325Y-15629222D02*
X8067801Y-15610174D01*
X8067801Y-15610174D02*
X8048753Y-15600650D01*
X8048753Y-15600650D02*
X8020182Y-15600650D01*
X8020182Y-15600650D02*
X8001134Y-15610174D01*
X8001134Y-15610174D02*
X7991610Y-15619698D01*
X8201134Y-15733984D02*
X8182087Y-15724460D01*
X8182087Y-15724460D02*
X8172563Y-15714936D01*
X8172563Y-15714936D02*
X8163039Y-15695888D01*
X8163039Y-15695888D02*
X8163039Y-15638746D01*
X8163039Y-15638746D02*
X8172563Y-15619698D01*
X8172563Y-15619698D02*
X8182087Y-15610174D01*
X8182087Y-15610174D02*
X8201134Y-15600650D01*
X8201134Y-15600650D02*
X8229706Y-15600650D01*
X8229706Y-15600650D02*
X8248753Y-15610174D01*
X8248753Y-15610174D02*
X8258277Y-15619698D01*
X8258277Y-15619698D02*
X8267801Y-15638746D01*
X8267801Y-15638746D02*
X8267801Y-15695888D01*
X8267801Y-15695888D02*
X8258277Y-15714936D01*
X8258277Y-15714936D02*
X8248753Y-15724460D01*
X8248753Y-15724460D02*
X8229706Y-15733984D01*
X8229706Y-15733984D02*
X8201134Y-15733984D01*
X8382087Y-15733984D02*
X8363039Y-15724460D01*
X8363039Y-15724460D02*
X8353515Y-15705412D01*
X8353515Y-15705412D02*
X8353515Y-15533984D01*
X8534468Y-15724460D02*
X8515420Y-15733984D01*
X8515420Y-15733984D02*
X8477325Y-15733984D01*
X8477325Y-15733984D02*
X8458277Y-15724460D01*
X8458277Y-15724460D02*
X8448753Y-15705412D01*
X8448753Y-15705412D02*
X8448753Y-15629222D01*
X8448753Y-15629222D02*
X8458277Y-15610174D01*
X8458277Y-15610174D02*
X8477325Y-15600650D01*
X8477325Y-15600650D02*
X8515420Y-15600650D01*
X8515420Y-15600650D02*
X8534468Y-15610174D01*
X8534468Y-15610174D02*
X8543992Y-15629222D01*
X8543992Y-15629222D02*
X8543992Y-15648269D01*
X8543992Y-15648269D02*
X8448753Y-15667317D01*
X8620182Y-15724460D02*
X8639230Y-15733984D01*
X8639230Y-15733984D02*
X8677325Y-15733984D01*
X8677325Y-15733984D02*
X8696373Y-15724460D01*
X8696373Y-15724460D02*
X8705896Y-15705412D01*
X8705896Y-15705412D02*
X8705896Y-15695888D01*
X8705896Y-15695888D02*
X8696373Y-15676841D01*
X8696373Y-15676841D02*
X8677325Y-15667317D01*
X8677325Y-15667317D02*
X8648753Y-15667317D01*
X8648753Y-15667317D02*
X8629706Y-15657793D01*
X8629706Y-15657793D02*
X8620182Y-15638746D01*
X8620182Y-15638746D02*
X8620182Y-15629222D01*
X8620182Y-15629222D02*
X8629706Y-15610174D01*
X8629706Y-15610174D02*
X8648753Y-15600650D01*
X8648753Y-15600650D02*
X8677325Y-15600650D01*
X8677325Y-15600650D02*
X8696373Y-15610174D01*
X8772563Y-15810174D02*
X8782087Y-15800650D01*
X8782087Y-15800650D02*
X8801134Y-15772079D01*
X8801134Y-15772079D02*
X8810658Y-15753031D01*
X8810658Y-15753031D02*
X8820182Y-15724460D01*
X8820182Y-15724460D02*
X8829706Y-15676841D01*
X8829706Y-15676841D02*
X8829706Y-15638746D01*
X8829706Y-15638746D02*
X8820182Y-15591127D01*
X8820182Y-15591127D02*
X8810658Y-15562555D01*
X8810658Y-15562555D02*
X8801134Y-15543508D01*
X8801134Y-15543508D02*
X8782087Y-15514936D01*
X8782087Y-15514936D02*
X8772563Y-15505412D01*
D13*
X3997500Y-15906500D02*
G75*
G03*
X3997500Y-15906500I-55000J0D01*
G01*
D11*
X4363039Y-15997984D02*
X4248753Y-15997984D01*
X4305896Y-15997984D02*
X4305896Y-15797984D01*
X4305896Y-15797984D02*
X4286848Y-15826555D01*
X4286848Y-15826555D02*
X4267801Y-15845603D01*
X4267801Y-15845603D02*
X4248753Y-15855127D01*
X4448753Y-15978936D02*
X4458277Y-15988460D01*
X4458277Y-15988460D02*
X4448753Y-15997984D01*
X4448753Y-15997984D02*
X4439229Y-15988460D01*
X4439229Y-15988460D02*
X4448753Y-15978936D01*
X4448753Y-15978936D02*
X4448753Y-15997984D01*
X4648753Y-15997984D02*
X4534467Y-15997984D01*
X4591610Y-15997984D02*
X4591610Y-15797984D01*
X4591610Y-15797984D02*
X4572563Y-15826555D01*
X4572563Y-15826555D02*
X4553515Y-15845603D01*
X4553515Y-15845603D02*
X4534467Y-15855127D01*
X4772563Y-15797984D02*
X4791610Y-15797984D01*
X4791610Y-15797984D02*
X4810658Y-15807508D01*
X4810658Y-15807508D02*
X4820182Y-15817031D01*
X4820182Y-15817031D02*
X4829705Y-15836079D01*
X4829705Y-15836079D02*
X4839229Y-15874174D01*
X4839229Y-15874174D02*
X4839229Y-15921793D01*
X4839229Y-15921793D02*
X4829705Y-15959888D01*
X4829705Y-15959888D02*
X4820182Y-15978936D01*
X4820182Y-15978936D02*
X4810658Y-15988460D01*
X4810658Y-15988460D02*
X4791610Y-15997984D01*
X4791610Y-15997984D02*
X4772563Y-15997984D01*
X4772563Y-15997984D02*
X4753515Y-15988460D01*
X4753515Y-15988460D02*
X4743991Y-15978936D01*
X4743991Y-15978936D02*
X4734467Y-15959888D01*
X4734467Y-15959888D02*
X4724944Y-15921793D01*
X4724944Y-15921793D02*
X4724944Y-15874174D01*
X4724944Y-15874174D02*
X4734467Y-15836079D01*
X4734467Y-15836079D02*
X4743991Y-15817031D01*
X4743991Y-15817031D02*
X4753515Y-15807508D01*
X4753515Y-15807508D02*
X4772563Y-15797984D01*
X4963039Y-15797984D02*
X4982086Y-15797984D01*
X4982086Y-15797984D02*
X5001134Y-15807508D01*
X5001134Y-15807508D02*
X5010658Y-15817031D01*
X5010658Y-15817031D02*
X5020182Y-15836079D01*
X5020182Y-15836079D02*
X5029705Y-15874174D01*
X5029705Y-15874174D02*
X5029705Y-15921793D01*
X5029705Y-15921793D02*
X5020182Y-15959888D01*
X5020182Y-15959888D02*
X5010658Y-15978936D01*
X5010658Y-15978936D02*
X5001134Y-15988460D01*
X5001134Y-15988460D02*
X4982086Y-15997984D01*
X4982086Y-15997984D02*
X4963039Y-15997984D01*
X4963039Y-15997984D02*
X4943991Y-15988460D01*
X4943991Y-15988460D02*
X4934467Y-15978936D01*
X4934467Y-15978936D02*
X4924944Y-15959888D01*
X4924944Y-15959888D02*
X4915420Y-15921793D01*
X4915420Y-15921793D02*
X4915420Y-15874174D01*
X4915420Y-15874174D02*
X4924944Y-15836079D01*
X4924944Y-15836079D02*
X4934467Y-15817031D01*
X4934467Y-15817031D02*
X4943991Y-15807508D01*
X4943991Y-15807508D02*
X4963039Y-15797984D01*
X5115420Y-15997984D02*
X5115420Y-15864650D01*
X5115420Y-15883698D02*
X5124944Y-15874174D01*
X5124944Y-15874174D02*
X5143991Y-15864650D01*
X5143991Y-15864650D02*
X5172563Y-15864650D01*
X5172563Y-15864650D02*
X5191610Y-15874174D01*
X5191610Y-15874174D02*
X5201134Y-15893222D01*
X5201134Y-15893222D02*
X5201134Y-15997984D01*
X5201134Y-15893222D02*
X5210658Y-15874174D01*
X5210658Y-15874174D02*
X5229705Y-15864650D01*
X5229705Y-15864650D02*
X5258277Y-15864650D01*
X5258277Y-15864650D02*
X5277325Y-15874174D01*
X5277325Y-15874174D02*
X5286848Y-15893222D01*
X5286848Y-15893222D02*
X5286848Y-15997984D01*
X5382086Y-15997984D02*
X5382086Y-15864650D01*
X5382086Y-15883698D02*
X5391610Y-15874174D01*
X5391610Y-15874174D02*
X5410658Y-15864650D01*
X5410658Y-15864650D02*
X5439229Y-15864650D01*
X5439229Y-15864650D02*
X5458277Y-15874174D01*
X5458277Y-15874174D02*
X5467801Y-15893222D01*
X5467801Y-15893222D02*
X5467801Y-15997984D01*
X5467801Y-15893222D02*
X5477325Y-15874174D01*
X5477325Y-15874174D02*
X5496372Y-15864650D01*
X5496372Y-15864650D02*
X5524944Y-15864650D01*
X5524944Y-15864650D02*
X5543991Y-15874174D01*
X5543991Y-15874174D02*
X5553515Y-15893222D01*
X5553515Y-15893222D02*
X5553515Y-15997984D01*
X5943991Y-15788460D02*
X5772563Y-16045603D01*
X6201134Y-15797984D02*
X6220182Y-15797984D01*
X6220182Y-15797984D02*
X6239229Y-15807508D01*
X6239229Y-15807508D02*
X6248753Y-15817031D01*
X6248753Y-15817031D02*
X6258277Y-15836079D01*
X6258277Y-15836079D02*
X6267801Y-15874174D01*
X6267801Y-15874174D02*
X6267801Y-15921793D01*
X6267801Y-15921793D02*
X6258277Y-15959888D01*
X6258277Y-15959888D02*
X6248753Y-15978936D01*
X6248753Y-15978936D02*
X6239229Y-15988460D01*
X6239229Y-15988460D02*
X6220182Y-15997984D01*
X6220182Y-15997984D02*
X6201134Y-15997984D01*
X6201134Y-15997984D02*
X6182086Y-15988460D01*
X6182086Y-15988460D02*
X6172563Y-15978936D01*
X6172563Y-15978936D02*
X6163039Y-15959888D01*
X6163039Y-15959888D02*
X6153515Y-15921793D01*
X6153515Y-15921793D02*
X6153515Y-15874174D01*
X6153515Y-15874174D02*
X6163039Y-15836079D01*
X6163039Y-15836079D02*
X6172563Y-15817031D01*
X6172563Y-15817031D02*
X6182086Y-15807508D01*
X6182086Y-15807508D02*
X6201134Y-15797984D01*
X6353515Y-15978936D02*
X6363039Y-15988460D01*
X6363039Y-15988460D02*
X6353515Y-15997984D01*
X6353515Y-15997984D02*
X6343991Y-15988460D01*
X6343991Y-15988460D02*
X6353515Y-15978936D01*
X6353515Y-15978936D02*
X6353515Y-15997984D01*
X6486848Y-15797984D02*
X6505896Y-15797984D01*
X6505896Y-15797984D02*
X6524944Y-15807508D01*
X6524944Y-15807508D02*
X6534467Y-15817031D01*
X6534467Y-15817031D02*
X6543991Y-15836079D01*
X6543991Y-15836079D02*
X6553515Y-15874174D01*
X6553515Y-15874174D02*
X6553515Y-15921793D01*
X6553515Y-15921793D02*
X6543991Y-15959888D01*
X6543991Y-15959888D02*
X6534467Y-15978936D01*
X6534467Y-15978936D02*
X6524944Y-15988460D01*
X6524944Y-15988460D02*
X6505896Y-15997984D01*
X6505896Y-15997984D02*
X6486848Y-15997984D01*
X6486848Y-15997984D02*
X6467801Y-15988460D01*
X6467801Y-15988460D02*
X6458277Y-15978936D01*
X6458277Y-15978936D02*
X6448753Y-15959888D01*
X6448753Y-15959888D02*
X6439229Y-15921793D01*
X6439229Y-15921793D02*
X6439229Y-15874174D01*
X6439229Y-15874174D02*
X6448753Y-15836079D01*
X6448753Y-15836079D02*
X6458277Y-15817031D01*
X6458277Y-15817031D02*
X6467801Y-15807508D01*
X6467801Y-15807508D02*
X6486848Y-15797984D01*
X6724944Y-15864650D02*
X6724944Y-15997984D01*
X6677325Y-15788460D02*
X6629706Y-15931317D01*
X6629706Y-15931317D02*
X6753515Y-15931317D01*
X6810658Y-15797984D02*
X6934467Y-15797984D01*
X6934467Y-15797984D02*
X6867801Y-15874174D01*
X6867801Y-15874174D02*
X6896372Y-15874174D01*
X6896372Y-15874174D02*
X6915420Y-15883698D01*
X6915420Y-15883698D02*
X6924944Y-15893222D01*
X6924944Y-15893222D02*
X6934467Y-15912269D01*
X6934467Y-15912269D02*
X6934467Y-15959888D01*
X6934467Y-15959888D02*
X6924944Y-15978936D01*
X6924944Y-15978936D02*
X6915420Y-15988460D01*
X6915420Y-15988460D02*
X6896372Y-15997984D01*
X6896372Y-15997984D02*
X6839229Y-15997984D01*
X6839229Y-15997984D02*
X6820182Y-15988460D01*
X6820182Y-15988460D02*
X6810658Y-15978936D01*
X7001134Y-15797984D02*
X7124944Y-15797984D01*
X7124944Y-15797984D02*
X7058277Y-15874174D01*
X7058277Y-15874174D02*
X7086848Y-15874174D01*
X7086848Y-15874174D02*
X7105896Y-15883698D01*
X7105896Y-15883698D02*
X7115420Y-15893222D01*
X7115420Y-15893222D02*
X7124944Y-15912269D01*
X7124944Y-15912269D02*
X7124944Y-15959888D01*
X7124944Y-15959888D02*
X7115420Y-15978936D01*
X7115420Y-15978936D02*
X7105896Y-15988460D01*
X7105896Y-15988460D02*
X7086848Y-15997984D01*
X7086848Y-15997984D02*
X7029706Y-15997984D01*
X7029706Y-15997984D02*
X7010658Y-15988460D01*
X7010658Y-15988460D02*
X7001134Y-15978936D01*
X7201134Y-15797984D02*
X7201134Y-15836079D01*
X7277325Y-15797984D02*
X7277325Y-15836079D01*
X7572563Y-16074174D02*
X7563039Y-16064650D01*
X7563039Y-16064650D02*
X7543991Y-16036079D01*
X7543991Y-16036079D02*
X7534468Y-16017031D01*
X7534468Y-16017031D02*
X7524944Y-15988460D01*
X7524944Y-15988460D02*
X7515420Y-15940841D01*
X7515420Y-15940841D02*
X7515420Y-15902746D01*
X7515420Y-15902746D02*
X7524944Y-15855127D01*
X7524944Y-15855127D02*
X7534468Y-15826555D01*
X7534468Y-15826555D02*
X7543991Y-15807508D01*
X7543991Y-15807508D02*
X7563039Y-15778936D01*
X7563039Y-15778936D02*
X7572563Y-15769412D01*
X7639229Y-15817031D02*
X7648753Y-15807508D01*
X7648753Y-15807508D02*
X7667801Y-15797984D01*
X7667801Y-15797984D02*
X7715420Y-15797984D01*
X7715420Y-15797984D02*
X7734468Y-15807508D01*
X7734468Y-15807508D02*
X7743991Y-15817031D01*
X7743991Y-15817031D02*
X7753515Y-15836079D01*
X7753515Y-15836079D02*
X7753515Y-15855127D01*
X7753515Y-15855127D02*
X7743991Y-15883698D01*
X7743991Y-15883698D02*
X7629706Y-15997984D01*
X7629706Y-15997984D02*
X7753515Y-15997984D01*
X7924944Y-15864650D02*
X7924944Y-15997984D01*
X7877325Y-15788460D02*
X7829706Y-15931317D01*
X7829706Y-15931317D02*
X7953515Y-15931317D01*
X8182087Y-15997984D02*
X8182087Y-15797984D01*
X8267801Y-15997984D02*
X8267801Y-15893222D01*
X8267801Y-15893222D02*
X8258277Y-15874174D01*
X8258277Y-15874174D02*
X8239230Y-15864650D01*
X8239230Y-15864650D02*
X8210658Y-15864650D01*
X8210658Y-15864650D02*
X8191610Y-15874174D01*
X8191610Y-15874174D02*
X8182087Y-15883698D01*
X8391611Y-15997984D02*
X8372563Y-15988460D01*
X8372563Y-15988460D02*
X8363039Y-15978936D01*
X8363039Y-15978936D02*
X8353515Y-15959888D01*
X8353515Y-15959888D02*
X8353515Y-15902746D01*
X8353515Y-15902746D02*
X8363039Y-15883698D01*
X8363039Y-15883698D02*
X8372563Y-15874174D01*
X8372563Y-15874174D02*
X8391611Y-15864650D01*
X8391611Y-15864650D02*
X8420182Y-15864650D01*
X8420182Y-15864650D02*
X8439230Y-15874174D01*
X8439230Y-15874174D02*
X8448753Y-15883698D01*
X8448753Y-15883698D02*
X8458277Y-15902746D01*
X8458277Y-15902746D02*
X8458277Y-15959888D01*
X8458277Y-15959888D02*
X8448753Y-15978936D01*
X8448753Y-15978936D02*
X8439230Y-15988460D01*
X8439230Y-15988460D02*
X8420182Y-15997984D01*
X8420182Y-15997984D02*
X8391611Y-15997984D01*
X8572563Y-15997984D02*
X8553515Y-15988460D01*
X8553515Y-15988460D02*
X8543992Y-15969412D01*
X8543992Y-15969412D02*
X8543992Y-15797984D01*
X8724944Y-15988460D02*
X8705896Y-15997984D01*
X8705896Y-15997984D02*
X8667801Y-15997984D01*
X8667801Y-15997984D02*
X8648753Y-15988460D01*
X8648753Y-15988460D02*
X8639230Y-15969412D01*
X8639230Y-15969412D02*
X8639230Y-15893222D01*
X8639230Y-15893222D02*
X8648753Y-15874174D01*
X8648753Y-15874174D02*
X8667801Y-15864650D01*
X8667801Y-15864650D02*
X8705896Y-15864650D01*
X8705896Y-15864650D02*
X8724944Y-15874174D01*
X8724944Y-15874174D02*
X8734468Y-15893222D01*
X8734468Y-15893222D02*
X8734468Y-15912269D01*
X8734468Y-15912269D02*
X8639230Y-15931317D01*
X8810658Y-15988460D02*
X8829706Y-15997984D01*
X8829706Y-15997984D02*
X8867801Y-15997984D01*
X8867801Y-15997984D02*
X8886849Y-15988460D01*
X8886849Y-15988460D02*
X8896373Y-15969412D01*
X8896373Y-15969412D02*
X8896373Y-15959888D01*
X8896373Y-15959888D02*
X8886849Y-15940841D01*
X8886849Y-15940841D02*
X8867801Y-15931317D01*
X8867801Y-15931317D02*
X8839230Y-15931317D01*
X8839230Y-15931317D02*
X8820182Y-15921793D01*
X8820182Y-15921793D02*
X8810658Y-15902746D01*
X8810658Y-15902746D02*
X8810658Y-15893222D01*
X8810658Y-15893222D02*
X8820182Y-15874174D01*
X8820182Y-15874174D02*
X8839230Y-15864650D01*
X8839230Y-15864650D02*
X8867801Y-15864650D01*
X8867801Y-15864650D02*
X8886849Y-15874174D01*
X8963039Y-16074174D02*
X8972563Y-16064650D01*
X8972563Y-16064650D02*
X8991611Y-16036079D01*
X8991611Y-16036079D02*
X9001134Y-16017031D01*
X9001134Y-16017031D02*
X9010658Y-15988460D01*
X9010658Y-15988460D02*
X9020182Y-15940841D01*
X9020182Y-15940841D02*
X9020182Y-15902746D01*
X9020182Y-15902746D02*
X9010658Y-15855127D01*
X9010658Y-15855127D02*
X9001134Y-15826555D01*
X9001134Y-15826555D02*
X8991611Y-15807508D01*
X8991611Y-15807508D02*
X8972563Y-15778936D01*
X8972563Y-15778936D02*
X8963039Y-15769412D01*
D14*
X3934000Y-16107000D02*
X3934000Y-16234000D01*
X3870500Y-16170500D02*
X3997500Y-16170500D01*
D11*
X4363039Y-16261984D02*
X4248753Y-16261984D01*
X4305896Y-16261984D02*
X4305896Y-16061984D01*
X4305896Y-16061984D02*
X4286848Y-16090555D01*
X4286848Y-16090555D02*
X4267801Y-16109603D01*
X4267801Y-16109603D02*
X4248753Y-16119127D01*
X4448753Y-16242936D02*
X4458277Y-16252460D01*
X4458277Y-16252460D02*
X4448753Y-16261984D01*
X4448753Y-16261984D02*
X4439229Y-16252460D01*
X4439229Y-16252460D02*
X4448753Y-16242936D01*
X4448753Y-16242936D02*
X4448753Y-16261984D01*
X4534467Y-16081031D02*
X4543991Y-16071508D01*
X4543991Y-16071508D02*
X4563039Y-16061984D01*
X4563039Y-16061984D02*
X4610658Y-16061984D01*
X4610658Y-16061984D02*
X4629705Y-16071508D01*
X4629705Y-16071508D02*
X4639229Y-16081031D01*
X4639229Y-16081031D02*
X4648753Y-16100079D01*
X4648753Y-16100079D02*
X4648753Y-16119127D01*
X4648753Y-16119127D02*
X4639229Y-16147698D01*
X4639229Y-16147698D02*
X4524944Y-16261984D01*
X4524944Y-16261984D02*
X4648753Y-16261984D01*
X4715420Y-16061984D02*
X4848753Y-16061984D01*
X4848753Y-16061984D02*
X4763039Y-16261984D01*
X4963039Y-16061984D02*
X4982086Y-16061984D01*
X4982086Y-16061984D02*
X5001134Y-16071508D01*
X5001134Y-16071508D02*
X5010658Y-16081031D01*
X5010658Y-16081031D02*
X5020182Y-16100079D01*
X5020182Y-16100079D02*
X5029705Y-16138174D01*
X5029705Y-16138174D02*
X5029705Y-16185793D01*
X5029705Y-16185793D02*
X5020182Y-16223888D01*
X5020182Y-16223888D02*
X5010658Y-16242936D01*
X5010658Y-16242936D02*
X5001134Y-16252460D01*
X5001134Y-16252460D02*
X4982086Y-16261984D01*
X4982086Y-16261984D02*
X4963039Y-16261984D01*
X4963039Y-16261984D02*
X4943991Y-16252460D01*
X4943991Y-16252460D02*
X4934467Y-16242936D01*
X4934467Y-16242936D02*
X4924944Y-16223888D01*
X4924944Y-16223888D02*
X4915420Y-16185793D01*
X4915420Y-16185793D02*
X4915420Y-16138174D01*
X4915420Y-16138174D02*
X4924944Y-16100079D01*
X4924944Y-16100079D02*
X4934467Y-16081031D01*
X4934467Y-16081031D02*
X4943991Y-16071508D01*
X4943991Y-16071508D02*
X4963039Y-16061984D01*
X5115420Y-16261984D02*
X5115420Y-16128650D01*
X5115420Y-16147698D02*
X5124944Y-16138174D01*
X5124944Y-16138174D02*
X5143991Y-16128650D01*
X5143991Y-16128650D02*
X5172563Y-16128650D01*
X5172563Y-16128650D02*
X5191610Y-16138174D01*
X5191610Y-16138174D02*
X5201134Y-16157222D01*
X5201134Y-16157222D02*
X5201134Y-16261984D01*
X5201134Y-16157222D02*
X5210658Y-16138174D01*
X5210658Y-16138174D02*
X5229705Y-16128650D01*
X5229705Y-16128650D02*
X5258277Y-16128650D01*
X5258277Y-16128650D02*
X5277325Y-16138174D01*
X5277325Y-16138174D02*
X5286848Y-16157222D01*
X5286848Y-16157222D02*
X5286848Y-16261984D01*
X5382086Y-16261984D02*
X5382086Y-16128650D01*
X5382086Y-16147698D02*
X5391610Y-16138174D01*
X5391610Y-16138174D02*
X5410658Y-16128650D01*
X5410658Y-16128650D02*
X5439229Y-16128650D01*
X5439229Y-16128650D02*
X5458277Y-16138174D01*
X5458277Y-16138174D02*
X5467801Y-16157222D01*
X5467801Y-16157222D02*
X5467801Y-16261984D01*
X5467801Y-16157222D02*
X5477325Y-16138174D01*
X5477325Y-16138174D02*
X5496372Y-16128650D01*
X5496372Y-16128650D02*
X5524944Y-16128650D01*
X5524944Y-16128650D02*
X5543991Y-16138174D01*
X5543991Y-16138174D02*
X5553515Y-16157222D01*
X5553515Y-16157222D02*
X5553515Y-16261984D01*
X5943991Y-16052460D02*
X5772563Y-16309603D01*
X6201134Y-16061984D02*
X6220182Y-16061984D01*
X6220182Y-16061984D02*
X6239229Y-16071508D01*
X6239229Y-16071508D02*
X6248753Y-16081031D01*
X6248753Y-16081031D02*
X6258277Y-16100079D01*
X6258277Y-16100079D02*
X6267801Y-16138174D01*
X6267801Y-16138174D02*
X6267801Y-16185793D01*
X6267801Y-16185793D02*
X6258277Y-16223888D01*
X6258277Y-16223888D02*
X6248753Y-16242936D01*
X6248753Y-16242936D02*
X6239229Y-16252460D01*
X6239229Y-16252460D02*
X6220182Y-16261984D01*
X6220182Y-16261984D02*
X6201134Y-16261984D01*
X6201134Y-16261984D02*
X6182086Y-16252460D01*
X6182086Y-16252460D02*
X6172563Y-16242936D01*
X6172563Y-16242936D02*
X6163039Y-16223888D01*
X6163039Y-16223888D02*
X6153515Y-16185793D01*
X6153515Y-16185793D02*
X6153515Y-16138174D01*
X6153515Y-16138174D02*
X6163039Y-16100079D01*
X6163039Y-16100079D02*
X6172563Y-16081031D01*
X6172563Y-16081031D02*
X6182086Y-16071508D01*
X6182086Y-16071508D02*
X6201134Y-16061984D01*
X6353515Y-16242936D02*
X6363039Y-16252460D01*
X6363039Y-16252460D02*
X6353515Y-16261984D01*
X6353515Y-16261984D02*
X6343991Y-16252460D01*
X6343991Y-16252460D02*
X6353515Y-16242936D01*
X6353515Y-16242936D02*
X6353515Y-16261984D01*
X6486848Y-16061984D02*
X6505896Y-16061984D01*
X6505896Y-16061984D02*
X6524944Y-16071508D01*
X6524944Y-16071508D02*
X6534467Y-16081031D01*
X6534467Y-16081031D02*
X6543991Y-16100079D01*
X6543991Y-16100079D02*
X6553515Y-16138174D01*
X6553515Y-16138174D02*
X6553515Y-16185793D01*
X6553515Y-16185793D02*
X6543991Y-16223888D01*
X6543991Y-16223888D02*
X6534467Y-16242936D01*
X6534467Y-16242936D02*
X6524944Y-16252460D01*
X6524944Y-16252460D02*
X6505896Y-16261984D01*
X6505896Y-16261984D02*
X6486848Y-16261984D01*
X6486848Y-16261984D02*
X6467801Y-16252460D01*
X6467801Y-16252460D02*
X6458277Y-16242936D01*
X6458277Y-16242936D02*
X6448753Y-16223888D01*
X6448753Y-16223888D02*
X6439229Y-16185793D01*
X6439229Y-16185793D02*
X6439229Y-16138174D01*
X6439229Y-16138174D02*
X6448753Y-16100079D01*
X6448753Y-16100079D02*
X6458277Y-16081031D01*
X6458277Y-16081031D02*
X6467801Y-16071508D01*
X6467801Y-16071508D02*
X6486848Y-16061984D01*
X6734467Y-16061984D02*
X6639229Y-16061984D01*
X6639229Y-16061984D02*
X6629706Y-16157222D01*
X6629706Y-16157222D02*
X6639229Y-16147698D01*
X6639229Y-16147698D02*
X6658277Y-16138174D01*
X6658277Y-16138174D02*
X6705896Y-16138174D01*
X6705896Y-16138174D02*
X6724944Y-16147698D01*
X6724944Y-16147698D02*
X6734467Y-16157222D01*
X6734467Y-16157222D02*
X6743991Y-16176269D01*
X6743991Y-16176269D02*
X6743991Y-16223888D01*
X6743991Y-16223888D02*
X6734467Y-16242936D01*
X6734467Y-16242936D02*
X6724944Y-16252460D01*
X6724944Y-16252460D02*
X6705896Y-16261984D01*
X6705896Y-16261984D02*
X6658277Y-16261984D01*
X6658277Y-16261984D02*
X6639229Y-16252460D01*
X6639229Y-16252460D02*
X6629706Y-16242936D01*
X6867801Y-16061984D02*
X6886848Y-16061984D01*
X6886848Y-16061984D02*
X6905896Y-16071508D01*
X6905896Y-16071508D02*
X6915420Y-16081031D01*
X6915420Y-16081031D02*
X6924944Y-16100079D01*
X6924944Y-16100079D02*
X6934467Y-16138174D01*
X6934467Y-16138174D02*
X6934467Y-16185793D01*
X6934467Y-16185793D02*
X6924944Y-16223888D01*
X6924944Y-16223888D02*
X6915420Y-16242936D01*
X6915420Y-16242936D02*
X6905896Y-16252460D01*
X6905896Y-16252460D02*
X6886848Y-16261984D01*
X6886848Y-16261984D02*
X6867801Y-16261984D01*
X6867801Y-16261984D02*
X6848753Y-16252460D01*
X6848753Y-16252460D02*
X6839229Y-16242936D01*
X6839229Y-16242936D02*
X6829706Y-16223888D01*
X6829706Y-16223888D02*
X6820182Y-16185793D01*
X6820182Y-16185793D02*
X6820182Y-16138174D01*
X6820182Y-16138174D02*
X6829706Y-16100079D01*
X6829706Y-16100079D02*
X6839229Y-16081031D01*
X6839229Y-16081031D02*
X6848753Y-16071508D01*
X6848753Y-16071508D02*
X6867801Y-16061984D01*
X7058277Y-16061984D02*
X7077325Y-16061984D01*
X7077325Y-16061984D02*
X7096372Y-16071508D01*
X7096372Y-16071508D02*
X7105896Y-16081031D01*
X7105896Y-16081031D02*
X7115420Y-16100079D01*
X7115420Y-16100079D02*
X7124944Y-16138174D01*
X7124944Y-16138174D02*
X7124944Y-16185793D01*
X7124944Y-16185793D02*
X7115420Y-16223888D01*
X7115420Y-16223888D02*
X7105896Y-16242936D01*
X7105896Y-16242936D02*
X7096372Y-16252460D01*
X7096372Y-16252460D02*
X7077325Y-16261984D01*
X7077325Y-16261984D02*
X7058277Y-16261984D01*
X7058277Y-16261984D02*
X7039229Y-16252460D01*
X7039229Y-16252460D02*
X7029706Y-16242936D01*
X7029706Y-16242936D02*
X7020182Y-16223888D01*
X7020182Y-16223888D02*
X7010658Y-16185793D01*
X7010658Y-16185793D02*
X7010658Y-16138174D01*
X7010658Y-16138174D02*
X7020182Y-16100079D01*
X7020182Y-16100079D02*
X7029706Y-16081031D01*
X7029706Y-16081031D02*
X7039229Y-16071508D01*
X7039229Y-16071508D02*
X7058277Y-16061984D01*
X7201134Y-16061984D02*
X7201134Y-16100079D01*
X7277325Y-16061984D02*
X7277325Y-16100079D01*
X7572563Y-16338174D02*
X7563039Y-16328650D01*
X7563039Y-16328650D02*
X7543991Y-16300079D01*
X7543991Y-16300079D02*
X7534468Y-16281031D01*
X7534468Y-16281031D02*
X7524944Y-16252460D01*
X7524944Y-16252460D02*
X7515420Y-16204841D01*
X7515420Y-16204841D02*
X7515420Y-16166746D01*
X7515420Y-16166746D02*
X7524944Y-16119127D01*
X7524944Y-16119127D02*
X7534468Y-16090555D01*
X7534468Y-16090555D02*
X7543991Y-16071508D01*
X7543991Y-16071508D02*
X7563039Y-16042936D01*
X7563039Y-16042936D02*
X7572563Y-16033412D01*
X7639229Y-16081031D02*
X7648753Y-16071508D01*
X7648753Y-16071508D02*
X7667801Y-16061984D01*
X7667801Y-16061984D02*
X7715420Y-16061984D01*
X7715420Y-16061984D02*
X7734468Y-16071508D01*
X7734468Y-16071508D02*
X7743991Y-16081031D01*
X7743991Y-16081031D02*
X7753515Y-16100079D01*
X7753515Y-16100079D02*
X7753515Y-16119127D01*
X7753515Y-16119127D02*
X7743991Y-16147698D01*
X7743991Y-16147698D02*
X7629706Y-16261984D01*
X7629706Y-16261984D02*
X7753515Y-16261984D01*
X7867801Y-16147698D02*
X7848753Y-16138174D01*
X7848753Y-16138174D02*
X7839229Y-16128650D01*
X7839229Y-16128650D02*
X7829706Y-16109603D01*
X7829706Y-16109603D02*
X7829706Y-16100079D01*
X7829706Y-16100079D02*
X7839229Y-16081031D01*
X7839229Y-16081031D02*
X7848753Y-16071508D01*
X7848753Y-16071508D02*
X7867801Y-16061984D01*
X7867801Y-16061984D02*
X7905896Y-16061984D01*
X7905896Y-16061984D02*
X7924944Y-16071508D01*
X7924944Y-16071508D02*
X7934468Y-16081031D01*
X7934468Y-16081031D02*
X7943991Y-16100079D01*
X7943991Y-16100079D02*
X7943991Y-16109603D01*
X7943991Y-16109603D02*
X7934468Y-16128650D01*
X7934468Y-16128650D02*
X7924944Y-16138174D01*
X7924944Y-16138174D02*
X7905896Y-16147698D01*
X7905896Y-16147698D02*
X7867801Y-16147698D01*
X7867801Y-16147698D02*
X7848753Y-16157222D01*
X7848753Y-16157222D02*
X7839229Y-16166746D01*
X7839229Y-16166746D02*
X7829706Y-16185793D01*
X7829706Y-16185793D02*
X7829706Y-16223888D01*
X7829706Y-16223888D02*
X7839229Y-16242936D01*
X7839229Y-16242936D02*
X7848753Y-16252460D01*
X7848753Y-16252460D02*
X7867801Y-16261984D01*
X7867801Y-16261984D02*
X7905896Y-16261984D01*
X7905896Y-16261984D02*
X7924944Y-16252460D01*
X7924944Y-16252460D02*
X7934468Y-16242936D01*
X7934468Y-16242936D02*
X7943991Y-16223888D01*
X7943991Y-16223888D02*
X7943991Y-16185793D01*
X7943991Y-16185793D02*
X7934468Y-16166746D01*
X7934468Y-16166746D02*
X7924944Y-16157222D01*
X7924944Y-16157222D02*
X7905896Y-16147698D01*
X8182087Y-16261984D02*
X8182087Y-16061984D01*
X8267801Y-16261984D02*
X8267801Y-16157222D01*
X8267801Y-16157222D02*
X8258277Y-16138174D01*
X8258277Y-16138174D02*
X8239230Y-16128650D01*
X8239230Y-16128650D02*
X8210658Y-16128650D01*
X8210658Y-16128650D02*
X8191610Y-16138174D01*
X8191610Y-16138174D02*
X8182087Y-16147698D01*
X8391611Y-16261984D02*
X8372563Y-16252460D01*
X8372563Y-16252460D02*
X8363039Y-16242936D01*
X8363039Y-16242936D02*
X8353515Y-16223888D01*
X8353515Y-16223888D02*
X8353515Y-16166746D01*
X8353515Y-16166746D02*
X8363039Y-16147698D01*
X8363039Y-16147698D02*
X8372563Y-16138174D01*
X8372563Y-16138174D02*
X8391611Y-16128650D01*
X8391611Y-16128650D02*
X8420182Y-16128650D01*
X8420182Y-16128650D02*
X8439230Y-16138174D01*
X8439230Y-16138174D02*
X8448753Y-16147698D01*
X8448753Y-16147698D02*
X8458277Y-16166746D01*
X8458277Y-16166746D02*
X8458277Y-16223888D01*
X8458277Y-16223888D02*
X8448753Y-16242936D01*
X8448753Y-16242936D02*
X8439230Y-16252460D01*
X8439230Y-16252460D02*
X8420182Y-16261984D01*
X8420182Y-16261984D02*
X8391611Y-16261984D01*
X8572563Y-16261984D02*
X8553515Y-16252460D01*
X8553515Y-16252460D02*
X8543992Y-16233412D01*
X8543992Y-16233412D02*
X8543992Y-16061984D01*
X8724944Y-16252460D02*
X8705896Y-16261984D01*
X8705896Y-16261984D02*
X8667801Y-16261984D01*
X8667801Y-16261984D02*
X8648753Y-16252460D01*
X8648753Y-16252460D02*
X8639230Y-16233412D01*
X8639230Y-16233412D02*
X8639230Y-16157222D01*
X8639230Y-16157222D02*
X8648753Y-16138174D01*
X8648753Y-16138174D02*
X8667801Y-16128650D01*
X8667801Y-16128650D02*
X8705896Y-16128650D01*
X8705896Y-16128650D02*
X8724944Y-16138174D01*
X8724944Y-16138174D02*
X8734468Y-16157222D01*
X8734468Y-16157222D02*
X8734468Y-16176269D01*
X8734468Y-16176269D02*
X8639230Y-16195317D01*
X8810658Y-16252460D02*
X8829706Y-16261984D01*
X8829706Y-16261984D02*
X8867801Y-16261984D01*
X8867801Y-16261984D02*
X8886849Y-16252460D01*
X8886849Y-16252460D02*
X8896373Y-16233412D01*
X8896373Y-16233412D02*
X8896373Y-16223888D01*
X8896373Y-16223888D02*
X8886849Y-16204841D01*
X8886849Y-16204841D02*
X8867801Y-16195317D01*
X8867801Y-16195317D02*
X8839230Y-16195317D01*
X8839230Y-16195317D02*
X8820182Y-16185793D01*
X8820182Y-16185793D02*
X8810658Y-16166746D01*
X8810658Y-16166746D02*
X8810658Y-16157222D01*
X8810658Y-16157222D02*
X8820182Y-16138174D01*
X8820182Y-16138174D02*
X8839230Y-16128650D01*
X8839230Y-16128650D02*
X8867801Y-16128650D01*
X8867801Y-16128650D02*
X8886849Y-16138174D01*
X8963039Y-16338174D02*
X8972563Y-16328650D01*
X8972563Y-16328650D02*
X8991611Y-16300079D01*
X8991611Y-16300079D02*
X9001134Y-16281031D01*
X9001134Y-16281031D02*
X9010658Y-16252460D01*
X9010658Y-16252460D02*
X9020182Y-16204841D01*
X9020182Y-16204841D02*
X9020182Y-16166746D01*
X9020182Y-16166746D02*
X9010658Y-16119127D01*
X9010658Y-16119127D02*
X9001134Y-16090555D01*
X9001134Y-16090555D02*
X8991611Y-16071508D01*
X8991611Y-16071508D02*
X8972563Y-16042936D01*
X8972563Y-16042936D02*
X8963039Y-16033412D01*
M02*
