%TF.GenerationSoftware,KiCad,Pcbnew,7.0.5*%
%TF.CreationDate,2023-08-12T18:11:27-04:00*%
%TF.ProjectId,Flatbox-rev5B,466c6174-626f-4782-9d72-657635422e6b,rev?*%
%TF.SameCoordinates,Original*%
%TF.FileFunction,Soldermask,Bot*%
%TF.FilePolarity,Negative*%
%FSLAX46Y46*%
G04 Gerber Fmt 4.6, Leading zero omitted, Abs format (unit mm)*
G04 Created by KiCad (PCBNEW 7.0.5) date 2023-08-12 18:11:27*
%MOMM*%
%LPD*%
G01*
G04 APERTURE LIST*
%ADD10C,1.701800*%
%ADD11C,3.000000*%
%ADD12C,3.429000*%
%ADD13R,2.600000X2.600000*%
%ADD14C,2.032000*%
%ADD15C,6.400000*%
%ADD16C,2.000000*%
%ADD17R,1.000000X1.500000*%
G04 APERTURE END LIST*
D10*
X81820000Y-65170000D03*
D11*
X87320000Y-59220000D03*
D12*
X87320000Y-65170000D03*
D11*
X92320000Y-61420000D03*
D10*
X92820000Y-65170000D03*
D13*
X84045000Y-59220000D03*
D14*
X87320000Y-71070000D03*
X82320000Y-68970000D03*
D13*
X95595000Y-61420000D03*
D10*
X108420000Y-76520000D03*
D11*
X113920000Y-70570000D03*
D12*
X113920000Y-76520000D03*
D11*
X118920000Y-72770000D03*
D10*
X119420000Y-76520000D03*
D13*
X110645000Y-70570000D03*
D14*
X113920000Y-82420000D03*
X108920000Y-80320000D03*
D13*
X122195000Y-72770000D03*
D10*
X125920000Y-129620000D03*
D11*
X131420000Y-123670000D03*
D12*
X131420000Y-129620000D03*
D11*
X136420000Y-125870000D03*
D10*
X136920000Y-129620000D03*
D13*
X128145000Y-123670000D03*
D14*
X131420000Y-135520000D03*
X126420000Y-133420000D03*
D13*
X139695000Y-125870000D03*
D10*
X143360000Y-65110000D03*
D11*
X148860000Y-59160000D03*
D12*
X148860000Y-65110000D03*
D11*
X153860000Y-61360000D03*
D10*
X154360000Y-65110000D03*
D13*
X145585000Y-59160000D03*
D14*
X148860000Y-71010000D03*
X143860000Y-68910000D03*
D13*
X157135000Y-61360000D03*
D10*
X169920000Y-53580000D03*
D11*
X175420000Y-47630000D03*
D12*
X175420000Y-53580000D03*
D11*
X180420000Y-49830000D03*
D10*
X180920000Y-53580000D03*
D13*
X172145000Y-47630000D03*
D14*
X175420000Y-59480000D03*
X170420000Y-57380000D03*
D13*
X183695000Y-49830000D03*
D10*
X198890000Y-53460000D03*
D11*
X204390000Y-47510000D03*
D12*
X204390000Y-53460000D03*
D11*
X209390000Y-49710000D03*
D10*
X209890000Y-53460000D03*
D13*
X201115000Y-47510000D03*
D14*
X204390000Y-59360000D03*
X199390000Y-57260000D03*
D13*
X212665000Y-49710000D03*
D10*
X227860000Y-53700000D03*
D11*
X233360000Y-47750000D03*
D12*
X233360000Y-53700000D03*
D11*
X238360000Y-49950000D03*
D10*
X238860000Y-53700000D03*
D13*
X230085000Y-47750000D03*
D14*
X233360000Y-59600000D03*
X228360000Y-57500000D03*
D13*
X241635000Y-49950000D03*
D10*
X137750000Y-96150000D03*
D11*
X143250000Y-90200000D03*
D12*
X143250000Y-96150000D03*
D11*
X148250000Y-92400000D03*
D10*
X148750000Y-96150000D03*
D13*
X139975000Y-90200000D03*
D14*
X143250000Y-102050000D03*
X138250000Y-99950000D03*
D13*
X151525000Y-92400000D03*
D10*
X164360000Y-85040000D03*
D11*
X169860000Y-79090000D03*
D12*
X169860000Y-85040000D03*
D11*
X174860000Y-81290000D03*
D10*
X175360000Y-85040000D03*
D13*
X166585000Y-79090000D03*
D14*
X169860000Y-90940000D03*
X164860000Y-88840000D03*
D13*
X178135000Y-81290000D03*
D10*
X193210000Y-85040000D03*
D11*
X198710000Y-79090000D03*
D12*
X198710000Y-85040000D03*
D11*
X203710000Y-81290000D03*
D10*
X204210000Y-85040000D03*
D13*
X195435000Y-79090000D03*
D14*
X198710000Y-90940000D03*
X193710000Y-88840000D03*
D13*
X206985000Y-81290000D03*
D10*
X222420000Y-85040000D03*
D11*
X227920000Y-79090000D03*
D12*
X227920000Y-85040000D03*
D11*
X232920000Y-81290000D03*
D10*
X233420000Y-85040000D03*
D13*
X224645000Y-79090000D03*
D14*
X227920000Y-90940000D03*
X222920000Y-88840000D03*
D13*
X236195000Y-81290000D03*
D15*
X47000000Y-37000000D03*
X47000000Y-143000000D03*
X243000000Y-143000000D03*
X243000000Y-37000000D03*
D10*
X52725000Y-65050000D03*
D11*
X58225000Y-59100000D03*
D12*
X58225000Y-65050000D03*
D11*
X63225000Y-61300000D03*
D10*
X63725000Y-65050000D03*
D13*
X54950000Y-59100000D03*
D14*
X58225000Y-70950000D03*
X53225000Y-68850000D03*
D13*
X66500000Y-61300000D03*
D15*
X150000000Y-37000000D03*
D16*
X88500000Y-43000000D03*
X88500000Y-36500000D03*
X93000000Y-43000000D03*
X93000000Y-36500000D03*
X65500000Y-43000000D03*
X65500000Y-36500000D03*
X70000000Y-43000000D03*
X70000000Y-36500000D03*
X98500000Y-43000000D03*
X98500000Y-36500000D03*
X103000000Y-43000000D03*
X103000000Y-36500000D03*
D10*
X158584000Y-116332000D03*
D11*
X164084000Y-110382000D03*
D12*
X164084000Y-116332000D03*
D11*
X169084000Y-112582000D03*
D10*
X169584000Y-116332000D03*
D13*
X160809000Y-110382000D03*
D14*
X164084000Y-122232000D03*
X159084000Y-120132000D03*
D13*
X172359000Y-112582000D03*
D10*
X188718111Y-116586000D03*
D11*
X194218111Y-110636000D03*
D12*
X194218111Y-116586000D03*
D11*
X199218111Y-112836000D03*
D10*
X199718111Y-116586000D03*
D13*
X190943111Y-110636000D03*
D14*
X194218111Y-122486000D03*
X189218111Y-120386000D03*
D13*
X202493111Y-112836000D03*
D16*
X108500000Y-43000000D03*
X108500000Y-36500000D03*
X113000000Y-43000000D03*
X113000000Y-36500000D03*
D15*
X133500000Y-78000000D03*
X150000000Y-143000000D03*
D16*
X75500000Y-43000000D03*
X75500000Y-36500000D03*
X80000000Y-43000000D03*
X80000000Y-36500000D03*
X55500000Y-43000000D03*
X55500000Y-36500000D03*
X60000000Y-43000000D03*
X60000000Y-36500000D03*
D17*
X153434000Y-120132000D03*
X154734000Y-120132000D03*
X58420000Y-39624000D03*
X57120000Y-39624000D03*
X183568111Y-120386000D03*
X184868111Y-120386000D03*
X78420000Y-39624000D03*
X77120000Y-39624000D03*
M02*
